<?xml version="1.0" encoding="UTF-8" standalone="no"?><svg xmlns="http://www.w3.org/2000/svg" xmlns:xlink="http://www.w3.org/1999/xlink" contentStyleType="text/css" height="1331px" preserveAspectRatio="none" style="width:2238px;height:1331px;background:#FFFFFF;" version="1.1" viewBox="0 0 2238 1331" width="2238px" zoomAndPan="magnify"><defs/><g><!--MD5=[d3d7cbe0cb8194fabf62f4773414cf9d]
class default--><g id="elem_default"><rect codeLine="154" fill="#F1F1F1" height="846.5469" id="default" rx="2.5" ry="2.5" style="stroke:#181818;stroke-width:0.5;" width="893" x="1338.5" y="180"/><ellipse cx="1755.25" cy="196" fill="#ADD1B2" rx="11" ry="11" style="stroke:#181818;stroke-width:1.0;"/><path d="M1757.5938,191.6719 C1756.6563,191.2344 1756.0625,191.0938 1755.1875,191.0938 C1752.5625,191.0938 1750.5625,193.1719 1750.5625,195.8906 L1750.5625,197.0156 C1750.5625,199.5938 1752.6719,201.4844 1755.5625,201.4844 C1756.7813,201.4844 1757.9375,201.1875 1758.6875,200.6406 C1759.2656,200.2344 1759.5938,199.7813 1759.5938,199.3906 C1759.5938,198.9375 1759.2031,198.5469 1758.7344,198.5469 C1758.5156,198.5469 1758.3125,198.625 1758.125,198.8125 C1757.6719,199.2969 1757.6719,199.2969 1757.4844,199.3906 C1757.0625,199.6563 1756.375,199.7813 1755.6094,199.7813 C1753.5625,199.7813 1752.2656,198.6875 1752.2656,196.9844 L1752.2656,195.8906 C1752.2656,194.1094 1753.5156,192.7969 1755.25,192.7969 C1755.8281,192.7969 1756.4375,192.9531 1756.9063,193.2031 C1757.3906,193.4844 1757.5625,193.7031 1757.6563,194.1094 C1757.7188,194.5156 1757.75,194.6406 1757.8906,194.7656 C1758.0313,194.9063 1758.2656,195.0156 1758.4844,195.0156 C1758.75,195.0156 1759.0156,194.875 1759.1875,194.6563 C1759.2969,194.5 1759.3281,194.3125 1759.3281,193.8906 L1759.3281,192.4688 C1759.3281,192.0313 1759.3125,191.9063 1759.2188,191.75 C1759.0625,191.4844 1758.7813,191.3438 1758.4844,191.3438 C1758.1875,191.3438 1757.9844,191.4375 1757.7656,191.75 L1757.5938,191.6719 Z " fill="#000000"/><text fill="#000000" font-family="sans-serif" font-size="14" lengthAdjust="spacing" textLength="51" x="1775.75" y="200.8467">default</text><line style="stroke:#181818;stroke-width:0.5;" x1="1339.5" x2="2230.5" y1="212" y2="212"/><ellipse cx="1349.5" cy="223" fill="none" rx="3" ry="3" style="stroke:#038048;stroke-width:1.0;"/><text fill="#000000" font-family="sans-serif" font-size="14" lengthAdjust="spacing" textLength="81" x="1358.5" y="228.9951">user: string</text><ellipse cx="1349.5" cy="239.2969" fill="none" rx="3" ry="3" style="stroke:#038048;stroke-width:1.0;"/><text fill="#000000" font-family="sans-serif" font-size="14" lengthAdjust="spacing" textLength="118" x="1358.5" y="245.292">password: string</text><ellipse cx="1349.5" cy="255.5938" fill="none" rx="3" ry="3" style="stroke:#038048;stroke-width:1.0;"/><text fill="#000000" font-family="sans-serif" font-size="14" lengthAdjust="spacing" textLength="247" x="1358.5" y="261.5889">name: { first: string; last: string; }</text><ellipse cx="1349.5" cy="271.8906" fill="none" rx="3" ry="3" style="stroke:#038048;stroke-width:1.0;"/><text fill="#000000" font-family="sans-serif" font-size="14" lengthAdjust="spacing" textLength="90" x="1358.5" y="277.8857">email: string</text><ellipse cx="1349.5" cy="288.1875" fill="none" rx="3" ry="3" style="stroke:#038048;stroke-width:1.0;"/><text fill="#000000" font-family="sans-serif" font-size="14" lengthAdjust="spacing" textLength="118" x="1358.5" y="294.1826">password: string</text><rect fill="none" height="6" style="stroke:#C82930;stroke-width:1.0;" width="6" x="1346.5" y="301.4844"/><text fill="#000000" font-family="sans-serif" font-size="14" lengthAdjust="spacing" textLength="244" x="1358.5" y="310.4795">syncInterval?: number | undefined</text><rect fill="none" height="6" style="stroke:#C82930;stroke-width:1.0;" width="6" x="1346.5" y="317.7813"/><text fill="#000000" font-family="sans-serif" font-size="14" lengthAdjust="spacing" textLength="336" x="1358.5" y="326.7764">tabs: { label: string; element: JSX.Element; }[]</text><line style="stroke:#181818;stroke-width:0.5;" x1="1339.5" x2="2230.5" y1="334.0781" y2="334.0781"/><ellipse cx="1349.5" cy="345.0781" fill="#84BE84" rx="3" ry="3" style="stroke:#038048;stroke-width:1.0;"/><text fill="#000000" font-family="sans-serif" font-size="14" lengthAdjust="spacing" text-decoration="underline" textLength="341" x="1358.5" y="351.0732">signup(form: SignUpModel): Promise&lt;boolean&gt;</text><ellipse cx="1349.5" cy="361.375" fill="#84BE84" rx="3" ry="3" style="stroke:#038048;stroke-width:1.0;"/><text fill="#000000" font-family="sans-serif" font-size="14" lengthAdjust="spacing" text-decoration="underline" textLength="318" x="1358.5" y="367.3701">login(form: LoginModel): Promise&lt;boolean&gt;</text><ellipse cx="1349.5" cy="377.6719" fill="#84BE84" rx="3" ry="3" style="stroke:#038048;stroke-width:1.0;"/><text fill="#000000" font-family="sans-serif" font-size="14" lengthAdjust="spacing" text-decoration="underline" textLength="133" x="1358.5" y="383.667">hasCert(): boolean</text><ellipse cx="1349.5" cy="393.9688" fill="#84BE84" rx="3" ry="3" style="stroke:#038048;stroke-width:1.0;"/><text fill="#000000" font-family="sans-serif" font-size="14" lengthAdjust="spacing" text-decoration="underline" textLength="328" x="1358.5" y="399.9639">authenticateCertificate(): Promise&lt;boolean&gt;</text><ellipse cx="1349.5" cy="410.2656" fill="#84BE84" rx="3" ry="3" style="stroke:#038048;stroke-width:1.0;"/><text fill="#000000" font-family="sans-serif" font-size="14" lengthAdjust="spacing" textLength="156" x="1358.5" y="416.2607">render(): JSX.Element</text><ellipse cx="1349.5" cy="426.5625" fill="#84BE84" rx="3" ry="3" style="stroke:#038048;stroke-width:1.0;"/><text fill="#000000" font-family="sans-serif" font-size="14" lengthAdjust="spacing" text-decoration="underline" textLength="385" x="1358.5" y="432.5576">createGame(): Promise&lt;IGameCreatedAPIResponse&gt;</text><ellipse cx="1349.5" cy="442.8594" fill="#84BE84" rx="3" ry="3" style="stroke:#038048;stroke-width:1.0;"/><text fill="#000000" font-family="sans-serif" font-size="14" lengthAdjust="spacing" text-decoration="underline" textLength="388" x="1358.5" y="448.8545">joinGame(gameKey: string[]): Promise&lt;APIResponse&gt;</text><ellipse cx="1349.5" cy="459.1563" fill="#84BE84" rx="3" ry="3" style="stroke:#038048;stroke-width:1.0;"/><text fill="#000000" font-family="sans-serif" font-size="14" lengthAdjust="spacing" text-decoration="underline" textLength="449" x="1358.5" y="465.1514">move(source: Square, target: Square): Promise&lt;APIResponse&gt;</text><ellipse cx="1349.5" cy="475.4531" fill="#84BE84" rx="3" ry="3" style="stroke:#038048;stroke-width:1.0;"/><text fill="#000000" font-family="sans-serif" font-size="14" lengthAdjust="spacing" text-decoration="underline" textLength="309" x="1358.5" y="481.4482">getMessages(): Promise&lt;IGameMessage[]&gt;</text><ellipse cx="1349.5" cy="491.75" fill="#84BE84" rx="3" ry="3" style="stroke:#038048;stroke-width:1.0;"/><text fill="#000000" font-family="sans-serif" font-size="14" lengthAdjust="spacing" text-decoration="underline" textLength="193" x="1358.5" y="497.7451">getFEN(): Promise&lt;string&gt;</text><ellipse cx="1349.5" cy="508.0469" fill="#84BE84" rx="3" ry="3" style="stroke:#038048;stroke-width:1.0;"/><text fill="#000000" font-family="sans-serif" font-size="14" lengthAdjust="spacing" text-decoration="underline" textLength="256" x="1358.5" y="514.042">render(element: JSX.Element): void</text><ellipse cx="1349.5" cy="524.3438" fill="#84BE84" rx="3" ry="3" style="stroke:#038048;stroke-width:1.0;"/><text fill="#000000" font-family="sans-serif" font-size="14" lengthAdjust="spacing" textLength="202" x="1358.5" y="530.3389">componentDidMount(): void</text><ellipse cx="1349.5" cy="540.6406" fill="#84BE84" rx="3" ry="3" style="stroke:#038048;stroke-width:1.0;"/><text fill="#000000" font-family="sans-serif" font-size="14" lengthAdjust="spacing" textLength="156" x="1358.5" y="546.6357">render(): JSX.Element</text><ellipse cx="1349.5" cy="556.9375" fill="#84BE84" rx="3" ry="3" style="stroke:#038048;stroke-width:1.0;"/><text fill="#000000" font-family="sans-serif" font-size="14" lengthAdjust="spacing" textLength="149" x="1358.5" y="562.9326">syncMessages(): void</text><ellipse cx="1349.5" cy="573.2344" fill="#84BE84" rx="3" ry="3" style="stroke:#038048;stroke-width:1.0;"/><text fill="#000000" font-family="sans-serif" font-size="14" lengthAdjust="spacing" textLength="123" x="1358.5" y="579.2295">syncBoard(): void</text><ellipse cx="1349.5" cy="589.5313" fill="#84BE84" rx="3" ry="3" style="stroke:#038048;stroke-width:1.0;"/><text fill="#000000" font-family="sans-serif" font-size="14" lengthAdjust="spacing" textLength="158" x="1358.5" y="595.5264">beginAutoSync(): void</text><ellipse cx="1349.5" cy="605.8281" fill="#84BE84" rx="3" ry="3" style="stroke:#038048;stroke-width:1.0;"/><text fill="#000000" font-family="sans-serif" font-size="14" lengthAdjust="spacing" textLength="150" x="1358.5" y="611.8232">stopAutoSync(): void</text><ellipse cx="1349.5" cy="622.125" fill="#84BE84" rx="3" ry="3" style="stroke:#038048;stroke-width:1.0;"/><text fill="#000000" font-family="sans-serif" font-size="14" lengthAdjust="spacing" textLength="156" x="1358.5" y="628.1201">render(): JSX.Element</text><rect fill="#F24D5C" height="6" style="stroke:#C82930;stroke-width:1.0;" width="6" x="1346.5" y="635.4219"/><text fill="#000000" font-family="sans-serif" font-size="14" lengthAdjust="spacing" textLength="339" x="1358.5" y="644.417">tryMove(source: string, target: string): boolean</text><ellipse cx="1349.5" cy="654.7188" fill="#84BE84" rx="3" ry="3" style="stroke:#038048;stroke-width:1.0;"/><text fill="#000000" font-family="sans-serif" font-size="14" lengthAdjust="spacing" textLength="156" x="1358.5" y="660.7139">render(): JSX.Element</text><ellipse cx="1349.5" cy="671.0156" fill="#84BE84" rx="3" ry="3" style="stroke:#038048;stroke-width:1.0;"/><text fill="#000000" font-family="sans-serif" font-size="14" lengthAdjust="spacing" textLength="156" x="1358.5" y="677.0107">render(): JSX.Element</text><ellipse cx="1349.5" cy="687.3125" fill="#84BE84" rx="3" ry="3" style="stroke:#038048;stroke-width:1.0;"/><text fill="#000000" font-family="sans-serif" font-size="14" lengthAdjust="spacing" textLength="156" x="1358.5" y="693.3076">render(): JSX.Element</text><ellipse cx="1349.5" cy="703.6094" fill="#84BE84" rx="3" ry="3" style="stroke:#038048;stroke-width:1.0;"/><text fill="#000000" font-family="sans-serif" font-size="14" lengthAdjust="spacing" text-decoration="underline" textLength="138" x="1358.5" y="709.6045">createGame(): void</text><ellipse cx="1349.5" cy="719.9063" fill="#84BE84" rx="3" ry="3" style="stroke:#038048;stroke-width:1.0;"/><text fill="#000000" font-family="sans-serif" font-size="14" lengthAdjust="spacing" text-decoration="underline" textLength="291" x="1358.5" y="725.9014">emojiNameToEmoji(name: string): string</text><ellipse cx="1349.5" cy="736.2031" fill="#84BE84" rx="3" ry="3" style="stroke:#038048;stroke-width:1.0;"/><text fill="#000000" font-family="sans-serif" font-size="14" lengthAdjust="spacing" text-decoration="underline" textLength="353" x="1358.5" y="742.1982">emojiNameListToEmoji(nameList: string[]): string</text><ellipse cx="1349.5" cy="752.5" fill="#84BE84" rx="3" ry="3" style="stroke:#038048;stroke-width:1.0;"/><text fill="#000000" font-family="sans-serif" font-size="14" lengthAdjust="spacing" textLength="156" x="1358.5" y="758.4951">render(): JSX.Element</text><ellipse cx="1349.5" cy="768.7969" fill="#84BE84" rx="3" ry="3" style="stroke:#038048;stroke-width:1.0;"/><text fill="#000000" font-family="sans-serif" font-size="14" lengthAdjust="spacing" textLength="156" x="1358.5" y="774.792">render(): JSX.Element</text><ellipse cx="1349.5" cy="785.0938" fill="#84BE84" rx="3" ry="3" style="stroke:#038048;stroke-width:1.0;"/><text fill="#000000" font-family="sans-serif" font-size="14" lengthAdjust="spacing" text-decoration="underline" textLength="176" x="1358.5" y="791.0889">displayHowToPlay(): void</text><ellipse cx="1349.5" cy="801.3906" fill="#84BE84" rx="3" ry="3" style="stroke:#038048;stroke-width:1.0;"/><text fill="#000000" font-family="sans-serif" font-size="14" lengthAdjust="spacing" textLength="156" x="1358.5" y="807.3857">render(): JSX.Element</text><ellipse cx="1349.5" cy="817.6875" fill="#84BE84" rx="3" ry="3" style="stroke:#038048;stroke-width:1.0;"/><text fill="#000000" font-family="sans-serif" font-size="14" lengthAdjust="spacing" textLength="502" x="1358.5" y="823.6826">whenUpdated(event: React.ChangeEvent&lt;HTMLInputElement&gt;): void</text><ellipse cx="1349.5" cy="833.9844" fill="#84BE84" rx="3" ry="3" style="stroke:#038048;stroke-width:1.0;"/><text fill="#000000" font-family="sans-serif" font-size="14" font-style="italic" lengthAdjust="spacing" textLength="134" x="1358.5" y="839.9795">validate(): boolean</text><ellipse cx="1349.5" cy="850.2813" fill="#84BE84" rx="3" ry="3" style="stroke:#038048;stroke-width:1.0;"/><text fill="#000000" font-family="sans-serif" font-size="14" lengthAdjust="spacing" textLength="202" x="1358.5" y="856.2764">componentDidMount(): void</text><ellipse cx="1349.5" cy="866.5781" fill="#84BE84" rx="3" ry="3" style="stroke:#038048;stroke-width:1.0;"/><text fill="#000000" font-family="sans-serif" font-size="14" lengthAdjust="spacing" textLength="134" x="1358.5" y="872.5732">validate(): boolean</text><rect fill="#F24D5C" height="6" style="stroke:#C82930;stroke-width:1.0;" width="6" x="1346.5" y="879.875"/><text fill="#000000" font-family="sans-serif" font-size="14" lengthAdjust="spacing" text-decoration="underline" textLength="867" x="1358.5" y="888.8701">allowedChars: "ABCDEFGHIJKLMNOPQRSTUVWXYZabcdefghijklmnopqrstuvwxyz1234567890!@#$%^&amp;*()&lt;&gt;?;:'[]{}-=_+|"</text><ellipse cx="1349.5" cy="899.1719" fill="#84BE84" rx="3" ry="3" style="stroke:#038048;stroke-width:1.0;"/><text fill="#000000" font-family="sans-serif" font-size="14" lengthAdjust="spacing" textLength="134" x="1358.5" y="905.167">validate(): boolean</text><ellipse cx="1349.5" cy="915.4688" fill="#84BE84" rx="3" ry="3" style="stroke:#038048;stroke-width:1.0;"/><text fill="#000000" font-family="sans-serif" font-size="14" lengthAdjust="spacing" textLength="156" x="1358.5" y="921.4639">render(): JSX.Element</text><ellipse cx="1349.5" cy="931.7656" fill="#84BE84" rx="3" ry="3" style="stroke:#038048;stroke-width:1.0;"/><text fill="#000000" font-family="sans-serif" font-size="14" lengthAdjust="spacing" textLength="134" x="1358.5" y="937.7607">validate(): boolean</text><ellipse cx="1349.5" cy="948.0625" fill="#84BE84" rx="3" ry="3" style="stroke:#038048;stroke-width:1.0;"/><text fill="#000000" font-family="sans-serif" font-size="14" lengthAdjust="spacing" textLength="134" x="1358.5" y="954.0576">validate(): boolean</text><ellipse cx="1349.5" cy="964.3594" fill="#84BE84" rx="3" ry="3" style="stroke:#038048;stroke-width:1.0;"/><text fill="#000000" font-family="sans-serif" font-size="14" lengthAdjust="spacing" textLength="208" x="1358.5" y="970.3545">getFormData(): SignUpModel</text><ellipse cx="1349.5" cy="980.6563" fill="#84BE84" rx="3" ry="3" style="stroke:#038048;stroke-width:1.0;"/><text fill="#000000" font-family="sans-serif" font-size="14" lengthAdjust="spacing" textLength="156" x="1358.5" y="986.6514">render(): JSX.Element</text><ellipse cx="1349.5" cy="996.9531" fill="#84BE84" rx="3" ry="3" style="stroke:#038048;stroke-width:1.0;"/><text fill="#000000" font-family="sans-serif" font-size="14" lengthAdjust="spacing" textLength="156" x="1358.5" y="1002.9482">render(): JSX.Element</text><ellipse cx="1349.5" cy="1013.25" fill="#84BE84" rx="3" ry="3" style="stroke:#038048;stroke-width:1.0;"/><text fill="#000000" font-family="sans-serif" font-size="14" lengthAdjust="spacing" textLength="156" x="1358.5" y="1019.2451">render(): JSX.Element</text></g><!--MD5=[a15ad7516c70d4b9b7daf1dcd556bf55]
class ButtonComponentProps--><g id="elem_ButtonComponentProps"><rect codeLine="16" fill="#F1F1F1" height="113.1875" id="ButtonComponentProps" rx="2.5" ry="2.5" style="stroke:#181818;stroke-width:0.5;" width="244" x="7" y="7"/><ellipse cx="41.35" cy="23" fill="#B4A7E5" rx="11" ry="11" style="stroke:#181818;stroke-width:1.0;"/><path d="M42.3031,19.7813 L44.0219,19.7813 C44.4125,19.7813 44.6,19.75 44.725,19.6719 C44.9906,19.5156 45.1313,19.2344 45.1313,18.9375 C45.1313,18.6719 45.0219,18.4063 44.7875,18.2344 C44.6156,18.125 44.475,18.0938 44.0219,18.0938 L38.8813,18.0938 C38.4438,18.0938 38.3188,18.1094 38.1625,18.2031 C37.9125,18.3594 37.7563,18.6563 37.7563,18.9375 C37.7563,19.2188 37.8969,19.4688 38.1156,19.6406 C38.2719,19.75 38.4594,19.7813 38.8813,19.7813 L40.6,19.7813 L40.6,26.2969 L38.8813,26.2969 C38.4438,26.2969 38.3188,26.3125 38.1625,26.4219 C37.9125,26.5781 37.7563,26.8594 37.7563,27.1563 C37.7563,27.4063 37.8969,27.6719 38.1156,27.8281 C38.2719,27.9531 38.475,28 38.8813,28 L44.0219,28 C44.7719,28 45.1313,27.7188 45.1313,27.1563 C45.1313,26.875 45.0219,26.625 44.7875,26.4531 C44.6156,26.3281 44.475,26.2969 44.0219,26.2969 L42.3031,26.2969 L42.3031,19.7813 Z " fill="#000000"/><text fill="#000000" font-family="sans-serif" font-size="14" font-style="italic" lengthAdjust="spacing" textLength="169" x="59.65" y="27.8467">ButtonComponentProps</text><line style="stroke:#181818;stroke-width:0.5;" x1="8" x2="250" y1="39" y2="39"/><ellipse cx="18" cy="50" fill="none" rx="3" ry="3" style="stroke:#038048;stroke-width:1.0;"/><text fill="#000000" font-family="sans-serif" font-size="14" lengthAdjust="spacing" textLength="188" x="27" y="55.9951">label: string | JSX.Element</text><ellipse cx="18" cy="66.2969" fill="none" rx="3" ry="3" style="stroke:#038048;stroke-width:1.0;"/><text fill="#000000" font-family="sans-serif" font-size="14" lengthAdjust="spacing" textLength="218" x="27" y="72.292">className?: string | undefined</text><ellipse cx="18" cy="82.5938" fill="none" rx="3" ry="3" style="stroke:#038048;stroke-width:1.0;"/><text fill="#000000" font-family="sans-serif" font-size="14" lengthAdjust="spacing" textLength="183" x="27" y="88.5889">width?: string | undefined</text><line style="stroke:#181818;stroke-width:0.5;" x1="8" x2="250" y1="95.8906" y2="95.8906"/><ellipse cx="18" cy="106.8906" fill="#84BE84" rx="3" ry="3" style="stroke:#038048;stroke-width:1.0;"/><text fill="#000000" font-family="sans-serif" font-size="14" lengthAdjust="spacing" textLength="132" x="27" y="112.8857">onClick: () =&gt; void</text></g><!--MD5=[4ab6e587f8e91f821f17c334c3073b69]
class EmojiKeyboardState--><g id="elem_EmojiKeyboardState"><rect codeLine="51" fill="#F1F1F1" height="64.2969" id="EmojiKeyboardState" rx="2.5" ry="2.5" style="stroke:#181818;stroke-width:0.5;" width="262" x="286" y="31.5"/><ellipse cx="340.25" cy="47.5" fill="#B4A7E5" rx="11" ry="11" style="stroke:#181818;stroke-width:1.0;"/><path d="M341.2031,44.2813 L342.9219,44.2813 C343.3125,44.2813 343.5,44.25 343.625,44.1719 C343.8906,44.0156 344.0313,43.7344 344.0313,43.4375 C344.0313,43.1719 343.9219,42.9063 343.6875,42.7344 C343.5156,42.625 343.375,42.5938 342.9219,42.5938 L337.7813,42.5938 C337.3438,42.5938 337.2188,42.6094 337.0625,42.7031 C336.8125,42.8594 336.6563,43.1563 336.6563,43.4375 C336.6563,43.7188 336.7969,43.9688 337.0156,44.1406 C337.1719,44.25 337.3594,44.2813 337.7813,44.2813 L339.5,44.2813 L339.5,50.7969 L337.7813,50.7969 C337.3438,50.7969 337.2188,50.8125 337.0625,50.9219 C336.8125,51.0781 336.6563,51.3594 336.6563,51.6563 C336.6563,51.9063 336.7969,52.1719 337.0156,52.3281 C337.1719,52.4531 337.375,52.5 337.7813,52.5 L342.9219,52.5 C343.6719,52.5 344.0313,52.2188 344.0313,51.6563 C344.0313,51.375 343.9219,51.125 343.6875,50.9531 C343.5156,50.8281 343.375,50.7969 342.9219,50.7969 L341.2031,50.7969 L341.2031,44.2813 Z " fill="#000000"/><text fill="#000000" font-family="sans-serif" font-size="14" font-style="italic" lengthAdjust="spacing" textLength="145" x="360.75" y="52.3467">EmojiKeyboardState</text><line style="stroke:#181818;stroke-width:0.5;" x1="287" x2="547" y1="63.5" y2="63.5"/><ellipse cx="297" cy="74.5" fill="none" rx="3" ry="3" style="stroke:#038048;stroke-width:1.0;"/><text fill="#000000" font-family="sans-serif" font-size="14" lengthAdjust="spacing" textLength="236" x="306" y="80.4951">value: EmojiSerializationRecord[]</text><line style="stroke:#181818;stroke-width:0.5;" x1="287" x2="547" y1="87.7969" y2="87.7969"/></g><!--MD5=[6e9d65db7df47fdde9af52a9548ea5a6]
class EmojiKeyboardProps--><g id="elem_EmojiKeyboardProps"><rect codeLine="54" fill="#F1F1F1" height="64.2969" id="EmojiKeyboardProps" rx="2.5" ry="2.5" style="stroke:#181818;stroke-width:0.5;" width="515" x="583.5" y="31.5"/><ellipse cx="763.25" cy="47.5" fill="#B4A7E5" rx="11" ry="11" style="stroke:#181818;stroke-width:1.0;"/><path d="M764.2031,44.2813 L765.9219,44.2813 C766.3125,44.2813 766.5,44.25 766.625,44.1719 C766.8906,44.0156 767.0313,43.7344 767.0313,43.4375 C767.0313,43.1719 766.9219,42.9063 766.6875,42.7344 C766.5156,42.625 766.375,42.5938 765.9219,42.5938 L760.7813,42.5938 C760.3438,42.5938 760.2188,42.6094 760.0625,42.7031 C759.8125,42.8594 759.6563,43.1563 759.6563,43.4375 C759.6563,43.7188 759.7969,43.9688 760.0156,44.1406 C760.1719,44.25 760.3594,44.2813 760.7813,44.2813 L762.5,44.2813 L762.5,50.7969 L760.7813,50.7969 C760.3438,50.7969 760.2188,50.8125 760.0625,50.9219 C759.8125,51.0781 759.6563,51.3594 759.6563,51.6563 C759.6563,51.9063 759.7969,52.1719 760.0156,52.3281 C760.1719,52.4531 760.375,52.5 760.7813,52.5 L765.9219,52.5 C766.6719,52.5 767.0313,52.2188 767.0313,51.6563 C767.0313,51.375 766.9219,51.125 766.6875,50.9531 C766.5156,50.8281 766.375,50.7969 765.9219,50.7969 L764.2031,50.7969 L764.2031,44.2813 Z " fill="#000000"/><text fill="#000000" font-family="sans-serif" font-size="14" font-style="italic" lengthAdjust="spacing" textLength="147" x="783.75" y="52.3467">EmojiKeyboardProps</text><line style="stroke:#181818;stroke-width:0.5;" x1="584.5" x2="1097.5" y1="63.5" y2="63.5"/><line style="stroke:#181818;stroke-width:0.5;" x1="584.5" x2="1097.5" y1="71.5" y2="71.5"/><ellipse cx="594.5" cy="82.5" fill="#84BE84" rx="3" ry="3" style="stroke:#038048;stroke-width:1.0;"/><text fill="#000000" font-family="sans-serif" font-size="14" lengthAdjust="spacing" textLength="489" x="603.5" y="88.4951">onChange?: ((value: EmojiSerializationRecord[]) =&gt; void) | undefined</text></g><!--MD5=[e085942d11bea0b20b98622396c5c512]
class BoardScreenProps--><g id="elem_BoardScreenProps"><rect codeLine="66" fill="#F1F1F1" height="80.5938" id="BoardScreenProps" rx="2.5" ry="2.5" style="stroke:#181818;stroke-width:0.5;" width="164" x="1134" y="23"/><ellipse cx="1149" cy="39" fill="#B4A7E5" rx="11" ry="11" style="stroke:#181818;stroke-width:1.0;"/><path d="M1149.9531,35.7813 L1151.6719,35.7813 C1152.0625,35.7813 1152.25,35.75 1152.375,35.6719 C1152.6406,35.5156 1152.7813,35.2344 1152.7813,34.9375 C1152.7813,34.6719 1152.6719,34.4063 1152.4375,34.2344 C1152.2656,34.125 1152.125,34.0938 1151.6719,34.0938 L1146.5313,34.0938 C1146.0938,34.0938 1145.9688,34.1094 1145.8125,34.2031 C1145.5625,34.3594 1145.4063,34.6563 1145.4063,34.9375 C1145.4063,35.2188 1145.5469,35.4688 1145.7656,35.6406 C1145.9219,35.75 1146.1094,35.7813 1146.5313,35.7813 L1148.25,35.7813 L1148.25,42.2969 L1146.5313,42.2969 C1146.0938,42.2969 1145.9688,42.3125 1145.8125,42.4219 C1145.5625,42.5781 1145.4063,42.8594 1145.4063,43.1563 C1145.4063,43.4063 1145.5469,43.6719 1145.7656,43.8281 C1145.9219,43.9531 1146.125,44 1146.5313,44 L1151.6719,44 C1152.4219,44 1152.7813,43.7188 1152.7813,43.1563 C1152.7813,42.875 1152.6719,42.625 1152.4375,42.4531 C1152.2656,42.3281 1152.125,42.2969 1151.6719,42.2969 L1149.9531,42.2969 L1149.9531,35.7813 Z " fill="#000000"/><text fill="#000000" font-family="sans-serif" font-size="14" font-style="italic" lengthAdjust="spacing" textLength="132" x="1163" y="43.8467">BoardScreenProps</text><line style="stroke:#181818;stroke-width:0.5;" x1="1135" x2="1297" y1="55" y2="55"/><ellipse cx="1145" cy="66" fill="none" rx="3" ry="3" style="stroke:#038048;stroke-width:1.0;"/><text fill="#000000" font-family="sans-serif" font-size="14" lengthAdjust="spacing" textLength="92" x="1154" y="71.9951">mode: string</text><ellipse cx="1145" cy="82.2969" fill="none" rx="3" ry="3" style="stroke:#038048;stroke-width:1.0;"/><text fill="#000000" font-family="sans-serif" font-size="14" lengthAdjust="spacing" textLength="121" x="1154" y="88.292">username: string</text><line style="stroke:#181818;stroke-width:0.5;" x1="1135" x2="1297" y1="95.5938" y2="95.5938"/></g><!--MD5=[536abb8badabbc6a32c02635f6ab4edf]
class BoardScreenState--><g id="elem_BoardScreenState"><rect codeLine="70" fill="#F1F1F1" height="80.5938" id="BoardScreenState" rx="2.5" ry="2.5" style="stroke:#181818;stroke-width:0.5;" width="162" x="48" y="563"/><ellipse cx="63" cy="579" fill="#B4A7E5" rx="11" ry="11" style="stroke:#181818;stroke-width:1.0;"/><path d="M63.9531,575.7813 L65.6719,575.7813 C66.0625,575.7813 66.25,575.75 66.375,575.6719 C66.6406,575.5156 66.7813,575.2344 66.7813,574.9375 C66.7813,574.6719 66.6719,574.4063 66.4375,574.2344 C66.2656,574.125 66.125,574.0938 65.6719,574.0938 L60.5313,574.0938 C60.0938,574.0938 59.9688,574.1094 59.8125,574.2031 C59.5625,574.3594 59.4063,574.6563 59.4063,574.9375 C59.4063,575.2188 59.5469,575.4688 59.7656,575.6406 C59.9219,575.75 60.1094,575.7813 60.5313,575.7813 L62.25,575.7813 L62.25,582.2969 L60.5313,582.2969 C60.0938,582.2969 59.9688,582.3125 59.8125,582.4219 C59.5625,582.5781 59.4063,582.8594 59.4063,583.1563 C59.4063,583.4063 59.5469,583.6719 59.7656,583.8281 C59.9219,583.9531 60.125,584 60.5313,584 L65.6719,584 C66.4219,584 66.7813,583.7188 66.7813,583.1563 C66.7813,582.875 66.6719,582.625 66.4375,582.4531 C66.2656,582.3281 66.125,582.2969 65.6719,582.2969 L63.9531,582.2969 L63.9531,575.7813 Z " fill="#000000"/><text fill="#000000" font-family="sans-serif" font-size="14" font-style="italic" lengthAdjust="spacing" textLength="130" x="77" y="583.8467">BoardScreenState</text><line style="stroke:#181818;stroke-width:0.5;" x1="49" x2="209" y1="595" y2="595"/><ellipse cx="59" cy="606" fill="none" rx="3" ry="3" style="stroke:#038048;stroke-width:1.0;"/><text fill="#000000" font-family="sans-serif" font-size="14" lengthAdjust="spacing" textLength="92" x="68" y="611.9951">mode: string</text><ellipse cx="59" cy="622.2969" fill="none" rx="3" ry="3" style="stroke:#038048;stroke-width:1.0;"/><text fill="#000000" font-family="sans-serif" font-size="14" lengthAdjust="spacing" textLength="121" x="68" y="628.292">username: string</text><line style="stroke:#181818;stroke-width:0.5;" x1="49" x2="209" y1="635.5938" y2="635.5938"/></g><!--MD5=[b8cfd8c4119a3b0a7a46bfc5fc780f85]
class Error--><g id="elem_Error"><rect fill="#F1F1F1" height="48" id="Error" rx="2.5" ry="2.5" style="stroke:#181818;stroke-width:0.5;" width="68" x="1630" y="39.5"/><ellipse cx="1645" cy="55.5" fill="#ADD1B2" rx="11" ry="11" style="stroke:#181818;stroke-width:1.0;"/><path d="M1647.3438,51.1719 C1646.4063,50.7344 1645.8125,50.5938 1644.9375,50.5938 C1642.3125,50.5938 1640.3125,52.6719 1640.3125,55.3906 L1640.3125,56.5156 C1640.3125,59.0938 1642.4219,60.9844 1645.3125,60.9844 C1646.5313,60.9844 1647.6875,60.6875 1648.4375,60.1406 C1649.0156,59.7344 1649.3438,59.2813 1649.3438,58.8906 C1649.3438,58.4375 1648.9531,58.0469 1648.4844,58.0469 C1648.2656,58.0469 1648.0625,58.125 1647.875,58.3125 C1647.4219,58.7969 1647.4219,58.7969 1647.2344,58.8906 C1646.8125,59.1563 1646.125,59.2813 1645.3594,59.2813 C1643.3125,59.2813 1642.0156,58.1875 1642.0156,56.4844 L1642.0156,55.3906 C1642.0156,53.6094 1643.2656,52.2969 1645,52.2969 C1645.5781,52.2969 1646.1875,52.4531 1646.6563,52.7031 C1647.1406,52.9844 1647.3125,53.2031 1647.4063,53.6094 C1647.4688,54.0156 1647.5,54.1406 1647.6406,54.2656 C1647.7813,54.4063 1648.0156,54.5156 1648.2344,54.5156 C1648.5,54.5156 1648.7656,54.375 1648.9375,54.1563 C1649.0469,54 1649.0781,53.8125 1649.0781,53.3906 L1649.0781,51.9688 C1649.0781,51.5313 1649.0625,51.4063 1648.9688,51.25 C1648.8125,50.9844 1648.5313,50.8438 1648.2344,50.8438 C1647.9375,50.8438 1647.7344,50.9375 1647.5156,51.25 L1647.3438,51.1719 Z " fill="#000000"/><text fill="#000000" font-family="sans-serif" font-size="14" lengthAdjust="spacing" textLength="36" x="1659" y="60.3467">Error</text><line style="stroke:#181818;stroke-width:0.5;" x1="1631" x2="1697" y1="71.5" y2="71.5"/><line style="stroke:#181818;stroke-width:0.5;" x1="1631" x2="1697" y1="79.5" y2="79.5"/></g><!--MD5=[c256966700998fb813a28b2603bf7caf]
class InputFieldProps--><g id="elem_InputFieldProps"><rect codeLine="82" fill="#F1F1F1" height="145.7813" id="InputFieldProps" rx="2.5" ry="2.5" style="stroke:#181818;stroke-width:0.5;" width="498" x="245" y="530.5"/><ellipse cx="435.25" cy="546.5" fill="#B4A7E5" rx="11" ry="11" style="stroke:#181818;stroke-width:1.0;"/><path d="M436.2031,543.2813 L437.9219,543.2813 C438.3125,543.2813 438.5,543.25 438.625,543.1719 C438.8906,543.0156 439.0313,542.7344 439.0313,542.4375 C439.0313,542.1719 438.9219,541.9063 438.6875,541.7344 C438.5156,541.625 438.375,541.5938 437.9219,541.5938 L432.7813,541.5938 C432.3438,541.5938 432.2188,541.6094 432.0625,541.7031 C431.8125,541.8594 431.6563,542.1563 431.6563,542.4375 C431.6563,542.7188 431.7969,542.9688 432.0156,543.1406 C432.1719,543.25 432.3594,543.2813 432.7813,543.2813 L434.5,543.2813 L434.5,549.7969 L432.7813,549.7969 C432.3438,549.7969 432.2188,549.8125 432.0625,549.9219 C431.8125,550.0781 431.6563,550.3594 431.6563,550.6563 C431.6563,550.9063 431.7969,551.1719 432.0156,551.3281 C432.1719,551.4531 432.375,551.5 432.7813,551.5 L437.9219,551.5 C438.6719,551.5 439.0313,551.2188 439.0313,550.6563 C439.0313,550.375 438.9219,550.125 438.6875,549.9531 C438.5156,549.8281 438.375,549.7969 437.9219,549.7969 L436.2031,549.7969 L436.2031,543.2813 Z " fill="#000000"/><text fill="#000000" font-family="sans-serif" font-size="14" font-style="italic" lengthAdjust="spacing" textLength="109" x="455.75" y="551.3467">InputFieldProps</text><line style="stroke:#181818;stroke-width:0.5;" x1="246" x2="742" y1="562.5" y2="562.5"/><ellipse cx="256" cy="573.5" fill="none" rx="3" ry="3" style="stroke:#038048;stroke-width:1.0;"/><text fill="#000000" font-family="sans-serif" font-size="14" lengthAdjust="spacing" textLength="178" x="265" y="579.4951">label?: string | undefined</text><ellipse cx="256" cy="589.7969" fill="none" rx="3" ry="3" style="stroke:#038048;stroke-width:1.0;"/><text fill="#000000" font-family="sans-serif" font-size="14" lengthAdjust="spacing" textLength="228" x="265" y="595.792">placeholder?: string | undefined</text><ellipse cx="256" cy="606.0938" fill="none" rx="3" ry="3" style="stroke:#038048;stroke-width:1.0;"/><text fill="#000000" font-family="sans-serif" font-size="14" lengthAdjust="spacing" textLength="180" x="265" y="612.0889">value?: string | undefined</text><ellipse cx="256" cy="622.3906" fill="none" rx="3" ry="3" style="stroke:#038048;stroke-width:1.0;"/><text fill="#000000" font-family="sans-serif" font-size="14" lengthAdjust="spacing" textLength="205" x="265" y="628.3857">isValid?: boolean | undefined</text><ellipse cx="256" cy="638.6875" fill="none" rx="3" ry="3" style="stroke:#038048;stroke-width:1.0;"/><text fill="#000000" font-family="sans-serif" font-size="14" lengthAdjust="spacing" textLength="177" x="265" y="644.6826">type?: string | undefined</text><line style="stroke:#181818;stroke-width:0.5;" x1="246" x2="742" y1="651.9844" y2="651.9844"/><ellipse cx="256" cy="662.9844" fill="#84BE84" rx="3" ry="3" style="stroke:#038048;stroke-width:1.0;"/><text fill="#000000" font-family="sans-serif" font-size="14" lengthAdjust="spacing" textLength="472" x="265" y="668.9795">onChange: (e: React.ChangeEvent&lt;HTMLInputElement&gt;) =&gt; void</text></g><!--MD5=[069f9a9d56b382bb2348727c5ea4fd16]
class InputFieldState--><g id="elem_InputFieldState"><rect codeLine="90" fill="#F1F1F1" height="129.4844" id="InputFieldState" rx="2.5" ry="2.5" style="stroke:#181818;stroke-width:0.5;" width="254" x="778" y="539"/><ellipse cx="847.25" cy="555" fill="#B4A7E5" rx="11" ry="11" style="stroke:#181818;stroke-width:1.0;"/><path d="M848.2031,551.7813 L849.9219,551.7813 C850.3125,551.7813 850.5,551.75 850.625,551.6719 C850.8906,551.5156 851.0313,551.2344 851.0313,550.9375 C851.0313,550.6719 850.9219,550.4063 850.6875,550.2344 C850.5156,550.125 850.375,550.0938 849.9219,550.0938 L844.7813,550.0938 C844.3438,550.0938 844.2188,550.1094 844.0625,550.2031 C843.8125,550.3594 843.6563,550.6563 843.6563,550.9375 C843.6563,551.2188 843.7969,551.4688 844.0156,551.6406 C844.1719,551.75 844.3594,551.7813 844.7813,551.7813 L846.5,551.7813 L846.5,558.2969 L844.7813,558.2969 C844.3438,558.2969 844.2188,558.3125 844.0625,558.4219 C843.8125,558.5781 843.6563,558.8594 843.6563,559.1563 C843.6563,559.4063 843.7969,559.6719 844.0156,559.8281 C844.1719,559.9531 844.375,560 844.7813,560 L849.9219,560 C850.6719,560 851.0313,559.7188 851.0313,559.1563 C851.0313,558.875 850.9219,558.625 850.6875,558.4531 C850.5156,558.3281 850.375,558.2969 849.9219,558.2969 L848.2031,558.2969 L848.2031,551.7813 Z " fill="#000000"/><text fill="#000000" font-family="sans-serif" font-size="14" font-style="italic" lengthAdjust="spacing" textLength="107" x="867.75" y="559.8467">InputFieldState</text><line style="stroke:#181818;stroke-width:0.5;" x1="779" x2="1031" y1="571" y2="571"/><ellipse cx="789" cy="582" fill="none" rx="3" ry="3" style="stroke:#038048;stroke-width:1.0;"/><text fill="#000000" font-family="sans-serif" font-size="14" lengthAdjust="spacing" textLength="86" x="798" y="587.9951">label: string</text><ellipse cx="789" cy="598.2969" fill="none" rx="3" ry="3" style="stroke:#038048;stroke-width:1.0;"/><text fill="#000000" font-family="sans-serif" font-size="14" lengthAdjust="spacing" textLength="228" x="798" y="604.292">placeholder?: string | undefined</text><ellipse cx="789" cy="614.5938" fill="none" rx="3" ry="3" style="stroke:#038048;stroke-width:1.0;"/><text fill="#000000" font-family="sans-serif" font-size="14" lengthAdjust="spacing" textLength="88" x="798" y="620.5889">value: string</text><ellipse cx="789" cy="630.8906" fill="none" rx="3" ry="3" style="stroke:#038048;stroke-width:1.0;"/><text fill="#000000" font-family="sans-serif" font-size="14" lengthAdjust="spacing" textLength="97" x="798" y="636.8857">isValid: string</text><ellipse cx="789" cy="647.1875" fill="none" rx="3" ry="3" style="stroke:#038048;stroke-width:1.0;"/><text fill="#000000" font-family="sans-serif" font-size="14" lengthAdjust="spacing" textLength="85" x="798" y="653.1826">type: string</text><line style="stroke:#181818;stroke-width:0.5;" x1="779" x2="1031" y1="660.4844" y2="660.4844"/></g><!--MD5=[db453f91a253a2358c4d376fa3bf4942]
class InputField--><g id="elem_InputField"><rect fill="#F1F1F1" height="48" id="InputField" rx="2.5" ry="2.5" style="stroke:#181818;stroke-width:0.5;" width="104" x="1733" y="39.5"/><ellipse cx="1748" cy="55.5" fill="#ADD1B2" rx="11" ry="11" style="stroke:#181818;stroke-width:1.0;"/><path d="M1750.3438,51.1719 C1749.4063,50.7344 1748.8125,50.5938 1747.9375,50.5938 C1745.3125,50.5938 1743.3125,52.6719 1743.3125,55.3906 L1743.3125,56.5156 C1743.3125,59.0938 1745.4219,60.9844 1748.3125,60.9844 C1749.5313,60.9844 1750.6875,60.6875 1751.4375,60.1406 C1752.0156,59.7344 1752.3438,59.2813 1752.3438,58.8906 C1752.3438,58.4375 1751.9531,58.0469 1751.4844,58.0469 C1751.2656,58.0469 1751.0625,58.125 1750.875,58.3125 C1750.4219,58.7969 1750.4219,58.7969 1750.2344,58.8906 C1749.8125,59.1563 1749.125,59.2813 1748.3594,59.2813 C1746.3125,59.2813 1745.0156,58.1875 1745.0156,56.4844 L1745.0156,55.3906 C1745.0156,53.6094 1746.2656,52.2969 1748,52.2969 C1748.5781,52.2969 1749.1875,52.4531 1749.6563,52.7031 C1750.1406,52.9844 1750.3125,53.2031 1750.4063,53.6094 C1750.4688,54.0156 1750.5,54.1406 1750.6406,54.2656 C1750.7813,54.4063 1751.0156,54.5156 1751.2344,54.5156 C1751.5,54.5156 1751.7656,54.375 1751.9375,54.1563 C1752.0469,54 1752.0781,53.8125 1752.0781,53.3906 L1752.0781,51.9688 C1752.0781,51.5313 1752.0625,51.4063 1751.9688,51.25 C1751.8125,50.9844 1751.5313,50.8438 1751.2344,50.8438 C1750.9375,50.8438 1750.7344,50.9375 1750.5156,51.25 L1750.3438,51.1719 Z " fill="#000000"/><text fill="#000000" font-family="sans-serif" font-size="14" lengthAdjust="spacing" textLength="72" x="1762" y="60.3467">InputField</text><line style="stroke:#181818;stroke-width:0.5;" x1="1734" x2="1836" y1="71.5" y2="71.5"/><line style="stroke:#181818;stroke-width:0.5;" x1="1734" x2="1836" y1="79.5" y2="79.5"/></g><!--MD5=[c913651b06cff957538841c39dd95ff7]
class LoginTabProps--><g id="elem_LoginTabProps"><rect codeLine="110" fill="#F1F1F1" height="80.5938" id="LoginTabProps" rx="2.5" ry="2.5" style="stroke:#181818;stroke-width:0.5;" width="236" x="1067" y="563"/><ellipse cx="1128.25" cy="579" fill="#B4A7E5" rx="11" ry="11" style="stroke:#181818;stroke-width:1.0;"/><path d="M1129.2031,575.7813 L1130.9219,575.7813 C1131.3125,575.7813 1131.5,575.75 1131.625,575.6719 C1131.8906,575.5156 1132.0313,575.2344 1132.0313,574.9375 C1132.0313,574.6719 1131.9219,574.4063 1131.6875,574.2344 C1131.5156,574.125 1131.375,574.0938 1130.9219,574.0938 L1125.7813,574.0938 C1125.3438,574.0938 1125.2188,574.1094 1125.0625,574.2031 C1124.8125,574.3594 1124.6563,574.6563 1124.6563,574.9375 C1124.6563,575.2188 1124.7969,575.4688 1125.0156,575.6406 C1125.1719,575.75 1125.3594,575.7813 1125.7813,575.7813 L1127.5,575.7813 L1127.5,582.2969 L1125.7813,582.2969 C1125.3438,582.2969 1125.2188,582.3125 1125.0625,582.4219 C1124.8125,582.5781 1124.6563,582.8594 1124.6563,583.1563 C1124.6563,583.4063 1124.7969,583.6719 1125.0156,583.8281 C1125.1719,583.9531 1125.375,584 1125.7813,584 L1130.9219,584 C1131.6719,584 1132.0313,583.7188 1132.0313,583.1563 C1132.0313,582.875 1131.9219,582.625 1131.6875,582.4531 C1131.5156,582.3281 1131.375,582.2969 1130.9219,582.2969 L1129.2031,582.2969 L1129.2031,575.7813 Z " fill="#000000"/><text fill="#000000" font-family="sans-serif" font-size="14" font-style="italic" lengthAdjust="spacing" textLength="105" x="1148.75" y="583.8467">LoginTabProps</text><line style="stroke:#181818;stroke-width:0.5;" x1="1068" x2="1302" y1="595" y2="595"/><ellipse cx="1078" cy="606" fill="none" rx="3" ry="3" style="stroke:#038048;stroke-width:1.0;"/><text fill="#000000" font-family="sans-serif" font-size="14" lengthAdjust="spacing" textLength="173" x="1087" y="611.9951">user?: string | undefined</text><ellipse cx="1078" cy="622.2969" fill="none" rx="3" ry="3" style="stroke:#038048;stroke-width:1.0;"/><text fill="#000000" font-family="sans-serif" font-size="14" lengthAdjust="spacing" textLength="210" x="1087" y="628.292">password?: string | undefined</text><line style="stroke:#181818;stroke-width:0.5;" x1="1068" x2="1302" y1="635.5938" y2="635.5938"/></g><!--MD5=[a81d20e07def7125c916d2af3566d9d3]
class LoginTabState--><g id="elem_LoginTabState"><rect codeLine="114" fill="#F1F1F1" height="80.5938" id="LoginTabState" rx="2.5" ry="2.5" style="stroke:#181818;stroke-width:0.5;" width="144" x="57" y="1103"/><ellipse cx="76.05" cy="1119" fill="#B4A7E5" rx="11" ry="11" style="stroke:#181818;stroke-width:1.0;"/><path d="M77.0031,1115.7813 L78.7219,1115.7813 C79.1125,1115.7813 79.3,1115.75 79.425,1115.6719 C79.6906,1115.5156 79.8313,1115.2344 79.8313,1114.9375 C79.8313,1114.6719 79.7219,1114.4063 79.4875,1114.2344 C79.3156,1114.125 79.175,1114.0938 78.7219,1114.0938 L73.5813,1114.0938 C73.1438,1114.0938 73.0188,1114.1094 72.8625,1114.2031 C72.6125,1114.3594 72.4563,1114.6563 72.4563,1114.9375 C72.4563,1115.2188 72.5969,1115.4688 72.8156,1115.6406 C72.9719,1115.75 73.1594,1115.7813 73.5813,1115.7813 L75.3,1115.7813 L75.3,1122.2969 L73.5813,1122.2969 C73.1438,1122.2969 73.0188,1122.3125 72.8625,1122.4219 C72.6125,1122.5781 72.4563,1122.8594 72.4563,1123.1563 C72.4563,1123.4063 72.5969,1123.6719 72.8156,1123.8281 C72.9719,1123.9531 73.175,1124 73.5813,1124 L78.7219,1124 C79.4719,1124 79.8313,1123.7188 79.8313,1123.1563 C79.8313,1122.875 79.7219,1122.625 79.4875,1122.4531 C79.3156,1122.3281 79.175,1122.2969 78.7219,1122.2969 L77.0031,1122.2969 L77.0031,1115.7813 Z " fill="#000000"/><text fill="#000000" font-family="sans-serif" font-size="14" font-style="italic" lengthAdjust="spacing" textLength="103" x="90.95" y="1123.8467">LoginTabState</text><line style="stroke:#181818;stroke-width:0.5;" x1="58" x2="200" y1="1135" y2="1135"/><ellipse cx="68" cy="1146" fill="none" rx="3" ry="3" style="stroke:#038048;stroke-width:1.0;"/><text fill="#000000" font-family="sans-serif" font-size="14" lengthAdjust="spacing" textLength="81" x="77" y="1151.9951">user: string</text><ellipse cx="68" cy="1162.2969" fill="none" rx="3" ry="3" style="stroke:#038048;stroke-width:1.0;"/><text fill="#000000" font-family="sans-serif" font-size="14" lengthAdjust="spacing" textLength="118" x="77" y="1168.292">password: string</text><line style="stroke:#181818;stroke-width:0.5;" x1="58" x2="200" y1="1175.5938" y2="1175.5938"/></g><!--MD5=[b769a4601b51050782783f342b1f722f]
class TextFieldComponent--><g id="elem_TextFieldComponent"><rect fill="#F1F1F1" height="48" id="TextFieldComponent" rx="2.5" ry="2.5" style="stroke:#181818;stroke-width:0.5;" width="185" x="1872.5" y="39.5"/><ellipse cx="1887.5" cy="55.5" fill="#ADD1B2" rx="11" ry="11" style="stroke:#181818;stroke-width:1.0;"/><path d="M1889.8438,51.1719 C1888.9063,50.7344 1888.3125,50.5938 1887.4375,50.5938 C1884.8125,50.5938 1882.8125,52.6719 1882.8125,55.3906 L1882.8125,56.5156 C1882.8125,59.0938 1884.9219,60.9844 1887.8125,60.9844 C1889.0313,60.9844 1890.1875,60.6875 1890.9375,60.1406 C1891.5156,59.7344 1891.8438,59.2813 1891.8438,58.8906 C1891.8438,58.4375 1891.4531,58.0469 1890.9844,58.0469 C1890.7656,58.0469 1890.5625,58.125 1890.375,58.3125 C1889.9219,58.7969 1889.9219,58.7969 1889.7344,58.8906 C1889.3125,59.1563 1888.625,59.2813 1887.8594,59.2813 C1885.8125,59.2813 1884.5156,58.1875 1884.5156,56.4844 L1884.5156,55.3906 C1884.5156,53.6094 1885.7656,52.2969 1887.5,52.2969 C1888.0781,52.2969 1888.6875,52.4531 1889.1563,52.7031 C1889.6406,52.9844 1889.8125,53.2031 1889.9063,53.6094 C1889.9688,54.0156 1890,54.1406 1890.1406,54.2656 C1890.2813,54.4063 1890.5156,54.5156 1890.7344,54.5156 C1891,54.5156 1891.2656,54.375 1891.4375,54.1563 C1891.5469,54 1891.5781,53.8125 1891.5781,53.3906 L1891.5781,51.9688 C1891.5781,51.5313 1891.5625,51.4063 1891.4688,51.25 C1891.3125,50.9844 1891.0313,50.8438 1890.7344,50.8438 C1890.4375,50.8438 1890.2344,50.9375 1890.0156,51.25 L1889.8438,51.1719 Z " fill="#000000"/><text fill="#000000" font-family="sans-serif" font-size="14" lengthAdjust="spacing" textLength="153" x="1901.5" y="60.3467">TextFieldComponent</text><line style="stroke:#181818;stroke-width:0.5;" x1="1873.5" x2="2056.5" y1="71.5" y2="71.5"/><line style="stroke:#181818;stroke-width:0.5;" x1="1873.5" x2="2056.5" y1="79.5" y2="79.5"/></g><!--MD5=[932d33c0ad0dabf700dbf649fd593a95]
class SignUpTabProps--><g id="elem_SignUpTabProps"><rect codeLine="127" fill="#F1F1F1" height="113.1875" id="SignUpTabProps" rx="2.5" ry="2.5" style="stroke:#181818;stroke-width:0.5;" width="148" x="236" y="1087"/><ellipse cx="251" cy="1103" fill="#B4A7E5" rx="11" ry="11" style="stroke:#181818;stroke-width:1.0;"/><path d="M251.9531,1099.7813 L253.6719,1099.7813 C254.0625,1099.7813 254.25,1099.75 254.375,1099.6719 C254.6406,1099.5156 254.7813,1099.2344 254.7813,1098.9375 C254.7813,1098.6719 254.6719,1098.4063 254.4375,1098.2344 C254.2656,1098.125 254.125,1098.0938 253.6719,1098.0938 L248.5313,1098.0938 C248.0938,1098.0938 247.9688,1098.1094 247.8125,1098.2031 C247.5625,1098.3594 247.4063,1098.6563 247.4063,1098.9375 C247.4063,1099.2188 247.5469,1099.4688 247.7656,1099.6406 C247.9219,1099.75 248.1094,1099.7813 248.5313,1099.7813 L250.25,1099.7813 L250.25,1106.2969 L248.5313,1106.2969 C248.0938,1106.2969 247.9688,1106.3125 247.8125,1106.4219 C247.5625,1106.5781 247.4063,1106.8594 247.4063,1107.1563 C247.4063,1107.4063 247.5469,1107.6719 247.7656,1107.8281 C247.9219,1107.9531 248.125,1108 248.5313,1108 L253.6719,1108 C254.4219,1108 254.7813,1107.7188 254.7813,1107.1563 C254.7813,1106.875 254.6719,1106.625 254.4375,1106.4531 C254.2656,1106.3281 254.125,1106.2969 253.6719,1106.2969 L251.9531,1106.2969 L251.9531,1099.7813 Z " fill="#000000"/><text fill="#000000" font-family="sans-serif" font-size="14" font-style="italic" lengthAdjust="spacing" textLength="116" x="265" y="1107.8467">SignUpTabProps</text><line style="stroke:#181818;stroke-width:0.5;" x1="237" x2="383" y1="1119" y2="1119"/><ellipse cx="247" cy="1130" fill="none" rx="3" ry="3" style="stroke:#038048;stroke-width:1.0;"/><text fill="#000000" font-family="sans-serif" font-size="14" lengthAdjust="spacing" textLength="97" x="256" y="1135.9951">fname: string</text><ellipse cx="247" cy="1146.2969" fill="none" rx="3" ry="3" style="stroke:#038048;stroke-width:1.0;"/><text fill="#000000" font-family="sans-serif" font-size="14" lengthAdjust="spacing" textLength="95" x="256" y="1152.292">lname: string</text><ellipse cx="247" cy="1162.5938" fill="none" rx="3" ry="3" style="stroke:#038048;stroke-width:1.0;"/><text fill="#000000" font-family="sans-serif" font-size="14" lengthAdjust="spacing" textLength="90" x="256" y="1168.5889">email: string</text><ellipse cx="247" cy="1178.8906" fill="none" rx="3" ry="3" style="stroke:#038048;stroke-width:1.0;"/><text fill="#000000" font-family="sans-serif" font-size="14" lengthAdjust="spacing" textLength="118" x="256" y="1184.8857">password: string</text><line style="stroke:#181818;stroke-width:0.5;" x1="237" x2="383" y1="1192.1875" y2="1192.1875"/></g><!--MD5=[b514be15c5afbc436e7aba5864949747]
class SignUpTabState--><g id="elem_SignUpTabState"><rect codeLine="133" fill="#F1F1F1" height="113.1875" id="SignUpTabState" rx="2.5" ry="2.5" style="stroke:#181818;stroke-width:0.5;" width="146" x="419" y="1087"/><ellipse cx="434" cy="1103" fill="#B4A7E5" rx="11" ry="11" style="stroke:#181818;stroke-width:1.0;"/><path d="M434.9531,1099.7813 L436.6719,1099.7813 C437.0625,1099.7813 437.25,1099.75 437.375,1099.6719 C437.6406,1099.5156 437.7813,1099.2344 437.7813,1098.9375 C437.7813,1098.6719 437.6719,1098.4063 437.4375,1098.2344 C437.2656,1098.125 437.125,1098.0938 436.6719,1098.0938 L431.5313,1098.0938 C431.0938,1098.0938 430.9688,1098.1094 430.8125,1098.2031 C430.5625,1098.3594 430.4063,1098.6563 430.4063,1098.9375 C430.4063,1099.2188 430.5469,1099.4688 430.7656,1099.6406 C430.9219,1099.75 431.1094,1099.7813 431.5313,1099.7813 L433.25,1099.7813 L433.25,1106.2969 L431.5313,1106.2969 C431.0938,1106.2969 430.9688,1106.3125 430.8125,1106.4219 C430.5625,1106.5781 430.4063,1106.8594 430.4063,1107.1563 C430.4063,1107.4063 430.5469,1107.6719 430.7656,1107.8281 C430.9219,1107.9531 431.125,1108 431.5313,1108 L436.6719,1108 C437.4219,1108 437.7813,1107.7188 437.7813,1107.1563 C437.7813,1106.875 437.6719,1106.625 437.4375,1106.4531 C437.2656,1106.3281 437.125,1106.2969 436.6719,1106.2969 L434.9531,1106.2969 L434.9531,1099.7813 Z " fill="#000000"/><text fill="#000000" font-family="sans-serif" font-size="14" font-style="italic" lengthAdjust="spacing" textLength="114" x="448" y="1107.8467">SignUpTabState</text><line style="stroke:#181818;stroke-width:0.5;" x1="420" x2="564" y1="1119" y2="1119"/><ellipse cx="430" cy="1130" fill="none" rx="3" ry="3" style="stroke:#038048;stroke-width:1.0;"/><text fill="#000000" font-family="sans-serif" font-size="14" lengthAdjust="spacing" textLength="97" x="439" y="1135.9951">fname: string</text><ellipse cx="430" cy="1146.2969" fill="none" rx="3" ry="3" style="stroke:#038048;stroke-width:1.0;"/><text fill="#000000" font-family="sans-serif" font-size="14" lengthAdjust="spacing" textLength="95" x="439" y="1152.292">lname: string</text><ellipse cx="430" cy="1162.5938" fill="none" rx="3" ry="3" style="stroke:#038048;stroke-width:1.0;"/><text fill="#000000" font-family="sans-serif" font-size="14" lengthAdjust="spacing" textLength="90" x="439" y="1168.5889">email: string</text><ellipse cx="430" cy="1178.8906" fill="none" rx="3" ry="3" style="stroke:#038048;stroke-width:1.0;"/><text fill="#000000" font-family="sans-serif" font-size="14" lengthAdjust="spacing" textLength="118" x="439" y="1184.8857">password: string</text><line style="stroke:#181818;stroke-width:0.5;" x1="420" x2="564" y1="1192.1875" y2="1192.1875"/></g><!--MD5=[53f3413e880c24cf8ff36bd576bf028e]
class TabbedComponentProps--><g id="elem_TabbedComponentProps"><rect codeLine="143" fill="#F1F1F1" height="96.8906" id="TabbedComponentProps" rx="2.5" ry="2.5" style="stroke:#181818;stroke-width:0.5;" width="362" x="600" y="1095"/><ellipse cx="688.75" cy="1111" fill="#B4A7E5" rx="11" ry="11" style="stroke:#181818;stroke-width:1.0;"/><path d="M689.7031,1107.7813 L691.4219,1107.7813 C691.8125,1107.7813 692,1107.75 692.125,1107.6719 C692.3906,1107.5156 692.5313,1107.2344 692.5313,1106.9375 C692.5313,1106.6719 692.4219,1106.4063 692.1875,1106.2344 C692.0156,1106.125 691.875,1106.0938 691.4219,1106.0938 L686.2813,1106.0938 C685.8438,1106.0938 685.7188,1106.1094 685.5625,1106.2031 C685.3125,1106.3594 685.1563,1106.6563 685.1563,1106.9375 C685.1563,1107.2188 685.2969,1107.4688 685.5156,1107.6406 C685.6719,1107.75 685.8594,1107.7813 686.2813,1107.7813 L688,1107.7813 L688,1114.2969 L686.2813,1114.2969 C685.8438,1114.2969 685.7188,1114.3125 685.5625,1114.4219 C685.3125,1114.5781 685.1563,1114.8594 685.1563,1115.1563 C685.1563,1115.4063 685.2969,1115.6719 685.5156,1115.8281 C685.6719,1115.9531 685.875,1116 686.2813,1116 L691.4219,1116 C692.1719,1116 692.5313,1115.7188 692.5313,1115.1563 C692.5313,1114.875 692.4219,1114.625 692.1875,1114.4531 C692.0156,1114.3281 691.875,1114.2969 691.4219,1114.2969 L689.7031,1114.2969 L689.7031,1107.7813 Z " fill="#000000"/><text fill="#000000" font-family="sans-serif" font-size="14" font-style="italic" lengthAdjust="spacing" textLength="176" x="709.25" y="1115.8467">TabbedComponentProps</text><line style="stroke:#181818;stroke-width:0.5;" x1="601" x2="961" y1="1127" y2="1127"/><ellipse cx="611" cy="1138" fill="none" rx="3" ry="3" style="stroke:#038048;stroke-width:1.0;"/><text fill="#000000" font-family="sans-serif" font-size="14" lengthAdjust="spacing" textLength="336" x="620" y="1143.9951">tabs: { label: string; element: JSX.Element; }[]</text><ellipse cx="611" cy="1154.2969" fill="none" rx="3" ry="3" style="stroke:#038048;stroke-width:1.0;"/><text fill="#000000" font-family="sans-serif" font-size="14" lengthAdjust="spacing" textLength="228" x="620" y="1160.292">activeTab?: number | undefined</text><ellipse cx="611" cy="1170.5938" fill="none" rx="3" ry="3" style="stroke:#038048;stroke-width:1.0;"/><text fill="#000000" font-family="sans-serif" font-size="14" lengthAdjust="spacing" textLength="218" x="620" y="1176.5889">className?: string | undefined</text><line style="stroke:#181818;stroke-width:0.5;" x1="601" x2="961" y1="1183.8906" y2="1183.8906"/></g><!--MD5=[af62813e68ada9d6929a1d8292b143d9]
class TabbedComponentState--><g id="elem_TabbedComponentState"><rect codeLine="148" fill="#F1F1F1" height="64.2969" id="TabbedComponentState" rx="2.5" ry="2.5" style="stroke:#181818;stroke-width:0.5;" width="206" x="26" y="1260"/><ellipse cx="41" cy="1276" fill="#B4A7E5" rx="11" ry="11" style="stroke:#181818;stroke-width:1.0;"/><path d="M41.9531,1272.7813 L43.6719,1272.7813 C44.0625,1272.7813 44.25,1272.75 44.375,1272.6719 C44.6406,1272.5156 44.7813,1272.2344 44.7813,1271.9375 C44.7813,1271.6719 44.6719,1271.4063 44.4375,1271.2344 C44.2656,1271.125 44.125,1271.0938 43.6719,1271.0938 L38.5313,1271.0938 C38.0938,1271.0938 37.9688,1271.1094 37.8125,1271.2031 C37.5625,1271.3594 37.4063,1271.6563 37.4063,1271.9375 C37.4063,1272.2188 37.5469,1272.4688 37.7656,1272.6406 C37.9219,1272.75 38.1094,1272.7813 38.5313,1272.7813 L40.25,1272.7813 L40.25,1279.2969 L38.5313,1279.2969 C38.0938,1279.2969 37.9688,1279.3125 37.8125,1279.4219 C37.5625,1279.5781 37.4063,1279.8594 37.4063,1280.1563 C37.4063,1280.4063 37.5469,1280.6719 37.7656,1280.8281 C37.9219,1280.9531 38.125,1281 38.5313,1281 L43.6719,1281 C44.4219,1281 44.7813,1280.7188 44.7813,1280.1563 C44.7813,1279.875 44.6719,1279.625 44.4375,1279.4531 C44.2656,1279.3281 44.125,1279.2969 43.6719,1279.2969 L41.9531,1279.2969 L41.9531,1272.7813 Z " fill="#000000"/><text fill="#000000" font-family="sans-serif" font-size="14" font-style="italic" lengthAdjust="spacing" textLength="174" x="55" y="1280.8467">TabbedComponentState</text><line style="stroke:#181818;stroke-width:0.5;" x1="27" x2="231" y1="1292" y2="1292"/><ellipse cx="37" cy="1303" fill="none" rx="3" ry="3" style="stroke:#038048;stroke-width:1.0;"/><text fill="#000000" font-family="sans-serif" font-size="14" lengthAdjust="spacing" textLength="136" x="46" y="1308.9951">activeTab: number</text><line style="stroke:#181818;stroke-width:0.5;" x1="27" x2="231" y1="1316.2969" y2="1316.2969"/></g><!--MD5=[de5348e3cb1ed9a777a419280ce11012]
reverse link Error to default--><g id="link_Error_default"><path d="M1673.63,107.34 C1677.99,126.7 1683.59,151.62 1689.97,179.96 " fill="none" id="Error-backto-default" style="stroke:#181818;stroke-width:1.0;"/><polygon fill="none" points="1666.76,108.67,1669.2,87.62,1680.42,105.59,1666.76,108.67" style="stroke:#181818;stroke-width:1.0;"/></g><!--MD5=[09062467888dc58e3be983e7ceaeaefe]
reverse link InputField to default--><g id="link_InputField_default"><path d="M1777.67,107.65 C1776.29,126.97 1775.17,151.77 1774.31,179.96 " fill="none" id="InputField-backto-default" style="stroke:#181818;stroke-width:1.0;"/><polygon fill="none" points="1770.71,106.93,1779.42,87.62,1784.66,108.15,1770.71,106.93" style="stroke:#181818;stroke-width:1.0;"/></g><!--MD5=[09062467888dc58e3be983e7ceaeaefe]
reverse link InputField to default--><g id="link_InputField_default"><path d="M1792.76,107.65 C1794.23,126.97 1795.41,151.77 1796.32,179.96 " fill="none" id="InputField-backto-default-1" style="stroke:#181818;stroke-width:1.0;"/><polygon fill="none" points="1785.78,108.18,1790.91,87.62,1799.72,106.89,1785.78,108.18" style="stroke:#181818;stroke-width:1.0;"/></g><!--MD5=[0524bb607128dd75d071e86aa33dc7a7]
reverse link TextFieldComponent to default--><g id="link_TextFieldComponent_default"><path d="M1943.87,106.09 C1935.9,125.63 1926.25,151.01 1915.68,179.96 " fill="none" id="TextFieldComponent-backto-default" style="stroke:#181818;stroke-width:1.0;"/><polygon fill="none" points="1937.45,103.31,1951.69,87.62,1950.34,108.76,1937.45,103.31" style="stroke:#181818;stroke-width:1.0;"/></g><!--MD5=[0524bb607128dd75d071e86aa33dc7a7]
reverse link TextFieldComponent to default--><g id="link_TextFieldComponent_default"><path d="M1958.4,107.34 C1953.4,126.7 1946.26,151.62 1937.69,179.96 " fill="none" id="TextFieldComponent-backto-default-1" style="stroke:#181818;stroke-width:1.0;"/><polygon fill="none" points="1951.67,105.41,1963.17,87.62,1965.27,108.7,1951.67,105.41" style="stroke:#181818;stroke-width:1.0;"/></g><!--MD5=[73daeaa081c057463ca17757da8d28b5]
link ButtonComponentProps to EmojiKeyboardState--></g></svg>