<?xml version="1.0" encoding="UTF-8" standalone="no"?><svg xmlns="http://www.w3.org/2000/svg" xmlns:xlink="http://www.w3.org/1999/xlink" contentStyleType="text/css" height="852px" preserveAspectRatio="none" style="width:4124px;height:852px;background:#FFFFFF;" version="1.1" viewBox="0 0 4124 852" width="4124px" zoomAndPan="magnify"><defs/><g><!--MD5=[b43e6bddacc6dd58a943ec553122614e]
class LoginModel--><g id="elem_LoginModel"><rect codeLine="1" fill="#F1F1F1" height="80.5938" id="LoginModel" rx="2.5" ry="2.5" style="stroke:#181818;stroke-width:0.5;" width="144" x="2106" y="229"/><ellipse cx="2134.5" cy="245" fill="#B4A7E5" rx="11" ry="11" style="stroke:#181818;stroke-width:1.0;"/><path d="M2135.4531,241.7813 L2137.1719,241.7813 C2137.5625,241.7813 2137.75,241.75 2137.875,241.6719 C2138.1406,241.5156 2138.2813,241.2344 2138.2813,240.9375 C2138.2813,240.6719 2138.1719,240.4063 2137.9375,240.2344 C2137.7656,240.125 2137.625,240.0938 2137.1719,240.0938 L2132.0313,240.0938 C2131.5938,240.0938 2131.4688,240.1094 2131.3125,240.2031 C2131.0625,240.3594 2130.9063,240.6563 2130.9063,240.9375 C2130.9063,241.2188 2131.0469,241.4688 2131.2656,241.6406 C2131.4219,241.75 2131.6094,241.7813 2132.0313,241.7813 L2133.75,241.7813 L2133.75,248.2969 L2132.0313,248.2969 C2131.5938,248.2969 2131.4688,248.3125 2131.3125,248.4219 C2131.0625,248.5781 2130.9063,248.8594 2130.9063,249.1563 C2130.9063,249.4063 2131.0469,249.6719 2131.2656,249.8281 C2131.4219,249.9531 2131.625,250 2132.0313,250 L2137.1719,250 C2137.9219,250 2138.2813,249.7188 2138.2813,249.1563 C2138.2813,248.875 2138.1719,248.625 2137.9375,248.4531 C2137.7656,248.3281 2137.625,248.2969 2137.1719,248.2969 L2135.4531,248.2969 L2135.4531,241.7813 Z " fill="#000000"/><text fill="#000000" font-family="sans-serif" font-size="14" font-style="italic" lengthAdjust="spacing" textLength="82" x="2151.5" y="249.8467">LoginModel</text><line style="stroke:#181818;stroke-width:0.5;" x1="2107" x2="2249" y1="261" y2="261"/><ellipse cx="2117" cy="272" fill="none" rx="3" ry="3" style="stroke:#038048;stroke-width:1.0;"/><text fill="#000000" font-family="sans-serif" font-size="14" lengthAdjust="spacing" textLength="81" x="2126" y="277.9951">user: string</text><ellipse cx="2117" cy="288.2969" fill="none" rx="3" ry="3" style="stroke:#038048;stroke-width:1.0;"/><text fill="#000000" font-family="sans-serif" font-size="14" lengthAdjust="spacing" textLength="118" x="2126" y="294.292">password: string</text><line style="stroke:#181818;stroke-width:0.5;" x1="2107" x2="2249" y1="301.5938" y2="301.5938"/></g><!--MD5=[3166d274d62a7dab4c0cbf1e65d449e8]
class SignUpModel--><g id="elem_SignUpModel"><rect codeLine="5" fill="#F1F1F1" height="96.8906" id="SignUpModel" rx="2.5" ry="2.5" style="stroke:#181818;stroke-width:0.5;" width="273" x="2331.5" y="221"/><ellipse cx="2417.25" cy="237" fill="#B4A7E5" rx="11" ry="11" style="stroke:#181818;stroke-width:1.0;"/><path d="M2418.2031,233.7813 L2419.9219,233.7813 C2420.3125,233.7813 2420.5,233.75 2420.625,233.6719 C2420.8906,233.5156 2421.0313,233.2344 2421.0313,232.9375 C2421.0313,232.6719 2420.9219,232.4063 2420.6875,232.2344 C2420.5156,232.125 2420.375,232.0938 2419.9219,232.0938 L2414.7813,232.0938 C2414.3438,232.0938 2414.2188,232.1094 2414.0625,232.2031 C2413.8125,232.3594 2413.6563,232.6563 2413.6563,232.9375 C2413.6563,233.2188 2413.7969,233.4688 2414.0156,233.6406 C2414.1719,233.75 2414.3594,233.7813 2414.7813,233.7813 L2416.5,233.7813 L2416.5,240.2969 L2414.7813,240.2969 C2414.3438,240.2969 2414.2188,240.3125 2414.0625,240.4219 C2413.8125,240.5781 2413.6563,240.8594 2413.6563,241.1563 C2413.6563,241.4063 2413.7969,241.6719 2414.0156,241.8281 C2414.1719,241.9531 2414.375,242 2414.7813,242 L2419.9219,242 C2420.6719,242 2421.0313,241.7188 2421.0313,241.1563 C2421.0313,240.875 2420.9219,240.625 2420.6875,240.4531 C2420.5156,240.3281 2420.375,240.2969 2419.9219,240.2969 L2418.2031,240.2969 L2418.2031,233.7813 Z " fill="#000000"/><text fill="#000000" font-family="sans-serif" font-size="14" font-style="italic" lengthAdjust="spacing" textLength="93" x="2437.75" y="241.8467">SignUpModel</text><line style="stroke:#181818;stroke-width:0.5;" x1="2332.5" x2="2603.5" y1="253" y2="253"/><ellipse cx="2342.5" cy="264" fill="none" rx="3" ry="3" style="stroke:#038048;stroke-width:1.0;"/><text fill="#000000" font-family="sans-serif" font-size="14" lengthAdjust="spacing" textLength="247" x="2351.5" y="269.9951">name: { first: string; last: string; }</text><ellipse cx="2342.5" cy="280.2969" fill="none" rx="3" ry="3" style="stroke:#038048;stroke-width:1.0;"/><text fill="#000000" font-family="sans-serif" font-size="14" lengthAdjust="spacing" textLength="90" x="2351.5" y="286.292">email: string</text><ellipse cx="2342.5" cy="296.5938" fill="none" rx="3" ry="3" style="stroke:#038048;stroke-width:1.0;"/><text fill="#000000" font-family="sans-serif" font-size="14" lengthAdjust="spacing" textLength="118" x="2351.5" y="302.5889">password: string</text><line style="stroke:#181818;stroke-width:0.5;" x1="2332.5" x2="2603.5" y1="309.8906" y2="309.8906"/></g><!--MD5=[09a5b4adb0ee554eafb73b413209c7bf]
class Users--><g id="elem_Users"><rect codeLine="10" fill="#F1F1F1" height="113.1875" id="Users" rx="2.5" ry="2.5" style="stroke:#181818;stroke-width:0.5;" width="367" x="1994.5" y="23.5"/><ellipse cx="2154.75" cy="39.5" fill="#ADD1B2" rx="11" ry="11" style="stroke:#181818;stroke-width:1.0;"/><path d="M2157.0938,35.1719 C2156.1563,34.7344 2155.5625,34.5938 2154.6875,34.5938 C2152.0625,34.5938 2150.0625,36.6719 2150.0625,39.3906 L2150.0625,40.5156 C2150.0625,43.0938 2152.1719,44.9844 2155.0625,44.9844 C2156.2813,44.9844 2157.4375,44.6875 2158.1875,44.1406 C2158.7656,43.7344 2159.0938,43.2813 2159.0938,42.8906 C2159.0938,42.4375 2158.7031,42.0469 2158.2344,42.0469 C2158.0156,42.0469 2157.8125,42.125 2157.625,42.3125 C2157.1719,42.7969 2157.1719,42.7969 2156.9844,42.8906 C2156.5625,43.1563 2155.875,43.2813 2155.1094,43.2813 C2153.0625,43.2813 2151.7656,42.1875 2151.7656,40.4844 L2151.7656,39.3906 C2151.7656,37.6094 2153.0156,36.2969 2154.75,36.2969 C2155.3281,36.2969 2155.9375,36.4531 2156.4063,36.7031 C2156.8906,36.9844 2157.0625,37.2031 2157.1563,37.6094 C2157.2188,38.0156 2157.25,38.1406 2157.3906,38.2656 C2157.5313,38.4063 2157.7656,38.5156 2157.9844,38.5156 C2158.25,38.5156 2158.5156,38.375 2158.6875,38.1563 C2158.7969,38 2158.8281,37.8125 2158.8281,37.3906 L2158.8281,35.9688 C2158.8281,35.5313 2158.8125,35.4063 2158.7188,35.25 C2158.5625,34.9844 2158.2813,34.8438 2157.9844,34.8438 C2157.6875,34.8438 2157.4844,34.9375 2157.2656,35.25 L2157.0938,35.1719 Z " fill="#000000"/><text fill="#000000" font-family="sans-serif" font-size="14" lengthAdjust="spacing" textLength="38" x="2175.25" y="44.3467">Users</text><line style="stroke:#181818;stroke-width:0.5;" x1="1995.5" x2="2360.5" y1="55.5" y2="55.5"/><line style="stroke:#181818;stroke-width:0.5;" x1="1995.5" x2="2360.5" y1="63.5" y2="63.5"/><ellipse cx="2005.5" cy="74.5" fill="#84BE84" rx="3" ry="3" style="stroke:#038048;stroke-width:1.0;"/><text fill="#000000" font-family="sans-serif" font-size="14" lengthAdjust="spacing" text-decoration="underline" textLength="341" x="2014.5" y="80.4951">signup(form: SignUpModel): Promise&lt;boolean&gt;</text><ellipse cx="2005.5" cy="90.7969" fill="#84BE84" rx="3" ry="3" style="stroke:#038048;stroke-width:1.0;"/><text fill="#000000" font-family="sans-serif" font-size="14" lengthAdjust="spacing" text-decoration="underline" textLength="318" x="2014.5" y="96.792">login(form: LoginModel): Promise&lt;boolean&gt;</text><ellipse cx="2005.5" cy="107.0938" fill="#84BE84" rx="3" ry="3" style="stroke:#038048;stroke-width:1.0;"/><text fill="#000000" font-family="sans-serif" font-size="14" lengthAdjust="spacing" text-decoration="underline" textLength="133" x="2014.5" y="113.0889">hasCert(): boolean</text><ellipse cx="2005.5" cy="123.3906" fill="#84BE84" rx="3" ry="3" style="stroke:#038048;stroke-width:1.0;"/><text fill="#000000" font-family="sans-serif" font-size="14" lengthAdjust="spacing" text-decoration="underline" textLength="328" x="2014.5" y="129.3857">authenticateCertificate(): Promise&lt;boolean&gt;</text></g><!--MD5=[a15ad7516c70d4b9b7daf1dcd556bf55]
class ButtonComponentProps--><g id="elem_ButtonComponentProps"><rect codeLine="16" fill="#F1F1F1" height="113.1875" id="ButtonComponentProps" rx="2.5" ry="2.5" style="stroke:#181818;stroke-width:0.5;" width="244" x="7" y="23.5"/><ellipse cx="41.35" cy="39.5" fill="#B4A7E5" rx="11" ry="11" style="stroke:#181818;stroke-width:1.0;"/><path d="M42.3031,36.2813 L44.0219,36.2813 C44.4125,36.2813 44.6,36.25 44.725,36.1719 C44.9906,36.0156 45.1313,35.7344 45.1313,35.4375 C45.1313,35.1719 45.0219,34.9063 44.7875,34.7344 C44.6156,34.625 44.475,34.5938 44.0219,34.5938 L38.8813,34.5938 C38.4438,34.5938 38.3188,34.6094 38.1625,34.7031 C37.9125,34.8594 37.7563,35.1563 37.7563,35.4375 C37.7563,35.7188 37.8969,35.9688 38.1156,36.1406 C38.2719,36.25 38.4594,36.2813 38.8813,36.2813 L40.6,36.2813 L40.6,42.7969 L38.8813,42.7969 C38.4438,42.7969 38.3188,42.8125 38.1625,42.9219 C37.9125,43.0781 37.7563,43.3594 37.7563,43.6563 C37.7563,43.9063 37.8969,44.1719 38.1156,44.3281 C38.2719,44.4531 38.475,44.5 38.8813,44.5 L44.0219,44.5 C44.7719,44.5 45.1313,44.2188 45.1313,43.6563 C45.1313,43.375 45.0219,43.125 44.7875,42.9531 C44.6156,42.8281 44.475,42.7969 44.0219,42.7969 L42.3031,42.7969 L42.3031,36.2813 Z " fill="#000000"/><text fill="#000000" font-family="sans-serif" font-size="14" font-style="italic" lengthAdjust="spacing" textLength="169" x="59.65" y="44.3467">ButtonComponentProps</text><line style="stroke:#181818;stroke-width:0.5;" x1="8" x2="250" y1="55.5" y2="55.5"/><ellipse cx="18" cy="66.5" fill="none" rx="3" ry="3" style="stroke:#038048;stroke-width:1.0;"/><text fill="#000000" font-family="sans-serif" font-size="14" lengthAdjust="spacing" textLength="188" x="27" y="72.4951">label: string | JSX.Element</text><ellipse cx="18" cy="82.7969" fill="none" rx="3" ry="3" style="stroke:#038048;stroke-width:1.0;"/><text fill="#000000" font-family="sans-serif" font-size="14" lengthAdjust="spacing" textLength="218" x="27" y="88.792">className?: string | undefined</text><ellipse cx="18" cy="99.0938" fill="none" rx="3" ry="3" style="stroke:#038048;stroke-width:1.0;"/><text fill="#000000" font-family="sans-serif" font-size="14" lengthAdjust="spacing" textLength="183" x="27" y="105.0889">width?: string | undefined</text><line style="stroke:#181818;stroke-width:0.5;" x1="8" x2="250" y1="112.3906" y2="112.3906"/><ellipse cx="18" cy="123.3906" fill="#84BE84" rx="3" ry="3" style="stroke:#038048;stroke-width:1.0;"/><text fill="#000000" font-family="sans-serif" font-size="14" lengthAdjust="spacing" textLength="132" x="27" y="129.3857">onClick: () =&gt; void</text></g><!--MD5=[2186d025af56077147d0e012ed57fb94]
class ButtonComponent--><g id="elem_ButtonComponent"><rect codeLine="22" fill="#F1F1F1" height="64.2969" id="ButtonComponent" rx="2.5" ry="2.5" style="stroke:#181818;stroke-width:0.5;" width="182" x="286" y="48"/><ellipse cx="307.3" cy="64" fill="#ADD1B2" rx="11" ry="11" style="stroke:#181818;stroke-width:1.0;"/><path d="M309.6438,59.6719 C308.7063,59.2344 308.1125,59.0938 307.2375,59.0938 C304.6125,59.0938 302.6125,61.1719 302.6125,63.8906 L302.6125,65.0156 C302.6125,67.5938 304.7219,69.4844 307.6125,69.4844 C308.8313,69.4844 309.9875,69.1875 310.7375,68.6406 C311.3156,68.2344 311.6438,67.7813 311.6438,67.3906 C311.6438,66.9375 311.2531,66.5469 310.7844,66.5469 C310.5656,66.5469 310.3625,66.625 310.175,66.8125 C309.7219,67.2969 309.7219,67.2969 309.5344,67.3906 C309.1125,67.6563 308.425,67.7813 307.6594,67.7813 C305.6125,67.7813 304.3156,66.6875 304.3156,64.9844 L304.3156,63.8906 C304.3156,62.1094 305.5656,60.7969 307.3,60.7969 C307.8781,60.7969 308.4875,60.9531 308.9563,61.2031 C309.4406,61.4844 309.6125,61.7031 309.7063,62.1094 C309.7688,62.5156 309.8,62.6406 309.9406,62.7656 C310.0813,62.9063 310.3156,63.0156 310.5344,63.0156 C310.8,63.0156 311.0656,62.875 311.2375,62.6563 C311.3469,62.5 311.3781,62.3125 311.3781,61.8906 L311.3781,60.4688 C311.3781,60.0313 311.3625,59.9063 311.2688,59.75 C311.1125,59.4844 310.8313,59.3438 310.5344,59.3438 C310.2375,59.3438 310.0344,59.4375 309.8156,59.75 L309.6438,59.6719 Z " fill="#000000"/><text fill="#000000" font-family="sans-serif" font-size="14" lengthAdjust="spacing" textLength="136" x="322.7" y="68.8467">ButtonComponent</text><line style="stroke:#181818;stroke-width:0.5;" x1="287" x2="467" y1="80" y2="80"/><line style="stroke:#181818;stroke-width:0.5;" x1="287" x2="467" y1="88" y2="88"/><ellipse cx="297" cy="99" fill="#84BE84" rx="3" ry="3" style="stroke:#038048;stroke-width:1.0;"/><text fill="#000000" font-family="sans-serif" font-size="14" lengthAdjust="spacing" textLength="156" x="306" y="104.9951">render(): JSX.Element</text></g><!--MD5=[9f3c2eb4a79ed7dba2e57e2265960d54]
class GameAccess--><g id="elem_GameAccess"><rect codeLine="25" fill="#F1F1F1" height="129.4844" id="GameAccess" rx="2.5" ry="2.5" style="stroke:#181818;stroke-width:0.5;" width="475" x="503.5" y="15.5"/><ellipse cx="691.25" cy="31.5" fill="#ADD1B2" rx="11" ry="11" style="stroke:#181818;stroke-width:1.0;"/><path d="M693.5938,27.1719 C692.6563,26.7344 692.0625,26.5938 691.1875,26.5938 C688.5625,26.5938 686.5625,28.6719 686.5625,31.3906 L686.5625,32.5156 C686.5625,35.0938 688.6719,36.9844 691.5625,36.9844 C692.7813,36.9844 693.9375,36.6875 694.6875,36.1406 C695.2656,35.7344 695.5938,35.2813 695.5938,34.8906 C695.5938,34.4375 695.2031,34.0469 694.7344,34.0469 C694.5156,34.0469 694.3125,34.125 694.125,34.3125 C693.6719,34.7969 693.6719,34.7969 693.4844,34.8906 C693.0625,35.1563 692.375,35.2813 691.6094,35.2813 C689.5625,35.2813 688.2656,34.1875 688.2656,32.4844 L688.2656,31.3906 C688.2656,29.6094 689.5156,28.2969 691.25,28.2969 C691.8281,28.2969 692.4375,28.4531 692.9063,28.7031 C693.3906,28.9844 693.5625,29.2031 693.6563,29.6094 C693.7188,30.0156 693.75,30.1406 693.8906,30.2656 C694.0313,30.4063 694.2656,30.5156 694.4844,30.5156 C694.75,30.5156 695.0156,30.375 695.1875,30.1563 C695.2969,30 695.3281,29.8125 695.3281,29.3906 L695.3281,27.9688 C695.3281,27.5313 695.3125,27.4063 695.2188,27.25 C695.0625,26.9844 694.7813,26.8438 694.4844,26.8438 C694.1875,26.8438 693.9844,26.9375 693.7656,27.25 L693.5938,27.1719 Z " fill="#000000"/><text fill="#000000" font-family="sans-serif" font-size="14" lengthAdjust="spacing" textLength="91" x="711.75" y="36.3467">GameAccess</text><line style="stroke:#181818;stroke-width:0.5;" x1="504.5" x2="977.5" y1="47.5" y2="47.5"/><line style="stroke:#181818;stroke-width:0.5;" x1="504.5" x2="977.5" y1="55.5" y2="55.5"/><ellipse cx="514.5" cy="66.5" fill="#84BE84" rx="3" ry="3" style="stroke:#038048;stroke-width:1.0;"/><text fill="#000000" font-family="sans-serif" font-size="14" lengthAdjust="spacing" text-decoration="underline" textLength="385" x="523.5" y="72.4951">createGame(): Promise&lt;IGameCreatedAPIResponse&gt;</text><ellipse cx="514.5" cy="82.7969" fill="#84BE84" rx="3" ry="3" style="stroke:#038048;stroke-width:1.0;"/><text fill="#000000" font-family="sans-serif" font-size="14" lengthAdjust="spacing" text-decoration="underline" textLength="388" x="523.5" y="88.792">joinGame(gameKey: string[]): Promise&lt;APIResponse&gt;</text><ellipse cx="514.5" cy="99.0938" fill="#84BE84" rx="3" ry="3" style="stroke:#038048;stroke-width:1.0;"/><text fill="#000000" font-family="sans-serif" font-size="14" lengthAdjust="spacing" text-decoration="underline" textLength="449" x="523.5" y="105.0889">move(source: Square, target: Square): Promise&lt;APIResponse&gt;</text><ellipse cx="514.5" cy="115.3906" fill="#84BE84" rx="3" ry="3" style="stroke:#038048;stroke-width:1.0;"/><text fill="#000000" font-family="sans-serif" font-size="14" lengthAdjust="spacing" text-decoration="underline" textLength="309" x="523.5" y="121.3857">getMessages(): Promise&lt;IGameMessage[]&gt;</text><ellipse cx="514.5" cy="131.6875" fill="#84BE84" rx="3" ry="3" style="stroke:#038048;stroke-width:1.0;"/><text fill="#000000" font-family="sans-serif" font-size="14" lengthAdjust="spacing" text-decoration="underline" textLength="193" x="523.5" y="137.6826">getFEN(): Promise&lt;string&gt;</text></g><!--MD5=[6ed6c4c43e156c4e22684da7b29798a8]
class UINavigator--><g id="elem_UINavigator"><rect codeLine="32" fill="#F1F1F1" height="64.2969" id="UINavigator" rx="2.5" ry="2.5" style="stroke:#181818;stroke-width:0.5;" width="282" x="1014" y="48"/><ellipse cx="1109.75" cy="64" fill="#ADD1B2" rx="11" ry="11" style="stroke:#181818;stroke-width:1.0;"/><path d="M1112.0938,59.6719 C1111.1563,59.2344 1110.5625,59.0938 1109.6875,59.0938 C1107.0625,59.0938 1105.0625,61.1719 1105.0625,63.8906 L1105.0625,65.0156 C1105.0625,67.5938 1107.1719,69.4844 1110.0625,69.4844 C1111.2813,69.4844 1112.4375,69.1875 1113.1875,68.6406 C1113.7656,68.2344 1114.0938,67.7813 1114.0938,67.3906 C1114.0938,66.9375 1113.7031,66.5469 1113.2344,66.5469 C1113.0156,66.5469 1112.8125,66.625 1112.625,66.8125 C1112.1719,67.2969 1112.1719,67.2969 1111.9844,67.3906 C1111.5625,67.6563 1110.875,67.7813 1110.1094,67.7813 C1108.0625,67.7813 1106.7656,66.6875 1106.7656,64.9844 L1106.7656,63.8906 C1106.7656,62.1094 1108.0156,60.7969 1109.75,60.7969 C1110.3281,60.7969 1110.9375,60.9531 1111.4063,61.2031 C1111.8906,61.4844 1112.0625,61.7031 1112.1563,62.1094 C1112.2188,62.5156 1112.25,62.6406 1112.3906,62.7656 C1112.5313,62.9063 1112.7656,63.0156 1112.9844,63.0156 C1113.25,63.0156 1113.5156,62.875 1113.6875,62.6563 C1113.7969,62.5 1113.8281,62.3125 1113.8281,61.8906 L1113.8281,60.4688 C1113.8281,60.0313 1113.8125,59.9063 1113.7188,59.75 C1113.5625,59.4844 1113.2813,59.3438 1112.9844,59.3438 C1112.6875,59.3438 1112.4844,59.4375 1112.2656,59.75 L1112.0938,59.6719 Z " fill="#000000"/><text fill="#000000" font-family="sans-serif" font-size="14" lengthAdjust="spacing" textLength="82" x="1130.25" y="68.8467">UINavigator</text><line style="stroke:#181818;stroke-width:0.5;" x1="1015" x2="1295" y1="80" y2="80"/><line style="stroke:#181818;stroke-width:0.5;" x1="1015" x2="1295" y1="88" y2="88"/><ellipse cx="1025" cy="99" fill="#84BE84" rx="3" ry="3" style="stroke:#038048;stroke-width:1.0;"/><text fill="#000000" font-family="sans-serif" font-size="14" lengthAdjust="spacing" text-decoration="underline" textLength="256" x="1034" y="104.9951">render(element: JSX.Element): void</text></g><!--MD5=[5b1bca0448ede4c844a70b1930375f15]
class ChatComponent--><g id="elem_ChatComponent"><rect codeLine="35" fill="#F1F1F1" height="96.8906" id="ChatComponent" rx="2.5" ry="2.5" style="stroke:#181818;stroke-width:0.5;" width="228" x="1331" y="31.5"/><ellipse cx="1380.75" cy="47.5" fill="#ADD1B2" rx="11" ry="11" style="stroke:#181818;stroke-width:1.0;"/><path d="M1383.0938,43.1719 C1382.1563,42.7344 1381.5625,42.5938 1380.6875,42.5938 C1378.0625,42.5938 1376.0625,44.6719 1376.0625,47.3906 L1376.0625,48.5156 C1376.0625,51.0938 1378.1719,52.9844 1381.0625,52.9844 C1382.2813,52.9844 1383.4375,52.6875 1384.1875,52.1406 C1384.7656,51.7344 1385.0938,51.2813 1385.0938,50.8906 C1385.0938,50.4375 1384.7031,50.0469 1384.2344,50.0469 C1384.0156,50.0469 1383.8125,50.125 1383.625,50.3125 C1383.1719,50.7969 1383.1719,50.7969 1382.9844,50.8906 C1382.5625,51.1563 1381.875,51.2813 1381.1094,51.2813 C1379.0625,51.2813 1377.7656,50.1875 1377.7656,48.4844 L1377.7656,47.3906 C1377.7656,45.6094 1379.0156,44.2969 1380.75,44.2969 C1381.3281,44.2969 1381.9375,44.4531 1382.4063,44.7031 C1382.8906,44.9844 1383.0625,45.2031 1383.1563,45.6094 C1383.2188,46.0156 1383.25,46.1406 1383.3906,46.2656 C1383.5313,46.4063 1383.7656,46.5156 1383.9844,46.5156 C1384.25,46.5156 1384.5156,46.375 1384.6875,46.1563 C1384.7969,46 1384.8281,45.8125 1384.8281,45.3906 L1384.8281,43.9688 C1384.8281,43.5313 1384.8125,43.4063 1384.7188,43.25 C1384.5625,42.9844 1384.2813,42.8438 1383.9844,42.8438 C1383.6875,42.8438 1383.4844,42.9375 1383.2656,43.25 L1383.0938,43.1719 Z " fill="#000000"/><text fill="#000000" font-family="sans-serif" font-size="14" lengthAdjust="spacing" textLength="120" x="1401.25" y="52.3467">ChatComponent</text><line style="stroke:#181818;stroke-width:0.5;" x1="1332" x2="1558" y1="63.5" y2="63.5"/><line style="stroke:#181818;stroke-width:0.5;" x1="1332" x2="1558" y1="71.5" y2="71.5"/><ellipse cx="1342" cy="82.5" fill="#84BE84" rx="3" ry="3" style="stroke:#038048;stroke-width:1.0;"/><text fill="#000000" font-family="sans-serif" font-size="14" lengthAdjust="spacing" textLength="202" x="1351" y="88.4951">componentDidMount(): void</text><ellipse cx="1342" cy="98.7969" fill="#84BE84" rx="3" ry="3" style="stroke:#038048;stroke-width:1.0;"/><text fill="#000000" font-family="sans-serif" font-size="14" lengthAdjust="spacing" textLength="156" x="1351" y="104.792">render(): JSX.Element</text><ellipse cx="1342" cy="115.0938" fill="#84BE84" rx="3" ry="3" style="stroke:#038048;stroke-width:1.0;"/><text fill="#000000" font-family="sans-serif" font-size="14" lengthAdjust="spacing" textLength="149" x="1351" y="121.0889">syncMessages(): void</text></g><!--MD5=[62a3bf4d141c32f4d5b3d3c890b25233]
class ChessboardComponent--><g id="elem_ChessboardComponent"><rect codeLine="40" fill="#F1F1F1" height="145.7813" id="ChessboardComponent" rx="2.5" ry="2.5" style="stroke:#181818;stroke-width:0.5;" width="365" x="1594.5" y="7"/><ellipse cx="1687.75" cy="23" fill="#ADD1B2" rx="11" ry="11" style="stroke:#181818;stroke-width:1.0;"/><path d="M1690.0938,18.6719 C1689.1563,18.2344 1688.5625,18.0938 1687.6875,18.0938 C1685.0625,18.0938 1683.0625,20.1719 1683.0625,22.8906 L1683.0625,24.0156 C1683.0625,26.5938 1685.1719,28.4844 1688.0625,28.4844 C1689.2813,28.4844 1690.4375,28.1875 1691.1875,27.6406 C1691.7656,27.2344 1692.0938,26.7813 1692.0938,26.3906 C1692.0938,25.9375 1691.7031,25.5469 1691.2344,25.5469 C1691.0156,25.5469 1690.8125,25.625 1690.625,25.8125 C1690.1719,26.2969 1690.1719,26.2969 1689.9844,26.3906 C1689.5625,26.6563 1688.875,26.7813 1688.1094,26.7813 C1686.0625,26.7813 1684.7656,25.6875 1684.7656,23.9844 L1684.7656,22.8906 C1684.7656,21.1094 1686.0156,19.7969 1687.75,19.7969 C1688.3281,19.7969 1688.9375,19.9531 1689.4063,20.2031 C1689.8906,20.4844 1690.0625,20.7031 1690.1563,21.1094 C1690.2188,21.5156 1690.25,21.6406 1690.3906,21.7656 C1690.5313,21.9063 1690.7656,22.0156 1690.9844,22.0156 C1691.25,22.0156 1691.5156,21.875 1691.6875,21.6563 C1691.7969,21.5 1691.8281,21.3125 1691.8281,20.8906 L1691.8281,19.4688 C1691.8281,19.0313 1691.8125,18.9063 1691.7188,18.75 C1691.5625,18.4844 1691.2813,18.3438 1690.9844,18.3438 C1690.6875,18.3438 1690.4844,18.4375 1690.2656,18.75 L1690.0938,18.6719 Z " fill="#000000"/><text fill="#000000" font-family="sans-serif" font-size="14" lengthAdjust="spacing" textLength="170" x="1708.25" y="27.8467">ChessboardComponent</text><line style="stroke:#181818;stroke-width:0.5;" x1="1595.5" x2="1958.5" y1="39" y2="39"/><rect fill="none" height="6" style="stroke:#C82930;stroke-width:1.0;" width="6" x="1602.5" y="47"/><text fill="#000000" font-family="sans-serif" font-size="14" lengthAdjust="spacing" textLength="244" x="1614.5" y="55.9951">syncInterval?: number | undefined</text><line style="stroke:#181818;stroke-width:0.5;" x1="1595.5" x2="1958.5" y1="63.2969" y2="63.2969"/><ellipse cx="1605.5" cy="74.2969" fill="#84BE84" rx="3" ry="3" style="stroke:#038048;stroke-width:1.0;"/><text fill="#000000" font-family="sans-serif" font-size="14" lengthAdjust="spacing" textLength="123" x="1614.5" y="80.292">syncBoard(): void</text><ellipse cx="1605.5" cy="90.5938" fill="#84BE84" rx="3" ry="3" style="stroke:#038048;stroke-width:1.0;"/><text fill="#000000" font-family="sans-serif" font-size="14" lengthAdjust="spacing" textLength="158" x="1614.5" y="96.5889">beginAutoSync(): void</text><ellipse cx="1605.5" cy="106.8906" fill="#84BE84" rx="3" ry="3" style="stroke:#038048;stroke-width:1.0;"/><text fill="#000000" font-family="sans-serif" font-size="14" lengthAdjust="spacing" textLength="150" x="1614.5" y="112.8857">stopAutoSync(): void</text><ellipse cx="1605.5" cy="123.1875" fill="#84BE84" rx="3" ry="3" style="stroke:#038048;stroke-width:1.0;"/><text fill="#000000" font-family="sans-serif" font-size="14" lengthAdjust="spacing" textLength="156" x="1614.5" y="129.1826">render(): JSX.Element</text><rect fill="#F24D5C" height="6" style="stroke:#C82930;stroke-width:1.0;" width="6" x="1602.5" y="136.4844"/><text fill="#000000" font-family="sans-serif" font-size="14" lengthAdjust="spacing" textLength="339" x="1614.5" y="145.4795">tryMove(source: string, target: string): boolean</text></g><!--MD5=[db219d7c83cb2f2f92adfdd95e84aa2f]
class MultiplayerMatch--><g id="elem_MultiplayerMatch"><rect codeLine="48" fill="#F1F1F1" height="64.2969" id="MultiplayerMatch" rx="2.5" ry="2.5" style="stroke:#181818;stroke-width:0.5;" width="182" x="38" y="237.5"/><ellipse cx="64.7" cy="253.5" fill="#ADD1B2" rx="11" ry="11" style="stroke:#181818;stroke-width:1.0;"/><path d="M67.0438,249.1719 C66.1063,248.7344 65.5125,248.5938 64.6375,248.5938 C62.0125,248.5938 60.0125,250.6719 60.0125,253.3906 L60.0125,254.5156 C60.0125,257.0938 62.1219,258.9844 65.0125,258.9844 C66.2313,258.9844 67.3875,258.6875 68.1375,258.1406 C68.7156,257.7344 69.0438,257.2813 69.0438,256.8906 C69.0438,256.4375 68.6531,256.0469 68.1844,256.0469 C67.9656,256.0469 67.7625,256.125 67.575,256.3125 C67.1219,256.7969 67.1219,256.7969 66.9344,256.8906 C66.5125,257.1563 65.825,257.2813 65.0594,257.2813 C63.0125,257.2813 61.7156,256.1875 61.7156,254.4844 L61.7156,253.3906 C61.7156,251.6094 62.9656,250.2969 64.7,250.2969 C65.2781,250.2969 65.8875,250.4531 66.3563,250.7031 C66.8406,250.9844 67.0125,251.2031 67.1063,251.6094 C67.1688,252.0156 67.2,252.1406 67.3406,252.2656 C67.4813,252.4063 67.7156,252.5156 67.9344,252.5156 C68.2,252.5156 68.4656,252.375 68.6375,252.1563 C68.7469,252 68.7781,251.8125 68.7781,251.3906 L68.7781,249.9688 C68.7781,249.5313 68.7625,249.4063 68.6688,249.25 C68.5125,248.9844 68.2313,248.8438 67.9344,248.8438 C67.6375,248.8438 67.4344,248.9375 67.2156,249.25 L67.0438,249.1719 Z " fill="#000000"/><text fill="#000000" font-family="sans-serif" font-size="14" lengthAdjust="spacing" textLength="124" x="81.3" y="258.3467">MultiplayerMatch</text><line style="stroke:#181818;stroke-width:0.5;" x1="39" x2="219" y1="269.5" y2="269.5"/><line style="stroke:#181818;stroke-width:0.5;" x1="39" x2="219" y1="277.5" y2="277.5"/><ellipse cx="49" cy="288.5" fill="#84BE84" rx="3" ry="3" style="stroke:#038048;stroke-width:1.0;"/><text fill="#000000" font-family="sans-serif" font-size="14" lengthAdjust="spacing" textLength="156" x="58" y="294.4951">render(): JSX.Element</text></g><!--MD5=[4ab6e587f8e91f821f17c334c3073b69]
class EmojiKeyboardState--><g id="elem_EmojiKeyboardState"><rect codeLine="51" fill="#F1F1F1" height="64.2969" id="EmojiKeyboardState" rx="2.5" ry="2.5" style="stroke:#181818;stroke-width:0.5;" width="262" x="255" y="237.5"/><ellipse cx="309.25" cy="253.5" fill="#B4A7E5" rx="11" ry="11" style="stroke:#181818;stroke-width:1.0;"/><path d="M310.2031,250.2813 L311.9219,250.2813 C312.3125,250.2813 312.5,250.25 312.625,250.1719 C312.8906,250.0156 313.0313,249.7344 313.0313,249.4375 C313.0313,249.1719 312.9219,248.9063 312.6875,248.7344 C312.5156,248.625 312.375,248.5938 311.9219,248.5938 L306.7813,248.5938 C306.3438,248.5938 306.2188,248.6094 306.0625,248.7031 C305.8125,248.8594 305.6563,249.1563 305.6563,249.4375 C305.6563,249.7188 305.7969,249.9688 306.0156,250.1406 C306.1719,250.25 306.3594,250.2813 306.7813,250.2813 L308.5,250.2813 L308.5,256.7969 L306.7813,256.7969 C306.3438,256.7969 306.2188,256.8125 306.0625,256.9219 C305.8125,257.0781 305.6563,257.3594 305.6563,257.6563 C305.6563,257.9063 305.7969,258.1719 306.0156,258.3281 C306.1719,258.4531 306.375,258.5 306.7813,258.5 L311.9219,258.5 C312.6719,258.5 313.0313,258.2188 313.0313,257.6563 C313.0313,257.375 312.9219,257.125 312.6875,256.9531 C312.5156,256.8281 312.375,256.7969 311.9219,256.7969 L310.2031,256.7969 L310.2031,250.2813 Z " fill="#000000"/><text fill="#000000" font-family="sans-serif" font-size="14" font-style="italic" lengthAdjust="spacing" textLength="145" x="329.75" y="258.3467">EmojiKeyboardState</text><line style="stroke:#181818;stroke-width:0.5;" x1="256" x2="516" y1="269.5" y2="269.5"/><ellipse cx="266" cy="280.5" fill="none" rx="3" ry="3" style="stroke:#038048;stroke-width:1.0;"/><text fill="#000000" font-family="sans-serif" font-size="14" lengthAdjust="spacing" textLength="236" x="275" y="286.4951">value: EmojiSerializationRecord[]</text><line style="stroke:#181818;stroke-width:0.5;" x1="256" x2="516" y1="293.7969" y2="293.7969"/></g><!--MD5=[6e9d65db7df47fdde9af52a9548ea5a6]
class EmojiKeyboardProps--><g id="elem_EmojiKeyboardProps"><rect codeLine="54" fill="#F1F1F1" height="64.2969" id="EmojiKeyboardProps" rx="2.5" ry="2.5" style="stroke:#181818;stroke-width:0.5;" width="515" x="552.5" y="237.5"/><ellipse cx="732.25" cy="253.5" fill="#B4A7E5" rx="11" ry="11" style="stroke:#181818;stroke-width:1.0;"/><path d="M733.2031,250.2813 L734.9219,250.2813 C735.3125,250.2813 735.5,250.25 735.625,250.1719 C735.8906,250.0156 736.0313,249.7344 736.0313,249.4375 C736.0313,249.1719 735.9219,248.9063 735.6875,248.7344 C735.5156,248.625 735.375,248.5938 734.9219,248.5938 L729.7813,248.5938 C729.3438,248.5938 729.2188,248.6094 729.0625,248.7031 C728.8125,248.8594 728.6563,249.1563 728.6563,249.4375 C728.6563,249.7188 728.7969,249.9688 729.0156,250.1406 C729.1719,250.25 729.3594,250.2813 729.7813,250.2813 L731.5,250.2813 L731.5,256.7969 L729.7813,256.7969 C729.3438,256.7969 729.2188,256.8125 729.0625,256.9219 C728.8125,257.0781 728.6563,257.3594 728.6563,257.6563 C728.6563,257.9063 728.7969,258.1719 729.0156,258.3281 C729.1719,258.4531 729.375,258.5 729.7813,258.5 L734.9219,258.5 C735.6719,258.5 736.0313,258.2188 736.0313,257.6563 C736.0313,257.375 735.9219,257.125 735.6875,256.9531 C735.5156,256.8281 735.375,256.7969 734.9219,256.7969 L733.2031,256.7969 L733.2031,250.2813 Z " fill="#000000"/><text fill="#000000" font-family="sans-serif" font-size="14" font-style="italic" lengthAdjust="spacing" textLength="147" x="752.75" y="258.3467">EmojiKeyboardProps</text><line style="stroke:#181818;stroke-width:0.5;" x1="553.5" x2="1066.5" y1="269.5" y2="269.5"/><line style="stroke:#181818;stroke-width:0.5;" x1="553.5" x2="1066.5" y1="277.5" y2="277.5"/><ellipse cx="563.5" cy="288.5" fill="#84BE84" rx="3" ry="3" style="stroke:#038048;stroke-width:1.0;"/><text fill="#000000" font-family="sans-serif" font-size="14" lengthAdjust="spacing" textLength="489" x="572.5" y="294.4951">onChange?: ((value: EmojiSerializationRecord[]) =&gt; void) | undefined</text></g><!--MD5=[2a5d35b9ab3dd087792f3f09d0784f8b]
class EmojiKeyboard--><g id="elem_EmojiKeyboard"><rect codeLine="57" fill="#F1F1F1" height="64.2969" id="EmojiKeyboard" rx="2.5" ry="2.5" style="stroke:#181818;stroke-width:0.5;" width="182" x="1103" y="237.5"/><ellipse cx="1136.45" cy="253.5" fill="#ADD1B2" rx="11" ry="11" style="stroke:#181818;stroke-width:1.0;"/><path d="M1138.7938,249.1719 C1137.8563,248.7344 1137.2625,248.5938 1136.3875,248.5938 C1133.7625,248.5938 1131.7625,250.6719 1131.7625,253.3906 L1131.7625,254.5156 C1131.7625,257.0938 1133.8719,258.9844 1136.7625,258.9844 C1137.9813,258.9844 1139.1375,258.6875 1139.8875,258.1406 C1140.4656,257.7344 1140.7938,257.2813 1140.7938,256.8906 C1140.7938,256.4375 1140.4031,256.0469 1139.9344,256.0469 C1139.7156,256.0469 1139.5125,256.125 1139.325,256.3125 C1138.8719,256.7969 1138.8719,256.7969 1138.6844,256.8906 C1138.2625,257.1563 1137.575,257.2813 1136.8094,257.2813 C1134.7625,257.2813 1133.4656,256.1875 1133.4656,254.4844 L1133.4656,253.3906 C1133.4656,251.6094 1134.7156,250.2969 1136.45,250.2969 C1137.0281,250.2969 1137.6375,250.4531 1138.1063,250.7031 C1138.5906,250.9844 1138.7625,251.2031 1138.8563,251.6094 C1138.9188,252.0156 1138.95,252.1406 1139.0906,252.2656 C1139.2313,252.4063 1139.4656,252.5156 1139.6844,252.5156 C1139.95,252.5156 1140.2156,252.375 1140.3875,252.1563 C1140.4969,252 1140.5281,251.8125 1140.5281,251.3906 L1140.5281,249.9688 C1140.5281,249.5313 1140.5125,249.4063 1140.4188,249.25 C1140.2625,248.9844 1139.9813,248.8438 1139.6844,248.8438 C1139.3875,248.8438 1139.1844,248.9375 1138.9656,249.25 L1138.7938,249.1719 Z " fill="#000000"/><text fill="#000000" font-family="sans-serif" font-size="14" lengthAdjust="spacing" textLength="109" x="1154.55" y="258.3467">EmojiKeyboard</text><line style="stroke:#181818;stroke-width:0.5;" x1="1104" x2="1284" y1="269.5" y2="269.5"/><line style="stroke:#181818;stroke-width:0.5;" x1="1104" x2="1284" y1="277.5" y2="277.5"/><ellipse cx="1114" cy="288.5" fill="#84BE84" rx="3" ry="3" style="stroke:#038048;stroke-width:1.0;"/><text fill="#000000" font-family="sans-serif" font-size="14" lengthAdjust="spacing" textLength="156" x="1123" y="294.4951">render(): JSX.Element</text></g><!--MD5=[cb0bc1dbdaa69f98db8edfd27c4acff4]
class FriendGameSetupComponent--><g id="elem_FriendGameSetupComponent"><rect codeLine="60" fill="#F1F1F1" height="113.1875" id="FriendGameSetupComponent" rx="2.5" ry="2.5" style="stroke:#181818;stroke-width:0.5;" width="379" x="1320.5" y="213"/><ellipse cx="1397.75" cy="229" fill="#ADD1B2" rx="11" ry="11" style="stroke:#181818;stroke-width:1.0;"/><path d="M1400.0938,224.6719 C1399.1563,224.2344 1398.5625,224.0938 1397.6875,224.0938 C1395.0625,224.0938 1393.0625,226.1719 1393.0625,228.8906 L1393.0625,230.0156 C1393.0625,232.5938 1395.1719,234.4844 1398.0625,234.4844 C1399.2813,234.4844 1400.4375,234.1875 1401.1875,233.6406 C1401.7656,233.2344 1402.0938,232.7813 1402.0938,232.3906 C1402.0938,231.9375 1401.7031,231.5469 1401.2344,231.5469 C1401.0156,231.5469 1400.8125,231.625 1400.625,231.8125 C1400.1719,232.2969 1400.1719,232.2969 1399.9844,232.3906 C1399.5625,232.6563 1398.875,232.7813 1398.1094,232.7813 C1396.0625,232.7813 1394.7656,231.6875 1394.7656,229.9844 L1394.7656,228.8906 C1394.7656,227.1094 1396.0156,225.7969 1397.75,225.7969 C1398.3281,225.7969 1398.9375,225.9531 1399.4063,226.2031 C1399.8906,226.4844 1400.0625,226.7031 1400.1563,227.1094 C1400.2188,227.5156 1400.25,227.6406 1400.3906,227.7656 C1400.5313,227.9063 1400.7656,228.0156 1400.9844,228.0156 C1401.25,228.0156 1401.5156,227.875 1401.6875,227.6563 C1401.7969,227.5 1401.8281,227.3125 1401.8281,226.8906 L1401.8281,225.4688 C1401.8281,225.0313 1401.8125,224.9063 1401.7188,224.75 C1401.5625,224.4844 1401.2813,224.3438 1400.9844,224.3438 C1400.6875,224.3438 1400.4844,224.4375 1400.2656,224.75 L1400.0938,224.6719 Z " fill="#000000"/><text fill="#000000" font-family="sans-serif" font-size="14" lengthAdjust="spacing" textLength="216" x="1418.25" y="233.8467">FriendGameSetupComponent</text><line style="stroke:#181818;stroke-width:0.5;" x1="1321.5" x2="1698.5" y1="245" y2="245"/><line style="stroke:#181818;stroke-width:0.5;" x1="1321.5" x2="1698.5" y1="253" y2="253"/><ellipse cx="1331.5" cy="264" fill="#84BE84" rx="3" ry="3" style="stroke:#038048;stroke-width:1.0;"/><text fill="#000000" font-family="sans-serif" font-size="14" lengthAdjust="spacing" textLength="156" x="1340.5" y="269.9951">render(): JSX.Element</text><ellipse cx="1331.5" cy="280.2969" fill="#84BE84" rx="3" ry="3" style="stroke:#038048;stroke-width:1.0;"/><text fill="#000000" font-family="sans-serif" font-size="14" lengthAdjust="spacing" text-decoration="underline" textLength="138" x="1340.5" y="286.292">createGame(): void</text><ellipse cx="1331.5" cy="296.5938" fill="#84BE84" rx="3" ry="3" style="stroke:#038048;stroke-width:1.0;"/><text fill="#000000" font-family="sans-serif" font-size="14" lengthAdjust="spacing" text-decoration="underline" textLength="291" x="1340.5" y="302.5889">emojiNameToEmoji(name: string): string</text><ellipse cx="1331.5" cy="312.8906" fill="#84BE84" rx="3" ry="3" style="stroke:#038048;stroke-width:1.0;"/><text fill="#000000" font-family="sans-serif" font-size="14" lengthAdjust="spacing" text-decoration="underline" textLength="353" x="1340.5" y="318.8857">emojiNameListToEmoji(nameList: string[]): string</text></g><!--MD5=[e085942d11bea0b20b98622396c5c512]
class BoardScreenProps--><g id="elem_BoardScreenProps"><rect codeLine="66" fill="#F1F1F1" height="80.5938" id="BoardScreenProps" rx="2.5" ry="2.5" style="stroke:#181818;stroke-width:0.5;" width="164" x="1735" y="229"/><ellipse cx="1750" cy="245" fill="#B4A7E5" rx="11" ry="11" style="stroke:#181818;stroke-width:1.0;"/><path d="M1750.9531,241.7813 L1752.6719,241.7813 C1753.0625,241.7813 1753.25,241.75 1753.375,241.6719 C1753.6406,241.5156 1753.7813,241.2344 1753.7813,240.9375 C1753.7813,240.6719 1753.6719,240.4063 1753.4375,240.2344 C1753.2656,240.125 1753.125,240.0938 1752.6719,240.0938 L1747.5313,240.0938 C1747.0938,240.0938 1746.9688,240.1094 1746.8125,240.2031 C1746.5625,240.3594 1746.4063,240.6563 1746.4063,240.9375 C1746.4063,241.2188 1746.5469,241.4688 1746.7656,241.6406 C1746.9219,241.75 1747.1094,241.7813 1747.5313,241.7813 L1749.25,241.7813 L1749.25,248.2969 L1747.5313,248.2969 C1747.0938,248.2969 1746.9688,248.3125 1746.8125,248.4219 C1746.5625,248.5781 1746.4063,248.8594 1746.4063,249.1563 C1746.4063,249.4063 1746.5469,249.6719 1746.7656,249.8281 C1746.9219,249.9531 1747.125,250 1747.5313,250 L1752.6719,250 C1753.4219,250 1753.7813,249.7188 1753.7813,249.1563 C1753.7813,248.875 1753.6719,248.625 1753.4375,248.4531 C1753.2656,248.3281 1753.125,248.2969 1752.6719,248.2969 L1750.9531,248.2969 L1750.9531,241.7813 Z " fill="#000000"/><text fill="#000000" font-family="sans-serif" font-size="14" font-style="italic" lengthAdjust="spacing" textLength="132" x="1764" y="249.8467">BoardScreenProps</text><line style="stroke:#181818;stroke-width:0.5;" x1="1736" x2="1898" y1="261" y2="261"/><ellipse cx="1746" cy="272" fill="none" rx="3" ry="3" style="stroke:#038048;stroke-width:1.0;"/><text fill="#000000" font-family="sans-serif" font-size="14" lengthAdjust="spacing" textLength="92" x="1755" y="277.9951">mode: string</text><ellipse cx="1746" cy="288.2969" fill="none" rx="3" ry="3" style="stroke:#038048;stroke-width:1.0;"/><text fill="#000000" font-family="sans-serif" font-size="14" lengthAdjust="spacing" textLength="121" x="1755" y="294.292">username: string</text><line style="stroke:#181818;stroke-width:0.5;" x1="1736" x2="1898" y1="301.5938" y2="301.5938"/></g><!--MD5=[536abb8badabbc6a32c02635f6ab4edf]
class BoardScreenState--><g id="elem_BoardScreenState"><rect codeLine="70" fill="#F1F1F1" height="80.5938" id="BoardScreenState" rx="2.5" ry="2.5" style="stroke:#181818;stroke-width:0.5;" width="162" x="48" y="418.5"/><ellipse cx="63" cy="434.5" fill="#B4A7E5" rx="11" ry="11" style="stroke:#181818;stroke-width:1.0;"/><path d="M63.9531,431.2813 L65.6719,431.2813 C66.0625,431.2813 66.25,431.25 66.375,431.1719 C66.6406,431.0156 66.7813,430.7344 66.7813,430.4375 C66.7813,430.1719 66.6719,429.9063 66.4375,429.7344 C66.2656,429.625 66.125,429.5938 65.6719,429.5938 L60.5313,429.5938 C60.0938,429.5938 59.9688,429.6094 59.8125,429.7031 C59.5625,429.8594 59.4063,430.1563 59.4063,430.4375 C59.4063,430.7188 59.5469,430.9688 59.7656,431.1406 C59.9219,431.25 60.1094,431.2813 60.5313,431.2813 L62.25,431.2813 L62.25,437.7969 L60.5313,437.7969 C60.0938,437.7969 59.9688,437.8125 59.8125,437.9219 C59.5625,438.0781 59.4063,438.3594 59.4063,438.6563 C59.4063,438.9063 59.5469,439.1719 59.7656,439.3281 C59.9219,439.4531 60.125,439.5 60.5313,439.5 L65.6719,439.5 C66.4219,439.5 66.7813,439.2188 66.7813,438.6563 C66.7813,438.375 66.6719,438.125 66.4375,437.9531 C66.2656,437.8281 66.125,437.7969 65.6719,437.7969 L63.9531,437.7969 L63.9531,431.2813 Z " fill="#000000"/><text fill="#000000" font-family="sans-serif" font-size="14" font-style="italic" lengthAdjust="spacing" textLength="130" x="77" y="439.3467">BoardScreenState</text><line style="stroke:#181818;stroke-width:0.5;" x1="49" x2="209" y1="450.5" y2="450.5"/><ellipse cx="59" cy="461.5" fill="none" rx="3" ry="3" style="stroke:#038048;stroke-width:1.0;"/><text fill="#000000" font-family="sans-serif" font-size="14" lengthAdjust="spacing" textLength="92" x="68" y="467.4951">mode: string</text><ellipse cx="59" cy="477.7969" fill="none" rx="3" ry="3" style="stroke:#038048;stroke-width:1.0;"/><text fill="#000000" font-family="sans-serif" font-size="14" lengthAdjust="spacing" textLength="121" x="68" y="483.792">username: string</text><line style="stroke:#181818;stroke-width:0.5;" x1="49" x2="209" y1="491.0938" y2="491.0938"/></g><!--MD5=[b22dae145db211a4cb09e1497c6debad]
class BoardScreen--><g id="elem_BoardScreen"><rect codeLine="74" fill="#F1F1F1" height="64.2969" id="BoardScreen" rx="2.5" ry="2.5" style="stroke:#181818;stroke-width:0.5;" width="182" x="245" y="427"/><ellipse cx="286.1" cy="443" fill="#ADD1B2" rx="11" ry="11" style="stroke:#181818;stroke-width:1.0;"/><path d="M288.4438,438.6719 C287.5063,438.2344 286.9125,438.0938 286.0375,438.0938 C283.4125,438.0938 281.4125,440.1719 281.4125,442.8906 L281.4125,444.0156 C281.4125,446.5938 283.5219,448.4844 286.4125,448.4844 C287.6313,448.4844 288.7875,448.1875 289.5375,447.6406 C290.1156,447.2344 290.4438,446.7813 290.4438,446.3906 C290.4438,445.9375 290.0531,445.5469 289.5844,445.5469 C289.3656,445.5469 289.1625,445.625 288.975,445.8125 C288.5219,446.2969 288.5219,446.2969 288.3344,446.3906 C287.9125,446.6563 287.225,446.7813 286.4594,446.7813 C284.4125,446.7813 283.1156,445.6875 283.1156,443.9844 L283.1156,442.8906 C283.1156,441.1094 284.3656,439.7969 286.1,439.7969 C286.6781,439.7969 287.2875,439.9531 287.7563,440.2031 C288.2406,440.4844 288.4125,440.7031 288.5063,441.1094 C288.5688,441.5156 288.6,441.6406 288.7406,441.7656 C288.8813,441.9063 289.1156,442.0156 289.3344,442.0156 C289.6,442.0156 289.8656,441.875 290.0375,441.6563 C290.1469,441.5 290.1781,441.3125 290.1781,440.8906 L290.1781,439.4688 C290.1781,439.0313 290.1625,438.9063 290.0688,438.75 C289.9125,438.4844 289.6313,438.3438 289.3344,438.3438 C289.0375,438.3438 288.8344,438.4375 288.6156,438.75 L288.4438,438.6719 Z " fill="#000000"/><text fill="#000000" font-family="sans-serif" font-size="14" lengthAdjust="spacing" textLength="92" x="305.9" y="447.8467">BoardScreen</text><line style="stroke:#181818;stroke-width:0.5;" x1="246" x2="426" y1="459" y2="459"/><line style="stroke:#181818;stroke-width:0.5;" x1="246" x2="426" y1="467" y2="467"/><ellipse cx="256" cy="478" fill="#84BE84" rx="3" ry="3" style="stroke:#038048;stroke-width:1.0;"/><text fill="#000000" font-family="sans-serif" font-size="14" lengthAdjust="spacing" textLength="156" x="265" y="483.9951">render(): JSX.Element</text></g><!--MD5=[b8d77e81fceafa2b29bb5113aa084d63]
class GameplayOptions--><g id="elem_GameplayOptions"><rect codeLine="77" fill="#F1F1F1" height="80.5938" id="GameplayOptions" rx="2.5" ry="2.5" style="stroke:#181818;stroke-width:0.5;" width="202" x="462" y="418.5"/><ellipse cx="495.45" cy="434.5" fill="#ADD1B2" rx="11" ry="11" style="stroke:#181818;stroke-width:1.0;"/><path d="M497.7938,430.1719 C496.8563,429.7344 496.2625,429.5938 495.3875,429.5938 C492.7625,429.5938 490.7625,431.6719 490.7625,434.3906 L490.7625,435.5156 C490.7625,438.0938 492.8719,439.9844 495.7625,439.9844 C496.9813,439.9844 498.1375,439.6875 498.8875,439.1406 C499.4656,438.7344 499.7938,438.2813 499.7938,437.8906 C499.7938,437.4375 499.4031,437.0469 498.9344,437.0469 C498.7156,437.0469 498.5125,437.125 498.325,437.3125 C497.8719,437.7969 497.8719,437.7969 497.6844,437.8906 C497.2625,438.1563 496.575,438.2813 495.8094,438.2813 C493.7625,438.2813 492.4656,437.1875 492.4656,435.4844 L492.4656,434.3906 C492.4656,432.6094 493.7156,431.2969 495.45,431.2969 C496.0281,431.2969 496.6375,431.4531 497.1063,431.7031 C497.5906,431.9844 497.7625,432.2031 497.8563,432.6094 C497.9188,433.0156 497.95,433.1406 498.0906,433.2656 C498.2313,433.4063 498.4656,433.5156 498.6844,433.5156 C498.95,433.5156 499.2156,433.375 499.3875,433.1563 C499.4969,433 499.5281,432.8125 499.5281,432.3906 L499.5281,430.9688 C499.5281,430.5313 499.5125,430.4063 499.4188,430.25 C499.2625,429.9844 498.9813,429.8438 498.6844,429.8438 C498.3875,429.8438 498.1844,429.9375 497.9656,430.25 L497.7938,430.1719 Z " fill="#000000"/><text fill="#000000" font-family="sans-serif" font-size="14" lengthAdjust="spacing" textLength="129" x="513.55" y="439.3467">GameplayOptions</text><line style="stroke:#181818;stroke-width:0.5;" x1="463" x2="663" y1="450.5" y2="450.5"/><line style="stroke:#181818;stroke-width:0.5;" x1="463" x2="663" y1="458.5" y2="458.5"/><ellipse cx="473" cy="469.5" fill="#84BE84" rx="3" ry="3" style="stroke:#038048;stroke-width:1.0;"/><text fill="#000000" font-family="sans-serif" font-size="14" lengthAdjust="spacing" textLength="156" x="482" y="475.4951">render(): JSX.Element</text><ellipse cx="473" cy="485.7969" fill="#84BE84" rx="3" ry="3" style="stroke:#038048;stroke-width:1.0;"/><text fill="#000000" font-family="sans-serif" font-size="14" lengthAdjust="spacing" text-decoration="underline" textLength="176" x="482" y="491.792">displayHowToPlay(): void</text></g><!--MD5=[b42ab46e255f4776ba148d14b0b7cc08]
class InputFieldValidationError--><g id="elem_InputFieldValidationError"><rect codeLine="81" fill="#F1F1F1" height="48" id="InputFieldValidationError" rx="2.5" ry="2.5" style="stroke:#181818;stroke-width:0.5;" width="212" x="2640" y="245.5"/><ellipse cx="2655" cy="261.5" fill="#ADD1B2" rx="11" ry="11" style="stroke:#181818;stroke-width:1.0;"/><path d="M2657.3438,257.1719 C2656.4063,256.7344 2655.8125,256.5938 2654.9375,256.5938 C2652.3125,256.5938 2650.3125,258.6719 2650.3125,261.3906 L2650.3125,262.5156 C2650.3125,265.0938 2652.4219,266.9844 2655.3125,266.9844 C2656.5313,266.9844 2657.6875,266.6875 2658.4375,266.1406 C2659.0156,265.7344 2659.3438,265.2813 2659.3438,264.8906 C2659.3438,264.4375 2658.9531,264.0469 2658.4844,264.0469 C2658.2656,264.0469 2658.0625,264.125 2657.875,264.3125 C2657.4219,264.7969 2657.4219,264.7969 2657.2344,264.8906 C2656.8125,265.1563 2656.125,265.2813 2655.3594,265.2813 C2653.3125,265.2813 2652.0156,264.1875 2652.0156,262.4844 L2652.0156,261.3906 C2652.0156,259.6094 2653.2656,258.2969 2655,258.2969 C2655.5781,258.2969 2656.1875,258.4531 2656.6563,258.7031 C2657.1406,258.9844 2657.3125,259.2031 2657.4063,259.6094 C2657.4688,260.0156 2657.5,260.1406 2657.6406,260.2656 C2657.7813,260.4063 2658.0156,260.5156 2658.2344,260.5156 C2658.5,260.5156 2658.7656,260.375 2658.9375,260.1563 C2659.0469,260 2659.0781,259.8125 2659.0781,259.3906 L2659.0781,257.9688 C2659.0781,257.5313 2659.0625,257.4063 2658.9688,257.25 C2658.8125,256.9844 2658.5313,256.8438 2658.2344,256.8438 C2657.9375,256.8438 2657.7344,256.9375 2657.5156,257.25 L2657.3438,257.1719 Z " fill="#000000"/><text fill="#000000" font-family="sans-serif" font-size="14" lengthAdjust="spacing" textLength="180" x="2669" y="266.3467">InputFieldValidationError</text><line style="stroke:#181818;stroke-width:0.5;" x1="2641" x2="2851" y1="277.5" y2="277.5"/><line style="stroke:#181818;stroke-width:0.5;" x1="2641" x2="2851" y1="285.5" y2="285.5"/></g><!--MD5=[b8cfd8c4119a3b0a7a46bfc5fc780f85]
class Error--><g id="elem_Error"><rect fill="#F1F1F1" height="48" id="Error" rx="2.5" ry="2.5" style="stroke:#181818;stroke-width:0.5;" width="68" x="2712" y="56"/><ellipse cx="2727" cy="72" fill="#ADD1B2" rx="11" ry="11" style="stroke:#181818;stroke-width:1.0;"/><path d="M2729.3438,67.6719 C2728.4063,67.2344 2727.8125,67.0938 2726.9375,67.0938 C2724.3125,67.0938 2722.3125,69.1719 2722.3125,71.8906 L2722.3125,73.0156 C2722.3125,75.5938 2724.4219,77.4844 2727.3125,77.4844 C2728.5313,77.4844 2729.6875,77.1875 2730.4375,76.6406 C2731.0156,76.2344 2731.3438,75.7813 2731.3438,75.3906 C2731.3438,74.9375 2730.9531,74.5469 2730.4844,74.5469 C2730.2656,74.5469 2730.0625,74.625 2729.875,74.8125 C2729.4219,75.2969 2729.4219,75.2969 2729.2344,75.3906 C2728.8125,75.6563 2728.125,75.7813 2727.3594,75.7813 C2725.3125,75.7813 2724.0156,74.6875 2724.0156,72.9844 L2724.0156,71.8906 C2724.0156,70.1094 2725.2656,68.7969 2727,68.7969 C2727.5781,68.7969 2728.1875,68.9531 2728.6563,69.2031 C2729.1406,69.4844 2729.3125,69.7031 2729.4063,70.1094 C2729.4688,70.5156 2729.5,70.6406 2729.6406,70.7656 C2729.7813,70.9063 2730.0156,71.0156 2730.2344,71.0156 C2730.5,71.0156 2730.7656,70.875 2730.9375,70.6563 C2731.0469,70.5 2731.0781,70.3125 2731.0781,69.8906 L2731.0781,68.4688 C2731.0781,68.0313 2731.0625,67.9063 2730.9688,67.75 C2730.8125,67.4844 2730.5313,67.3438 2730.2344,67.3438 C2729.9375,67.3438 2729.7344,67.4375 2729.5156,67.75 L2729.3438,67.6719 Z " fill="#000000"/><text fill="#000000" font-family="sans-serif" font-size="14" lengthAdjust="spacing" textLength="36" x="2741" y="76.8467">Error</text><line style="stroke:#181818;stroke-width:0.5;" x1="2713" x2="2779" y1="88" y2="88"/><line style="stroke:#181818;stroke-width:0.5;" x1="2713" x2="2779" y1="96" y2="96"/></g><!--MD5=[c256966700998fb813a28b2603bf7caf]
class InputFieldProps--><g id="elem_InputFieldProps"><rect codeLine="82" fill="#F1F1F1" height="145.7813" id="InputFieldProps" rx="2.5" ry="2.5" style="stroke:#181818;stroke-width:0.5;" width="498" x="699" y="386"/><ellipse cx="889.25" cy="402" fill="#B4A7E5" rx="11" ry="11" style="stroke:#181818;stroke-width:1.0;"/><path d="M890.2031,398.7813 L891.9219,398.7813 C892.3125,398.7813 892.5,398.75 892.625,398.6719 C892.8906,398.5156 893.0313,398.2344 893.0313,397.9375 C893.0313,397.6719 892.9219,397.4063 892.6875,397.2344 C892.5156,397.125 892.375,397.0938 891.9219,397.0938 L886.7813,397.0938 C886.3438,397.0938 886.2188,397.1094 886.0625,397.2031 C885.8125,397.3594 885.6563,397.6563 885.6563,397.9375 C885.6563,398.2188 885.7969,398.4688 886.0156,398.6406 C886.1719,398.75 886.3594,398.7813 886.7813,398.7813 L888.5,398.7813 L888.5,405.2969 L886.7813,405.2969 C886.3438,405.2969 886.2188,405.3125 886.0625,405.4219 C885.8125,405.5781 885.6563,405.8594 885.6563,406.1563 C885.6563,406.4063 885.7969,406.6719 886.0156,406.8281 C886.1719,406.9531 886.375,407 886.7813,407 L891.9219,407 C892.6719,407 893.0313,406.7188 893.0313,406.1563 C893.0313,405.875 892.9219,405.625 892.6875,405.4531 C892.5156,405.3281 892.375,405.2969 891.9219,405.2969 L890.2031,405.2969 L890.2031,398.7813 Z " fill="#000000"/><text fill="#000000" font-family="sans-serif" font-size="14" font-style="italic" lengthAdjust="spacing" textLength="109" x="909.75" y="406.8467">InputFieldProps</text><line style="stroke:#181818;stroke-width:0.5;" x1="700" x2="1196" y1="418" y2="418"/><ellipse cx="710" cy="429" fill="none" rx="3" ry="3" style="stroke:#038048;stroke-width:1.0;"/><text fill="#000000" font-family="sans-serif" font-size="14" lengthAdjust="spacing" textLength="178" x="719" y="434.9951">label?: string | undefined</text><ellipse cx="710" cy="445.2969" fill="none" rx="3" ry="3" style="stroke:#038048;stroke-width:1.0;"/><text fill="#000000" font-family="sans-serif" font-size="14" lengthAdjust="spacing" textLength="228" x="719" y="451.292">placeholder?: string | undefined</text><ellipse cx="710" cy="461.5938" fill="none" rx="3" ry="3" style="stroke:#038048;stroke-width:1.0;"/><text fill="#000000" font-family="sans-serif" font-size="14" lengthAdjust="spacing" textLength="180" x="719" y="467.5889">value?: string | undefined</text><ellipse cx="710" cy="477.8906" fill="none" rx="3" ry="3" style="stroke:#038048;stroke-width:1.0;"/><text fill="#000000" font-family="sans-serif" font-size="14" lengthAdjust="spacing" textLength="205" x="719" y="483.8857">isValid?: boolean | undefined</text><ellipse cx="710" cy="494.1875" fill="none" rx="3" ry="3" style="stroke:#038048;stroke-width:1.0;"/><text fill="#000000" font-family="sans-serif" font-size="14" lengthAdjust="spacing" textLength="177" x="719" y="500.1826">type?: string | undefined</text><line style="stroke:#181818;stroke-width:0.5;" x1="700" x2="1196" y1="507.4844" y2="507.4844"/><ellipse cx="710" cy="518.4844" fill="#84BE84" rx="3" ry="3" style="stroke:#038048;stroke-width:1.0;"/><text fill="#000000" font-family="sans-serif" font-size="14" lengthAdjust="spacing" textLength="472" x="719" y="524.4795">onChange: (e: React.ChangeEvent&lt;HTMLInputElement&gt;) =&gt; void</text></g><!--MD5=[069f9a9d56b382bb2348727c5ea4fd16]
class InputFieldState--><g id="elem_InputFieldState"><rect codeLine="90" fill="#F1F1F1" height="129.4844" id="InputFieldState" rx="2.5" ry="2.5" style="stroke:#181818;stroke-width:0.5;" width="254" x="1232" y="394.5"/><ellipse cx="1301.25" cy="410.5" fill="#B4A7E5" rx="11" ry="11" style="stroke:#181818;stroke-width:1.0;"/><path d="M1302.2031,407.2813 L1303.9219,407.2813 C1304.3125,407.2813 1304.5,407.25 1304.625,407.1719 C1304.8906,407.0156 1305.0313,406.7344 1305.0313,406.4375 C1305.0313,406.1719 1304.9219,405.9063 1304.6875,405.7344 C1304.5156,405.625 1304.375,405.5938 1303.9219,405.5938 L1298.7813,405.5938 C1298.3438,405.5938 1298.2188,405.6094 1298.0625,405.7031 C1297.8125,405.8594 1297.6563,406.1563 1297.6563,406.4375 C1297.6563,406.7188 1297.7969,406.9688 1298.0156,407.1406 C1298.1719,407.25 1298.3594,407.2813 1298.7813,407.2813 L1300.5,407.2813 L1300.5,413.7969 L1298.7813,413.7969 C1298.3438,413.7969 1298.2188,413.8125 1298.0625,413.9219 C1297.8125,414.0781 1297.6563,414.3594 1297.6563,414.6563 C1297.6563,414.9063 1297.7969,415.1719 1298.0156,415.3281 C1298.1719,415.4531 1298.375,415.5 1298.7813,415.5 L1303.9219,415.5 C1304.6719,415.5 1305.0313,415.2188 1305.0313,414.6563 C1305.0313,414.375 1304.9219,414.125 1304.6875,413.9531 C1304.5156,413.8281 1304.375,413.7969 1303.9219,413.7969 L1302.2031,413.7969 L1302.2031,407.2813 Z " fill="#000000"/><text fill="#000000" font-family="sans-serif" font-size="14" font-style="italic" lengthAdjust="spacing" textLength="107" x="1321.75" y="415.3467">InputFieldState</text><line style="stroke:#181818;stroke-width:0.5;" x1="1233" x2="1485" y1="426.5" y2="426.5"/><ellipse cx="1243" cy="437.5" fill="none" rx="3" ry="3" style="stroke:#038048;stroke-width:1.0;"/><text fill="#000000" font-family="sans-serif" font-size="14" lengthAdjust="spacing" textLength="86" x="1252" y="443.4951">label: string</text><ellipse cx="1243" cy="453.7969" fill="none" rx="3" ry="3" style="stroke:#038048;stroke-width:1.0;"/><text fill="#000000" font-family="sans-serif" font-size="14" lengthAdjust="spacing" textLength="228" x="1252" y="459.792">placeholder?: string | undefined</text><ellipse cx="1243" cy="470.0938" fill="none" rx="3" ry="3" style="stroke:#038048;stroke-width:1.0;"/><text fill="#000000" font-family="sans-serif" font-size="14" lengthAdjust="spacing" textLength="88" x="1252" y="476.0889">value: string</text><ellipse cx="1243" cy="486.3906" fill="none" rx="3" ry="3" style="stroke:#038048;stroke-width:1.0;"/><text fill="#000000" font-family="sans-serif" font-size="14" lengthAdjust="spacing" textLength="97" x="1252" y="492.3857">isValid: string</text><ellipse cx="1243" cy="502.6875" fill="none" rx="3" ry="3" style="stroke:#038048;stroke-width:1.0;"/><text fill="#000000" font-family="sans-serif" font-size="14" lengthAdjust="spacing" textLength="85" x="1252" y="508.6826">type: string</text><line style="stroke:#181818;stroke-width:0.5;" x1="1233" x2="1485" y1="515.9844" y2="515.9844"/></g><!--MD5=[db453f91a253a2358c4d376fa3bf4942]
class InputField--><g id="elem_InputField"><rect codeLine="97" fill="#F1F1F1" height="96.8906" id="InputField" rx="2.5" ry="2.5" style="stroke:#181818;stroke-width:0.5;" width="528" x="3357" y="31.5"/><ellipse cx="3581.75" cy="47.5" fill="#A9DCDF" rx="11" ry="11" style="stroke:#181818;stroke-width:1.0;"/><path d="M3583.8281,49.3125 L3584.2188,50.2969 L3583.8281,50.2969 C3583.375,50.2969 3583.2656,50.3125 3583.1094,50.4219 C3582.8594,50.5781 3582.7031,50.8594 3582.7031,51.1563 C3582.7031,51.4219 3582.8438,51.6719 3583.0625,51.8281 C3583.2031,51.9531 3583.4063,52 3583.8281,52 L3586.1875,52 C3586.5469,52 3586.7656,51.9688 3586.9063,51.875 C3587.1563,51.7344 3587.3125,51.4375 3587.3125,51.1563 C3587.3125,50.875 3587.1719,50.625 3586.9531,50.4688 C3586.7813,50.3281 3586.625,50.2969 3586.1563,50.2969 L3582.7656,42.0938 L3579.0938,42.0938 C3578.6406,42.0938 3578.5156,42.1094 3578.3594,42.2031 C3578.1094,42.375 3577.9531,42.6563 3577.9531,42.9375 C3577.9531,43.2188 3578.0938,43.4688 3578.3125,43.6406 C3578.4844,43.75 3578.6563,43.7813 3579.0938,43.7813 L3580.1719,43.7813 L3577.5313,50.2969 C3577.1094,50.2969 3576.9531,50.3125 3576.7969,50.4219 C3576.5469,50.5781 3576.3906,50.8594 3576.3906,51.1563 C3576.3906,51.7188 3576.7656,52 3577.5156,52 L3579.7813,52 C3580.1406,52 3580.3594,51.9688 3580.4844,51.875 C3580.75,51.7344 3580.8906,51.4375 3580.8906,51.1563 C3580.8906,50.875 3580.7656,50.625 3580.5469,50.4531 C3580.375,50.3281 3580.2344,50.2969 3579.7813,50.2969 L3579.3906,50.2969 L3579.7813,49.3125 L3583.8281,49.3125 Z M3583.125,47.6094 L3580.4531,47.6094 L3581.7969,44.3438 L3583.125,47.6094 Z " fill="#000000"/><text fill="#000000" font-family="sans-serif" font-size="14" font-style="italic" lengthAdjust="spacing" textLength="70" x="3602.25" y="52.3467">InputField</text><line style="stroke:#181818;stroke-width:0.5;" x1="3358" x2="3884" y1="63.5" y2="63.5"/><line style="stroke:#181818;stroke-width:0.5;" x1="3358" x2="3884" y1="71.5" y2="71.5"/><ellipse cx="3368" cy="82.5" fill="#84BE84" rx="3" ry="3" style="stroke:#038048;stroke-width:1.0;"/><text fill="#000000" font-family="sans-serif" font-size="14" lengthAdjust="spacing" textLength="156" x="3377" y="88.4951">render(): JSX.Element</text><ellipse cx="3368" cy="98.7969" fill="#84BE84" rx="3" ry="3" style="stroke:#038048;stroke-width:1.0;"/><text fill="#000000" font-family="sans-serif" font-size="14" lengthAdjust="spacing" textLength="502" x="3377" y="104.792">whenUpdated(event: React.ChangeEvent&lt;HTMLInputElement&gt;): void</text><ellipse cx="3368" cy="115.0938" fill="#84BE84" rx="3" ry="3" style="stroke:#038048;stroke-width:1.0;"/><text fill="#000000" font-family="sans-serif" font-size="14" font-style="italic" lengthAdjust="spacing" textLength="134" x="3377" y="121.0889">validate(): boolean</text></g><!--MD5=[ee0f5d59cece7a19490f3ceb30755639]
class PasswordFieldComponent--><g id="elem_PasswordFieldComponent"><rect codeLine="102" fill="#F1F1F1" height="96.8906" id="PasswordFieldComponent" rx="2.5" ry="2.5" style="stroke:#181818;stroke-width:0.5;" width="893" x="2887.5" y="221"/><ellipse cx="3236.75" cy="237" fill="#ADD1B2" rx="11" ry="11" style="stroke:#181818;stroke-width:1.0;"/><path d="M3239.0938,232.6719 C3238.1563,232.2344 3237.5625,232.0938 3236.6875,232.0938 C3234.0625,232.0938 3232.0625,234.1719 3232.0625,236.8906 L3232.0625,238.0156 C3232.0625,240.5938 3234.1719,242.4844 3237.0625,242.4844 C3238.2813,242.4844 3239.4375,242.1875 3240.1875,241.6406 C3240.7656,241.2344 3241.0938,240.7813 3241.0938,240.3906 C3241.0938,239.9375 3240.7031,239.5469 3240.2344,239.5469 C3240.0156,239.5469 3239.8125,239.625 3239.625,239.8125 C3239.1719,240.2969 3239.1719,240.2969 3238.9844,240.3906 C3238.5625,240.6563 3237.875,240.7813 3237.1094,240.7813 C3235.0625,240.7813 3233.7656,239.6875 3233.7656,237.9844 L3233.7656,236.8906 C3233.7656,235.1094 3235.0156,233.7969 3236.75,233.7969 C3237.3281,233.7969 3237.9375,233.9531 3238.4063,234.2031 C3238.8906,234.4844 3239.0625,234.7031 3239.1563,235.1094 C3239.2188,235.5156 3239.25,235.6406 3239.3906,235.7656 C3239.5313,235.9063 3239.7656,236.0156 3239.9844,236.0156 C3240.25,236.0156 3240.5156,235.875 3240.6875,235.6563 C3240.7969,235.5 3240.8281,235.3125 3240.8281,234.8906 L3240.8281,233.4688 C3240.8281,233.0313 3240.8125,232.9063 3240.7188,232.75 C3240.5625,232.4844 3240.2813,232.3438 3239.9844,232.3438 C3239.6875,232.3438 3239.4844,232.4375 3239.2656,232.75 L3239.0938,232.6719 Z " fill="#000000"/><text fill="#000000" font-family="sans-serif" font-size="14" lengthAdjust="spacing" textLength="186" x="3257.25" y="241.8467">PasswordFieldComponent</text><line style="stroke:#181818;stroke-width:0.5;" x1="2888.5" x2="3779.5" y1="253" y2="253"/><line style="stroke:#181818;stroke-width:0.5;" x1="2888.5" x2="3779.5" y1="261" y2="261"/><ellipse cx="2898.5" cy="272" fill="#84BE84" rx="3" ry="3" style="stroke:#038048;stroke-width:1.0;"/><text fill="#000000" font-family="sans-serif" font-size="14" lengthAdjust="spacing" textLength="202" x="2907.5" y="277.9951">componentDidMount(): void</text><ellipse cx="2898.5" cy="288.2969" fill="#84BE84" rx="3" ry="3" style="stroke:#038048;stroke-width:1.0;"/><text fill="#000000" font-family="sans-serif" font-size="14" lengthAdjust="spacing" textLength="134" x="2907.5" y="294.292">validate(): boolean</text><rect fill="#F24D5C" height="6" style="stroke:#C82930;stroke-width:1.0;" width="6" x="2895.5" y="301.5938"/><text fill="#000000" font-family="sans-serif" font-size="14" lengthAdjust="spacing" text-decoration="underline" textLength="867" x="2907.5" y="310.5889">allowedChars: "ABCDEFGHIJKLMNOPQRSTUVWXYZabcdefghijklmnopqrstuvwxyz1234567890!@#$%^&amp;*()&lt;&gt;?;:'[]{}-=_+|"</text></g><!--MD5=[b769a4601b51050782783f342b1f722f]
class TextFieldComponent--><g id="elem_TextFieldComponent"><rect codeLine="107" fill="#F1F1F1" height="64.2969" id="TextFieldComponent" rx="2.5" ry="2.5" style="stroke:#181818;stroke-width:0.5;" width="185" x="3815.5" y="237.5"/><ellipse cx="3830.5" cy="253.5" fill="#ADD1B2" rx="11" ry="11" style="stroke:#181818;stroke-width:1.0;"/><path d="M3832.8438,249.1719 C3831.9063,248.7344 3831.3125,248.5938 3830.4375,248.5938 C3827.8125,248.5938 3825.8125,250.6719 3825.8125,253.3906 L3825.8125,254.5156 C3825.8125,257.0938 3827.9219,258.9844 3830.8125,258.9844 C3832.0313,258.9844 3833.1875,258.6875 3833.9375,258.1406 C3834.5156,257.7344 3834.8438,257.2813 3834.8438,256.8906 C3834.8438,256.4375 3834.4531,256.0469 3833.9844,256.0469 C3833.7656,256.0469 3833.5625,256.125 3833.375,256.3125 C3832.9219,256.7969 3832.9219,256.7969 3832.7344,256.8906 C3832.3125,257.1563 3831.625,257.2813 3830.8594,257.2813 C3828.8125,257.2813 3827.5156,256.1875 3827.5156,254.4844 L3827.5156,253.3906 C3827.5156,251.6094 3828.7656,250.2969 3830.5,250.2969 C3831.0781,250.2969 3831.6875,250.4531 3832.1563,250.7031 C3832.6406,250.9844 3832.8125,251.2031 3832.9063,251.6094 C3832.9688,252.0156 3833,252.1406 3833.1406,252.2656 C3833.2813,252.4063 3833.5156,252.5156 3833.7344,252.5156 C3834,252.5156 3834.2656,252.375 3834.4375,252.1563 C3834.5469,252 3834.5781,251.8125 3834.5781,251.3906 L3834.5781,249.9688 C3834.5781,249.5313 3834.5625,249.4063 3834.4688,249.25 C3834.3125,248.9844 3834.0313,248.8438 3833.7344,248.8438 C3833.4375,248.8438 3833.2344,248.9375 3833.0156,249.25 L3832.8438,249.1719 Z " fill="#000000"/><text fill="#000000" font-family="sans-serif" font-size="14" lengthAdjust="spacing" textLength="153" x="3844.5" y="258.3467">TextFieldComponent</text><line style="stroke:#181818;stroke-width:0.5;" x1="3816.5" x2="3999.5" y1="269.5" y2="269.5"/><line style="stroke:#181818;stroke-width:0.5;" x1="3816.5" x2="3999.5" y1="277.5" y2="277.5"/><ellipse cx="3826.5" cy="288.5" fill="#84BE84" rx="3" ry="3" style="stroke:#038048;stroke-width:1.0;"/><text fill="#000000" font-family="sans-serif" font-size="14" lengthAdjust="spacing" textLength="134" x="3835.5" y="294.4951">validate(): boolean</text></g><!--MD5=[c913651b06cff957538841c39dd95ff7]
class LoginTabProps--><g id="elem_LoginTabProps"><rect codeLine="110" fill="#F1F1F1" height="80.5938" id="LoginTabProps" rx="2.5" ry="2.5" style="stroke:#181818;stroke-width:0.5;" width="236" x="1521" y="418.5"/><ellipse cx="1582.25" cy="434.5" fill="#B4A7E5" rx="11" ry="11" style="stroke:#181818;stroke-width:1.0;"/><path d="M1583.2031,431.2813 L1584.9219,431.2813 C1585.3125,431.2813 1585.5,431.25 1585.625,431.1719 C1585.8906,431.0156 1586.0313,430.7344 1586.0313,430.4375 C1586.0313,430.1719 1585.9219,429.9063 1585.6875,429.7344 C1585.5156,429.625 1585.375,429.5938 1584.9219,429.5938 L1579.7813,429.5938 C1579.3438,429.5938 1579.2188,429.6094 1579.0625,429.7031 C1578.8125,429.8594 1578.6563,430.1563 1578.6563,430.4375 C1578.6563,430.7188 1578.7969,430.9688 1579.0156,431.1406 C1579.1719,431.25 1579.3594,431.2813 1579.7813,431.2813 L1581.5,431.2813 L1581.5,437.7969 L1579.7813,437.7969 C1579.3438,437.7969 1579.2188,437.8125 1579.0625,437.9219 C1578.8125,438.0781 1578.6563,438.3594 1578.6563,438.6563 C1578.6563,438.9063 1578.7969,439.1719 1579.0156,439.3281 C1579.1719,439.4531 1579.375,439.5 1579.7813,439.5 L1584.9219,439.5 C1585.6719,439.5 1586.0313,439.2188 1586.0313,438.6563 C1586.0313,438.375 1585.9219,438.125 1585.6875,437.9531 C1585.5156,437.8281 1585.375,437.7969 1584.9219,437.7969 L1583.2031,437.7969 L1583.2031,431.2813 Z " fill="#000000"/><text fill="#000000" font-family="sans-serif" font-size="14" font-style="italic" lengthAdjust="spacing" textLength="105" x="1602.75" y="439.3467">LoginTabProps</text><line style="stroke:#181818;stroke-width:0.5;" x1="1522" x2="1756" y1="450.5" y2="450.5"/><ellipse cx="1532" cy="461.5" fill="none" rx="3" ry="3" style="stroke:#038048;stroke-width:1.0;"/><text fill="#000000" font-family="sans-serif" font-size="14" lengthAdjust="spacing" textLength="173" x="1541" y="467.4951">user?: string | undefined</text><ellipse cx="1532" cy="477.7969" fill="none" rx="3" ry="3" style="stroke:#038048;stroke-width:1.0;"/><text fill="#000000" font-family="sans-serif" font-size="14" lengthAdjust="spacing" textLength="210" x="1541" y="483.792">password?: string | undefined</text><line style="stroke:#181818;stroke-width:0.5;" x1="1522" x2="1756" y1="491.0938" y2="491.0938"/></g><!--MD5=[a81d20e07def7125c916d2af3566d9d3]
class LoginTabState--><g id="elem_LoginTabState"><rect codeLine="114" fill="#F1F1F1" height="80.5938" id="LoginTabState" rx="2.5" ry="2.5" style="stroke:#181818;stroke-width:0.5;" width="144" x="57" y="608"/><ellipse cx="76.05" cy="624" fill="#B4A7E5" rx="11" ry="11" style="stroke:#181818;stroke-width:1.0;"/><path d="M77.0031,620.7813 L78.7219,620.7813 C79.1125,620.7813 79.3,620.75 79.425,620.6719 C79.6906,620.5156 79.8313,620.2344 79.8313,619.9375 C79.8313,619.6719 79.7219,619.4063 79.4875,619.2344 C79.3156,619.125 79.175,619.0938 78.7219,619.0938 L73.5813,619.0938 C73.1438,619.0938 73.0188,619.1094 72.8625,619.2031 C72.6125,619.3594 72.4563,619.6563 72.4563,619.9375 C72.4563,620.2188 72.5969,620.4688 72.8156,620.6406 C72.9719,620.75 73.1594,620.7813 73.5813,620.7813 L75.3,620.7813 L75.3,627.2969 L73.5813,627.2969 C73.1438,627.2969 73.0188,627.3125 72.8625,627.4219 C72.6125,627.5781 72.4563,627.8594 72.4563,628.1563 C72.4563,628.4063 72.5969,628.6719 72.8156,628.8281 C72.9719,628.9531 73.175,629 73.5813,629 L78.7219,629 C79.4719,629 79.8313,628.7188 79.8313,628.1563 C79.8313,627.875 79.7219,627.625 79.4875,627.4531 C79.3156,627.3281 79.175,627.2969 78.7219,627.2969 L77.0031,627.2969 L77.0031,620.7813 Z " fill="#000000"/><text fill="#000000" font-family="sans-serif" font-size="14" font-style="italic" lengthAdjust="spacing" textLength="103" x="90.95" y="628.8467">LoginTabState</text><line style="stroke:#181818;stroke-width:0.5;" x1="58" x2="200" y1="640" y2="640"/><ellipse cx="68" cy="651" fill="none" rx="3" ry="3" style="stroke:#038048;stroke-width:1.0;"/><text fill="#000000" font-family="sans-serif" font-size="14" lengthAdjust="spacing" textLength="81" x="77" y="656.9951">user: string</text><ellipse cx="68" cy="667.2969" fill="none" rx="3" ry="3" style="stroke:#038048;stroke-width:1.0;"/><text fill="#000000" font-family="sans-serif" font-size="14" lengthAdjust="spacing" textLength="118" x="77" y="673.292">password: string</text><line style="stroke:#181818;stroke-width:0.5;" x1="58" x2="200" y1="680.5938" y2="680.5938"/></g><!--MD5=[236365b1d8ae3d9cebff74063f94d3c2]
class LoginTabComponent--><g id="elem_LoginTabComponent"><rect codeLine="118" fill="#F1F1F1" height="64.2969" id="LoginTabComponent" rx="2.5" ry="2.5" style="stroke:#181818;stroke-width:0.5;" width="184" x="236" y="616.5"/><ellipse cx="251" cy="632.5" fill="#ADD1B2" rx="11" ry="11" style="stroke:#181818;stroke-width:1.0;"/><path d="M253.3438,628.1719 C252.4063,627.7344 251.8125,627.5938 250.9375,627.5938 C248.3125,627.5938 246.3125,629.6719 246.3125,632.3906 L246.3125,633.5156 C246.3125,636.0938 248.4219,637.9844 251.3125,637.9844 C252.5313,637.9844 253.6875,637.6875 254.4375,637.1406 C255.0156,636.7344 255.3438,636.2813 255.3438,635.8906 C255.3438,635.4375 254.9531,635.0469 254.4844,635.0469 C254.2656,635.0469 254.0625,635.125 253.875,635.3125 C253.4219,635.7969 253.4219,635.7969 253.2344,635.8906 C252.8125,636.1563 252.125,636.2813 251.3594,636.2813 C249.3125,636.2813 248.0156,635.1875 248.0156,633.4844 L248.0156,632.3906 C248.0156,630.6094 249.2656,629.2969 251,629.2969 C251.5781,629.2969 252.1875,629.4531 252.6563,629.7031 C253.1406,629.9844 253.3125,630.2031 253.4063,630.6094 C253.4688,631.0156 253.5,631.1406 253.6406,631.2656 C253.7813,631.4063 254.0156,631.5156 254.2344,631.5156 C254.5,631.5156 254.7656,631.375 254.9375,631.1563 C255.0469,631 255.0781,630.8125 255.0781,630.3906 L255.0781,628.9688 C255.0781,628.5313 255.0625,628.4063 254.9688,628.25 C254.8125,627.9844 254.5313,627.8438 254.2344,627.8438 C253.9375,627.8438 253.7344,627.9375 253.5156,628.25 L253.3438,628.1719 Z " fill="#000000"/><text fill="#000000" font-family="sans-serif" font-size="14" lengthAdjust="spacing" textLength="152" x="265" y="637.3467">LoginTabComponent</text><line style="stroke:#181818;stroke-width:0.5;" x1="237" x2="419" y1="648.5" y2="648.5"/><line style="stroke:#181818;stroke-width:0.5;" x1="237" x2="419" y1="656.5" y2="656.5"/><ellipse cx="247" cy="667.5" fill="#84BE84" rx="3" ry="3" style="stroke:#038048;stroke-width:1.0;"/><text fill="#000000" font-family="sans-serif" font-size="14" lengthAdjust="spacing" textLength="156" x="256" y="673.4951">render(): JSX.Element</text></g><!--MD5=[1634d81ff1e4a9c75363d28c7be8efeb]
class EmailFieldComponent--><g id="elem_EmailFieldComponent"><rect codeLine="121" fill="#F1F1F1" height="64.2969" id="EmailFieldComponent" rx="2.5" ry="2.5" style="stroke:#181818;stroke-width:0.5;" width="191" x="3698.5" y="427"/><ellipse cx="3713.5" cy="443" fill="#ADD1B2" rx="11" ry="11" style="stroke:#181818;stroke-width:1.0;"/><path d="M3715.8438,438.6719 C3714.9063,438.2344 3714.3125,438.0938 3713.4375,438.0938 C3710.8125,438.0938 3708.8125,440.1719 3708.8125,442.8906 L3708.8125,444.0156 C3708.8125,446.5938 3710.9219,448.4844 3713.8125,448.4844 C3715.0313,448.4844 3716.1875,448.1875 3716.9375,447.6406 C3717.5156,447.2344 3717.8438,446.7813 3717.8438,446.3906 C3717.8438,445.9375 3717.4531,445.5469 3716.9844,445.5469 C3716.7656,445.5469 3716.5625,445.625 3716.375,445.8125 C3715.9219,446.2969 3715.9219,446.2969 3715.7344,446.3906 C3715.3125,446.6563 3714.625,446.7813 3713.8594,446.7813 C3711.8125,446.7813 3710.5156,445.6875 3710.5156,443.9844 L3710.5156,442.8906 C3710.5156,441.1094 3711.7656,439.7969 3713.5,439.7969 C3714.0781,439.7969 3714.6875,439.9531 3715.1563,440.2031 C3715.6406,440.4844 3715.8125,440.7031 3715.9063,441.1094 C3715.9688,441.5156 3716,441.6406 3716.1406,441.7656 C3716.2813,441.9063 3716.5156,442.0156 3716.7344,442.0156 C3717,442.0156 3717.2656,441.875 3717.4375,441.6563 C3717.5469,441.5 3717.5781,441.3125 3717.5781,440.8906 L3717.5781,439.4688 C3717.5781,439.0313 3717.5625,438.9063 3717.4688,438.75 C3717.3125,438.4844 3717.0313,438.3438 3716.7344,438.3438 C3716.4375,438.3438 3716.2344,438.4375 3716.0156,438.75 L3715.8438,438.6719 Z " fill="#000000"/><text fill="#000000" font-family="sans-serif" font-size="14" lengthAdjust="spacing" textLength="159" x="3727.5" y="447.8467">EmailFieldComponent</text><line style="stroke:#181818;stroke-width:0.5;" x1="3699.5" x2="3888.5" y1="459" y2="459"/><line style="stroke:#181818;stroke-width:0.5;" x1="3699.5" x2="3888.5" y1="467" y2="467"/><ellipse cx="3709.5" cy="478" fill="#84BE84" rx="3" ry="3" style="stroke:#038048;stroke-width:1.0;"/><text fill="#000000" font-family="sans-serif" font-size="14" lengthAdjust="spacing" textLength="134" x="3718.5" y="483.9951">validate(): boolean</text></g><!--MD5=[62dd5d6311bd639e0bd88857b08ddd42]
class NameFieldComponent--><g id="elem_NameFieldComponent"><rect codeLine="124" fill="#F1F1F1" height="64.2969" id="NameFieldComponent" rx="2.5" ry="2.5" style="stroke:#181818;stroke-width:0.5;" width="193" x="3924.5" y="427"/><ellipse cx="3939.5" cy="443" fill="#ADD1B2" rx="11" ry="11" style="stroke:#181818;stroke-width:1.0;"/><path d="M3941.8438,438.6719 C3940.9063,438.2344 3940.3125,438.0938 3939.4375,438.0938 C3936.8125,438.0938 3934.8125,440.1719 3934.8125,442.8906 L3934.8125,444.0156 C3934.8125,446.5938 3936.9219,448.4844 3939.8125,448.4844 C3941.0313,448.4844 3942.1875,448.1875 3942.9375,447.6406 C3943.5156,447.2344 3943.8438,446.7813 3943.8438,446.3906 C3943.8438,445.9375 3943.4531,445.5469 3942.9844,445.5469 C3942.7656,445.5469 3942.5625,445.625 3942.375,445.8125 C3941.9219,446.2969 3941.9219,446.2969 3941.7344,446.3906 C3941.3125,446.6563 3940.625,446.7813 3939.8594,446.7813 C3937.8125,446.7813 3936.5156,445.6875 3936.5156,443.9844 L3936.5156,442.8906 C3936.5156,441.1094 3937.7656,439.7969 3939.5,439.7969 C3940.0781,439.7969 3940.6875,439.9531 3941.1563,440.2031 C3941.6406,440.4844 3941.8125,440.7031 3941.9063,441.1094 C3941.9688,441.5156 3942,441.6406 3942.1406,441.7656 C3942.2813,441.9063 3942.5156,442.0156 3942.7344,442.0156 C3943,442.0156 3943.2656,441.875 3943.4375,441.6563 C3943.5469,441.5 3943.5781,441.3125 3943.5781,440.8906 L3943.5781,439.4688 C3943.5781,439.0313 3943.5625,438.9063 3943.4688,438.75 C3943.3125,438.4844 3943.0313,438.3438 3942.7344,438.3438 C3942.4375,438.3438 3942.2344,438.4375 3942.0156,438.75 L3941.8438,438.6719 Z " fill="#000000"/><text fill="#000000" font-family="sans-serif" font-size="14" lengthAdjust="spacing" textLength="161" x="3953.5" y="447.8467">NameFieldComponent</text><line style="stroke:#181818;stroke-width:0.5;" x1="3925.5" x2="4116.5" y1="459" y2="459"/><line style="stroke:#181818;stroke-width:0.5;" x1="3925.5" x2="4116.5" y1="467" y2="467"/><ellipse cx="3935.5" cy="478" fill="#84BE84" rx="3" ry="3" style="stroke:#038048;stroke-width:1.0;"/><text fill="#000000" font-family="sans-serif" font-size="14" lengthAdjust="spacing" textLength="134" x="3944.5" y="483.9951">validate(): boolean</text></g><!--MD5=[932d33c0ad0dabf700dbf649fd593a95]
class SignUpTabProps--><g id="elem_SignUpTabProps"><rect codeLine="127" fill="#F1F1F1" height="113.1875" id="SignUpTabProps" rx="2.5" ry="2.5" style="stroke:#181818;stroke-width:0.5;" width="148" x="455" y="592"/><ellipse cx="470" cy="608" fill="#B4A7E5" rx="11" ry="11" style="stroke:#181818;stroke-width:1.0;"/><path d="M470.9531,604.7813 L472.6719,604.7813 C473.0625,604.7813 473.25,604.75 473.375,604.6719 C473.6406,604.5156 473.7813,604.2344 473.7813,603.9375 C473.7813,603.6719 473.6719,603.4063 473.4375,603.2344 C473.2656,603.125 473.125,603.0938 472.6719,603.0938 L467.5313,603.0938 C467.0938,603.0938 466.9688,603.1094 466.8125,603.2031 C466.5625,603.3594 466.4063,603.6563 466.4063,603.9375 C466.4063,604.2188 466.5469,604.4688 466.7656,604.6406 C466.9219,604.75 467.1094,604.7813 467.5313,604.7813 L469.25,604.7813 L469.25,611.2969 L467.5313,611.2969 C467.0938,611.2969 466.9688,611.3125 466.8125,611.4219 C466.5625,611.5781 466.4063,611.8594 466.4063,612.1563 C466.4063,612.4063 466.5469,612.6719 466.7656,612.8281 C466.9219,612.9531 467.125,613 467.5313,613 L472.6719,613 C473.4219,613 473.7813,612.7188 473.7813,612.1563 C473.7813,611.875 473.6719,611.625 473.4375,611.4531 C473.2656,611.3281 473.125,611.2969 472.6719,611.2969 L470.9531,611.2969 L470.9531,604.7813 Z " fill="#000000"/><text fill="#000000" font-family="sans-serif" font-size="14" font-style="italic" lengthAdjust="spacing" textLength="116" x="484" y="612.8467">SignUpTabProps</text><line style="stroke:#181818;stroke-width:0.5;" x1="456" x2="602" y1="624" y2="624"/><ellipse cx="466" cy="635" fill="none" rx="3" ry="3" style="stroke:#038048;stroke-width:1.0;"/><text fill="#000000" font-family="sans-serif" font-size="14" lengthAdjust="spacing" textLength="97" x="475" y="640.9951">fname: string</text><ellipse cx="466" cy="651.2969" fill="none" rx="3" ry="3" style="stroke:#038048;stroke-width:1.0;"/><text fill="#000000" font-family="sans-serif" font-size="14" lengthAdjust="spacing" textLength="95" x="475" y="657.292">lname: string</text><ellipse cx="466" cy="667.5938" fill="none" rx="3" ry="3" style="stroke:#038048;stroke-width:1.0;"/><text fill="#000000" font-family="sans-serif" font-size="14" lengthAdjust="spacing" textLength="90" x="475" y="673.5889">email: string</text><ellipse cx="466" cy="683.8906" fill="none" rx="3" ry="3" style="stroke:#038048;stroke-width:1.0;"/><text fill="#000000" font-family="sans-serif" font-size="14" lengthAdjust="spacing" textLength="118" x="475" y="689.8857">password: string</text><line style="stroke:#181818;stroke-width:0.5;" x1="456" x2="602" y1="697.1875" y2="697.1875"/></g><!--MD5=[b514be15c5afbc436e7aba5864949747]
class SignUpTabState--><g id="elem_SignUpTabState"><rect codeLine="133" fill="#F1F1F1" height="113.1875" id="SignUpTabState" rx="2.5" ry="2.5" style="stroke:#181818;stroke-width:0.5;" width="146" x="638" y="592"/><ellipse cx="653" cy="608" fill="#B4A7E5" rx="11" ry="11" style="stroke:#181818;stroke-width:1.0;"/><path d="M653.9531,604.7813 L655.6719,604.7813 C656.0625,604.7813 656.25,604.75 656.375,604.6719 C656.6406,604.5156 656.7813,604.2344 656.7813,603.9375 C656.7813,603.6719 656.6719,603.4063 656.4375,603.2344 C656.2656,603.125 656.125,603.0938 655.6719,603.0938 L650.5313,603.0938 C650.0938,603.0938 649.9688,603.1094 649.8125,603.2031 C649.5625,603.3594 649.4063,603.6563 649.4063,603.9375 C649.4063,604.2188 649.5469,604.4688 649.7656,604.6406 C649.9219,604.75 650.1094,604.7813 650.5313,604.7813 L652.25,604.7813 L652.25,611.2969 L650.5313,611.2969 C650.0938,611.2969 649.9688,611.3125 649.8125,611.4219 C649.5625,611.5781 649.4063,611.8594 649.4063,612.1563 C649.4063,612.4063 649.5469,612.6719 649.7656,612.8281 C649.9219,612.9531 650.125,613 650.5313,613 L655.6719,613 C656.4219,613 656.7813,612.7188 656.7813,612.1563 C656.7813,611.875 656.6719,611.625 656.4375,611.4531 C656.2656,611.3281 656.125,611.2969 655.6719,611.2969 L653.9531,611.2969 L653.9531,604.7813 Z " fill="#000000"/><text fill="#000000" font-family="sans-serif" font-size="14" font-style="italic" lengthAdjust="spacing" textLength="114" x="667" y="612.8467">SignUpTabState</text><line style="stroke:#181818;stroke-width:0.5;" x1="639" x2="783" y1="624" y2="624"/><ellipse cx="649" cy="635" fill="none" rx="3" ry="3" style="stroke:#038048;stroke-width:1.0;"/><text fill="#000000" font-family="sans-serif" font-size="14" lengthAdjust="spacing" textLength="97" x="658" y="640.9951">fname: string</text><ellipse cx="649" cy="651.2969" fill="none" rx="3" ry="3" style="stroke:#038048;stroke-width:1.0;"/><text fill="#000000" font-family="sans-serif" font-size="14" lengthAdjust="spacing" textLength="95" x="658" y="657.292">lname: string</text><ellipse cx="649" cy="667.5938" fill="none" rx="3" ry="3" style="stroke:#038048;stroke-width:1.0;"/><text fill="#000000" font-family="sans-serif" font-size="14" lengthAdjust="spacing" textLength="90" x="658" y="673.5889">email: string</text><ellipse cx="649" cy="683.8906" fill="none" rx="3" ry="3" style="stroke:#038048;stroke-width:1.0;"/><text fill="#000000" font-family="sans-serif" font-size="14" lengthAdjust="spacing" textLength="118" x="658" y="689.8857">password: string</text><line style="stroke:#181818;stroke-width:0.5;" x1="639" x2="783" y1="697.1875" y2="697.1875"/></g><!--MD5=[e18be61fc212b4f43b0640a1e2d2fe71]
class SignUpTabComponent--><g id="elem_SignUpTabComponent"><rect codeLine="139" fill="#F1F1F1" height="80.5938" id="SignUpTabComponent" rx="2.5" ry="2.5" style="stroke:#181818;stroke-width:0.5;" width="234" x="2397" y="39.5"/><ellipse cx="2429.55" cy="55.5" fill="#ADD1B2" rx="11" ry="11" style="stroke:#181818;stroke-width:1.0;"/><path d="M2431.8938,51.1719 C2430.9563,50.7344 2430.3625,50.5938 2429.4875,50.5938 C2426.8625,50.5938 2424.8625,52.6719 2424.8625,55.3906 L2424.8625,56.5156 C2424.8625,59.0938 2426.9719,60.9844 2429.8625,60.9844 C2431.0813,60.9844 2432.2375,60.6875 2432.9875,60.1406 C2433.5656,59.7344 2433.8938,59.2813 2433.8938,58.8906 C2433.8938,58.4375 2433.5031,58.0469 2433.0344,58.0469 C2432.8156,58.0469 2432.6125,58.125 2432.425,58.3125 C2431.9719,58.7969 2431.9719,58.7969 2431.7844,58.8906 C2431.3625,59.1563 2430.675,59.2813 2429.9094,59.2813 C2427.8625,59.2813 2426.5656,58.1875 2426.5656,56.4844 L2426.5656,55.3906 C2426.5656,53.6094 2427.8156,52.2969 2429.55,52.2969 C2430.1281,52.2969 2430.7375,52.4531 2431.2063,52.7031 C2431.6906,52.9844 2431.8625,53.2031 2431.9563,53.6094 C2432.0188,54.0156 2432.05,54.1406 2432.1906,54.2656 C2432.3313,54.4063 2432.5656,54.5156 2432.7844,54.5156 C2433.05,54.5156 2433.3156,54.375 2433.4875,54.1563 C2433.5969,54 2433.6281,53.8125 2433.6281,53.3906 L2433.6281,51.9688 C2433.6281,51.5313 2433.6125,51.4063 2433.5188,51.25 C2433.3625,50.9844 2433.0813,50.8438 2432.7844,50.8438 C2432.4875,50.8438 2432.2844,50.9375 2432.0656,51.25 L2431.8938,51.1719 Z " fill="#000000"/><text fill="#000000" font-family="sans-serif" font-size="14" lengthAdjust="spacing" textLength="163" x="2447.45" y="60.3467">SignUpTabComponent</text><line style="stroke:#181818;stroke-width:0.5;" x1="2398" x2="2630" y1="71.5" y2="71.5"/><line style="stroke:#181818;stroke-width:0.5;" x1="2398" x2="2630" y1="79.5" y2="79.5"/><ellipse cx="2408" cy="90.5" fill="#84BE84" rx="3" ry="3" style="stroke:#038048;stroke-width:1.0;"/><text fill="#000000" font-family="sans-serif" font-size="14" lengthAdjust="spacing" textLength="208" x="2417" y="96.4951">getFormData(): SignUpModel</text><ellipse cx="2408" cy="106.7969" fill="#84BE84" rx="3" ry="3" style="stroke:#038048;stroke-width:1.0;"/><text fill="#000000" font-family="sans-serif" font-size="14" lengthAdjust="spacing" textLength="156" x="2417" y="112.792">render(): JSX.Element</text></g><!--MD5=[53f3413e880c24cf8ff36bd576bf028e]
class TabbedComponentProps--><g id="elem_TabbedComponentProps"><rect codeLine="143" fill="#F1F1F1" height="96.8906" id="TabbedComponentProps" rx="2.5" ry="2.5" style="stroke:#181818;stroke-width:0.5;" width="362" x="819" y="600"/><ellipse cx="907.75" cy="616" fill="#B4A7E5" rx="11" ry="11" style="stroke:#181818;stroke-width:1.0;"/><path d="M908.7031,612.7813 L910.4219,612.7813 C910.8125,612.7813 911,612.75 911.125,612.6719 C911.3906,612.5156 911.5313,612.2344 911.5313,611.9375 C911.5313,611.6719 911.4219,611.4063 911.1875,611.2344 C911.0156,611.125 910.875,611.0938 910.4219,611.0938 L905.2813,611.0938 C904.8438,611.0938 904.7188,611.1094 904.5625,611.2031 C904.3125,611.3594 904.1563,611.6563 904.1563,611.9375 C904.1563,612.2188 904.2969,612.4688 904.5156,612.6406 C904.6719,612.75 904.8594,612.7813 905.2813,612.7813 L907,612.7813 L907,619.2969 L905.2813,619.2969 C904.8438,619.2969 904.7188,619.3125 904.5625,619.4219 C904.3125,619.5781 904.1563,619.8594 904.1563,620.1563 C904.1563,620.4063 904.2969,620.6719 904.5156,620.8281 C904.6719,620.9531 904.875,621 905.2813,621 L910.4219,621 C911.1719,621 911.5313,620.7188 911.5313,620.1563 C911.5313,619.875 911.4219,619.625 911.1875,619.4531 C911.0156,619.3281 910.875,619.2969 910.4219,619.2969 L908.7031,619.2969 L908.7031,612.7813 Z " fill="#000000"/><text fill="#000000" font-family="sans-serif" font-size="14" font-style="italic" lengthAdjust="spacing" textLength="176" x="928.25" y="620.8467">TabbedComponentProps</text><line style="stroke:#181818;stroke-width:0.5;" x1="820" x2="1180" y1="632" y2="632"/><ellipse cx="830" cy="643" fill="none" rx="3" ry="3" style="stroke:#038048;stroke-width:1.0;"/><text fill="#000000" font-family="sans-serif" font-size="14" lengthAdjust="spacing" textLength="336" x="839" y="648.9951">tabs: { label: string; element: JSX.Element; }[]</text><ellipse cx="830" cy="659.2969" fill="none" rx="3" ry="3" style="stroke:#038048;stroke-width:1.0;"/><text fill="#000000" font-family="sans-serif" font-size="14" lengthAdjust="spacing" textLength="228" x="839" y="665.292">activeTab?: number | undefined</text><ellipse cx="830" cy="675.5938" fill="none" rx="3" ry="3" style="stroke:#038048;stroke-width:1.0;"/><text fill="#000000" font-family="sans-serif" font-size="14" lengthAdjust="spacing" textLength="218" x="839" y="681.5889">className?: string | undefined</text><line style="stroke:#181818;stroke-width:0.5;" x1="820" x2="1180" y1="688.8906" y2="688.8906"/></g><!--MD5=[af62813e68ada9d6929a1d8292b143d9]
class TabbedComponentState--><g id="elem_TabbedComponentState"><rect codeLine="148" fill="#F1F1F1" height="64.2969" id="TabbedComponentState" rx="2.5" ry="2.5" style="stroke:#181818;stroke-width:0.5;" width="206" x="1216" y="616.5"/><ellipse cx="1231" cy="632.5" fill="#B4A7E5" rx="11" ry="11" style="stroke:#181818;stroke-width:1.0;"/><path d="M1231.9531,629.2813 L1233.6719,629.2813 C1234.0625,629.2813 1234.25,629.25 1234.375,629.1719 C1234.6406,629.0156 1234.7813,628.7344 1234.7813,628.4375 C1234.7813,628.1719 1234.6719,627.9063 1234.4375,627.7344 C1234.2656,627.625 1234.125,627.5938 1233.6719,627.5938 L1228.5313,627.5938 C1228.0938,627.5938 1227.9688,627.6094 1227.8125,627.7031 C1227.5625,627.8594 1227.4063,628.1563 1227.4063,628.4375 C1227.4063,628.7188 1227.5469,628.9688 1227.7656,629.1406 C1227.9219,629.25 1228.1094,629.2813 1228.5313,629.2813 L1230.25,629.2813 L1230.25,635.7969 L1228.5313,635.7969 C1228.0938,635.7969 1227.9688,635.8125 1227.8125,635.9219 C1227.5625,636.0781 1227.4063,636.3594 1227.4063,636.6563 C1227.4063,636.9063 1227.5469,637.1719 1227.7656,637.3281 C1227.9219,637.4531 1228.125,637.5 1228.5313,637.5 L1233.6719,637.5 C1234.4219,637.5 1234.7813,637.2188 1234.7813,636.6563 C1234.7813,636.375 1234.6719,636.125 1234.4375,635.9531 C1234.2656,635.8281 1234.125,635.7969 1233.6719,635.7969 L1231.9531,635.7969 L1231.9531,629.2813 Z " fill="#000000"/><text fill="#000000" font-family="sans-serif" font-size="14" font-style="italic" lengthAdjust="spacing" textLength="174" x="1245" y="637.3467">TabbedComponentState</text><line style="stroke:#181818;stroke-width:0.5;" x1="1217" x2="1421" y1="648.5" y2="648.5"/><ellipse cx="1227" cy="659.5" fill="none" rx="3" ry="3" style="stroke:#038048;stroke-width:1.0;"/><text fill="#000000" font-family="sans-serif" font-size="14" lengthAdjust="spacing" textLength="136" x="1236" y="665.4951">activeTab: number</text><line style="stroke:#181818;stroke-width:0.5;" x1="1217" x2="1421" y1="672.7969" y2="672.7969"/></g><!--MD5=[06b71f18f88a0536ea97573fca997d16]
class TabbedComponent--><g id="elem_TabbedComponent"><rect codeLine="151" fill="#F1F1F1" height="64.2969" id="TabbedComponent" rx="2.5" ry="2.5" style="stroke:#181818;stroke-width:0.5;" width="182" x="38" y="773.5"/><ellipse cx="57.05" cy="789.5" fill="#ADD1B2" rx="11" ry="11" style="stroke:#181818;stroke-width:1.0;"/><path d="M59.3938,785.1719 C58.4563,784.7344 57.8625,784.5938 56.9875,784.5938 C54.3625,784.5938 52.3625,786.6719 52.3625,789.3906 L52.3625,790.5156 C52.3625,793.0938 54.4719,794.9844 57.3625,794.9844 C58.5813,794.9844 59.7375,794.6875 60.4875,794.1406 C61.0656,793.7344 61.3938,793.2813 61.3938,792.8906 C61.3938,792.4375 61.0031,792.0469 60.5344,792.0469 C60.3156,792.0469 60.1125,792.125 59.925,792.3125 C59.4719,792.7969 59.4719,792.7969 59.2844,792.8906 C58.8625,793.1563 58.175,793.2813 57.4094,793.2813 C55.3625,793.2813 54.0656,792.1875 54.0656,790.4844 L54.0656,789.3906 C54.0656,787.6094 55.3156,786.2969 57.05,786.2969 C57.6281,786.2969 58.2375,786.4531 58.7063,786.7031 C59.1906,786.9844 59.3625,787.2031 59.4563,787.6094 C59.5188,788.0156 59.55,788.1406 59.6906,788.2656 C59.8313,788.4063 60.0656,788.5156 60.2844,788.5156 C60.55,788.5156 60.8156,788.375 60.9875,788.1563 C61.0969,788 61.1281,787.8125 61.1281,787.3906 L61.1281,785.9688 C61.1281,785.5313 61.1125,785.4063 61.0188,785.25 C60.8625,784.9844 60.5813,784.8438 60.2844,784.8438 C59.9875,784.8438 59.7844,784.9375 59.5656,785.25 L59.3938,785.1719 Z " fill="#000000"/><text fill="#000000" font-family="sans-serif" font-size="14" lengthAdjust="spacing" textLength="141" x="71.95" y="794.3467">TabbedComponent</text><line style="stroke:#181818;stroke-width:0.5;" x1="39" x2="219" y1="805.5" y2="805.5"/><line style="stroke:#181818;stroke-width:0.5;" x1="39" x2="219" y1="813.5" y2="813.5"/><ellipse cx="49" cy="824.5" fill="#84BE84" rx="3" ry="3" style="stroke:#038048;stroke-width:1.0;"/><text fill="#000000" font-family="sans-serif" font-size="14" lengthAdjust="spacing" textLength="156" x="58" y="830.4951">render(): JSX.Element</text></g><!--MD5=[359954b8390e134ef2daa72d26506a7d]
class Homepage--><g id="elem_Homepage"><rect codeLine="154" fill="#F1F1F1" height="80.5938" id="Homepage" rx="2.5" ry="2.5" style="stroke:#181818;stroke-width:0.5;" width="362" x="255" y="765"/><ellipse cx="392.75" cy="781" fill="#ADD1B2" rx="11" ry="11" style="stroke:#181818;stroke-width:1.0;"/><path d="M395.0938,776.6719 C394.1563,776.2344 393.5625,776.0938 392.6875,776.0938 C390.0625,776.0938 388.0625,778.1719 388.0625,780.8906 L388.0625,782.0156 C388.0625,784.5938 390.1719,786.4844 393.0625,786.4844 C394.2813,786.4844 395.4375,786.1875 396.1875,785.6406 C396.7656,785.2344 397.0938,784.7813 397.0938,784.3906 C397.0938,783.9375 396.7031,783.5469 396.2344,783.5469 C396.0156,783.5469 395.8125,783.625 395.625,783.8125 C395.1719,784.2969 395.1719,784.2969 394.9844,784.3906 C394.5625,784.6563 393.875,784.7813 393.1094,784.7813 C391.0625,784.7813 389.7656,783.6875 389.7656,781.9844 L389.7656,780.8906 C389.7656,779.1094 391.0156,777.7969 392.75,777.7969 C393.3281,777.7969 393.9375,777.9531 394.4063,778.2031 C394.8906,778.4844 395.0625,778.7031 395.1563,779.1094 C395.2188,779.5156 395.25,779.6406 395.3906,779.7656 C395.5313,779.9063 395.7656,780.0156 395.9844,780.0156 C396.25,780.0156 396.5156,779.875 396.6875,779.6563 C396.7969,779.5 396.8281,779.3125 396.8281,778.8906 L396.8281,777.4688 C396.8281,777.0313 396.8125,776.9063 396.7188,776.75 C396.5625,776.4844 396.2813,776.3438 395.9844,776.3438 C395.6875,776.3438 395.4844,776.4375 395.2656,776.75 L395.0938,776.6719 Z " fill="#000000"/><text fill="#000000" font-family="sans-serif" font-size="14" lengthAdjust="spacing" textLength="78" x="413.25" y="785.8467">Homepage</text><line style="stroke:#181818;stroke-width:0.5;" x1="256" x2="616" y1="797" y2="797"/><rect fill="none" height="6" style="stroke:#C82930;stroke-width:1.0;" width="6" x="263" y="805"/><text fill="#000000" font-family="sans-serif" font-size="14" lengthAdjust="spacing" textLength="336" x="275" y="813.9951">tabs: { label: string; element: JSX.Element; }[]</text><line style="stroke:#181818;stroke-width:0.5;" x1="256" x2="616" y1="821.2969" y2="821.2969"/><ellipse cx="266" cy="832.2969" fill="#84BE84" rx="3" ry="3" style="stroke:#038048;stroke-width:1.0;"/><text fill="#000000" font-family="sans-serif" font-size="14" lengthAdjust="spacing" textLength="156" x="275" y="838.292">render(): JSX.Element</text></g><!--MD5=[2fa3dbe9984b357f692e330f6eedcb1f]
reverse link Error to InputFieldValidationError--><g id="link_Error_InputFieldValidationError"><path d="M2746,124.511 C2746,162.241 2746,215.377 2746,245.427 " fill="none" id="Error-backto-InputFieldValidationError" style="stroke:#181818;stroke-width:1.0;"/><polygon fill="none" points="2739,124.368,2746,104.368,2753,124.368,2739,124.368" style="stroke:#181818;stroke-width:1.0;"/></g><!--MD5=[d9330bd2095c24637386e7ce8a51ea6b]
reverse link InputField to PasswordFieldComponent--><g id="link_InputField_PasswordFieldComponent"><path d="M3531.46,139.497 C3491.34,165.709 3444.63,196.225 3406.72,220.994 " fill="none" id="InputField-backto-PasswordFieldComponent" style="stroke:#181818;stroke-width:1.0;"/><polygon fill="none" points="3527.63,133.635,3548.21,128.557,3535.29,145.356,3527.63,133.635" style="stroke:#181818;stroke-width:1.0;"/></g><!--MD5=[c59ffe9386e7e22bd1f8ef0882d3ee55]
reverse link InputField to TextFieldComponent--><g id="link_InputField_TextFieldComponent"><path d="M3710.86,139.703 C3760.4,172.072 3819.91,210.952 3860.5,237.468 " fill="none" id="InputField-backto-TextFieldComponent" style="stroke:#181818;stroke-width:1.0;"/><polygon fill="none" points="3706.71,145.356,3693.79,128.557,3714.37,133.635,3706.71,145.356" style="stroke:#181818;stroke-width:1.0;"/></g><!--MD5=[51525780e65fb7c2e2cbb71b7b081591]
reverse link TextFieldComponent to EmailFieldComponent--><g id="link_TextFieldComponent_EmailFieldComponent"><path d="M3878.48,319.055 C3857.81,353.052 3830.8,397.472 3812.95,426.827 " fill="none" id="TextFieldComponent-backto-EmailFieldComponent" style="stroke:#181818;stroke-width:1.0;"/><polygon fill="none" points="3872.55,315.336,3888.92,301.883,3884.51,322.609,3872.55,315.336" style="stroke:#181818;stroke-width:1.0;"/></g><!--MD5=[a86c0ec901644eab46c57d6e98cc7c4c]
reverse link TextFieldComponent to NameFieldComponent--><g id="link_TextFieldComponent_NameFieldComponent"><path d="M3937.26,319.055 C3957.75,353.052 3984.52,397.472 4002.21,426.827 " fill="none" id="TextFieldComponent-backto-NameFieldComponent" style="stroke:#181818;stroke-width:1.0;"/><polygon fill="none" points="3931.24,322.626,3926.91,301.883,3943.23,315.4,3931.24,322.626" style="stroke:#181818;stroke-width:1.0;"/></g><!--MD5=[017f25262ca6e9e616e1b8b1ed834790]
link Users to SignUpModel--><g id="link_Users_SignUpModel"><path codeLine="158" d="M2264.22,136.749 C2304.18,162.579 2351.29,193.042 2390.15,218.166 " fill="none" id="Users-to-SignUpModel" style="stroke:#181818;stroke-width:1.0;"/><polygon fill="#181818" points="2394.36,220.89,2388.9933,212.6318,2390.1676,218.1654,2384.6339,219.3397,2394.36,220.89" style="stroke:#181818;stroke-width:1.0;"/><text fill="#000000" font-family="sans-serif" font-size="13" lengthAdjust="spacing" textLength="8" x="2375.4419" y="210.0835">1</text></g><!--MD5=[edb3d0e6788afbdd978518e94e2670fb]
link Users to LoginModel--><g id="link_Users_LoginModel"><path codeLine="159" d="M2178,136.749 C2178,164.478 2178,197.547 2178,223.617 " fill="none" id="Users-to-LoginModel" style="stroke:#181818;stroke-width:1.0;"/><polygon fill="#181818" points="2178,228.734,2182,219.734,2178,223.734,2174,219.734,2178,228.734" style="stroke:#181818;stroke-width:1.0;"/><text fill="#000000" font-family="sans-serif" font-size="13" lengthAdjust="spacing" textLength="8" x="2169.3375" y="217.8515">1</text></g><!--MD5=[fa47ef57b55ae298a1517f25c0cecbeb]
link SignUpTabComponent to SignUpModel--><g id="link_SignUpTabComponent_SignUpModel"><path codeLine="160" d="M2504.24,120.764 C2497.46,148.404 2488.35,185.542 2480.96,215.667 " fill="none" id="SignUpTabComponent-to-SignUpModel" style="stroke:#181818;stroke-width:1.0;"/><polygon fill="#181818" points="2479.7,220.822,2485.7289,213.0341,2480.8912,215.966,2477.9593,211.1282,2479.7,220.822" style="stroke:#181818;stroke-width:1.0;"/><text fill="#000000" font-family="sans-serif" font-size="13" lengthAdjust="spacing" textLength="8" x="2472.7828" y="210.0059">1</text></g><!--MD5=[042269c4cdd915123770bd58a90067ab]
link ButtonComponentProps to ButtonComponent--></g></svg>