<?xml version="1.0" encoding="UTF-8" standalone="no"?><svg xmlns="http://www.w3.org/2000/svg" xmlns:xlink="http://www.w3.org/1999/xlink" contentStyleType="text/css" height="907px" preserveAspectRatio="none" style="width:5122px;height:907px;background:#FFFFFF;" version="1.1" viewBox="0 0 5122 907" width="5122px" zoomAndPan="magnify"><defs/><g><!--MD5=[09e1e21e55dc1e1860955f17677954e0]
class BaseAPIResponse--><g id="elem_BaseAPIResponse"><rect codeLine="1" fill="#F1F1F1" height="80.5938" id="BaseAPIResponse" rx="2.5" ry="2.5" style="stroke:#181818;stroke-width:0.5;" width="199" x="2556.5" y="261.5"/><ellipse cx="2589.95" cy="277.5" fill="#A9DCDF" rx="11" ry="11" style="stroke:#181818;stroke-width:1.0;"/><path d="M2592.0281,279.3125 L2592.4188,280.2969 L2592.0281,280.2969 C2591.575,280.2969 2591.4656,280.3125 2591.3094,280.4219 C2591.0594,280.5781 2590.9031,280.8594 2590.9031,281.1563 C2590.9031,281.4219 2591.0438,281.6719 2591.2625,281.8281 C2591.4031,281.9531 2591.6063,282 2592.0281,282 L2594.3875,282 C2594.7469,282 2594.9656,281.9688 2595.1063,281.875 C2595.3563,281.7344 2595.5125,281.4375 2595.5125,281.1563 C2595.5125,280.875 2595.3719,280.625 2595.1531,280.4688 C2594.9813,280.3281 2594.825,280.2969 2594.3563,280.2969 L2590.9656,272.0938 L2587.2938,272.0938 C2586.8406,272.0938 2586.7156,272.1094 2586.5594,272.2031 C2586.3094,272.375 2586.1531,272.6563 2586.1531,272.9375 C2586.1531,273.2188 2586.2938,273.4688 2586.5125,273.6406 C2586.6844,273.75 2586.8563,273.7813 2587.2938,273.7813 L2588.3719,273.7813 L2585.7313,280.2969 C2585.3094,280.2969 2585.1531,280.3125 2584.9969,280.4219 C2584.7469,280.5781 2584.5906,280.8594 2584.5906,281.1563 C2584.5906,281.7188 2584.9656,282 2585.7156,282 L2587.9813,282 C2588.3406,282 2588.5594,281.9688 2588.6844,281.875 C2588.95,281.7344 2589.0906,281.4375 2589.0906,281.1563 C2589.0906,280.875 2588.9656,280.625 2588.7469,280.4531 C2588.575,280.3281 2588.4344,280.2969 2587.9813,280.2969 L2587.5906,280.2969 L2587.9813,279.3125 L2592.0281,279.3125 Z M2591.325,277.6094 L2588.6531,277.6094 L2589.9969,274.3438 L2591.325,277.6094 Z " fill="#000000"/><text fill="#000000" font-family="sans-serif" font-size="14" font-style="italic" lengthAdjust="spacing" textLength="126" x="2608.05" y="282.3467">BaseAPIResponse</text><line style="stroke:#181818;stroke-width:0.5;" x1="2557.5" x2="2754.5" y1="293.5" y2="293.5"/><ellipse cx="2567.5" cy="304.5" fill="none" rx="3" ry="3" style="stroke:#038048;stroke-width:1.0;"/><text fill="#000000" font-family="sans-serif" font-size="14" lengthAdjust="spacing" textLength="121" x="2576.5" y="310.4951">success: boolean</text><ellipse cx="2567.5" cy="320.7969" fill="none" rx="3" ry="3" style="stroke:#038048;stroke-width:1.0;"/><text fill="#000000" font-family="sans-serif" font-size="14" lengthAdjust="spacing" textLength="173" x="2576.5" y="326.792">error?: Error | undefined</text><line style="stroke:#181818;stroke-width:0.5;" x1="2557.5" x2="2754.5" y1="334.0938" y2="334.0938"/></g><!--MD5=[76b865d8eabad70502df650f44f6952a]
class APIResponse--><g id="elem_APIResponse"><rect fill="#F1F1F1" height="48" id="APIResponse" rx="2.5" ry="2.5" style="stroke:#181818;stroke-width:0.5;" width="123" x="2594.5" y="56"/><ellipse cx="2609.5" cy="72" fill="#B4A7E5" rx="11" ry="11" style="stroke:#181818;stroke-width:1.0;"/><path d="M2610.4531,68.7813 L2612.1719,68.7813 C2612.5625,68.7813 2612.75,68.75 2612.875,68.6719 C2613.1406,68.5156 2613.2813,68.2344 2613.2813,67.9375 C2613.2813,67.6719 2613.1719,67.4063 2612.9375,67.2344 C2612.7656,67.125 2612.625,67.0938 2612.1719,67.0938 L2607.0313,67.0938 C2606.5938,67.0938 2606.4688,67.1094 2606.3125,67.2031 C2606.0625,67.3594 2605.9063,67.6563 2605.9063,67.9375 C2605.9063,68.2188 2606.0469,68.4688 2606.2656,68.6406 C2606.4219,68.75 2606.6094,68.7813 2607.0313,68.7813 L2608.75,68.7813 L2608.75,75.2969 L2607.0313,75.2969 C2606.5938,75.2969 2606.4688,75.3125 2606.3125,75.4219 C2606.0625,75.5781 2605.9063,75.8594 2605.9063,76.1563 C2605.9063,76.4063 2606.0469,76.6719 2606.2656,76.8281 C2606.4219,76.9531 2606.625,77 2607.0313,77 L2612.1719,77 C2612.9219,77 2613.2813,76.7188 2613.2813,76.1563 C2613.2813,75.875 2613.1719,75.625 2612.9375,75.4531 C2612.7656,75.3281 2612.625,75.2969 2612.1719,75.2969 L2610.4531,75.2969 L2610.4531,68.7813 Z " fill="#000000"/><text fill="#000000" font-family="sans-serif" font-size="14" font-style="italic" lengthAdjust="spacing" textLength="91" x="2623.5" y="76.8467">APIResponse</text><line style="stroke:#181818;stroke-width:0.5;" x1="2595.5" x2="2716.5" y1="88" y2="88"/><line style="stroke:#181818;stroke-width:0.5;" x1="2595.5" x2="2716.5" y1="96" y2="96"/></g><!--MD5=[9532e8bb65f5911e494d2b3b07d54c70]
class ErrorAPIResponse--><g id="elem_ErrorAPIResponse"><rect codeLine="5" fill="#F1F1F1" height="80.5938" id="ErrorAPIResponse" rx="2.5" ry="2.5" style="stroke:#181818;stroke-width:0.5;" width="161" x="4722.5" y="261.5"/><ellipse cx="4737.5" cy="277.5" fill="#ADD1B2" rx="11" ry="11" style="stroke:#181818;stroke-width:1.0;"/><path d="M4739.8438,273.1719 C4738.9063,272.7344 4738.3125,272.5938 4737.4375,272.5938 C4734.8125,272.5938 4732.8125,274.6719 4732.8125,277.3906 L4732.8125,278.5156 C4732.8125,281.0938 4734.9219,282.9844 4737.8125,282.9844 C4739.0313,282.9844 4740.1875,282.6875 4740.9375,282.1406 C4741.5156,281.7344 4741.8438,281.2813 4741.8438,280.8906 C4741.8438,280.4375 4741.4531,280.0469 4740.9844,280.0469 C4740.7656,280.0469 4740.5625,280.125 4740.375,280.3125 C4739.9219,280.7969 4739.9219,280.7969 4739.7344,280.8906 C4739.3125,281.1563 4738.625,281.2813 4737.8594,281.2813 C4735.8125,281.2813 4734.5156,280.1875 4734.5156,278.4844 L4734.5156,277.3906 C4734.5156,275.6094 4735.7656,274.2969 4737.5,274.2969 C4738.0781,274.2969 4738.6875,274.4531 4739.1563,274.7031 C4739.6406,274.9844 4739.8125,275.2031 4739.9063,275.6094 C4739.9688,276.0156 4740,276.1406 4740.1406,276.2656 C4740.2813,276.4063 4740.5156,276.5156 4740.7344,276.5156 C4741,276.5156 4741.2656,276.375 4741.4375,276.1563 C4741.5469,276 4741.5781,275.8125 4741.5781,275.3906 L4741.5781,273.9688 C4741.5781,273.5313 4741.5625,273.4063 4741.4688,273.25 C4741.3125,272.9844 4741.0313,272.8438 4740.7344,272.8438 C4740.4375,272.8438 4740.2344,272.9375 4740.0156,273.25 L4739.8438,273.1719 Z " fill="#000000"/><text fill="#000000" font-family="sans-serif" font-size="14" lengthAdjust="spacing" textLength="129" x="4751.5" y="282.3467">ErrorAPIResponse</text><line style="stroke:#181818;stroke-width:0.5;" x1="4723.5" x2="4882.5" y1="293.5" y2="293.5"/><ellipse cx="4733.5" cy="304.5" fill="none" rx="3" ry="3" style="stroke:#038048;stroke-width:1.0;"/><text fill="#000000" font-family="sans-serif" font-size="14" lengthAdjust="spacing" textLength="97" x="4742.5" y="310.4951">success: false</text><ellipse cx="4733.5" cy="320.7969" fill="none" rx="3" ry="3" style="stroke:#038048;stroke-width:1.0;"/><text fill="#000000" font-family="sans-serif" font-size="14" lengthAdjust="spacing" textLength="81" x="4742.5" y="326.792">error: Error</text><line style="stroke:#181818;stroke-width:0.5;" x1="4723.5" x2="4882.5" y1="334.0938" y2="334.0938"/></g><!--MD5=[55933bedc738071bb2a196ed17c93d4a]
class IErrorAPIResponse--><g id="elem_IErrorAPIResponse"><rect fill="#F1F1F1" height="48" id="IErrorAPIResponse" rx="2.5" ry="2.5" style="stroke:#181818;stroke-width:0.5;" width="163" x="4722.5" y="56"/><ellipse cx="4737.5" cy="72" fill="#B4A7E5" rx="11" ry="11" style="stroke:#181818;stroke-width:1.0;"/><path d="M4738.4531,68.7813 L4740.1719,68.7813 C4740.5625,68.7813 4740.75,68.75 4740.875,68.6719 C4741.1406,68.5156 4741.2813,68.2344 4741.2813,67.9375 C4741.2813,67.6719 4741.1719,67.4063 4740.9375,67.2344 C4740.7656,67.125 4740.625,67.0938 4740.1719,67.0938 L4735.0313,67.0938 C4734.5938,67.0938 4734.4688,67.1094 4734.3125,67.2031 C4734.0625,67.3594 4733.9063,67.6563 4733.9063,67.9375 C4733.9063,68.2188 4734.0469,68.4688 4734.2656,68.6406 C4734.4219,68.75 4734.6094,68.7813 4735.0313,68.7813 L4736.75,68.7813 L4736.75,75.2969 L4735.0313,75.2969 C4734.5938,75.2969 4734.4688,75.3125 4734.3125,75.4219 C4734.0625,75.5781 4733.9063,75.8594 4733.9063,76.1563 C4733.9063,76.4063 4734.0469,76.6719 4734.2656,76.8281 C4734.4219,76.9531 4734.625,77 4735.0313,77 L4740.1719,77 C4740.9219,77 4741.2813,76.7188 4741.2813,76.1563 C4741.2813,75.875 4741.1719,75.625 4740.9375,75.4531 C4740.7656,75.3281 4740.625,75.2969 4740.1719,75.2969 L4738.4531,75.2969 L4738.4531,68.7813 Z " fill="#000000"/><text fill="#000000" font-family="sans-serif" font-size="14" font-style="italic" lengthAdjust="spacing" textLength="131" x="4751.5" y="76.8467">IErrorAPIResponse</text><line style="stroke:#181818;stroke-width:0.5;" x1="4723.5" x2="4884.5" y1="88" y2="88"/><line style="stroke:#181818;stroke-width:0.5;" x1="4723.5" x2="4884.5" y1="96" y2="96"/></g><!--MD5=[96f7dd14ea14d83d5ca4f73b76474bc1]
class InvalidCredentialsError--><g id="elem_InvalidCredentialsError"><rect codeLine="9" fill="#F1F1F1" height="48" id="InvalidCredentialsError" rx="2.5" ry="2.5" style="stroke:#181818;stroke-width:0.5;" width="196" x="4919" y="278"/><ellipse cx="4934" cy="294" fill="#ADD1B2" rx="11" ry="11" style="stroke:#181818;stroke-width:1.0;"/><path d="M4936.3438,289.6719 C4935.4063,289.2344 4934.8125,289.0938 4933.9375,289.0938 C4931.3125,289.0938 4929.3125,291.1719 4929.3125,293.8906 L4929.3125,295.0156 C4929.3125,297.5938 4931.4219,299.4844 4934.3125,299.4844 C4935.5313,299.4844 4936.6875,299.1875 4937.4375,298.6406 C4938.0156,298.2344 4938.3438,297.7813 4938.3438,297.3906 C4938.3438,296.9375 4937.9531,296.5469 4937.4844,296.5469 C4937.2656,296.5469 4937.0625,296.625 4936.875,296.8125 C4936.4219,297.2969 4936.4219,297.2969 4936.2344,297.3906 C4935.8125,297.6563 4935.125,297.7813 4934.3594,297.7813 C4932.3125,297.7813 4931.0156,296.6875 4931.0156,294.9844 L4931.0156,293.8906 C4931.0156,292.1094 4932.2656,290.7969 4934,290.7969 C4934.5781,290.7969 4935.1875,290.9531 4935.6563,291.2031 C4936.1406,291.4844 4936.3125,291.7031 4936.4063,292.1094 C4936.4688,292.5156 4936.5,292.6406 4936.6406,292.7656 C4936.7813,292.9063 4937.0156,293.0156 4937.2344,293.0156 C4937.5,293.0156 4937.7656,292.875 4937.9375,292.6563 C4938.0469,292.5 4938.0781,292.3125 4938.0781,291.8906 L4938.0781,290.4688 C4938.0781,290.0313 4938.0625,289.9063 4937.9688,289.75 C4937.8125,289.4844 4937.5313,289.3438 4937.2344,289.3438 C4936.9375,289.3438 4936.7344,289.4375 4936.5156,289.75 L4936.3438,289.6719 Z " fill="#000000"/><text fill="#000000" font-family="sans-serif" font-size="14" lengthAdjust="spacing" textLength="164" x="4948" y="298.8467">InvalidCredentialsError</text><line style="stroke:#181818;stroke-width:0.5;" x1="4920" x2="5114" y1="310" y2="310"/><line style="stroke:#181818;stroke-width:0.5;" x1="4920" x2="5114" y1="318" y2="318"/></g><!--MD5=[b8cfd8c4119a3b0a7a46bfc5fc780f85]
class Error--><g id="elem_Error"><rect fill="#F1F1F1" height="48" id="Error" rx="2.5" ry="2.5" style="stroke:#181818;stroke-width:0.5;" width="68" x="4983" y="56"/><ellipse cx="4998" cy="72" fill="#ADD1B2" rx="11" ry="11" style="stroke:#181818;stroke-width:1.0;"/><path d="M5000.3438,67.6719 C4999.4063,67.2344 4998.8125,67.0938 4997.9375,67.0938 C4995.3125,67.0938 4993.3125,69.1719 4993.3125,71.8906 L4993.3125,73.0156 C4993.3125,75.5938 4995.4219,77.4844 4998.3125,77.4844 C4999.5313,77.4844 5000.6875,77.1875 5001.4375,76.6406 C5002.0156,76.2344 5002.3438,75.7813 5002.3438,75.3906 C5002.3438,74.9375 5001.9531,74.5469 5001.4844,74.5469 C5001.2656,74.5469 5001.0625,74.625 5000.875,74.8125 C5000.4219,75.2969 5000.4219,75.2969 5000.2344,75.3906 C4999.8125,75.6563 4999.125,75.7813 4998.3594,75.7813 C4996.3125,75.7813 4995.0156,74.6875 4995.0156,72.9844 L4995.0156,71.8906 C4995.0156,70.1094 4996.2656,68.7969 4998,68.7969 C4998.5781,68.7969 4999.1875,68.9531 4999.6563,69.2031 C5000.1406,69.4844 5000.3125,69.7031 5000.4063,70.1094 C5000.4688,70.5156 5000.5,70.6406 5000.6406,70.7656 C5000.7813,70.9063 5001.0156,71.0156 5001.2344,71.0156 C5001.5,71.0156 5001.7656,70.875 5001.9375,70.6563 C5002.0469,70.5 5002.0781,70.3125 5002.0781,69.8906 L5002.0781,68.4688 C5002.0781,68.0313 5002.0625,67.9063 5001.9688,67.75 C5001.8125,67.4844 5001.5313,67.3438 5001.2344,67.3438 C5000.9375,67.3438 5000.7344,67.4375 5000.5156,67.75 L5000.3438,67.6719 Z " fill="#000000"/><text fill="#000000" font-family="sans-serif" font-size="14" lengthAdjust="spacing" textLength="36" x="5012" y="76.8467">Error</text><line style="stroke:#181818;stroke-width:0.5;" x1="4984" x2="5050" y1="88" y2="88"/><line style="stroke:#181818;stroke-width:0.5;" x1="4984" x2="5050" y1="96" y2="96"/></g><!--MD5=[93a9f1729e76ecadb10ad181edf6b611]
class DatabaseConnector--><g id="elem_DatabaseConnector"><rect codeLine="10" fill="#F1F1F1" height="145.7813" id="DatabaseConnector" rx="2.5" ry="2.5" style="stroke:#181818;stroke-width:0.5;" width="252" x="562" y="7"/><ellipse cx="611.75" cy="23" fill="#ADD1B2" rx="11" ry="11" style="stroke:#181818;stroke-width:1.0;"/><path d="M614.0938,18.6719 C613.1563,18.2344 612.5625,18.0938 611.6875,18.0938 C609.0625,18.0938 607.0625,20.1719 607.0625,22.8906 L607.0625,24.0156 C607.0625,26.5938 609.1719,28.4844 612.0625,28.4844 C613.2813,28.4844 614.4375,28.1875 615.1875,27.6406 C615.7656,27.2344 616.0938,26.7813 616.0938,26.3906 C616.0938,25.9375 615.7031,25.5469 615.2344,25.5469 C615.0156,25.5469 614.8125,25.625 614.625,25.8125 C614.1719,26.2969 614.1719,26.2969 613.9844,26.3906 C613.5625,26.6563 612.875,26.7813 612.1094,26.7813 C610.0625,26.7813 608.7656,25.6875 608.7656,23.9844 L608.7656,22.8906 C608.7656,21.1094 610.0156,19.7969 611.75,19.7969 C612.3281,19.7969 612.9375,19.9531 613.4063,20.2031 C613.8906,20.4844 614.0625,20.7031 614.1563,21.1094 C614.2188,21.5156 614.25,21.6406 614.3906,21.7656 C614.5313,21.9063 614.7656,22.0156 614.9844,22.0156 C615.25,22.0156 615.5156,21.875 615.6875,21.6563 C615.7969,21.5 615.8281,21.3125 615.8281,20.8906 L615.8281,19.4688 C615.8281,19.0313 615.8125,18.9063 615.7188,18.75 C615.5625,18.4844 615.2813,18.3438 614.9844,18.3438 C614.6875,18.3438 614.4844,18.4375 614.2656,18.75 L614.0938,18.6719 Z " fill="#000000"/><text fill="#000000" font-family="sans-serif" font-size="14" lengthAdjust="spacing" textLength="144" x="632.25" y="27.8467">DatabaseConnector</text><line style="stroke:#181818;stroke-width:0.5;" x1="563" x2="813" y1="39" y2="39"/><rect fill="none" height="6" style="stroke:#C82930;stroke-width:1.0;" width="6" x="570" y="47"/><text fill="#000000" font-family="sans-serif" font-size="14" lengthAdjust="spacing" text-decoration="underline" textLength="74" x="582" y="55.9951">URI: string</text><rect fill="none" height="6" style="stroke:#C82930;stroke-width:1.0;" width="6" x="570" y="63.2969"/><text fill="#000000" font-family="sans-serif" font-size="14" lengthAdjust="spacing" text-decoration="underline" textLength="226" x="582" y="72.292">client: MongoClient | undefined</text><rect fill="none" height="6" style="stroke:#C82930;stroke-width:1.0;" width="6" x="570" y="79.5938"/><text fill="#000000" font-family="sans-serif" font-size="14" lengthAdjust="spacing" text-decoration="underline" textLength="195" x="582" y="88.5889">_database?: Db | undefined</text><ellipse cx="573" cy="98.8906" fill="none" rx="3" ry="3" style="stroke:#038048;stroke-width:1.0;"/><text fill="#000000" font-family="sans-serif" font-size="14" lengthAdjust="spacing" text-decoration="underline" textLength="181" x="582" y="104.8857">database: Db | undefined</text><line style="stroke:#181818;stroke-width:0.5;" x1="563" x2="813" y1="112.1875" y2="112.1875"/><ellipse cx="573" cy="123.1875" fill="#84BE84" rx="3" ry="3" style="stroke:#038048;stroke-width:1.0;"/><text fill="#000000" font-family="sans-serif" font-size="14" lengthAdjust="spacing" text-decoration="underline" textLength="86" x="582" y="129.1826">open(): void</text><ellipse cx="573" cy="139.4844" fill="#84BE84" rx="3" ry="3" style="stroke:#038048;stroke-width:1.0;"/><text fill="#000000" font-family="sans-serif" font-size="14" lengthAdjust="spacing" text-decoration="underline" textLength="86" x="582" y="145.4795">close(): void</text></g><!--MD5=[ebf03a84ec3d1696651163c3149d6161]
class BaseDAO--><g id="elem_BaseDAO"><rect codeLine="18" fill="#F1F1F1" height="129.4844" id="BaseDAO" rx="2.5" ry="2.5" style="stroke:#181818;stroke-width:0.5;" width="643" x="3064.5" y="237.5"/><ellipse cx="3262.25" cy="253.5" fill="#A9DCDF" rx="11" ry="11" style="stroke:#181818;stroke-width:1.0;"/><path d="M3264.3281,255.3125 L3264.7188,256.2969 L3264.3281,256.2969 C3263.875,256.2969 3263.7656,256.3125 3263.6094,256.4219 C3263.3594,256.5781 3263.2031,256.8594 3263.2031,257.1563 C3263.2031,257.4219 3263.3438,257.6719 3263.5625,257.8281 C3263.7031,257.9531 3263.9063,258 3264.3281,258 L3266.6875,258 C3267.0469,258 3267.2656,257.9688 3267.4063,257.875 C3267.6563,257.7344 3267.8125,257.4375 3267.8125,257.1563 C3267.8125,256.875 3267.6719,256.625 3267.4531,256.4688 C3267.2813,256.3281 3267.125,256.2969 3266.6563,256.2969 L3263.2656,248.0938 L3259.5938,248.0938 C3259.1406,248.0938 3259.0156,248.1094 3258.8594,248.2031 C3258.6094,248.375 3258.4531,248.6563 3258.4531,248.9375 C3258.4531,249.2188 3258.5938,249.4688 3258.8125,249.6406 C3258.9844,249.75 3259.1563,249.7813 3259.5938,249.7813 L3260.6719,249.7813 L3258.0313,256.2969 C3257.6094,256.2969 3257.4531,256.3125 3257.2969,256.4219 C3257.0469,256.5781 3256.8906,256.8594 3256.8906,257.1563 C3256.8906,257.7188 3257.2656,258 3258.0156,258 L3260.2813,258 C3260.6406,258 3260.8594,257.9688 3260.9844,257.875 C3261.25,257.7344 3261.3906,257.4375 3261.3906,257.1563 C3261.3906,256.875 3261.2656,256.625 3261.0469,256.4531 C3260.875,256.3281 3260.7344,256.2969 3260.2813,256.2969 L3259.8906,256.2969 L3260.2813,255.3125 L3264.3281,255.3125 Z M3263.625,253.6094 L3260.9531,253.6094 L3262.2969,250.3438 L3263.625,253.6094 Z " fill="#000000"/><text fill="#000000" font-family="sans-serif" font-size="14" font-style="italic" lengthAdjust="spacing" textLength="67" x="3282.75" y="258.3467">BaseDAO</text><rect fill="#FFFFFF" height="15.9688" style="stroke:#000000;stroke-width:1.0;stroke-dasharray:2.0,2.0;" width="170" x="3540.5" y="234.5"/><text fill="#000000" font-family="sans-serif" font-size="12" font-style="italic" lengthAdjust="spacing" textLength="168" x="3541.5" y="246.6387">Schema extends Document</text><line style="stroke:#181818;stroke-width:0.5;" x1="3065.5" x2="3706.5" y1="269.5" y2="269.5"/><ellipse cx="3075.5" cy="280.5" fill="none" rx="3" ry="3" style="stroke:#038048;stroke-width:1.0;"/><text fill="#000000" font-family="sans-serif" font-size="14" font-style="italic" lengthAdjust="spacing" textLength="160" x="3084.5" y="286.4951">collectionName: string</text><ellipse cx="3075.5" cy="296.7969" fill="none" rx="3" ry="3" style="stroke:#038048;stroke-width:1.0;"/><text fill="#000000" font-family="sans-serif" font-size="14" lengthAdjust="spacing" textLength="441" x="3084.5" y="302.792">collection: Mongo.Collection&lt;Mongo.Document&gt; | undefined</text><line style="stroke:#181818;stroke-width:0.5;" x1="3065.5" x2="3706.5" y1="310.0938" y2="310.0938"/><ellipse cx="3075.5" cy="321.0938" fill="#84BE84" rx="3" ry="3" style="stroke:#038048;stroke-width:1.0;"/><text fill="#000000" font-family="sans-serif" font-size="14" lengthAdjust="spacing" textLength="339" x="3084.5" y="327.0889">insertOne(document: Schema): Promise&lt;void&gt;</text><ellipse cx="3075.5" cy="337.3906" fill="#84BE84" rx="3" ry="3" style="stroke:#038048;stroke-width:1.0;"/><text fill="#000000" font-family="sans-serif" font-size="14" lengthAdjust="spacing" textLength="550" x="3084.5" y="343.3857">findOne(filter: Mongo.Filter&lt;Schema&gt;): Promise&lt;Mongo.WithId&lt;Schema&gt;&gt;</text><ellipse cx="3075.5" cy="353.6875" fill="#84BE84" rx="3" ry="3" style="stroke:#038048;stroke-width:1.0;"/><text fill="#000000" font-family="sans-serif" font-size="14" lengthAdjust="spacing" textLength="617" x="3084.5" y="359.6826">updateOne(filter: Mongo.Filter&lt;Schema&gt;, update: Partial&lt;Schema&gt;): Promise&lt;void&gt;</text></g><!--MD5=[76ab8d192502cb4818e5b62d3136acdb]
class UserRegistrationFormData--><g id="elem_UserRegistrationFormData"><rect codeLine="25" fill="#F1F1F1" height="113.1875" id="UserRegistrationFormData" rx="2.5" ry="2.5" style="stroke:#181818;stroke-width:0.5;" width="273" x="3163.5" y="771.5"/><ellipse cx="3201.9" cy="787.5" fill="#B4A7E5" rx="11" ry="11" style="stroke:#181818;stroke-width:1.0;"/><path d="M3202.8531,784.2813 L3204.5719,784.2813 C3204.9625,784.2813 3205.15,784.25 3205.275,784.1719 C3205.5406,784.0156 3205.6813,783.7344 3205.6813,783.4375 C3205.6813,783.1719 3205.5719,782.9063 3205.3375,782.7344 C3205.1656,782.625 3205.025,782.5938 3204.5719,782.5938 L3199.4313,782.5938 C3198.9938,782.5938 3198.8688,782.6094 3198.7125,782.7031 C3198.4625,782.8594 3198.3063,783.1563 3198.3063,783.4375 C3198.3063,783.7188 3198.4469,783.9688 3198.6656,784.1406 C3198.8219,784.25 3199.0094,784.2813 3199.4313,784.2813 L3201.15,784.2813 L3201.15,790.7969 L3199.4313,790.7969 C3198.9938,790.7969 3198.8688,790.8125 3198.7125,790.9219 C3198.4625,791.0781 3198.3063,791.3594 3198.3063,791.6563 C3198.3063,791.9063 3198.4469,792.1719 3198.6656,792.3281 C3198.8219,792.4531 3199.025,792.5 3199.4313,792.5 L3204.5719,792.5 C3205.3219,792.5 3205.6813,792.2188 3205.6813,791.6563 C3205.6813,791.375 3205.5719,791.125 3205.3375,790.9531 C3205.1656,790.8281 3205.025,790.7969 3204.5719,790.7969 L3202.8531,790.7969 L3202.8531,784.2813 Z " fill="#000000"/><text fill="#000000" font-family="sans-serif" font-size="14" font-style="italic" lengthAdjust="spacing" textLength="189" x="3221.1" y="792.3467">UserRegistrationFormData</text><line style="stroke:#181818;stroke-width:0.5;" x1="3164.5" x2="3435.5" y1="803.5" y2="803.5"/><ellipse cx="3174.5" cy="814.5" fill="none" rx="3" ry="3" style="stroke:#038048;stroke-width:1.0;"/><text fill="#000000" font-family="sans-serif" font-size="14" lengthAdjust="spacing" textLength="247" x="3183.5" y="820.4951">name: { first: string; last: string; }</text><ellipse cx="3174.5" cy="830.7969" fill="none" rx="3" ry="3" style="stroke:#038048;stroke-width:1.0;"/><text fill="#000000" font-family="sans-serif" font-size="14" lengthAdjust="spacing" textLength="121" x="3183.5" y="836.792">username: string</text><ellipse cx="3174.5" cy="847.0938" fill="none" rx="3" ry="3" style="stroke:#038048;stroke-width:1.0;"/><text fill="#000000" font-family="sans-serif" font-size="14" lengthAdjust="spacing" textLength="118" x="3183.5" y="853.0889">password: string</text><ellipse cx="3174.5" cy="863.3906" fill="none" rx="3" ry="3" style="stroke:#038048;stroke-width:1.0;"/><text fill="#000000" font-family="sans-serif" font-size="14" lengthAdjust="spacing" textLength="90" x="3183.5" y="869.3857">email: string</text><line style="stroke:#181818;stroke-width:0.5;" x1="3164.5" x2="3435.5" y1="876.6875" y2="876.6875"/></g><!--MD5=[73dce865cdb77af8e73c9f48f4f93ade]
class UserLoginFormData--><g id="elem_UserLoginFormData"><rect codeLine="31" fill="#F1F1F1" height="80.5938" id="UserLoginFormData" rx="2.5" ry="2.5" style="stroke:#181818;stroke-width:0.5;" width="174" x="3472" y="787.5"/><ellipse cx="3487" cy="803.5" fill="#B4A7E5" rx="11" ry="11" style="stroke:#181818;stroke-width:1.0;"/><path d="M3487.9531,800.2813 L3489.6719,800.2813 C3490.0625,800.2813 3490.25,800.25 3490.375,800.1719 C3490.6406,800.0156 3490.7813,799.7344 3490.7813,799.4375 C3490.7813,799.1719 3490.6719,798.9063 3490.4375,798.7344 C3490.2656,798.625 3490.125,798.5938 3489.6719,798.5938 L3484.5313,798.5938 C3484.0938,798.5938 3483.9688,798.6094 3483.8125,798.7031 C3483.5625,798.8594 3483.4063,799.1563 3483.4063,799.4375 C3483.4063,799.7188 3483.5469,799.9688 3483.7656,800.1406 C3483.9219,800.25 3484.1094,800.2813 3484.5313,800.2813 L3486.25,800.2813 L3486.25,806.7969 L3484.5313,806.7969 C3484.0938,806.7969 3483.9688,806.8125 3483.8125,806.9219 C3483.5625,807.0781 3483.4063,807.3594 3483.4063,807.6563 C3483.4063,807.9063 3483.5469,808.1719 3483.7656,808.3281 C3483.9219,808.4531 3484.125,808.5 3484.5313,808.5 L3489.6719,808.5 C3490.4219,808.5 3490.7813,808.2188 3490.7813,807.6563 C3490.7813,807.375 3490.6719,807.125 3490.4375,806.9531 C3490.2656,806.8281 3490.125,806.7969 3489.6719,806.7969 L3487.9531,806.7969 L3487.9531,800.2813 Z " fill="#000000"/><text fill="#000000" font-family="sans-serif" font-size="14" font-style="italic" lengthAdjust="spacing" textLength="142" x="3501" y="808.3467">UserLoginFormData</text><line style="stroke:#181818;stroke-width:0.5;" x1="3473" x2="3645" y1="819.5" y2="819.5"/><ellipse cx="3483" cy="830.5" fill="none" rx="3" ry="3" style="stroke:#038048;stroke-width:1.0;"/><text fill="#000000" font-family="sans-serif" font-size="14" lengthAdjust="spacing" textLength="81" x="3492" y="836.4951">user: string</text><ellipse cx="3483" cy="846.7969" fill="none" rx="3" ry="3" style="stroke:#038048;stroke-width:1.0;"/><text fill="#000000" font-family="sans-serif" font-size="14" lengthAdjust="spacing" textLength="118" x="3492" y="852.792">password: string</text><line style="stroke:#181818;stroke-width:0.5;" x1="3473" x2="3645" y1="860.0938" y2="860.0938"/></g><!--MD5=[4397ba3f25468a58f081bf0666d83f60]
class IUser--><g id="elem_IUser"><rect codeLine="35" fill="#F1F1F1" height="145.7813" id="IUser" rx="2.5" ry="2.5" style="stroke:#181818;stroke-width:0.5;" width="273" x="3906.5" y="755"/><ellipse cx="4020.75" cy="771" fill="#B4A7E5" rx="11" ry="11" style="stroke:#181818;stroke-width:1.0;"/><path d="M4021.7031,767.7813 L4023.4219,767.7813 C4023.8125,767.7813 4024,767.75 4024.125,767.6719 C4024.3906,767.5156 4024.5313,767.2344 4024.5313,766.9375 C4024.5313,766.6719 4024.4219,766.4063 4024.1875,766.2344 C4024.0156,766.125 4023.875,766.0938 4023.4219,766.0938 L4018.2813,766.0938 C4017.8438,766.0938 4017.7188,766.1094 4017.5625,766.2031 C4017.3125,766.3594 4017.1563,766.6563 4017.1563,766.9375 C4017.1563,767.2188 4017.2969,767.4688 4017.5156,767.6406 C4017.6719,767.75 4017.8594,767.7813 4018.2813,767.7813 L4020,767.7813 L4020,774.2969 L4018.2813,774.2969 C4017.8438,774.2969 4017.7188,774.3125 4017.5625,774.4219 C4017.3125,774.5781 4017.1563,774.8594 4017.1563,775.1563 C4017.1563,775.4063 4017.2969,775.6719 4017.5156,775.8281 C4017.6719,775.9531 4017.875,776 4018.2813,776 L4023.4219,776 C4024.1719,776 4024.5313,775.7188 4024.5313,775.1563 C4024.5313,774.875 4024.4219,774.625 4024.1875,774.4531 C4024.0156,774.3281 4023.875,774.2969 4023.4219,774.2969 L4021.7031,774.2969 L4021.7031,767.7813 Z " fill="#000000"/><text fill="#000000" font-family="sans-serif" font-size="14" font-style="italic" lengthAdjust="spacing" textLength="36" x="4041.25" y="775.8467">IUser</text><line style="stroke:#181818;stroke-width:0.5;" x1="3907.5" x2="4178.5" y1="787" y2="787"/><ellipse cx="3917.5" cy="798" fill="none" rx="3" ry="3" style="stroke:#038048;stroke-width:1.0;"/><text fill="#000000" font-family="sans-serif" font-size="14" lengthAdjust="spacing" textLength="183" x="3926.5" y="803.9951">_id?: ObjectId | undefined</text><ellipse cx="3917.5" cy="814.2969" fill="none" rx="3" ry="3" style="stroke:#038048;stroke-width:1.0;"/><text fill="#000000" font-family="sans-serif" font-size="14" lengthAdjust="spacing" textLength="247" x="3926.5" y="820.292">name: { first: string; last: string; }</text><ellipse cx="3917.5" cy="830.5938" fill="none" rx="3" ry="3" style="stroke:#038048;stroke-width:1.0;"/><text fill="#000000" font-family="sans-serif" font-size="14" lengthAdjust="spacing" textLength="90" x="3926.5" y="836.5889">email: string</text><ellipse cx="3917.5" cy="846.8906" fill="none" rx="3" ry="3" style="stroke:#038048;stroke-width:1.0;"/><text fill="#000000" font-family="sans-serif" font-size="14" lengthAdjust="spacing" textLength="121" x="3926.5" y="852.8857">username: string</text><ellipse cx="3917.5" cy="863.1875" fill="none" rx="3" ry="3" style="stroke:#038048;stroke-width:1.0;"/><text fill="#000000" font-family="sans-serif" font-size="14" lengthAdjust="spacing" textLength="118" x="3926.5" y="869.1826">password: string</text><ellipse cx="3917.5" cy="879.4844" fill="none" rx="3" ry="3" style="stroke:#038048;stroke-width:1.0;"/><text fill="#000000" font-family="sans-serif" font-size="14" lengthAdjust="spacing" textLength="100" x="3926.5" y="885.4795">auths: string[]</text><line style="stroke:#181818;stroke-width:0.5;" x1="3907.5" x2="4178.5" y1="892.7813" y2="892.7813"/></g><!--MD5=[59b530d44ae785dc18db921986a9c15c]
class Document--><g id="elem_Document"><rect fill="#F1F1F1" height="48" id="Document" rx="2.5" ry="2.5" style="stroke:#181818;stroke-width:0.5;" width="106" x="3643" y="549"/><ellipse cx="3658" cy="565" fill="#B4A7E5" rx="11" ry="11" style="stroke:#181818;stroke-width:1.0;"/><path d="M3658.9531,561.7813 L3660.6719,561.7813 C3661.0625,561.7813 3661.25,561.75 3661.375,561.6719 C3661.6406,561.5156 3661.7813,561.2344 3661.7813,560.9375 C3661.7813,560.6719 3661.6719,560.4063 3661.4375,560.2344 C3661.2656,560.125 3661.125,560.0938 3660.6719,560.0938 L3655.5313,560.0938 C3655.0938,560.0938 3654.9688,560.1094 3654.8125,560.2031 C3654.5625,560.3594 3654.4063,560.6563 3654.4063,560.9375 C3654.4063,561.2188 3654.5469,561.4688 3654.7656,561.6406 C3654.9219,561.75 3655.1094,561.7813 3655.5313,561.7813 L3657.25,561.7813 L3657.25,568.2969 L3655.5313,568.2969 C3655.0938,568.2969 3654.9688,568.3125 3654.8125,568.4219 C3654.5625,568.5781 3654.4063,568.8594 3654.4063,569.1563 C3654.4063,569.4063 3654.5469,569.6719 3654.7656,569.8281 C3654.9219,569.9531 3655.125,570 3655.5313,570 L3660.6719,570 C3661.4219,570 3661.7813,569.7188 3661.7813,569.1563 C3661.7813,568.875 3661.6719,568.625 3661.4375,568.4531 C3661.2656,568.3281 3661.125,568.2969 3660.6719,568.2969 L3658.9531,568.2969 L3658.9531,561.7813 Z " fill="#000000"/><text fill="#000000" font-family="sans-serif" font-size="14" font-style="italic" lengthAdjust="spacing" textLength="74" x="3672" y="569.8467">Document</text><line style="stroke:#181818;stroke-width:0.5;" x1="3644" x2="3748" y1="581" y2="581"/><line style="stroke:#181818;stroke-width:0.5;" x1="3644" x2="3748" y1="589" y2="589"/></g><!--MD5=[e036894509db5986c948eb9d369df05f]
class AuthInfo--><g id="elem_AuthInfo"><rect codeLine="43" fill="#F1F1F1" height="80.5938" id="AuthInfo" rx="2.5" ry="2.5" style="stroke:#181818;stroke-width:0.5;" width="118" x="2933" y="787.5"/><ellipse cx="2959.7" cy="803.5" fill="#B4A7E5" rx="11" ry="11" style="stroke:#181818;stroke-width:1.0;"/><path d="M2960.6531,800.2813 L2962.3719,800.2813 C2962.7625,800.2813 2962.95,800.25 2963.075,800.1719 C2963.3406,800.0156 2963.4813,799.7344 2963.4813,799.4375 C2963.4813,799.1719 2963.3719,798.9063 2963.1375,798.7344 C2962.9656,798.625 2962.825,798.5938 2962.3719,798.5938 L2957.2313,798.5938 C2956.7938,798.5938 2956.6688,798.6094 2956.5125,798.7031 C2956.2625,798.8594 2956.1063,799.1563 2956.1063,799.4375 C2956.1063,799.7188 2956.2469,799.9688 2956.4656,800.1406 C2956.6219,800.25 2956.8094,800.2813 2957.2313,800.2813 L2958.95,800.2813 L2958.95,806.7969 L2957.2313,806.7969 C2956.7938,806.7969 2956.6688,806.8125 2956.5125,806.9219 C2956.2625,807.0781 2956.1063,807.3594 2956.1063,807.6563 C2956.1063,807.9063 2956.2469,808.1719 2956.4656,808.3281 C2956.6219,808.4531 2956.825,808.5 2957.2313,808.5 L2962.3719,808.5 C2963.1219,808.5 2963.4813,808.2188 2963.4813,807.6563 C2963.4813,807.375 2963.3719,807.125 2963.1375,806.9531 C2962.9656,806.8281 2962.825,806.7969 2962.3719,806.7969 L2960.6531,806.7969 L2960.6531,800.2813 Z " fill="#000000"/><text fill="#000000" font-family="sans-serif" font-size="14" font-style="italic" lengthAdjust="spacing" textLength="60" x="2976.3" y="808.3467">AuthInfo</text><line style="stroke:#181818;stroke-width:0.5;" x1="2934" x2="3050" y1="819.5" y2="819.5"/><ellipse cx="2944" cy="830.5" fill="none" rx="3" ry="3" style="stroke:#038048;stroke-width:1.0;"/><text fill="#000000" font-family="sans-serif" font-size="14" lengthAdjust="spacing" textLength="92" x="2953" y="836.4951">uid: ObjectId</text><ellipse cx="2944" cy="846.7969" fill="none" rx="3" ry="3" style="stroke:#038048;stroke-width:1.0;"/><text fill="#000000" font-family="sans-serif" font-size="14" lengthAdjust="spacing" textLength="77" x="2953" y="852.792">key: string</text><line style="stroke:#181818;stroke-width:0.5;" x1="2934" x2="3050" y1="860.0938" y2="860.0938"/></g><!--MD5=[6f49855a2f41b15b7be64856ff30349b]
class UserDAO--><g id="elem_UserDAO"><rect codeLine="47" fill="#F1F1F1" height="145.7813" id="UserDAO" rx="2.5" ry="2.5" style="stroke:#181818;stroke-width:0.5;" width="538" x="3070" y="500"/><ellipse cx="3303.25" cy="516" fill="#ADD1B2" rx="11" ry="11" style="stroke:#181818;stroke-width:1.0;"/><path d="M3305.5938,511.6719 C3304.6563,511.2344 3304.0625,511.0938 3303.1875,511.0938 C3300.5625,511.0938 3298.5625,513.1719 3298.5625,515.8906 L3298.5625,517.0156 C3298.5625,519.5938 3300.6719,521.4844 3303.5625,521.4844 C3304.7813,521.4844 3305.9375,521.1875 3306.6875,520.6406 C3307.2656,520.2344 3307.5938,519.7813 3307.5938,519.3906 C3307.5938,518.9375 3307.2031,518.5469 3306.7344,518.5469 C3306.5156,518.5469 3306.3125,518.625 3306.125,518.8125 C3305.6719,519.2969 3305.6719,519.2969 3305.4844,519.3906 C3305.0625,519.6563 3304.375,519.7813 3303.6094,519.7813 C3301.5625,519.7813 3300.2656,518.6875 3300.2656,516.9844 L3300.2656,515.8906 C3300.2656,514.1094 3301.5156,512.7969 3303.25,512.7969 C3303.8281,512.7969 3304.4375,512.9531 3304.9063,513.2031 C3305.3906,513.4844 3305.5625,513.7031 3305.6563,514.1094 C3305.7188,514.5156 3305.75,514.6406 3305.8906,514.7656 C3306.0313,514.9063 3306.2656,515.0156 3306.4844,515.0156 C3306.75,515.0156 3307.0156,514.875 3307.1875,514.6563 C3307.2969,514.5 3307.3281,514.3125 3307.3281,513.8906 L3307.3281,512.4688 C3307.3281,512.0313 3307.3125,511.9063 3307.2188,511.75 C3307.0625,511.4844 3306.7813,511.3438 3306.4844,511.3438 C3306.1875,511.3438 3305.9844,511.4375 3305.7656,511.75 L3305.5938,511.6719 Z " fill="#000000"/><text fill="#000000" font-family="sans-serif" font-size="14" lengthAdjust="spacing" textLength="63" x="3323.75" y="520.8467">UserDAO</text><line style="stroke:#181818;stroke-width:0.5;" x1="3071" x2="3607" y1="532" y2="532"/><ellipse cx="3081" cy="543" fill="none" rx="3" ry="3" style="stroke:#038048;stroke-width:1.0;"/><text fill="#000000" font-family="sans-serif" font-size="14" lengthAdjust="spacing" textLength="163" x="3090" y="548.9951">collectionName: string</text><line style="stroke:#181818;stroke-width:0.5;" x1="3071" x2="3607" y1="556.2969" y2="556.2969"/><ellipse cx="3081" cy="567.2969" fill="#84BE84" rx="3" ry="3" style="stroke:#038048;stroke-width:1.0;"/><text fill="#000000" font-family="sans-serif" font-size="14" lengthAdjust="spacing" textLength="476" x="3090" y="573.292">createUser(formData: UserRegistrationFormData): Promise&lt;void&gt;</text><ellipse cx="3081" cy="583.5938" fill="#84BE84" rx="3" ry="3" style="stroke:#038048;stroke-width:1.0;"/><text fill="#000000" font-family="sans-serif" font-size="14" lengthAdjust="spacing" textLength="512" x="3090" y="589.5889">authenticateLogin(formData: UserLoginFormData): Promise&lt;AuthInfo&gt;</text><ellipse cx="3081" cy="599.8906" fill="#84BE84" rx="3" ry="3" style="stroke:#038048;stroke-width:1.0;"/><text fill="#000000" font-family="sans-serif" font-size="14" lengthAdjust="spacing" textLength="454" x="3090" y="605.8857">authenticateKey(uid: ObjectId, key: string): Promise&lt;boolean&gt;</text><rect fill="#F24D5C" height="6" style="stroke:#C82930;stroke-width:1.0;" width="6" x="3078" y="613.1875"/><text fill="#000000" font-family="sans-serif" font-size="14" lengthAdjust="spacing" textLength="188" x="3090" y="622.1826">generateAuthKey(): string</text><ellipse cx="3081" cy="632.4844" fill="#84BE84" rx="3" ry="3" style="stroke:#038048;stroke-width:1.0;"/><text fill="#000000" font-family="sans-serif" font-size="14" lengthAdjust="spacing" text-decoration="underline" textLength="251" x="3090" y="638.4795">sanitize(user: IUser): ISanitizedUser</text></g><!--MD5=[9b16d859f8a5b0e4870719ff73b578c6]
class GameStateAPIResponse--><g id="elem_GameStateAPIResponse"><rect codeLine="55" fill="#F1F1F1" height="113.1875" id="GameStateAPIResponse" rx="2.5" ry="2.5" style="stroke:#181818;stroke-width:0.5;" width="288" x="2012" y="516.5"/><ellipse cx="2064.25" cy="532.5" fill="#ADD1B2" rx="11" ry="11" style="stroke:#181818;stroke-width:1.0;"/><path d="M2066.5938,528.1719 C2065.6563,527.7344 2065.0625,527.5938 2064.1875,527.5938 C2061.5625,527.5938 2059.5625,529.6719 2059.5625,532.3906 L2059.5625,533.5156 C2059.5625,536.0938 2061.6719,537.9844 2064.5625,537.9844 C2065.7813,537.9844 2066.9375,537.6875 2067.6875,537.1406 C2068.2656,536.7344 2068.5938,536.2813 2068.5938,535.8906 C2068.5938,535.4375 2068.2031,535.0469 2067.7344,535.0469 C2067.5156,535.0469 2067.3125,535.125 2067.125,535.3125 C2066.6719,535.7969 2066.6719,535.7969 2066.4844,535.8906 C2066.0625,536.1563 2065.375,536.2813 2064.6094,536.2813 C2062.5625,536.2813 2061.2656,535.1875 2061.2656,533.4844 L2061.2656,532.3906 C2061.2656,530.6094 2062.5156,529.2969 2064.25,529.2969 C2064.8281,529.2969 2065.4375,529.4531 2065.9063,529.7031 C2066.3906,529.9844 2066.5625,530.2031 2066.6563,530.6094 C2066.7188,531.0156 2066.75,531.1406 2066.8906,531.2656 C2067.0313,531.4063 2067.2656,531.5156 2067.4844,531.5156 C2067.75,531.5156 2068.0156,531.375 2068.1875,531.1563 C2068.2969,531 2068.3281,530.8125 2068.3281,530.3906 L2068.3281,528.9688 C2068.3281,528.5313 2068.3125,528.4063 2068.2188,528.25 C2068.0625,527.9844 2067.7813,527.8438 2067.4844,527.8438 C2067.1875,527.8438 2066.9844,527.9375 2066.7656,528.25 L2066.5938,528.1719 Z " fill="#000000"/><text fill="#000000" font-family="sans-serif" font-size="14" lengthAdjust="spacing" textLength="175" x="2084.75" y="537.3467">GameStateAPIResponse</text><line style="stroke:#181818;stroke-width:0.5;" x1="2013" x2="2299" y1="548.5" y2="548.5"/><ellipse cx="2023" cy="559.5" fill="none" rx="3" ry="3" style="stroke:#038048;stroke-width:1.0;"/><text fill="#000000" font-family="sans-serif" font-size="14" lengthAdjust="spacing" textLength="75" x="2032" y="565.4951">fen: string</text><ellipse cx="2023" cy="575.7969" fill="none" rx="3" ry="3" style="stroke:#038048;stroke-width:1.0;"/><text fill="#000000" font-family="sans-serif" font-size="14" lengthAdjust="spacing" textLength="128" x="2032" y="581.792">gameKey: string[]</text><ellipse cx="2023" cy="592.0938" fill="none" rx="3" ry="3" style="stroke:#038048;stroke-width:1.0;"/><text fill="#000000" font-family="sans-serif" font-size="14" lengthAdjust="spacing" textLength="196" x="2032" y="598.0889">messages: IGameMessage[]</text><ellipse cx="2023" cy="608.3906" fill="none" rx="3" ry="3" style="stroke:#038048;stroke-width:1.0;"/><text fill="#000000" font-family="sans-serif" font-size="14" lengthAdjust="spacing" textLength="262" x="2032" y="614.3857">players: { black?: any; white?: any; }</text><line style="stroke:#181818;stroke-width:0.5;" x1="2013" x2="2299" y1="621.6875" y2="621.6875"/></g><!--MD5=[928bcff83946001fa03afb90f0500b0d]
class IGameStateAPIResponse--><g id="elem_IGameStateAPIResponse"><rect fill="#F1F1F1" height="48" id="IGameStateAPIResponse" rx="2.5" ry="2.5" style="stroke:#181818;stroke-width:0.5;" width="207" x="2052.5" y="278"/><ellipse cx="2067.5" cy="294" fill="#B4A7E5" rx="11" ry="11" style="stroke:#181818;stroke-width:1.0;"/><path d="M2068.4531,290.7813 L2070.1719,290.7813 C2070.5625,290.7813 2070.75,290.75 2070.875,290.6719 C2071.1406,290.5156 2071.2813,290.2344 2071.2813,289.9375 C2071.2813,289.6719 2071.1719,289.4063 2070.9375,289.2344 C2070.7656,289.125 2070.625,289.0938 2070.1719,289.0938 L2065.0313,289.0938 C2064.5938,289.0938 2064.4688,289.1094 2064.3125,289.2031 C2064.0625,289.3594 2063.9063,289.6563 2063.9063,289.9375 C2063.9063,290.2188 2064.0469,290.4688 2064.2656,290.6406 C2064.4219,290.75 2064.6094,290.7813 2065.0313,290.7813 L2066.75,290.7813 L2066.75,297.2969 L2065.0313,297.2969 C2064.5938,297.2969 2064.4688,297.3125 2064.3125,297.4219 C2064.0625,297.5781 2063.9063,297.8594 2063.9063,298.1563 C2063.9063,298.4063 2064.0469,298.6719 2064.2656,298.8281 C2064.4219,298.9531 2064.625,299 2065.0313,299 L2070.1719,299 C2070.9219,299 2071.2813,298.7188 2071.2813,298.1563 C2071.2813,297.875 2071.1719,297.625 2070.9375,297.4531 C2070.7656,297.3281 2070.625,297.2969 2070.1719,297.2969 L2068.4531,297.2969 L2068.4531,290.7813 Z " fill="#000000"/><text fill="#000000" font-family="sans-serif" font-size="14" font-style="italic" lengthAdjust="spacing" textLength="175" x="2081.5" y="298.8467">IGameStateAPIResponse</text><line style="stroke:#181818;stroke-width:0.5;" x1="2053.5" x2="2258.5" y1="310" y2="310"/><line style="stroke:#181818;stroke-width:0.5;" x1="2053.5" x2="2258.5" y1="318" y2="318"/></g><!--MD5=[f41a2a69ef6870569400a9d90f983dee]
class ChessGame--><g id="elem_ChessGame"><rect codeLine="61" fill="#F1F1F1" height="243.5625" id="ChessGame" rx="2.5" ry="2.5" style="stroke:#181818;stroke-width:0.5;" width="736" x="3784" y="451"/><ellipse cx="4105.75" cy="467" fill="#ADD1B2" rx="11" ry="11" style="stroke:#181818;stroke-width:1.0;"/><path d="M4108.0938,462.6719 C4107.1563,462.2344 4106.5625,462.0938 4105.6875,462.0938 C4103.0625,462.0938 4101.0625,464.1719 4101.0625,466.8906 L4101.0625,468.0156 C4101.0625,470.5938 4103.1719,472.4844 4106.0625,472.4844 C4107.2813,472.4844 4108.4375,472.1875 4109.1875,471.6406 C4109.7656,471.2344 4110.0938,470.7813 4110.0938,470.3906 C4110.0938,469.9375 4109.7031,469.5469 4109.2344,469.5469 C4109.0156,469.5469 4108.8125,469.625 4108.625,469.8125 C4108.1719,470.2969 4108.1719,470.2969 4107.9844,470.3906 C4107.5625,470.6563 4106.875,470.7813 4106.1094,470.7813 C4104.0625,470.7813 4102.7656,469.6875 4102.7656,467.9844 L4102.7656,466.8906 C4102.7656,465.1094 4104.0156,463.7969 4105.75,463.7969 C4106.3281,463.7969 4106.9375,463.9531 4107.4063,464.2031 C4107.8906,464.4844 4108.0625,464.7031 4108.1563,465.1094 C4108.2188,465.5156 4108.25,465.6406 4108.3906,465.7656 C4108.5313,465.9063 4108.7656,466.0156 4108.9844,466.0156 C4109.25,466.0156 4109.5156,465.875 4109.6875,465.6563 C4109.7969,465.5 4109.8281,465.3125 4109.8281,464.8906 L4109.8281,463.4688 C4109.8281,463.0313 4109.8125,462.9063 4109.7188,462.75 C4109.5625,462.4844 4109.2813,462.3438 4108.9844,462.3438 C4108.6875,462.3438 4108.4844,462.4375 4108.2656,462.75 L4108.0938,462.6719 Z " fill="#000000"/><text fill="#000000" font-family="sans-serif" font-size="14" lengthAdjust="spacing" textLength="84" x="4126.25" y="471.8467">ChessGame</text><line style="stroke:#181818;stroke-width:0.5;" x1="3785" x2="4519" y1="483" y2="483"/><ellipse cx="3795" cy="494" fill="none" rx="3" ry="3" style="stroke:#038048;stroke-width:1.0;"/><text fill="#000000" font-family="sans-serif" font-size="14" lengthAdjust="spacing" textLength="128" x="3804" y="499.9951">gameKey: string[]</text><ellipse cx="3795" cy="510.2969" fill="none" rx="3" ry="3" style="stroke:#038048;stroke-width:1.0;"/><text fill="#000000" font-family="sans-serif" font-size="14" lengthAdjust="spacing" textLength="175" x="3804" y="516.292">black?: IUser | undefined</text><ellipse cx="3795" cy="526.5938" fill="none" rx="3" ry="3" style="stroke:#038048;stroke-width:1.0;"/><text fill="#000000" font-family="sans-serif" font-size="14" lengthAdjust="spacing" textLength="176" x="3804" y="532.5889">white?: IUser | undefined</text><ellipse cx="3795" cy="542.8906" fill="none" rx="3" ry="3" style="stroke:#038048;stroke-width:1.0;"/><text fill="#000000" font-family="sans-serif" font-size="14" lengthAdjust="spacing" textLength="709" x="3804" y="548.8857">blackSocket?: Socket&lt;DefaultEventsMap, DefaultEventsMap, DefaultEventsMap, any&gt; | undefined</text><ellipse cx="3795" cy="559.1875" fill="none" rx="3" ry="3" style="stroke:#038048;stroke-width:1.0;"/><text fill="#000000" font-family="sans-serif" font-size="14" lengthAdjust="spacing" textLength="710" x="3804" y="565.1826">whiteSocket?: Socket&lt;DefaultEventsMap, DefaultEventsMap, DefaultEventsMap, any&gt; | undefined</text><rect fill="none" height="6" style="stroke:#C82930;stroke-width:1.0;" width="6" x="3792" y="572.4844"/><text fill="#000000" font-family="sans-serif" font-size="14" lengthAdjust="spacing" textLength="152" x="3804" y="581.4795">game: ChessInstance</text><rect fill="none" height="6" style="stroke:#C82930;stroke-width:1.0;" width="6" x="3792" y="588.7813"/><text fill="#000000" font-family="sans-serif" font-size="14" lengthAdjust="spacing" textLength="196" x="3804" y="597.7764">messages: IGameMessage[]</text><ellipse cx="3795" cy="608.0781" fill="none" rx="3" ry="3" style="stroke:#038048;stroke-width:1.0;"/><text fill="#000000" font-family="sans-serif" font-size="14" lengthAdjust="spacing" textLength="75" x="3804" y="614.0732">fen: string</text><ellipse cx="3795" cy="624.375" fill="none" rx="3" ry="3" style="stroke:#038048;stroke-width:1.0;"/><text fill="#000000" font-family="sans-serif" font-size="14" lengthAdjust="spacing" textLength="101" x="3804" y="630.3701">turn: "w" | "b"</text><line style="stroke:#181818;stroke-width:0.5;" x1="3785" x2="4519" y1="637.6719" y2="637.6719"/><ellipse cx="3795" cy="648.6719" fill="#84BE84" rx="3" ry="3" style="stroke:#038048;stroke-width:1.0;"/><text fill="#000000" font-family="sans-serif" font-size="14" lengthAdjust="spacing" textLength="315" x="3804" y="654.667">addMessage(message: IGameMessage): void</text><ellipse cx="3795" cy="664.9688" fill="#84BE84" rx="3" ry="3" style="stroke:#038048;stroke-width:1.0;"/><text fill="#000000" font-family="sans-serif" font-size="14" lengthAdjust="spacing" textLength="229" x="3804" y="670.9639">getMessages(): IGameMessage[]</text><ellipse cx="3795" cy="681.2656" fill="#84BE84" rx="3" ry="3" style="stroke:#038048;stroke-width:1.0;"/><text fill="#000000" font-family="sans-serif" font-size="14" lengthAdjust="spacing" textLength="352" x="3804" y="687.2607">move(source: Square, target: Square): Move | null</text></g><!--MD5=[b28b797a8bb52c5d797eb4874e8b08fe]
class ArrayUtils--><g id="elem_ArrayUtils"><rect codeLine="75" fill="#F1F1F1" height="64.2969" id="ArrayUtils" rx="2.5" ry="2.5" style="stroke:#181818;stroke-width:0.5;" width="290" x="849" y="48"/><ellipse cx="955.25" cy="64" fill="#ADD1B2" rx="11" ry="11" style="stroke:#181818;stroke-width:1.0;"/><path d="M957.5938,59.6719 C956.6563,59.2344 956.0625,59.0938 955.1875,59.0938 C952.5625,59.0938 950.5625,61.1719 950.5625,63.8906 L950.5625,65.0156 C950.5625,67.5938 952.6719,69.4844 955.5625,69.4844 C956.7813,69.4844 957.9375,69.1875 958.6875,68.6406 C959.2656,68.2344 959.5938,67.7813 959.5938,67.3906 C959.5938,66.9375 959.2031,66.5469 958.7344,66.5469 C958.5156,66.5469 958.3125,66.625 958.125,66.8125 C957.6719,67.2969 957.6719,67.2969 957.4844,67.3906 C957.0625,67.6563 956.375,67.7813 955.6094,67.7813 C953.5625,67.7813 952.2656,66.6875 952.2656,64.9844 L952.2656,63.8906 C952.2656,62.1094 953.5156,60.7969 955.25,60.7969 C955.8281,60.7969 956.4375,60.9531 956.9063,61.2031 C957.3906,61.4844 957.5625,61.7031 957.6563,62.1094 C957.7188,62.5156 957.75,62.6406 957.8906,62.7656 C958.0313,62.9063 958.2656,63.0156 958.4844,63.0156 C958.75,63.0156 959.0156,62.875 959.1875,62.6563 C959.2969,62.5 959.3281,62.3125 959.3281,61.8906 L959.3281,60.4688 C959.3281,60.0313 959.3125,59.9063 959.2188,59.75 C959.0625,59.4844 958.7813,59.3438 958.4844,59.3438 C958.1875,59.3438 957.9844,59.4375 957.7656,59.75 L957.5938,59.6719 Z " fill="#000000"/><text fill="#000000" font-family="sans-serif" font-size="14" lengthAdjust="spacing" textLength="69" x="975.75" y="68.8467">ArrayUtils</text><line style="stroke:#181818;stroke-width:0.5;" x1="850" x2="1138" y1="80" y2="80"/><line style="stroke:#181818;stroke-width:0.5;" x1="850" x2="1138" y1="88" y2="88"/><ellipse cx="860" cy="99" fill="#84BE84" rx="3" ry="3" style="stroke:#038048;stroke-width:1.0;"/><text fill="#000000" font-family="sans-serif" font-size="14" lengthAdjust="spacing" text-decoration="underline" textLength="264" x="869" y="104.9951">strictCompare(a: T[], b: T[]): boolean</text></g><!--MD5=[ebecb9917226677787fac7e9a2731304]
class GameManager--><g id="elem_GameManager"><rect codeLine="78" fill="#F1F1F1" height="178.375" id="GameManager" rx="2.5" ry="2.5" style="stroke:#181818;stroke-width:0.5;" width="445" x="3929.5" y="213"/><ellipse cx="4096.25" cy="229" fill="#ADD1B2" rx="11" ry="11" style="stroke:#181818;stroke-width:1.0;"/><path d="M4098.5938,224.6719 C4097.6563,224.2344 4097.0625,224.0938 4096.1875,224.0938 C4093.5625,224.0938 4091.5625,226.1719 4091.5625,228.8906 L4091.5625,230.0156 C4091.5625,232.5938 4093.6719,234.4844 4096.5625,234.4844 C4097.7813,234.4844 4098.9375,234.1875 4099.6875,233.6406 C4100.2656,233.2344 4100.5938,232.7813 4100.5938,232.3906 C4100.5938,231.9375 4100.2031,231.5469 4099.7344,231.5469 C4099.5156,231.5469 4099.3125,231.625 4099.125,231.8125 C4098.6719,232.2969 4098.6719,232.2969 4098.4844,232.3906 C4098.0625,232.6563 4097.375,232.7813 4096.6094,232.7813 C4094.5625,232.7813 4093.2656,231.6875 4093.2656,229.9844 L4093.2656,228.8906 C4093.2656,227.1094 4094.5156,225.7969 4096.25,225.7969 C4096.8281,225.7969 4097.4375,225.9531 4097.9063,226.2031 C4098.3906,226.4844 4098.5625,226.7031 4098.6563,227.1094 C4098.7188,227.5156 4098.75,227.6406 4098.8906,227.7656 C4099.0313,227.9063 4099.2656,228.0156 4099.4844,228.0156 C4099.75,228.0156 4100.0156,227.875 4100.1875,227.6563 C4100.2969,227.5 4100.3281,227.3125 4100.3281,226.8906 L4100.3281,225.4688 C4100.3281,225.0313 4100.3125,224.9063 4100.2188,224.75 C4100.0625,224.4844 4099.7813,224.3438 4099.4844,224.3438 C4099.1875,224.3438 4098.9844,224.4375 4098.7656,224.75 L4098.5938,224.6719 Z " fill="#000000"/><text fill="#000000" font-family="sans-serif" font-size="14" lengthAdjust="spacing" textLength="103" x="4116.75" y="233.8467">GameManager</text><line style="stroke:#181818;stroke-width:0.5;" x1="3930.5" x2="4373.5" y1="245" y2="245"/><rect fill="none" height="6" style="stroke:#C82930;stroke-width:1.0;" width="6" x="3937.5" y="253"/><text fill="#000000" font-family="sans-serif" font-size="14" lengthAdjust="spacing" text-decoration="underline" textLength="150" x="3949.5" y="261.9951">games: ChessGame[]</text><line style="stroke:#181818;stroke-width:0.5;" x1="3930.5" x2="4373.5" y1="269.2969" y2="269.2969"/><ellipse cx="3940.5" cy="280.2969" fill="#84BE84" rx="3" ry="3" style="stroke:#038048;stroke-width:1.0;"/><text fill="#000000" font-family="sans-serif" font-size="14" lengthAdjust="spacing" text-decoration="underline" textLength="407" x="3949.5" y="286.292">findGameByUser(uid: string | ObjectId): ChessGame | null</text><ellipse cx="3940.5" cy="296.5938" fill="#84BE84" rx="3" ry="3" style="stroke:#038048;stroke-width:1.0;"/><text fill="#000000" font-family="sans-serif" font-size="14" lengthAdjust="spacing" text-decoration="underline" textLength="384" x="3949.5" y="302.5889">findGameByKey(gameKey: string[]): ChessGame | null</text><ellipse cx="3940.5" cy="312.8906" fill="#84BE84" rx="3" ry="3" style="stroke:#038048;stroke-width:1.0;"/><text fill="#000000" font-family="sans-serif" font-size="14" lengthAdjust="spacing" text-decoration="underline" textLength="418" x="3949.5" y="318.8857">verifyUserAccess(uid: string, auth: string): Promise&lt;IUser&gt;</text><ellipse cx="3940.5" cy="329.1875" fill="#84BE84" rx="3" ry="3" style="stroke:#038048;stroke-width:1.0;"/><text fill="#000000" font-family="sans-serif" font-size="14" lengthAdjust="spacing" text-decoration="underline" textLength="304" x="3949.5" y="335.1826">createGame(user: IUser): ChessGame | null</text><ellipse cx="3940.5" cy="345.4844" fill="#84BE84" rx="3" ry="3" style="stroke:#038048;stroke-width:1.0;"/><text fill="#000000" font-family="sans-serif" font-size="14" lengthAdjust="spacing" text-decoration="underline" textLength="190" x="3949.5" y="351.4795">endGame(uid: string): void</text><ellipse cx="3940.5" cy="361.7813" fill="#84BE84" rx="3" ry="3" style="stroke:#038048;stroke-width:1.0;"/><text fill="#000000" font-family="sans-serif" font-size="14" lengthAdjust="spacing" text-decoration="underline" textLength="419" x="3949.5" y="367.7764">joinGame(user: IUser, gameKey: string[]): ChessGame | null</text><ellipse cx="3940.5" cy="378.0781" fill="#84BE84" rx="3" ry="3" style="stroke:#038048;stroke-width:1.0;"/><text fill="#000000" font-family="sans-serif" font-size="14" lengthAdjust="spacing" text-decoration="underline" textLength="206" x="3949.5" y="384.0732">generateGameKey(): string[]</text></g><!--MD5=[1165ac2cc0b65b7540d69244297d9fd3]
class GameCreatedAPIResponse--><g id="elem_GameCreatedAPIResponse"><rect codeLine="88" fill="#F1F1F1" height="64.2969" id="GameCreatedAPIResponse" rx="2.5" ry="2.5" style="stroke:#181818;stroke-width:0.5;" width="225" x="2336.5" y="541"/><ellipse cx="2351.5" cy="557" fill="#ADD1B2" rx="11" ry="11" style="stroke:#181818;stroke-width:1.0;"/><path d="M2353.8438,552.6719 C2352.9063,552.2344 2352.3125,552.0938 2351.4375,552.0938 C2348.8125,552.0938 2346.8125,554.1719 2346.8125,556.8906 L2346.8125,558.0156 C2346.8125,560.5938 2348.9219,562.4844 2351.8125,562.4844 C2353.0313,562.4844 2354.1875,562.1875 2354.9375,561.6406 C2355.5156,561.2344 2355.8438,560.7813 2355.8438,560.3906 C2355.8438,559.9375 2355.4531,559.5469 2354.9844,559.5469 C2354.7656,559.5469 2354.5625,559.625 2354.375,559.8125 C2353.9219,560.2969 2353.9219,560.2969 2353.7344,560.3906 C2353.3125,560.6563 2352.625,560.7813 2351.8594,560.7813 C2349.8125,560.7813 2348.5156,559.6875 2348.5156,557.9844 L2348.5156,556.8906 C2348.5156,555.1094 2349.7656,553.7969 2351.5,553.7969 C2352.0781,553.7969 2352.6875,553.9531 2353.1563,554.2031 C2353.6406,554.4844 2353.8125,554.7031 2353.9063,555.1094 C2353.9688,555.5156 2354,555.6406 2354.1406,555.7656 C2354.2813,555.9063 2354.5156,556.0156 2354.7344,556.0156 C2355,556.0156 2355.2656,555.875 2355.4375,555.6563 C2355.5469,555.5 2355.5781,555.3125 2355.5781,554.8906 L2355.5781,553.4688 C2355.5781,553.0313 2355.5625,552.9063 2355.4688,552.75 C2355.3125,552.4844 2355.0313,552.3438 2354.7344,552.3438 C2354.4375,552.3438 2354.2344,552.4375 2354.0156,552.75 L2353.8438,552.6719 Z " fill="#000000"/><text fill="#000000" font-family="sans-serif" font-size="14" lengthAdjust="spacing" textLength="193" x="2365.5" y="561.8467">GameCreatedAPIResponse</text><line style="stroke:#181818;stroke-width:0.5;" x1="2337.5" x2="2560.5" y1="573" y2="573"/><ellipse cx="2347.5" cy="584" fill="none" rx="3" ry="3" style="stroke:#038048;stroke-width:1.0;"/><text fill="#000000" font-family="sans-serif" font-size="14" lengthAdjust="spacing" textLength="128" x="2356.5" y="589.9951">gameKey: string[]</text><line style="stroke:#181818;stroke-width:0.5;" x1="2337.5" x2="2560.5" y1="597.2969" y2="597.2969"/></g><!--MD5=[e4d16eb279c1bc91b2fb6f1f03ed5ed5]
class IGameCreatedAPIResponse--><g id="elem_IGameCreatedAPIResponse"><rect fill="#F1F1F1" height="48" id="IGameCreatedAPIResponse" rx="2.5" ry="2.5" style="stroke:#181818;stroke-width:0.5;" width="227" x="2294.5" y="278"/><ellipse cx="2309.5" cy="294" fill="#B4A7E5" rx="11" ry="11" style="stroke:#181818;stroke-width:1.0;"/><path d="M2310.4531,290.7813 L2312.1719,290.7813 C2312.5625,290.7813 2312.75,290.75 2312.875,290.6719 C2313.1406,290.5156 2313.2813,290.2344 2313.2813,289.9375 C2313.2813,289.6719 2313.1719,289.4063 2312.9375,289.2344 C2312.7656,289.125 2312.625,289.0938 2312.1719,289.0938 L2307.0313,289.0938 C2306.5938,289.0938 2306.4688,289.1094 2306.3125,289.2031 C2306.0625,289.3594 2305.9063,289.6563 2305.9063,289.9375 C2305.9063,290.2188 2306.0469,290.4688 2306.2656,290.6406 C2306.4219,290.75 2306.6094,290.7813 2307.0313,290.7813 L2308.75,290.7813 L2308.75,297.2969 L2307.0313,297.2969 C2306.5938,297.2969 2306.4688,297.3125 2306.3125,297.4219 C2306.0625,297.5781 2305.9063,297.8594 2305.9063,298.1563 C2305.9063,298.4063 2306.0469,298.6719 2306.2656,298.8281 C2306.4219,298.9531 2306.625,299 2307.0313,299 L2312.1719,299 C2312.9219,299 2313.2813,298.7188 2313.2813,298.1563 C2313.2813,297.875 2313.1719,297.625 2312.9375,297.4531 C2312.7656,297.3281 2312.625,297.2969 2312.1719,297.2969 L2310.4531,297.2969 L2310.4531,290.7813 Z " fill="#000000"/><text fill="#000000" font-family="sans-serif" font-size="14" font-style="italic" lengthAdjust="spacing" textLength="195" x="2323.5" y="298.8467">IGameCreatedAPIResponse</text><line style="stroke:#181818;stroke-width:0.5;" x1="2295.5" x2="2520.5" y1="310" y2="310"/><line style="stroke:#181818;stroke-width:0.5;" x1="2295.5" x2="2520.5" y1="318" y2="318"/></g><!--MD5=[61f9e58bb2d8e8aaddf674173363ffe3]
class GameMessagesAPIResponse--><g id="elem_GameMessagesAPIResponse"><rect codeLine="91" fill="#F1F1F1" height="64.2969" id="GameMessagesAPIResponse" rx="2.5" ry="2.5" style="stroke:#181818;stroke-width:0.5;" width="235" x="2597.5" y="541"/><ellipse cx="2612.5" cy="557" fill="#ADD1B2" rx="11" ry="11" style="stroke:#181818;stroke-width:1.0;"/><path d="M2614.8438,552.6719 C2613.9063,552.2344 2613.3125,552.0938 2612.4375,552.0938 C2609.8125,552.0938 2607.8125,554.1719 2607.8125,556.8906 L2607.8125,558.0156 C2607.8125,560.5938 2609.9219,562.4844 2612.8125,562.4844 C2614.0313,562.4844 2615.1875,562.1875 2615.9375,561.6406 C2616.5156,561.2344 2616.8438,560.7813 2616.8438,560.3906 C2616.8438,559.9375 2616.4531,559.5469 2615.9844,559.5469 C2615.7656,559.5469 2615.5625,559.625 2615.375,559.8125 C2614.9219,560.2969 2614.9219,560.2969 2614.7344,560.3906 C2614.3125,560.6563 2613.625,560.7813 2612.8594,560.7813 C2610.8125,560.7813 2609.5156,559.6875 2609.5156,557.9844 L2609.5156,556.8906 C2609.5156,555.1094 2610.7656,553.7969 2612.5,553.7969 C2613.0781,553.7969 2613.6875,553.9531 2614.1563,554.2031 C2614.6406,554.4844 2614.8125,554.7031 2614.9063,555.1094 C2614.9688,555.5156 2615,555.6406 2615.1406,555.7656 C2615.2813,555.9063 2615.5156,556.0156 2615.7344,556.0156 C2616,556.0156 2616.2656,555.875 2616.4375,555.6563 C2616.5469,555.5 2616.5781,555.3125 2616.5781,554.8906 L2616.5781,553.4688 C2616.5781,553.0313 2616.5625,552.9063 2616.4688,552.75 C2616.3125,552.4844 2616.0313,552.3438 2615.7344,552.3438 C2615.4375,552.3438 2615.2344,552.4375 2615.0156,552.75 L2614.8438,552.6719 Z " fill="#000000"/><text fill="#000000" font-family="sans-serif" font-size="14" lengthAdjust="spacing" textLength="203" x="2626.5" y="561.8467">GameMessagesAPIResponse</text><line style="stroke:#181818;stroke-width:0.5;" x1="2598.5" x2="2831.5" y1="573" y2="573"/><ellipse cx="2608.5" cy="584" fill="none" rx="3" ry="3" style="stroke:#038048;stroke-width:1.0;"/><text fill="#000000" font-family="sans-serif" font-size="14" lengthAdjust="spacing" textLength="196" x="2617.5" y="589.9951">messages: IGameMessage[]</text><line style="stroke:#181818;stroke-width:0.5;" x1="2598.5" x2="2831.5" y1="597.2969" y2="597.2969"/></g><!--MD5=[4f5ab9dde5f68ad0545d0a4774f13e42]
class IGameMessagesAPIResponse--><g id="elem_IGameMessagesAPIResponse"><rect fill="#F1F1F1" height="48" id="IGameMessagesAPIResponse" rx="2.5" ry="2.5" style="stroke:#181818;stroke-width:0.5;" width="239" x="2790.5" y="278"/><ellipse cx="2805.5" cy="294" fill="#B4A7E5" rx="11" ry="11" style="stroke:#181818;stroke-width:1.0;"/><path d="M2806.4531,290.7813 L2808.1719,290.7813 C2808.5625,290.7813 2808.75,290.75 2808.875,290.6719 C2809.1406,290.5156 2809.2813,290.2344 2809.2813,289.9375 C2809.2813,289.6719 2809.1719,289.4063 2808.9375,289.2344 C2808.7656,289.125 2808.625,289.0938 2808.1719,289.0938 L2803.0313,289.0938 C2802.5938,289.0938 2802.4688,289.1094 2802.3125,289.2031 C2802.0625,289.3594 2801.9063,289.6563 2801.9063,289.9375 C2801.9063,290.2188 2802.0469,290.4688 2802.2656,290.6406 C2802.4219,290.75 2802.6094,290.7813 2803.0313,290.7813 L2804.75,290.7813 L2804.75,297.2969 L2803.0313,297.2969 C2802.5938,297.2969 2802.4688,297.3125 2802.3125,297.4219 C2802.0625,297.5781 2801.9063,297.8594 2801.9063,298.1563 C2801.9063,298.4063 2802.0469,298.6719 2802.2656,298.8281 C2802.4219,298.9531 2802.625,299 2803.0313,299 L2808.1719,299 C2808.9219,299 2809.2813,298.7188 2809.2813,298.1563 C2809.2813,297.875 2809.1719,297.625 2808.9375,297.4531 C2808.7656,297.3281 2808.625,297.2969 2808.1719,297.2969 L2806.4531,297.2969 L2806.4531,290.7813 Z " fill="#000000"/><text fill="#000000" font-family="sans-serif" font-size="14" font-style="italic" lengthAdjust="spacing" textLength="207" x="2819.5" y="298.8467">IGameMessagesAPIResponse</text><line style="stroke:#181818;stroke-width:0.5;" x1="2791.5" x2="3028.5" y1="310" y2="310"/><line style="stroke:#181818;stroke-width:0.5;" x1="2791.5" x2="3028.5" y1="318" y2="318"/></g><!--MD5=[5e55317c1845fbee4b6d87d46afe35a6]
class GameRoutes--><g id="elem_GameRoutes"><rect codeLine="94" fill="#F1F1F1" height="145.7813" id="GameRoutes" rx="2.5" ry="2.5" style="stroke:#181818;stroke-width:0.5;" width="1362" x="7" y="229"/><ellipse cx="637.75" cy="245" fill="#ADD1B2" rx="11" ry="11" style="stroke:#181818;stroke-width:1.0;"/><path d="M640.0938,240.6719 C639.1563,240.2344 638.5625,240.0938 637.6875,240.0938 C635.0625,240.0938 633.0625,242.1719 633.0625,244.8906 L633.0625,246.0156 C633.0625,248.5938 635.1719,250.4844 638.0625,250.4844 C639.2813,250.4844 640.4375,250.1875 641.1875,249.6406 C641.7656,249.2344 642.0938,248.7813 642.0938,248.3906 C642.0938,247.9375 641.7031,247.5469 641.2344,247.5469 C641.0156,247.5469 640.8125,247.625 640.625,247.8125 C640.1719,248.2969 640.1719,248.2969 639.9844,248.3906 C639.5625,248.6563 638.875,248.7813 638.1094,248.7813 C636.0625,248.7813 634.7656,247.6875 634.7656,245.9844 L634.7656,244.8906 C634.7656,243.1094 636.0156,241.7969 637.75,241.7969 C638.3281,241.7969 638.9375,241.9531 639.4063,242.2031 C639.8906,242.4844 640.0625,242.7031 640.1563,243.1094 C640.2188,243.5156 640.25,243.6406 640.3906,243.7656 C640.5313,243.9063 640.7656,244.0156 640.9844,244.0156 C641.25,244.0156 641.5156,243.875 641.6875,243.6563 C641.7969,243.5 641.8281,243.3125 641.8281,242.8906 L641.8281,241.4688 C641.8281,241.0313 641.8125,240.9063 641.7188,240.75 C641.5625,240.4844 641.2813,240.3438 640.9844,240.3438 C640.6875,240.3438 640.4844,240.4375 640.2656,240.75 L640.0938,240.6719 Z " fill="#000000"/><text fill="#000000" font-family="sans-serif" font-size="14" lengthAdjust="spacing" textLength="92" x="658.25" y="249.8467">GameRoutes</text><line style="stroke:#181818;stroke-width:0.5;" x1="8" x2="1368" y1="261" y2="261"/><line style="stroke:#181818;stroke-width:0.5;" x1="8" x2="1368" y1="269" y2="269"/><ellipse cx="18" cy="280" fill="#84BE84" rx="3" ry="3" style="stroke:#038048;stroke-width:1.0;"/><text fill="#000000" font-family="sans-serif" font-size="14" lengthAdjust="spacing" text-decoration="underline" textLength="1261" x="27" y="285.9951">createGame(req: Request&lt;Record&lt;string, never&gt;, any, Record&lt;string, never&gt;, Record&lt;string, never&gt;, Record&lt;string, any&gt;&gt;, res: Response&lt;any, Record&lt;string, any&gt;&gt;): void</text><ellipse cx="18" cy="296.2969" fill="#84BE84" rx="3" ry="3" style="stroke:#038048;stroke-width:1.0;"/><text fill="#000000" font-family="sans-serif" font-size="14" lengthAdjust="spacing" text-decoration="underline" textLength="1235" x="27" y="302.292">joinGame(req: Request&lt;Record&lt;string, never&gt;, any, { gameKey: string[]; }, Record&lt;string, never&gt;, Record&lt;string, any&gt;&gt;, res: Response&lt;any, Record&lt;string, any&gt;&gt;): void</text><ellipse cx="18" cy="312.5938" fill="#84BE84" rx="3" ry="3" style="stroke:#038048;stroke-width:1.0;"/><text fill="#000000" font-family="sans-serif" font-size="14" lengthAdjust="spacing" text-decoration="underline" textLength="1336" x="27" y="318.5889">movePiece(req: Request&lt;Record&lt;string, never&gt;, any, { source: Square; target: Square; }, Record&lt;string, never&gt;, Record&lt;string, any&gt;&gt;, res: Response&lt;any, Record&lt;string, any&gt;&gt;): void</text><ellipse cx="18" cy="328.8906" fill="#84BE84" rx="3" ry="3" style="stroke:#038048;stroke-width:1.0;"/><text fill="#000000" font-family="sans-serif" font-size="14" lengthAdjust="spacing" text-decoration="underline" textLength="1224" x="27" y="334.8857">getFEN(req: Request&lt;Record&lt;string, never&gt;, any, Record&lt;string, never&gt;, Record&lt;string, never&gt;, Record&lt;string, any&gt;&gt;, res: Response&lt;any, Record&lt;string, any&gt;&gt;): void</text><ellipse cx="18" cy="345.1875" fill="#84BE84" rx="3" ry="3" style="stroke:#038048;stroke-width:1.0;"/><text fill="#000000" font-family="sans-serif" font-size="14" lengthAdjust="spacing" text-decoration="underline" textLength="1265" x="27" y="351.1826">getMessages(req: Request&lt;Record&lt;string, never&gt;, any, Record&lt;string, never&gt;, Record&lt;string, never&gt;, Record&lt;string, any&gt;&gt;, res: Response&lt;any, Record&lt;string, any&gt;&gt;): void</text><ellipse cx="18" cy="361.4844" fill="#84BE84" rx="3" ry="3" style="stroke:#038048;stroke-width:1.0;"/><text fill="#000000" font-family="sans-serif" font-size="14" lengthAdjust="spacing" text-decoration="underline" textLength="1279" x="27" y="367.4795">getGameState(req: Request&lt;Record&lt;string, never&gt;, any, Record&lt;string, never&gt;, Record&lt;string, never&gt;, Record&lt;string, any&gt;&gt;, res: Response&lt;any, Record&lt;string, any&gt;&gt;): void</text></g><!--MD5=[4476dd818a02198350536b6ba7e8c915]
class LoginAPIResponse--><g id="elem_LoginAPIResponse"><rect codeLine="102" fill="#F1F1F1" height="64.2969" id="LoginAPIResponse" rx="2.5" ry="2.5" style="stroke:#181818;stroke-width:0.5;" width="164" x="2871" y="541"/><ellipse cx="2886" cy="557" fill="#ADD1B2" rx="11" ry="11" style="stroke:#181818;stroke-width:1.0;"/><path d="M2888.3438,552.6719 C2887.4063,552.2344 2886.8125,552.0938 2885.9375,552.0938 C2883.3125,552.0938 2881.3125,554.1719 2881.3125,556.8906 L2881.3125,558.0156 C2881.3125,560.5938 2883.4219,562.4844 2886.3125,562.4844 C2887.5313,562.4844 2888.6875,562.1875 2889.4375,561.6406 C2890.0156,561.2344 2890.3438,560.7813 2890.3438,560.3906 C2890.3438,559.9375 2889.9531,559.5469 2889.4844,559.5469 C2889.2656,559.5469 2889.0625,559.625 2888.875,559.8125 C2888.4219,560.2969 2888.4219,560.2969 2888.2344,560.3906 C2887.8125,560.6563 2887.125,560.7813 2886.3594,560.7813 C2884.3125,560.7813 2883.0156,559.6875 2883.0156,557.9844 L2883.0156,556.8906 C2883.0156,555.1094 2884.2656,553.7969 2886,553.7969 C2886.5781,553.7969 2887.1875,553.9531 2887.6563,554.2031 C2888.1406,554.4844 2888.3125,554.7031 2888.4063,555.1094 C2888.4688,555.5156 2888.5,555.6406 2888.6406,555.7656 C2888.7813,555.9063 2889.0156,556.0156 2889.2344,556.0156 C2889.5,556.0156 2889.7656,555.875 2889.9375,555.6563 C2890.0469,555.5 2890.0781,555.3125 2890.0781,554.8906 L2890.0781,553.4688 C2890.0781,553.0313 2890.0625,552.9063 2889.9688,552.75 C2889.8125,552.4844 2889.5313,552.3438 2889.2344,552.3438 C2888.9375,552.3438 2888.7344,552.4375 2888.5156,552.75 L2888.3438,552.6719 Z " fill="#000000"/><text fill="#000000" font-family="sans-serif" font-size="14" lengthAdjust="spacing" textLength="132" x="2900" y="561.8467">LoginAPIResponse</text><line style="stroke:#181818;stroke-width:0.5;" x1="2872" x2="3034" y1="573" y2="573"/><ellipse cx="2882" cy="584" fill="none" rx="3" ry="3" style="stroke:#038048;stroke-width:1.0;"/><text fill="#000000" font-family="sans-serif" font-size="14" lengthAdjust="spacing" textLength="103" x="2891" y="589.9951">auth: AuthInfo</text><line style="stroke:#181818;stroke-width:0.5;" x1="2872" x2="3034" y1="597.2969" y2="597.2969"/></g><!--MD5=[a0c31074011fe5810f5a444ea78fe12d]
class CreateUserRequestBody--><g id="elem_CreateUserRequestBody"><rect codeLine="105" fill="#F1F1F1" height="113.1875" id="CreateUserRequestBody" rx="2.5" ry="2.5" style="stroke:#181818;stroke-width:0.5;" width="273" x="4409.5" y="245.5"/><ellipse cx="4454.75" cy="261.5" fill="#B4A7E5" rx="11" ry="11" style="stroke:#181818;stroke-width:1.0;"/><path d="M4455.7031,258.2813 L4457.4219,258.2813 C4457.8125,258.2813 4458,258.25 4458.125,258.1719 C4458.3906,258.0156 4458.5313,257.7344 4458.5313,257.4375 C4458.5313,257.1719 4458.4219,256.9063 4458.1875,256.7344 C4458.0156,256.625 4457.875,256.5938 4457.4219,256.5938 L4452.2813,256.5938 C4451.8438,256.5938 4451.7188,256.6094 4451.5625,256.7031 C4451.3125,256.8594 4451.1563,257.1563 4451.1563,257.4375 C4451.1563,257.7188 4451.2969,257.9688 4451.5156,258.1406 C4451.6719,258.25 4451.8594,258.2813 4452.2813,258.2813 L4454,258.2813 L4454,264.7969 L4452.2813,264.7969 C4451.8438,264.7969 4451.7188,264.8125 4451.5625,264.9219 C4451.3125,265.0781 4451.1563,265.3594 4451.1563,265.6563 C4451.1563,265.9063 4451.2969,266.1719 4451.5156,266.3281 C4451.6719,266.4531 4451.875,266.5 4452.2813,266.5 L4457.4219,266.5 C4458.1719,266.5 4458.5313,266.2188 4458.5313,265.6563 C4458.5313,265.375 4458.4219,265.125 4458.1875,264.9531 C4458.0156,264.8281 4457.875,264.7969 4457.4219,264.7969 L4455.7031,264.7969 L4455.7031,258.2813 Z " fill="#000000"/><text fill="#000000" font-family="sans-serif" font-size="14" font-style="italic" lengthAdjust="spacing" textLength="174" x="4475.25" y="266.3467">CreateUserRequestBody</text><line style="stroke:#181818;stroke-width:0.5;" x1="4410.5" x2="4681.5" y1="277.5" y2="277.5"/><ellipse cx="4420.5" cy="288.5" fill="none" rx="3" ry="3" style="stroke:#038048;stroke-width:1.0;"/><text fill="#000000" font-family="sans-serif" font-size="14" lengthAdjust="spacing" textLength="247" x="4429.5" y="294.4951">name: { first: string; last: string; }</text><ellipse cx="4420.5" cy="304.7969" fill="none" rx="3" ry="3" style="stroke:#038048;stroke-width:1.0;"/><text fill="#000000" font-family="sans-serif" font-size="14" lengthAdjust="spacing" textLength="90" x="4429.5" y="310.792">email: string</text><ellipse cx="4420.5" cy="321.0938" fill="none" rx="3" ry="3" style="stroke:#038048;stroke-width:1.0;"/><text fill="#000000" font-family="sans-serif" font-size="14" lengthAdjust="spacing" textLength="121" x="4429.5" y="327.0889">username: string</text><ellipse cx="4420.5" cy="337.3906" fill="none" rx="3" ry="3" style="stroke:#038048;stroke-width:1.0;"/><text fill="#000000" font-family="sans-serif" font-size="14" lengthAdjust="spacing" textLength="118" x="4429.5" y="343.3857">password: string</text><line style="stroke:#181818;stroke-width:0.5;" x1="4410.5" x2="4681.5" y1="350.6875" y2="350.6875"/></g><!--MD5=[69e456fa7708b746ad633242a9b433cf]
class UserRoutes--><g id="elem_UserRoutes"><rect codeLine="111" fill="#F1F1F1" height="96.8906" id="UserRoutes" rx="2.5" ry="2.5" style="stroke:#181818;stroke-width:0.5;" width="1853" x="2834.5" y="31.5"/><ellipse cx="3716.25" cy="47.5" fill="#ADD1B2" rx="11" ry="11" style="stroke:#181818;stroke-width:1.0;"/><path d="M3718.5938,43.1719 C3717.6563,42.7344 3717.0625,42.5938 3716.1875,42.5938 C3713.5625,42.5938 3711.5625,44.6719 3711.5625,47.3906 L3711.5625,48.5156 C3711.5625,51.0938 3713.6719,52.9844 3716.5625,52.9844 C3717.7813,52.9844 3718.9375,52.6875 3719.6875,52.1406 C3720.2656,51.7344 3720.5938,51.2813 3720.5938,50.8906 C3720.5938,50.4375 3720.2031,50.0469 3719.7344,50.0469 C3719.5156,50.0469 3719.3125,50.125 3719.125,50.3125 C3718.6719,50.7969 3718.6719,50.7969 3718.4844,50.8906 C3718.0625,51.1563 3717.375,51.2813 3716.6094,51.2813 C3714.5625,51.2813 3713.2656,50.1875 3713.2656,48.4844 L3713.2656,47.3906 C3713.2656,45.6094 3714.5156,44.2969 3716.25,44.2969 C3716.8281,44.2969 3717.4375,44.4531 3717.9063,44.7031 C3718.3906,44.9844 3718.5625,45.2031 3718.6563,45.6094 C3718.7188,46.0156 3718.75,46.1406 3718.8906,46.2656 C3719.0313,46.4063 3719.2656,46.5156 3719.4844,46.5156 C3719.75,46.5156 3720.0156,46.375 3720.1875,46.1563 C3720.2969,46 3720.3281,45.8125 3720.3281,45.3906 L3720.3281,43.9688 C3720.3281,43.5313 3720.3125,43.4063 3720.2188,43.25 C3720.0625,42.9844 3719.7813,42.8438 3719.4844,42.8438 C3719.1875,42.8438 3718.9844,42.9375 3718.7656,43.25 L3718.5938,43.1719 Z " fill="#000000"/><text fill="#000000" font-family="sans-serif" font-size="14" lengthAdjust="spacing" textLength="81" x="3736.75" y="52.3467">UserRoutes</text><line style="stroke:#181818;stroke-width:0.5;" x1="2835.5" x2="4686.5" y1="63.5" y2="63.5"/><line style="stroke:#181818;stroke-width:0.5;" x1="2835.5" x2="4686.5" y1="71.5" y2="71.5"/><ellipse cx="2845.5" cy="82.5" fill="#84BE84" rx="3" ry="3" style="stroke:#038048;stroke-width:1.0;"/><text fill="#000000" font-family="sans-serif" font-size="14" lengthAdjust="spacing" text-decoration="underline" textLength="1623" x="2854.5" y="88.4951">createUserRoute(req: express.Request&lt;Record&lt;string, never&gt;, BaseAPIResponse, CreateUserRequestBody, QueryString.ParsedQs, Record&lt;string, any&gt;&gt;, res: express.Response&lt;BaseAPIResponse, Record&lt;string, any&gt;&gt;): void</text><ellipse cx="2845.5" cy="98.7969" fill="#84BE84" rx="3" ry="3" style="stroke:#038048;stroke-width:1.0;"/><text fill="#000000" font-family="sans-serif" font-size="14" lengthAdjust="spacing" text-decoration="underline" textLength="1827" x="2854.5" y="104.792">loginUserRoute(req: express.Request&lt;Record&lt;string, never&gt;, LoginAPIResponse, { user: string; password: string; }, QueryString.ParsedQs, Record&lt;string, any&gt;&gt;, res: express.Response&lt;LoginAPIResponse | ErrorAPIResponse, Record&lt;string, any&gt;&gt;): void</text><ellipse cx="2845.5" cy="115.0938" fill="#84BE84" rx="3" ry="3" style="stroke:#038048;stroke-width:1.0;"/><text fill="#000000" font-family="sans-serif" font-size="14" lengthAdjust="spacing" text-decoration="underline" textLength="1379" x="2854.5" y="121.0889">authenticateUserRoute(req: express.Request&lt;ParamsDictionary, any, any, QueryString.ParsedQs, Record&lt;string, any&gt;&gt;, res: express.Response&lt;BaseAPIResponse, Record&lt;string, any&gt;&gt;): void</text></g><!--MD5=[dd909653e2a3ff7ef37c47b3ce0e6062]
class RTCServer--><g id="elem_RTCServer"><rect codeLine="116" fill="#F1F1F1" height="162.0781" id="RTCServer" rx="2.5" ry="2.5" style="stroke:#181818;stroke-width:0.5;" width="613" x="1404.5" y="221"/><ellipse cx="1668.75" cy="237" fill="#ADD1B2" rx="11" ry="11" style="stroke:#181818;stroke-width:1.0;"/><path d="M1671.0938,232.6719 C1670.1563,232.2344 1669.5625,232.0938 1668.6875,232.0938 C1666.0625,232.0938 1664.0625,234.1719 1664.0625,236.8906 L1664.0625,238.0156 C1664.0625,240.5938 1666.1719,242.4844 1669.0625,242.4844 C1670.2813,242.4844 1671.4375,242.1875 1672.1875,241.6406 C1672.7656,241.2344 1673.0938,240.7813 1673.0938,240.3906 C1673.0938,239.9375 1672.7031,239.5469 1672.2344,239.5469 C1672.0156,239.5469 1671.8125,239.625 1671.625,239.8125 C1671.1719,240.2969 1671.1719,240.2969 1670.9844,240.3906 C1670.5625,240.6563 1669.875,240.7813 1669.1094,240.7813 C1667.0625,240.7813 1665.7656,239.6875 1665.7656,237.9844 L1665.7656,236.8906 C1665.7656,235.1094 1667.0156,233.7969 1668.75,233.7969 C1669.3281,233.7969 1669.9375,233.9531 1670.4063,234.2031 C1670.8906,234.4844 1671.0625,234.7031 1671.1563,235.1094 C1671.2188,235.5156 1671.25,235.6406 1671.3906,235.7656 C1671.5313,235.9063 1671.7656,236.0156 1671.9844,236.0156 C1672.25,236.0156 1672.5156,235.875 1672.6875,235.6563 C1672.7969,235.5 1672.8281,235.3125 1672.8281,234.8906 L1672.8281,233.4688 C1672.8281,233.0313 1672.8125,232.9063 1672.7188,232.75 C1672.5625,232.4844 1672.2813,232.3438 1671.9844,232.3438 C1671.6875,232.3438 1671.4844,232.4375 1671.2656,232.75 L1671.0938,232.6719 Z " fill="#000000"/><text fill="#000000" font-family="sans-serif" font-size="14" lengthAdjust="spacing" textLength="76" x="1689.25" y="241.8467">RTCServer</text><line style="stroke:#181818;stroke-width:0.5;" x1="1405.5" x2="2016.5" y1="253" y2="253"/><rect fill="none" height="6" style="stroke:#C82930;stroke-width:1.0;" width="6" x="1412.5" y="261"/><text fill="#000000" font-family="sans-serif" font-size="14" lengthAdjust="spacing" textLength="139" x="1424.5" y="269.9951">server: http.Server</text><rect fill="none" height="6" style="stroke:#C82930;stroke-width:1.0;" width="6" x="1412.5" y="277.2969"/><text fill="#000000" font-family="sans-serif" font-size="14" lengthAdjust="spacing" textLength="154" x="1424.5" y="286.292">app: express.Express</text><rect fill="none" height="6" style="stroke:#C82930;stroke-width:1.0;" width="6" x="1412.5" y="293.5938"/><text fill="#000000" font-family="sans-serif" font-size="14" lengthAdjust="spacing" textLength="104" x="1424.5" y="302.5889">PORT: number</text><rect fill="none" height="6" style="stroke:#C82930;stroke-width:1.0;" width="6" x="1412.5" y="309.8906"/><text fill="#000000" font-family="sans-serif" font-size="14" lengthAdjust="spacing" textLength="587" x="1424.5" y="318.8857">socketIO: Server&lt;DefaultEventsMap, DefaultEventsMap, DefaultEventsMap, any&gt;</text><line style="stroke:#181818;stroke-width:0.5;" x1="1405.5" x2="2016.5" y1="326.1875" y2="326.1875"/><ellipse cx="1415.5" cy="337.1875" fill="#84BE84" rx="3" ry="3" style="stroke:#038048;stroke-width:1.0;"/><text fill="#000000" font-family="sans-serif" font-size="14" lengthAdjust="spacing" textLength="162" x="1424.5" y="343.1826">bindMiddleware(): void</text><ellipse cx="1415.5" cy="353.4844" fill="#84BE84" rx="3" ry="3" style="stroke:#038048;stroke-width:1.0;"/><text fill="#000000" font-family="sans-serif" font-size="14" lengthAdjust="spacing" textLength="131" x="1424.5" y="359.4795">bindRoutes(): void</text><ellipse cx="1415.5" cy="369.7813" fill="#84BE84" rx="3" ry="3" style="stroke:#038048;stroke-width:1.0;"/><text fill="#000000" font-family="sans-serif" font-size="14" lengthAdjust="spacing" textLength="89" x="1424.5" y="375.7764">listen(): void</text></g><!--MD5=[ce0dd0faff7e4290be38f78548deae28]
reverse link APIResponse to BaseAPIResponse--><g id="link_APIResponse_BaseAPIResponse"><path d="M2656,124.315 C2656,164.084 2656,222.531 2656,261.162 " fill="none" id="APIResponse-backto-BaseAPIResponse" style="stroke:#181818;stroke-width:1.0;stroke-dasharray:7.0,7.0;"/><polygon fill="none" points="2649,124.128,2656,104.128,2663,124.128,2649,124.128" style="stroke:#181818;stroke-width:1.0;"/></g><!--MD5=[e1c57d8187fee309e35d1432b4d92179]
reverse link IErrorAPIResponse to ErrorAPIResponse--><g id="link_IErrorAPIResponse_ErrorAPIResponse"><path d="M4803.8,124.315 C4803.62,164.084 4803.36,222.531 4803.18,261.162 " fill="none" id="IErrorAPIResponse-backto-ErrorAPIResponse" style="stroke:#181818;stroke-width:1.0;stroke-dasharray:7.0,7.0;"/><polygon fill="none" points="4796.8,124.096,4803.89,104.128,4810.8,124.16,4796.8,124.096" style="stroke:#181818;stroke-width:1.0;"/></g><!--MD5=[3525fb25db052ddd4f2280b92caffe80]
reverse link Error to InvalidCredentialsError--><g id="link_Error_InvalidCredentialsError"><path d="M5017,124.164 C5017,170.218 5017,241.445 5017,277.852 " fill="none" id="Error-backto-InvalidCredentialsError" style="stroke:#181818;stroke-width:1.0;"/><polygon fill="none" points="5010,124.128,5017,104.128,5024,124.128,5010,124.128" style="stroke:#181818;stroke-width:1.0;"/></g><!--MD5=[bb46dfd9c580a3e2717b4183eb3d6bae]
reverse link Document to IUser--><g id="link_Document_IUser"><path d="M3712.47,615.667 C3724.26,641.196 3742.25,673.068 3766,695 C3805.92,731.859 3858.01,760.302 3906.22,781.183 " fill="none" id="Document-backto-IUser" style="stroke:#181818;stroke-width:1.0;"/><polygon fill="none" points="3706.02,618.395,3704.51,597.259,3718.87,612.839,3706.02,618.395" style="stroke:#181818;stroke-width:1.0;"/></g><!--MD5=[cc0f6a25f10aa9588eeb31621b330f47]
reverse link BaseDAO to UserDAO--><g id="link_BaseDAO_UserDAO"><path d="M3371.41,386.487 C3365.08,422.739 3357.73,464.794 3351.63,499.689 " fill="none" id="BaseDAO-backto-UserDAO" style="stroke:#181818;stroke-width:1.0;"/><polygon fill="none" points="3364.52,385.246,3374.86,366.749,3378.31,387.656,3364.52,385.246" style="stroke:#181818;stroke-width:1.0;"/></g><!--MD5=[196f13d70a9c686a8653b524176cc909]
reverse link BaseAPIResponse to GameStateAPIResponse--><g id="link_BaseAPIResponse_GameStateAPIResponse"><path d="M2595.72,355.151 C2578.28,368.293 2558.63,381.382 2539,391 C2447.99,435.59 2410.15,406.697 2319,451 C2283.66,468.178 2248.18,493.346 2219.39,516.286 " fill="none" id="BaseAPIResponse-backto-GameStateAPIResponse" style="stroke:#181818;stroke-width:1.0;"/><polygon fill="none" points="2591.62,349.467,2611.68,342.647,2600.25,360.489,2591.62,349.467" style="stroke:#181818;stroke-width:1.0;"/></g><!--MD5=[b010dcadbdc598eae2e38350dac10d41]
reverse link IGameStateAPIResponse to GameStateAPIResponse--><g id="link_IGameStateAPIResponse_GameStateAPIResponse"><path d="M2156,346.42 C2156,392.661 2156,465.992 2156,516.42 " fill="none" id="IGameStateAPIResponse-backto-GameStateAPIResponse" style="stroke:#181818;stroke-width:1.0;stroke-dasharray:7.0,7.0;"/><polygon fill="none" points="2149,346.401,2156,326.401,2163,346.401,2149,346.401" style="stroke:#181818;stroke-width:1.0;"/></g><!--MD5=[dbddce47894df499345ba7c1649242b6]
reverse link BaseAPIResponse to GameCreatedAPIResponse--><g id="link_BaseAPIResponse_GameCreatedAPIResponse"><path d="M2613,358.878 C2570.52,414.082 2507.08,496.518 2472.89,540.949 " fill="none" id="BaseAPIResponse-backto-GameCreatedAPIResponse" style="stroke:#181818;stroke-width:1.0;"/><polygon fill="none" points="2607.71,354.273,2625.46,342.692,2618.81,362.811,2607.71,354.273" style="stroke:#181818;stroke-width:1.0;"/></g><!--MD5=[516645d850f298d2f58acdbf87b23bca]
reverse link IGameCreatedAPIResponse to GameCreatedAPIResponse--><g id="link_IGameCreatedAPIResponse_GameCreatedAPIResponse"><path d="M2414.58,346.191 C2422.87,400.562 2436.9,492.645 2444.23,540.699 " fill="none" id="IGameCreatedAPIResponse-backto-GameCreatedAPIResponse" style="stroke:#181818;stroke-width:1.0;stroke-dasharray:7.0,7.0;"/><polygon fill="none" points="2407.66,347.228,2411.57,326.401,2421.5,345.118,2407.66,347.228" style="stroke:#181818;stroke-width:1.0;"/></g><!--MD5=[3b1008a05b6a107af91c7958ab18782b]
reverse link BaseAPIResponse to GameMessagesAPIResponse--><g id="link_BaseAPIResponse_GameMessagesAPIResponse"><path d="M2669.05,362.484 C2681.14,417.618 2698.65,497.475 2708.19,540.949 " fill="none" id="BaseAPIResponse-backto-GameMessagesAPIResponse" style="stroke:#181818;stroke-width:1.0;"/><polygon fill="none" points="2662.15,363.727,2664.71,342.692,2675.83,360.728,2662.15,363.727" style="stroke:#181818;stroke-width:1.0;"/></g><!--MD5=[bdaf296d2c037de9574ea4d744d932d0]
reverse link IGameMessagesAPIResponse to GameMessagesAPIResponse--><g id="link_IGameMessagesAPIResponse_GameMessagesAPIResponse"><path d="M2881.27,342.631 C2842.25,396.457 2773.3,491.579 2737.69,540.699 " fill="none" id="IGameMessagesAPIResponse-backto-GameMessagesAPIResponse" style="stroke:#181818;stroke-width:1.0;stroke-dasharray:7.0,7.0;"/><polygon fill="none" points="2875.63,338.486,2893.04,326.401,2886.97,346.703,2875.63,338.486" style="stroke:#181818;stroke-width:1.0;"/></g><!--MD5=[dabce20145565795d2910467592182e7]
reverse link BaseAPIResponse to LoginAPIResponse--><g id="link_BaseAPIResponse_LoginAPIResponse"><path d="M2724.81,354.946 C2778.24,395.372 2844.22,445.52 2850,451 C2879.73,479.183 2909.63,515.384 2929.5,540.819 " fill="none" id="BaseAPIResponse-backto-LoginAPIResponse" style="stroke:#181818;stroke-width:1.0;"/><polygon fill="none" points="2720.44,360.419,2708.71,342.773,2728.88,349.252,2720.44,360.419" style="stroke:#181818;stroke-width:1.0;"/></g><!--MD5=[9d0e0e25794588a1f1f4daa0452ce53e]
link UserDAO to UserRegistrationFormData--><g id="link_UserDAO_UserRegistrationFormData"><path codeLine="125" d="M3327.88,646.161 C3322.04,684.026 3314.97,729.91 3309.41,765.984 " fill="none" id="UserDAO-to-UserRegistrationFormData" style="stroke:#181818;stroke-width:1.0;"/><polygon fill="#181818" points="3308.6,771.233,3313.9236,762.9469,3309.3613,766.2913,3306.0169,761.7289,3308.6,771.233" style="stroke:#181818;stroke-width:1.0;"/><text fill="#000000" font-family="sans-serif" font-size="13" lengthAdjust="spacing" textLength="8" x="3301.1606" y="760.464">1</text></g><!--MD5=[aaad1e90f5f40dabc739494400ef0a38]
link UserDAO to UserLoginFormData--><g id="link_UserDAO_UserLoginFormData"><path codeLine="126" d="M3401.75,646.161 C3440.23,690.41 3488.23,745.611 3521.01,783.309 " fill="none" id="UserDAO-to-UserLoginFormData" style="stroke:#181818;stroke-width:1.0;"/><polygon fill="#181818" points="3524.53,787.359,3521.6421,777.9431,3521.2488,783.5862,3515.6057,783.1929,3524.53,787.359" style="stroke:#181818;stroke-width:1.0;"/><text fill="#000000" font-family="sans-serif" font-size="13" lengthAdjust="spacing" textLength="8" x="3510.1584" y="776.4972">1</text></g><!--MD5=[2ec92e91cdfc1b459a633047af5611fd]
link UserDAO to AuthInfo--><g id="link_UserDAO_AuthInfo"><path codeLine="127" d="M3240.03,646.161 C3178.85,690.768 3102.4,746.505 3050.67,784.222 " fill="none" id="UserDAO-to-AuthInfo" style="stroke:#181818;stroke-width:1.0;"/><polygon fill="#181818" points="3046.37,787.359,3055.9998,785.2931,3050.4115,784.4151,3051.2895,778.8268,3046.37,787.359" style="stroke:#181818;stroke-width:1.0;"/><text fill="#000000" font-family="sans-serif" font-size="13" lengthAdjust="spacing" textLength="8" x="3046.7125" y="776.4972">1</text></g><!--MD5=[96885a4f3707d006b28d97f18c90c433]
link UserDAO to IUser--><g id="link_UserDAO_IUser"><path codeLine="128" d="M3502.03,646.106 C3541.96,662.895 3584.78,680.18 3625,695 C3716.02,728.54 3820.02,761.404 3901.52,785.95 " fill="none" id="UserDAO-to-IUser" style="stroke:#181818;stroke-width:1.0;"/><polygon fill="#181818" points="3906.36,787.407,3898.8967,780.9806,3901.5726,785.9645,3896.5887,788.6404,3906.36,787.407" style="stroke:#181818;stroke-width:1.0;"/><text fill="#000000" font-family="sans-serif" font-size="13" lengthAdjust="spacing" textLength="8" x="3890.6688" y="781.8534">1</text></g><!--MD5=[43b6bc7d53b0d6f6163476bca84044f4]
link ChessGame to IUser--><g id="link_ChessGame_IUser"><path codeLine="129" d="M4099.73,695.313 C4091.69,713.976 4083.59,732.79 4076.12,750.126 " fill="none" id="ChessGame-to-IUser" style="stroke:#181818;stroke-width:1.0;"/><polygon fill="#181818" points="4074.03,754.975,4081.2606,748.2878,4076.0056,750.3819,4073.9116,745.1269,4074.03,754.975" style="stroke:#181818;stroke-width:1.0;"/><text fill="#000000" font-family="sans-serif" font-size="13" lengthAdjust="spacing" textLength="8" x="4068.8175" y="743.7559">1</text></g><!--MD5=[6e48ab96de9c99c4f399978a742aafcc]
link GameManager to ChessGame--><g id="link_GameManager_ChessGame"><path codeLine="130" d="M4139.95,391.081 C4139.4,408.588 4139.18,427.291 4139.27,445.785 " fill="none" id="GameManager-to-ChessGame" style="stroke:#181818;stroke-width:1.0;"/><polygon fill="#181818" points="4139.31,450.994,4143.2482,441.9668,4139.2757,445.9941,4135.2484,442.0216,4139.31,450.994" style="stroke:#181818;stroke-width:1.0;"/><text fill="#000000" font-family="sans-serif" font-size="13" lengthAdjust="spacing" textLength="7" x="4131.2728" y="439.7827">*</text></g><!--MD5=[6e48ab96de9c99c4f399978a742aafcc]
link GameManager to ChessGame--><g id="link_GameManager_ChessGame"><path codeLine="131" d="M4164.76,391.081 C4165.34,408.588 4165.58,427.291 4165.48,445.785 " fill="none" id="GameManager-to-ChessGame-1" style="stroke:#181818;stroke-width:1.0;"/><polygon fill="#181818" points="4165.44,450.994,4169.5042,442.0228,4165.4757,445.9941,4161.5044,441.9657,4165.44,450.994" style="stroke:#181818;stroke-width:1.0;"/><text fill="#000000" font-family="sans-serif" font-size="13" lengthAdjust="spacing" textLength="8" x="4158.0448" y="439.7827">1</text></g><!--MD5=[be5da5e25ff228029ca0ec5134230a67]
link GameManager to IUser--><g id="link_GameManager_IUser"><path codeLine="132" d="M4374.67,385.733 C4458.29,417.312 4534.13,446.818 4537,451 C4598.4,540.387 4603.05,608.988 4537,695 C4494.13,750.83 4314.8,788.144 4184.53,808.4582 " fill="none" id="GameManager-to-IUser" style="stroke:#181818;stroke-width:1.0;"/><polygon fill="#181818" points="4179.53,809.2334,4189.0393,811.7972,4184.4702,808.4621,4187.8052,803.8929,4179.53,809.2334" style="stroke:#181818;stroke-width:1.0;"/><text fill="#000000" font-family="sans-serif" font-size="13" lengthAdjust="spacing" textLength="8" x="4187.6544" y="804.7915">1</text></g><!--MD5=[ead7dc2b00220a2c2a7915911e0d8217]
link LoginAPIResponse to AuthInfo--><g id="link_LoginAPIResponse_AuthInfo"><path codeLine="133" d="M2957.78,605.023 C2964.63,649.417 2977.25,731.318 2985.1,782.263 " fill="none" id="LoginAPIResponse-to-AuthInfo" style="stroke:#181818;stroke-width:1.0;"/><polygon fill="#181818" points="2985.9,787.399,2988.4831,777.8949,2985.1387,782.4573,2980.5764,779.1129,2985.9,787.399" style="stroke:#181818;stroke-width:1.0;"/><text fill="#000000" font-family="sans-serif" font-size="13" lengthAdjust="spacing" textLength="8" x="2976.2272" y="776.5438">1</text></g><!--MD5=[5fa8cbfaba2d12dfcd7e609570c522b7]
link UserRoutes to BaseAPIResponse--><g id="link_UserRoutes_BaseAPIResponse"><path codeLine="134" d="M3224.02,128.532 C3039.03,150.06 2857.22,178.495 2773,213 C2747.2,223.569 2722.03,241.237 2701.69,257.98 " fill="none" id="UserRoutes-to-BaseAPIResponse" style="stroke:#181818;stroke-width:1.0;"/><polygon fill="#181818" points="2697.68,261.313,2707.1552,258.626,2701.5217,258.1128,2702.0349,252.4793,2697.68,261.313" style="stroke:#181818;stroke-width:1.0;"/><text fill="#000000" font-family="sans-serif" font-size="13" lengthAdjust="spacing" textLength="8" x="2695.9207" y="250.4436">1</text></g><!--MD5=[f3a6dcb76f90b5a43a16b985dc34302d]
link UserRoutes to CreateUserRequestBody--><g id="link_UserRoutes_CreateUserRequestBody"><path codeLine="135" d="M4084.73,128.564 C4185.1,148.628 4294.82,176.122 4392,213 C4413.15,221.024 4434.83,231.687 4455.01,242.814 " fill="none" id="UserRoutes-to-CreateUserRequestBody" style="stroke:#181818;stroke-width:1.0;"/><polygon fill="#181818" points="4459.56,245.346,4453.6362,237.4778,4455.1896,242.9172,4449.7501,244.4705,4459.56,245.346" style="stroke:#181818;stroke-width:1.0;"/><text fill="#000000" font-family="sans-serif" font-size="13" lengthAdjust="spacing" textLength="8" x="4440.5376" y="234.5908">1</text></g><!--MD5=[cd25f2cd45f1374ff2f07b8b799ae5c3]
link UserRoutes to LoginAPIResponse--><g id="link_UserRoutes_LoginAPIResponse"><path codeLine="136" d="M3771.84,128.754 C3784.29,197.345 3794.88,322.965 3725,391 C3617.42,495.745 3184.69,380.735 3052,451 C3016.14,469.989 2988.4,508.066 2971.53,536.46 " fill="none" id="UserRoutes-to-LoginAPIResponse" style="stroke:#181818;stroke-width:1.0;"/><polygon fill="#181818" points="2968.91,540.93,2976.9075,535.182,2971.435,536.6144,2970.0026,531.1419,2968.91,540.93" style="stroke:#181818;stroke-width:1.0;"/><text fill="#000000" font-family="sans-serif" font-size="13" lengthAdjust="spacing" textLength="8" x="2963.3664" y="529.8187">1</text></g><!--MD5=[93cb2bd001a999d1506306d7e2676401]
link UserRoutes to ErrorAPIResponse--><g id="link_UserRoutes_ErrorAPIResponse"><path codeLine="137" d="M4281.59,128.536 C4454.38,149.795 4622.42,178.044 4700,213 C4723.32,223.51 4745.42,240.976 4763.13,257.589 " fill="none" id="UserRoutes-to-ErrorAPIResponse" style="stroke:#181818;stroke-width:1.0;"/><polygon fill="#181818" points="4767.07,261.34,4763.3033,252.2399,4763.4463,257.8949,4757.7912,258.0379,4767.07,261.34" style="stroke:#181818;stroke-width:1.0;"/><text fill="#000000" font-family="sans-serif" font-size="13" lengthAdjust="spacing" textLength="8" x="4752.4566" y="250.475">1</text></g><!--MD5=[59790f2376350f9ccb3df3b56af96b2c]
link DatabaseConnector to ArrayUtils--></g></svg>