<?xml version="1.0" encoding="UTF-8" standalone="no"?><svg xmlns="http://www.w3.org/2000/svg" xmlns:xlink="http://www.w3.org/1999/xlink" contentStyleType="text/css" height="858px" preserveAspectRatio="none" style="width:2615px;height:858px;background:#FFFFFF;" version="1.1" viewBox="0 0 2615 858" width="2615px" zoomAndPan="magnify"><defs/><g><!--MD5=[93a9f1729e76ecadb10ad181edf6b611]
class DatabaseConnector--><g id="elem_DatabaseConnector"><rect codeLine="1" fill="#F1F1F1" height="145.7813" id="DatabaseConnector" rx="2.5" ry="2.5" style="stroke:#181818;stroke-width:0.5;" width="252" x="17.5" y="72"/><ellipse cx="67.25" cy="88" fill="#ADD1B2" rx="11" ry="11" style="stroke:#181818;stroke-width:1.0;"/><path d="M69.5938,83.6719 C68.6563,83.2344 68.0625,83.0938 67.1875,83.0938 C64.5625,83.0938 62.5625,85.1719 62.5625,87.8906 L62.5625,89.0156 C62.5625,91.5938 64.6719,93.4844 67.5625,93.4844 C68.7813,93.4844 69.9375,93.1875 70.6875,92.6406 C71.2656,92.2344 71.5938,91.7813 71.5938,91.3906 C71.5938,90.9375 71.2031,90.5469 70.7344,90.5469 C70.5156,90.5469 70.3125,90.625 70.125,90.8125 C69.6719,91.2969 69.6719,91.2969 69.4844,91.3906 C69.0625,91.6563 68.375,91.7813 67.6094,91.7813 C65.5625,91.7813 64.2656,90.6875 64.2656,88.9844 L64.2656,87.8906 C64.2656,86.1094 65.5156,84.7969 67.25,84.7969 C67.8281,84.7969 68.4375,84.9531 68.9063,85.2031 C69.3906,85.4844 69.5625,85.7031 69.6563,86.1094 C69.7188,86.5156 69.75,86.6406 69.8906,86.7656 C70.0313,86.9063 70.2656,87.0156 70.4844,87.0156 C70.75,87.0156 71.0156,86.875 71.1875,86.6563 C71.2969,86.5 71.3281,86.3125 71.3281,85.8906 L71.3281,84.4688 C71.3281,84.0313 71.3125,83.9063 71.2188,83.75 C71.0625,83.4844 70.7813,83.3438 70.4844,83.3438 C70.1875,83.3438 69.9844,83.4375 69.7656,83.75 L69.5938,83.6719 Z " fill="#000000"/><text fill="#000000" font-family="sans-serif" font-size="14" lengthAdjust="spacing" textLength="144" x="87.75" y="92.8467">DatabaseConnector</text><line style="stroke:#181818;stroke-width:0.5;" x1="18.5" x2="268.5" y1="104" y2="104"/><rect fill="none" height="6" style="stroke:#C82930;stroke-width:1.0;" width="6" x="25.5" y="112"/><text fill="#000000" font-family="sans-serif" font-size="14" lengthAdjust="spacing" text-decoration="underline" textLength="74" x="37.5" y="120.9951">URI: string</text><rect fill="none" height="6" style="stroke:#C82930;stroke-width:1.0;" width="6" x="25.5" y="128.2969"/><text fill="#000000" font-family="sans-serif" font-size="14" lengthAdjust="spacing" text-decoration="underline" textLength="226" x="37.5" y="137.292">client: MongoClient | undefined</text><rect fill="none" height="6" style="stroke:#C82930;stroke-width:1.0;" width="6" x="25.5" y="144.5938"/><text fill="#000000" font-family="sans-serif" font-size="14" lengthAdjust="spacing" text-decoration="underline" textLength="195" x="37.5" y="153.5889">_database?: Db | undefined</text><ellipse cx="28.5" cy="163.8906" fill="none" rx="3" ry="3" style="stroke:#038048;stroke-width:1.0;"/><text fill="#000000" font-family="sans-serif" font-size="14" lengthAdjust="spacing" text-decoration="underline" textLength="181" x="37.5" y="169.8857">database: Db | undefined</text><line style="stroke:#181818;stroke-width:0.5;" x1="18.5" x2="268.5" y1="177.1875" y2="177.1875"/><ellipse cx="28.5" cy="188.1875" fill="#84BE84" rx="3" ry="3" style="stroke:#038048;stroke-width:1.0;"/><text fill="#000000" font-family="sans-serif" font-size="14" lengthAdjust="spacing" text-decoration="underline" textLength="86" x="37.5" y="194.1826">open(): void</text><ellipse cx="28.5" cy="204.4844" fill="#84BE84" rx="3" ry="3" style="stroke:#038048;stroke-width:1.0;"/><text fill="#000000" font-family="sans-serif" font-size="14" lengthAdjust="spacing" text-decoration="underline" textLength="86" x="37.5" y="210.4795">close(): void</text></g><!--MD5=[09e1e21e55dc1e1860955f17677954e0]
class BaseAPIResponse--><g id="elem_BaseAPIResponse"><rect codeLine="9" fill="#F1F1F1" height="80.5938" id="BaseAPIResponse" rx="2.5" ry="2.5" style="stroke:#181818;stroke-width:0.5;" width="199" x="880" y="375.5"/><ellipse cx="913.45" cy="391.5" fill="#A9DCDF" rx="11" ry="11" style="stroke:#181818;stroke-width:1.0;"/><path d="M915.5281,393.3125 L915.9188,394.2969 L915.5281,394.2969 C915.075,394.2969 914.9656,394.3125 914.8094,394.4219 C914.5594,394.5781 914.4031,394.8594 914.4031,395.1563 C914.4031,395.4219 914.5438,395.6719 914.7625,395.8281 C914.9031,395.9531 915.1063,396 915.5281,396 L917.8875,396 C918.2469,396 918.4656,395.9688 918.6063,395.875 C918.8563,395.7344 919.0125,395.4375 919.0125,395.1563 C919.0125,394.875 918.8719,394.625 918.6531,394.4688 C918.4813,394.3281 918.325,394.2969 917.8563,394.2969 L914.4656,386.0938 L910.7938,386.0938 C910.3406,386.0938 910.2156,386.1094 910.0594,386.2031 C909.8094,386.375 909.6531,386.6563 909.6531,386.9375 C909.6531,387.2188 909.7938,387.4688 910.0125,387.6406 C910.1844,387.75 910.3563,387.7813 910.7938,387.7813 L911.8719,387.7813 L909.2313,394.2969 C908.8094,394.2969 908.6531,394.3125 908.4969,394.4219 C908.2469,394.5781 908.0906,394.8594 908.0906,395.1563 C908.0906,395.7188 908.4656,396 909.2156,396 L911.4813,396 C911.8406,396 912.0594,395.9688 912.1844,395.875 C912.45,395.7344 912.5906,395.4375 912.5906,395.1563 C912.5906,394.875 912.4656,394.625 912.2469,394.4531 C912.075,394.3281 911.9344,394.2969 911.4813,394.2969 L911.0906,394.2969 L911.4813,393.3125 L915.5281,393.3125 Z M914.825,391.6094 L912.1531,391.6094 L913.4969,388.3438 L914.825,391.6094 Z " fill="#000000"/><text fill="#000000" font-family="sans-serif" font-size="14" font-style="italic" lengthAdjust="spacing" textLength="126" x="931.55" y="396.3467">BaseAPIResponse</text><line style="stroke:#181818;stroke-width:0.5;" x1="881" x2="1078" y1="407.5" y2="407.5"/><ellipse cx="891" cy="418.5" fill="none" rx="3" ry="3" style="stroke:#038048;stroke-width:1.0;"/><text fill="#000000" font-family="sans-serif" font-size="14" lengthAdjust="spacing" textLength="121" x="900" y="424.4951">success: boolean</text><ellipse cx="891" cy="434.7969" fill="none" rx="3" ry="3" style="stroke:#038048;stroke-width:1.0;"/><text fill="#000000" font-family="sans-serif" font-size="14" lengthAdjust="spacing" textLength="173" x="900" y="440.792">error?: Error | undefined</text><line style="stroke:#181818;stroke-width:0.5;" x1="881" x2="1078" y1="448.0938" y2="448.0938"/></g><!--MD5=[76b865d8eabad70502df650f44f6952a]
class APIResponse--><g id="elem_APIResponse"><rect fill="#F1F1F1" height="48" id="APIResponse" rx="2.5" ry="2.5" style="stroke:#181818;stroke-width:0.5;" width="123" x="918" y="121"/><ellipse cx="933" cy="137" fill="#B4A7E5" rx="11" ry="11" style="stroke:#181818;stroke-width:1.0;"/><path d="M933.9531,133.7813 L935.6719,133.7813 C936.0625,133.7813 936.25,133.75 936.375,133.6719 C936.6406,133.5156 936.7813,133.2344 936.7813,132.9375 C936.7813,132.6719 936.6719,132.4063 936.4375,132.2344 C936.2656,132.125 936.125,132.0938 935.6719,132.0938 L930.5313,132.0938 C930.0938,132.0938 929.9688,132.1094 929.8125,132.2031 C929.5625,132.3594 929.4063,132.6563 929.4063,132.9375 C929.4063,133.2188 929.5469,133.4688 929.7656,133.6406 C929.9219,133.75 930.1094,133.7813 930.5313,133.7813 L932.25,133.7813 L932.25,140.2969 L930.5313,140.2969 C930.0938,140.2969 929.9688,140.3125 929.8125,140.4219 C929.5625,140.5781 929.4063,140.8594 929.4063,141.1563 C929.4063,141.4063 929.5469,141.6719 929.7656,141.8281 C929.9219,141.9531 930.125,142 930.5313,142 L935.6719,142 C936.4219,142 936.7813,141.7188 936.7813,141.1563 C936.7813,140.875 936.6719,140.625 936.4375,140.4531 C936.2656,140.3281 936.125,140.2969 935.6719,140.2969 L933.9531,140.2969 L933.9531,133.7813 Z " fill="#000000"/><text fill="#000000" font-family="sans-serif" font-size="14" font-style="italic" lengthAdjust="spacing" textLength="91" x="947" y="141.8467">APIResponse</text><line style="stroke:#181818;stroke-width:0.5;" x1="919" x2="1040" y1="153" y2="153"/><line style="stroke:#181818;stroke-width:0.5;" x1="919" x2="1040" y1="161" y2="161"/></g><!--MD5=[9532e8bb65f5911e494d2b3b07d54c70]
class ErrorAPIResponse--><g id="elem_ErrorAPIResponse"><rect codeLine="13" fill="#F1F1F1" height="48" id="ErrorAPIResponse" rx="2.5" ry="2.5" style="stroke:#181818;stroke-width:0.5;" width="161" x="812" y="589.5"/><ellipse cx="827" cy="605.5" fill="#ADD1B2" rx="11" ry="11" style="stroke:#181818;stroke-width:1.0;"/><path d="M829.3438,601.1719 C828.4063,600.7344 827.8125,600.5938 826.9375,600.5938 C824.3125,600.5938 822.3125,602.6719 822.3125,605.3906 L822.3125,606.5156 C822.3125,609.0938 824.4219,610.9844 827.3125,610.9844 C828.5313,610.9844 829.6875,610.6875 830.4375,610.1406 C831.0156,609.7344 831.3438,609.2813 831.3438,608.8906 C831.3438,608.4375 830.9531,608.0469 830.4844,608.0469 C830.2656,608.0469 830.0625,608.125 829.875,608.3125 C829.4219,608.7969 829.4219,608.7969 829.2344,608.8906 C828.8125,609.1563 828.125,609.2813 827.3594,609.2813 C825.3125,609.2813 824.0156,608.1875 824.0156,606.4844 L824.0156,605.3906 C824.0156,603.6094 825.2656,602.2969 827,602.2969 C827.5781,602.2969 828.1875,602.4531 828.6563,602.7031 C829.1406,602.9844 829.3125,603.2031 829.4063,603.6094 C829.4688,604.0156 829.5,604.1406 829.6406,604.2656 C829.7813,604.4063 830.0156,604.5156 830.2344,604.5156 C830.5,604.5156 830.7656,604.375 830.9375,604.1563 C831.0469,604 831.0781,603.8125 831.0781,603.3906 L831.0781,601.9688 C831.0781,601.5313 831.0625,601.4063 830.9688,601.25 C830.8125,600.9844 830.5313,600.8438 830.2344,600.8438 C829.9375,600.8438 829.7344,600.9375 829.5156,601.25 L829.3438,601.1719 Z " fill="#000000"/><text fill="#000000" font-family="sans-serif" font-size="14" lengthAdjust="spacing" textLength="129" x="841" y="610.3467">ErrorAPIResponse</text><line style="stroke:#181818;stroke-width:0.5;" x1="813" x2="972" y1="621.5" y2="621.5"/><line style="stroke:#181818;stroke-width:0.5;" x1="813" x2="972" y1="629.5" y2="629.5"/></g><!--MD5=[ebf03a84ec3d1696651163c3149d6161]
class BaseDAO--><g id="elem_BaseDAO"><rect codeLine="14" fill="#F1F1F1" height="129.4844" id="BaseDAO" rx="2.5" ry="2.5" style="stroke:#181818;stroke-width:0.5;" width="643" x="1467" y="351.5"/><ellipse cx="1664.75" cy="367.5" fill="#A9DCDF" rx="11" ry="11" style="stroke:#181818;stroke-width:1.0;"/><path d="M1666.8281,369.3125 L1667.2188,370.2969 L1666.8281,370.2969 C1666.375,370.2969 1666.2656,370.3125 1666.1094,370.4219 C1665.8594,370.5781 1665.7031,370.8594 1665.7031,371.1563 C1665.7031,371.4219 1665.8438,371.6719 1666.0625,371.8281 C1666.2031,371.9531 1666.4063,372 1666.8281,372 L1669.1875,372 C1669.5469,372 1669.7656,371.9688 1669.9063,371.875 C1670.1563,371.7344 1670.3125,371.4375 1670.3125,371.1563 C1670.3125,370.875 1670.1719,370.625 1669.9531,370.4688 C1669.7813,370.3281 1669.625,370.2969 1669.1563,370.2969 L1665.7656,362.0938 L1662.0938,362.0938 C1661.6406,362.0938 1661.5156,362.1094 1661.3594,362.2031 C1661.1094,362.375 1660.9531,362.6563 1660.9531,362.9375 C1660.9531,363.2188 1661.0938,363.4688 1661.3125,363.6406 C1661.4844,363.75 1661.6563,363.7813 1662.0938,363.7813 L1663.1719,363.7813 L1660.5313,370.2969 C1660.1094,370.2969 1659.9531,370.3125 1659.7969,370.4219 C1659.5469,370.5781 1659.3906,370.8594 1659.3906,371.1563 C1659.3906,371.7188 1659.7656,372 1660.5156,372 L1662.7813,372 C1663.1406,372 1663.3594,371.9688 1663.4844,371.875 C1663.75,371.7344 1663.8906,371.4375 1663.8906,371.1563 C1663.8906,370.875 1663.7656,370.625 1663.5469,370.4531 C1663.375,370.3281 1663.2344,370.2969 1662.7813,370.2969 L1662.3906,370.2969 L1662.7813,369.3125 L1666.8281,369.3125 Z M1666.125,367.6094 L1663.4531,367.6094 L1664.7969,364.3438 L1666.125,367.6094 Z " fill="#000000"/><text fill="#000000" font-family="sans-serif" font-size="14" font-style="italic" lengthAdjust="spacing" textLength="67" x="1685.25" y="372.3467">BaseDAO</text><rect fill="#FFFFFF" height="15.9688" style="stroke:#000000;stroke-width:1.0;stroke-dasharray:2.0,2.0;" width="170" x="1943" y="348.5"/><text fill="#000000" font-family="sans-serif" font-size="12" font-style="italic" lengthAdjust="spacing" textLength="168" x="1944" y="360.6387">Schema extends Document</text><line style="stroke:#181818;stroke-width:0.5;" x1="1468" x2="2109" y1="383.5" y2="383.5"/><ellipse cx="1478" cy="394.5" fill="none" rx="3" ry="3" style="stroke:#038048;stroke-width:1.0;"/><text fill="#000000" font-family="sans-serif" font-size="14" font-style="italic" lengthAdjust="spacing" textLength="160" x="1487" y="400.4951">collectionName: string</text><ellipse cx="1478" cy="410.7969" fill="none" rx="3" ry="3" style="stroke:#038048;stroke-width:1.0;"/><text fill="#000000" font-family="sans-serif" font-size="14" lengthAdjust="spacing" textLength="441" x="1487" y="416.792">collection: Mongo.Collection&lt;Mongo.Document&gt; | undefined</text><line style="stroke:#181818;stroke-width:0.5;" x1="1468" x2="2109" y1="424.0938" y2="424.0938"/><ellipse cx="1478" cy="435.0938" fill="#84BE84" rx="3" ry="3" style="stroke:#038048;stroke-width:1.0;"/><text fill="#000000" font-family="sans-serif" font-size="14" lengthAdjust="spacing" textLength="339" x="1487" y="441.0889">insertOne(document: Schema): Promise&lt;void&gt;</text><ellipse cx="1478" cy="451.3906" fill="#84BE84" rx="3" ry="3" style="stroke:#038048;stroke-width:1.0;"/><text fill="#000000" font-family="sans-serif" font-size="14" lengthAdjust="spacing" textLength="550" x="1487" y="457.3857">findOne(filter: Mongo.Filter&lt;Schema&gt;): Promise&lt;Mongo.WithId&lt;Schema&gt;&gt;</text><ellipse cx="1478" cy="467.6875" fill="#84BE84" rx="3" ry="3" style="stroke:#038048;stroke-width:1.0;"/><text fill="#000000" font-family="sans-serif" font-size="14" lengthAdjust="spacing" textLength="617" x="1487" y="473.6826">updateOne(filter: Mongo.Filter&lt;Schema&gt;, update: Partial&lt;Schema&gt;): Promise&lt;void&gt;</text></g><!--MD5=[76ab8d192502cb4818e5b62d3136acdb]
class UserRegistrationFormData--><g id="elem_UserRegistrationFormData"><rect codeLine="21" fill="#F1F1F1" height="113.1875" id="UserRegistrationFormData" rx="2.5" ry="2.5" style="stroke:#181818;stroke-width:0.5;" width="273" x="1508" y="738"/><ellipse cx="1546.4" cy="754" fill="#B4A7E5" rx="11" ry="11" style="stroke:#181818;stroke-width:1.0;"/><path d="M1547.3531,750.7813 L1549.0719,750.7813 C1549.4625,750.7813 1549.65,750.75 1549.775,750.6719 C1550.0406,750.5156 1550.1813,750.2344 1550.1813,749.9375 C1550.1813,749.6719 1550.0719,749.4063 1549.8375,749.2344 C1549.6656,749.125 1549.525,749.0938 1549.0719,749.0938 L1543.9313,749.0938 C1543.4938,749.0938 1543.3688,749.1094 1543.2125,749.2031 C1542.9625,749.3594 1542.8063,749.6563 1542.8063,749.9375 C1542.8063,750.2188 1542.9469,750.4688 1543.1656,750.6406 C1543.3219,750.75 1543.5094,750.7813 1543.9313,750.7813 L1545.65,750.7813 L1545.65,757.2969 L1543.9313,757.2969 C1543.4938,757.2969 1543.3688,757.3125 1543.2125,757.4219 C1542.9625,757.5781 1542.8063,757.8594 1542.8063,758.1563 C1542.8063,758.4063 1542.9469,758.6719 1543.1656,758.8281 C1543.3219,758.9531 1543.525,759 1543.9313,759 L1549.0719,759 C1549.8219,759 1550.1813,758.7188 1550.1813,758.1563 C1550.1813,757.875 1550.0719,757.625 1549.8375,757.4531 C1549.6656,757.3281 1549.525,757.2969 1549.0719,757.2969 L1547.3531,757.2969 L1547.3531,750.7813 Z " fill="#000000"/><text fill="#000000" font-family="sans-serif" font-size="14" font-style="italic" lengthAdjust="spacing" textLength="189" x="1565.6" y="758.8467">UserRegistrationFormData</text><line style="stroke:#181818;stroke-width:0.5;" x1="1509" x2="1780" y1="770" y2="770"/><ellipse cx="1519" cy="781" fill="none" rx="3" ry="3" style="stroke:#038048;stroke-width:1.0;"/><text fill="#000000" font-family="sans-serif" font-size="14" lengthAdjust="spacing" textLength="247" x="1528" y="786.9951">name: { first: string; last: string; }</text><ellipse cx="1519" cy="797.2969" fill="none" rx="3" ry="3" style="stroke:#038048;stroke-width:1.0;"/><text fill="#000000" font-family="sans-serif" font-size="14" lengthAdjust="spacing" textLength="121" x="1528" y="803.292">username: string</text><ellipse cx="1519" cy="813.5938" fill="none" rx="3" ry="3" style="stroke:#038048;stroke-width:1.0;"/><text fill="#000000" font-family="sans-serif" font-size="14" lengthAdjust="spacing" textLength="118" x="1528" y="819.5889">password: string</text><ellipse cx="1519" cy="829.8906" fill="none" rx="3" ry="3" style="stroke:#038048;stroke-width:1.0;"/><text fill="#000000" font-family="sans-serif" font-size="14" lengthAdjust="spacing" textLength="90" x="1528" y="835.8857">email: string</text><line style="stroke:#181818;stroke-width:0.5;" x1="1509" x2="1780" y1="843.1875" y2="843.1875"/></g><!--MD5=[73dce865cdb77af8e73c9f48f4f93ade]
class UserLoginFormData--><g id="elem_UserLoginFormData"><rect codeLine="27" fill="#F1F1F1" height="80.5938" id="UserLoginFormData" rx="2.5" ry="2.5" style="stroke:#181818;stroke-width:0.5;" width="174" x="1816.5" y="754"/><ellipse cx="1831.5" cy="770" fill="#B4A7E5" rx="11" ry="11" style="stroke:#181818;stroke-width:1.0;"/><path d="M1832.4531,766.7813 L1834.1719,766.7813 C1834.5625,766.7813 1834.75,766.75 1834.875,766.6719 C1835.1406,766.5156 1835.2813,766.2344 1835.2813,765.9375 C1835.2813,765.6719 1835.1719,765.4063 1834.9375,765.2344 C1834.7656,765.125 1834.625,765.0938 1834.1719,765.0938 L1829.0313,765.0938 C1828.5938,765.0938 1828.4688,765.1094 1828.3125,765.2031 C1828.0625,765.3594 1827.9063,765.6563 1827.9063,765.9375 C1827.9063,766.2188 1828.0469,766.4688 1828.2656,766.6406 C1828.4219,766.75 1828.6094,766.7813 1829.0313,766.7813 L1830.75,766.7813 L1830.75,773.2969 L1829.0313,773.2969 C1828.5938,773.2969 1828.4688,773.3125 1828.3125,773.4219 C1828.0625,773.5781 1827.9063,773.8594 1827.9063,774.1563 C1827.9063,774.4063 1828.0469,774.6719 1828.2656,774.8281 C1828.4219,774.9531 1828.625,775 1829.0313,775 L1834.1719,775 C1834.9219,775 1835.2813,774.7188 1835.2813,774.1563 C1835.2813,773.875 1835.1719,773.625 1834.9375,773.4531 C1834.7656,773.3281 1834.625,773.2969 1834.1719,773.2969 L1832.4531,773.2969 L1832.4531,766.7813 Z " fill="#000000"/><text fill="#000000" font-family="sans-serif" font-size="14" font-style="italic" lengthAdjust="spacing" textLength="142" x="1845.5" y="774.8467">UserLoginFormData</text><line style="stroke:#181818;stroke-width:0.5;" x1="1817.5" x2="1989.5" y1="786" y2="786"/><ellipse cx="1827.5" cy="797" fill="none" rx="3" ry="3" style="stroke:#038048;stroke-width:1.0;"/><text fill="#000000" font-family="sans-serif" font-size="14" lengthAdjust="spacing" textLength="81" x="1836.5" y="802.9951">user: string</text><ellipse cx="1827.5" cy="813.2969" fill="none" rx="3" ry="3" style="stroke:#038048;stroke-width:1.0;"/><text fill="#000000" font-family="sans-serif" font-size="14" lengthAdjust="spacing" textLength="118" x="1836.5" y="819.292">password: string</text><line style="stroke:#181818;stroke-width:0.5;" x1="1817.5" x2="1989.5" y1="826.5938" y2="826.5938"/></g><!--MD5=[4397ba3f25468a58f081bf0666d83f60]
class IUser--><g id="elem_IUser"><rect codeLine="31" fill="#F1F1F1" height="145.7813" id="IUser" rx="2.5" ry="2.5" style="stroke:#181818;stroke-width:0.5;" width="273" x="2145" y="343"/><ellipse cx="2259.25" cy="359" fill="#B4A7E5" rx="11" ry="11" style="stroke:#181818;stroke-width:1.0;"/><path d="M2260.2031,355.7813 L2261.9219,355.7813 C2262.3125,355.7813 2262.5,355.75 2262.625,355.6719 C2262.8906,355.5156 2263.0313,355.2344 2263.0313,354.9375 C2263.0313,354.6719 2262.9219,354.4063 2262.6875,354.2344 C2262.5156,354.125 2262.375,354.0938 2261.9219,354.0938 L2256.7813,354.0938 C2256.3438,354.0938 2256.2188,354.1094 2256.0625,354.2031 C2255.8125,354.3594 2255.6563,354.6563 2255.6563,354.9375 C2255.6563,355.2188 2255.7969,355.4688 2256.0156,355.6406 C2256.1719,355.75 2256.3594,355.7813 2256.7813,355.7813 L2258.5,355.7813 L2258.5,362.2969 L2256.7813,362.2969 C2256.3438,362.2969 2256.2188,362.3125 2256.0625,362.4219 C2255.8125,362.5781 2255.6563,362.8594 2255.6563,363.1563 C2255.6563,363.4063 2255.7969,363.6719 2256.0156,363.8281 C2256.1719,363.9531 2256.375,364 2256.7813,364 L2261.9219,364 C2262.6719,364 2263.0313,363.7188 2263.0313,363.1563 C2263.0313,362.875 2262.9219,362.625 2262.6875,362.4531 C2262.5156,362.3281 2262.375,362.2969 2261.9219,362.2969 L2260.2031,362.2969 L2260.2031,355.7813 Z " fill="#000000"/><text fill="#000000" font-family="sans-serif" font-size="14" font-style="italic" lengthAdjust="spacing" textLength="36" x="2279.75" y="363.8467">IUser</text><line style="stroke:#181818;stroke-width:0.5;" x1="2146" x2="2417" y1="375" y2="375"/><ellipse cx="2156" cy="386" fill="none" rx="3" ry="3" style="stroke:#038048;stroke-width:1.0;"/><text fill="#000000" font-family="sans-serif" font-size="14" lengthAdjust="spacing" textLength="183" x="2165" y="391.9951">_id?: ObjectId | undefined</text><ellipse cx="2156" cy="402.2969" fill="none" rx="3" ry="3" style="stroke:#038048;stroke-width:1.0;"/><text fill="#000000" font-family="sans-serif" font-size="14" lengthAdjust="spacing" textLength="247" x="2165" y="408.292">name: { first: string; last: string; }</text><ellipse cx="2156" cy="418.5938" fill="none" rx="3" ry="3" style="stroke:#038048;stroke-width:1.0;"/><text fill="#000000" font-family="sans-serif" font-size="14" lengthAdjust="spacing" textLength="90" x="2165" y="424.5889">email: string</text><ellipse cx="2156" cy="434.8906" fill="none" rx="3" ry="3" style="stroke:#038048;stroke-width:1.0;"/><text fill="#000000" font-family="sans-serif" font-size="14" lengthAdjust="spacing" textLength="121" x="2165" y="440.8857">username: string</text><ellipse cx="2156" cy="451.1875" fill="none" rx="3" ry="3" style="stroke:#038048;stroke-width:1.0;"/><text fill="#000000" font-family="sans-serif" font-size="14" lengthAdjust="spacing" textLength="118" x="2165" y="457.1826">password: string</text><ellipse cx="2156" cy="467.4844" fill="none" rx="3" ry="3" style="stroke:#038048;stroke-width:1.0;"/><text fill="#000000" font-family="sans-serif" font-size="14" lengthAdjust="spacing" textLength="100" x="2165" y="473.4795">auths: string[]</text><line style="stroke:#181818;stroke-width:0.5;" x1="2146" x2="2417" y1="480.7813" y2="480.7813"/></g><!--MD5=[59b530d44ae785dc18db921986a9c15c]
class Document--><g id="elem_Document"><rect fill="#F1F1F1" height="48" id="Document" rx="2.5" ry="2.5" style="stroke:#181818;stroke-width:0.5;" width="106" x="2089.5" y="121"/><ellipse cx="2104.5" cy="137" fill="#B4A7E5" rx="11" ry="11" style="stroke:#181818;stroke-width:1.0;"/><path d="M2105.4531,133.7813 L2107.1719,133.7813 C2107.5625,133.7813 2107.75,133.75 2107.875,133.6719 C2108.1406,133.5156 2108.2813,133.2344 2108.2813,132.9375 C2108.2813,132.6719 2108.1719,132.4063 2107.9375,132.2344 C2107.7656,132.125 2107.625,132.0938 2107.1719,132.0938 L2102.0313,132.0938 C2101.5938,132.0938 2101.4688,132.1094 2101.3125,132.2031 C2101.0625,132.3594 2100.9063,132.6563 2100.9063,132.9375 C2100.9063,133.2188 2101.0469,133.4688 2101.2656,133.6406 C2101.4219,133.75 2101.6094,133.7813 2102.0313,133.7813 L2103.75,133.7813 L2103.75,140.2969 L2102.0313,140.2969 C2101.5938,140.2969 2101.4688,140.3125 2101.3125,140.4219 C2101.0625,140.5781 2100.9063,140.8594 2100.9063,141.1563 C2100.9063,141.4063 2101.0469,141.6719 2101.2656,141.8281 C2101.4219,141.9531 2101.625,142 2102.0313,142 L2107.1719,142 C2107.9219,142 2108.2813,141.7188 2108.2813,141.1563 C2108.2813,140.875 2108.1719,140.625 2107.9375,140.4531 C2107.7656,140.3281 2107.625,140.2969 2107.1719,140.2969 L2105.4531,140.2969 L2105.4531,133.7813 Z " fill="#000000"/><text fill="#000000" font-family="sans-serif" font-size="14" font-style="italic" lengthAdjust="spacing" textLength="74" x="2118.5" y="141.8467">Document</text><line style="stroke:#181818;stroke-width:0.5;" x1="2090.5" x2="2194.5" y1="153" y2="153"/><line style="stroke:#181818;stroke-width:0.5;" x1="2090.5" x2="2194.5" y1="161" y2="161"/></g><!--MD5=[e036894509db5986c948eb9d369df05f]
class AuthInfo--><g id="elem_AuthInfo"><rect codeLine="39" fill="#F1F1F1" height="80.5938" id="AuthInfo" rx="2.5" ry="2.5" style="stroke:#181818;stroke-width:0.5;" width="118" x="1257.5" y="754"/><ellipse cx="1284.2" cy="770" fill="#B4A7E5" rx="11" ry="11" style="stroke:#181818;stroke-width:1.0;"/><path d="M1285.1531,766.7813 L1286.8719,766.7813 C1287.2625,766.7813 1287.45,766.75 1287.575,766.6719 C1287.8406,766.5156 1287.9813,766.2344 1287.9813,765.9375 C1287.9813,765.6719 1287.8719,765.4063 1287.6375,765.2344 C1287.4656,765.125 1287.325,765.0938 1286.8719,765.0938 L1281.7313,765.0938 C1281.2938,765.0938 1281.1688,765.1094 1281.0125,765.2031 C1280.7625,765.3594 1280.6063,765.6563 1280.6063,765.9375 C1280.6063,766.2188 1280.7469,766.4688 1280.9656,766.6406 C1281.1219,766.75 1281.3094,766.7813 1281.7313,766.7813 L1283.45,766.7813 L1283.45,773.2969 L1281.7313,773.2969 C1281.2938,773.2969 1281.1688,773.3125 1281.0125,773.4219 C1280.7625,773.5781 1280.6063,773.8594 1280.6063,774.1563 C1280.6063,774.4063 1280.7469,774.6719 1280.9656,774.8281 C1281.1219,774.9531 1281.325,775 1281.7313,775 L1286.8719,775 C1287.6219,775 1287.9813,774.7188 1287.9813,774.1563 C1287.9813,773.875 1287.8719,773.625 1287.6375,773.4531 C1287.4656,773.3281 1287.325,773.2969 1286.8719,773.2969 L1285.1531,773.2969 L1285.1531,766.7813 Z " fill="#000000"/><text fill="#000000" font-family="sans-serif" font-size="14" font-style="italic" lengthAdjust="spacing" textLength="60" x="1300.8" y="774.8467">AuthInfo</text><line style="stroke:#181818;stroke-width:0.5;" x1="1258.5" x2="1374.5" y1="786" y2="786"/><ellipse cx="1268.5" cy="797" fill="none" rx="3" ry="3" style="stroke:#038048;stroke-width:1.0;"/><text fill="#000000" font-family="sans-serif" font-size="14" lengthAdjust="spacing" textLength="92" x="1277.5" y="802.9951">uid: ObjectId</text><ellipse cx="1268.5" cy="813.2969" fill="none" rx="3" ry="3" style="stroke:#038048;stroke-width:1.0;"/><text fill="#000000" font-family="sans-serif" font-size="14" lengthAdjust="spacing" textLength="77" x="1277.5" y="819.292">key: string</text><line style="stroke:#181818;stroke-width:0.5;" x1="1258.5" x2="1374.5" y1="826.5938" y2="826.5938"/></g><!--MD5=[6f49855a2f41b15b7be64856ff30349b]
class UserDAO--><g id="elem_UserDAO"><rect codeLine="43" fill="#F1F1F1" height="129.4844" id="UserDAO" rx="2.5" ry="2.5" style="stroke:#181818;stroke-width:0.5;" width="538" x="1505.5" y="549"/><ellipse cx="1738.75" cy="565" fill="#ADD1B2" rx="11" ry="11" style="stroke:#181818;stroke-width:1.0;"/><path d="M1741.0938,560.6719 C1740.1563,560.2344 1739.5625,560.0938 1738.6875,560.0938 C1736.0625,560.0938 1734.0625,562.1719 1734.0625,564.8906 L1734.0625,566.0156 C1734.0625,568.5938 1736.1719,570.4844 1739.0625,570.4844 C1740.2813,570.4844 1741.4375,570.1875 1742.1875,569.6406 C1742.7656,569.2344 1743.0938,568.7813 1743.0938,568.3906 C1743.0938,567.9375 1742.7031,567.5469 1742.2344,567.5469 C1742.0156,567.5469 1741.8125,567.625 1741.625,567.8125 C1741.1719,568.2969 1741.1719,568.2969 1740.9844,568.3906 C1740.5625,568.6563 1739.875,568.7813 1739.1094,568.7813 C1737.0625,568.7813 1735.7656,567.6875 1735.7656,565.9844 L1735.7656,564.8906 C1735.7656,563.1094 1737.0156,561.7969 1738.75,561.7969 C1739.3281,561.7969 1739.9375,561.9531 1740.4063,562.2031 C1740.8906,562.4844 1741.0625,562.7031 1741.1563,563.1094 C1741.2188,563.5156 1741.25,563.6406 1741.3906,563.7656 C1741.5313,563.9063 1741.7656,564.0156 1741.9844,564.0156 C1742.25,564.0156 1742.5156,563.875 1742.6875,563.6563 C1742.7969,563.5 1742.8281,563.3125 1742.8281,562.8906 L1742.8281,561.4688 C1742.8281,561.0313 1742.8125,560.9063 1742.7188,560.75 C1742.5625,560.4844 1742.2813,560.3438 1741.9844,560.3438 C1741.6875,560.3438 1741.4844,560.4375 1741.2656,560.75 L1741.0938,560.6719 Z " fill="#000000"/><text fill="#000000" font-family="sans-serif" font-size="14" lengthAdjust="spacing" textLength="63" x="1759.25" y="569.8467">UserDAO</text><line style="stroke:#181818;stroke-width:0.5;" x1="1506.5" x2="2042.5" y1="581" y2="581"/><ellipse cx="1516.5" cy="592" fill="none" rx="3" ry="3" style="stroke:#038048;stroke-width:1.0;"/><text fill="#000000" font-family="sans-serif" font-size="14" lengthAdjust="spacing" textLength="163" x="1525.5" y="597.9951">collectionName: string</text><line style="stroke:#181818;stroke-width:0.5;" x1="1506.5" x2="2042.5" y1="605.2969" y2="605.2969"/><ellipse cx="1516.5" cy="616.2969" fill="#84BE84" rx="3" ry="3" style="stroke:#038048;stroke-width:1.0;"/><text fill="#000000" font-family="sans-serif" font-size="14" lengthAdjust="spacing" textLength="476" x="1525.5" y="622.292">createUser(formData: UserRegistrationFormData): Promise&lt;void&gt;</text><ellipse cx="1516.5" cy="632.5938" fill="#84BE84" rx="3" ry="3" style="stroke:#038048;stroke-width:1.0;"/><text fill="#000000" font-family="sans-serif" font-size="14" lengthAdjust="spacing" textLength="512" x="1525.5" y="638.5889">authenticateLogin(formData: UserLoginFormData): Promise&lt;AuthInfo&gt;</text><ellipse cx="1516.5" cy="648.8906" fill="#84BE84" rx="3" ry="3" style="stroke:#038048;stroke-width:1.0;"/><text fill="#000000" font-family="sans-serif" font-size="14" lengthAdjust="spacing" textLength="454" x="1525.5" y="654.8857">authenticateKey(uid: ObjectId, key: string): Promise&lt;boolean&gt;</text><rect fill="#F24D5C" height="6" style="stroke:#C82930;stroke-width:1.0;" width="6" x="1513.5" y="662.1875"/><text fill="#000000" font-family="sans-serif" font-size="14" lengthAdjust="spacing" textLength="188" x="1525.5" y="671.1826">generateAuthKey(): string</text></g><!--MD5=[f41a2a69ef6870569400a9d90f983dee]
class ChessGame--><g id="elem_ChessGame"><rect codeLine="50" fill="#F1F1F1" height="276.1563" id="ChessGame" rx="2.5" ry="2.5" style="stroke:#181818;stroke-width:0.5;" width="378" x="2230.5" y="7"/><ellipse cx="2373.25" cy="23" fill="#ADD1B2" rx="11" ry="11" style="stroke:#181818;stroke-width:1.0;"/><path d="M2375.5938,18.6719 C2374.6563,18.2344 2374.0625,18.0938 2373.1875,18.0938 C2370.5625,18.0938 2368.5625,20.1719 2368.5625,22.8906 L2368.5625,24.0156 C2368.5625,26.5938 2370.6719,28.4844 2373.5625,28.4844 C2374.7813,28.4844 2375.9375,28.1875 2376.6875,27.6406 C2377.2656,27.2344 2377.5938,26.7813 2377.5938,26.3906 C2377.5938,25.9375 2377.2031,25.5469 2376.7344,25.5469 C2376.5156,25.5469 2376.3125,25.625 2376.125,25.8125 C2375.6719,26.2969 2375.6719,26.2969 2375.4844,26.3906 C2375.0625,26.6563 2374.375,26.7813 2373.6094,26.7813 C2371.5625,26.7813 2370.2656,25.6875 2370.2656,23.9844 L2370.2656,22.8906 C2370.2656,21.1094 2371.5156,19.7969 2373.25,19.7969 C2373.8281,19.7969 2374.4375,19.9531 2374.9063,20.2031 C2375.3906,20.4844 2375.5625,20.7031 2375.6563,21.1094 C2375.7188,21.5156 2375.75,21.6406 2375.8906,21.7656 C2376.0313,21.9063 2376.2656,22.0156 2376.4844,22.0156 C2376.75,22.0156 2377.0156,21.875 2377.1875,21.6563 C2377.2969,21.5 2377.3281,21.3125 2377.3281,20.8906 L2377.3281,19.4688 C2377.3281,19.0313 2377.3125,18.9063 2377.2188,18.75 C2377.0625,18.4844 2376.7813,18.3438 2376.4844,18.3438 C2376.1875,18.3438 2375.9844,18.4375 2375.7656,18.75 L2375.5938,18.6719 Z " fill="#000000"/><text fill="#000000" font-family="sans-serif" font-size="14" lengthAdjust="spacing" textLength="84" x="2393.75" y="27.8467">ChessGame</text><line style="stroke:#181818;stroke-width:0.5;" x1="2231.5" x2="2607.5" y1="39" y2="39"/><ellipse cx="2241.5" cy="50" fill="none" rx="3" ry="3" style="stroke:#038048;stroke-width:1.0;"/><text fill="#000000" font-family="sans-serif" font-size="14" lengthAdjust="spacing" textLength="128" x="2250.5" y="55.9951">gameKey: string[]</text><rect fill="none" height="6" style="stroke:#C82930;stroke-width:1.0;" width="6" x="2238.5" y="63.2969"/><text fill="#000000" font-family="sans-serif" font-size="14" lengthAdjust="spacing" textLength="152" x="2250.5" y="72.292">game: ChessInstance</text><rect fill="none" height="6" style="stroke:#C82930;stroke-width:1.0;" width="6" x="2238.5" y="79.5938"/><text fill="#000000" font-family="sans-serif" font-size="14" lengthAdjust="spacing" textLength="182" x="2250.5" y="88.5889">_black?: IUser | undefined</text><rect fill="none" height="6" style="stroke:#C82930;stroke-width:1.0;" width="6" x="2238.5" y="95.8906"/><text fill="#000000" font-family="sans-serif" font-size="14" lengthAdjust="spacing" textLength="183" x="2250.5" y="104.8857">_white?: IUser | undefined</text><rect fill="none" height="6" style="stroke:#C82930;stroke-width:1.0;" width="6" x="2238.5" y="112.1875"/><text fill="#000000" font-family="sans-serif" font-size="14" lengthAdjust="spacing" textLength="196" x="2250.5" y="121.1826">messages: IGameMessage[]</text><ellipse cx="2241.5" cy="131.4844" fill="none" rx="3" ry="3" style="stroke:#038048;stroke-width:1.0;"/><text fill="#000000" font-family="sans-serif" font-size="14" lengthAdjust="spacing" textLength="168" x="2250.5" y="137.4795">black: IUser | undefined</text><ellipse cx="2241.5" cy="147.7813" fill="none" rx="3" ry="3" style="stroke:#038048;stroke-width:1.0;"/><text fill="#000000" font-family="sans-serif" font-size="14" lengthAdjust="spacing" textLength="168" x="2250.5" y="153.7764">black: IUser | undefined</text><ellipse cx="2241.5" cy="164.0781" fill="none" rx="3" ry="3" style="stroke:#038048;stroke-width:1.0;"/><text fill="#000000" font-family="sans-serif" font-size="14" lengthAdjust="spacing" textLength="169" x="2250.5" y="170.0732">white: IUser | undefined</text><ellipse cx="2241.5" cy="180.375" fill="none" rx="3" ry="3" style="stroke:#038048;stroke-width:1.0;"/><text fill="#000000" font-family="sans-serif" font-size="14" lengthAdjust="spacing" textLength="169" x="2250.5" y="186.3701">white: IUser | undefined</text><ellipse cx="2241.5" cy="196.6719" fill="none" rx="3" ry="3" style="stroke:#038048;stroke-width:1.0;"/><text fill="#000000" font-family="sans-serif" font-size="14" lengthAdjust="spacing" textLength="75" x="2250.5" y="202.667">fen: string</text><line style="stroke:#181818;stroke-width:0.5;" x1="2231.5" x2="2607.5" y1="209.9688" y2="209.9688"/><ellipse cx="2241.5" cy="220.9688" fill="#84BE84" rx="3" ry="3" style="stroke:#038048;stroke-width:1.0;"/><text fill="#000000" font-family="sans-serif" font-size="14" lengthAdjust="spacing" textLength="315" x="2250.5" y="226.9639">addMessage(message: IGameMessage): void</text><ellipse cx="2241.5" cy="237.2656" fill="#84BE84" rx="3" ry="3" style="stroke:#038048;stroke-width:1.0;"/><text fill="#000000" font-family="sans-serif" font-size="14" lengthAdjust="spacing" textLength="229" x="2250.5" y="243.2607">getMessages(): IGameMessage[]</text><ellipse cx="2241.5" cy="253.5625" fill="#84BE84" rx="3" ry="3" style="stroke:#038048;stroke-width:1.0;"/><text fill="#000000" font-family="sans-serif" font-size="14" lengthAdjust="spacing" textLength="352" x="2250.5" y="259.5576">move(source: Square, target: Square): Move | null</text><ellipse cx="2241.5" cy="269.8594" fill="#84BE84" rx="3" ry="3" style="stroke:#038048;stroke-width:1.0;"/><text fill="#000000" font-family="sans-serif" font-size="14" lengthAdjust="spacing" text-decoration="underline" textLength="206" x="2250.5" y="275.8545">generateGameKey(): string[]</text></g><!--MD5=[1165ac2cc0b65b7540d69244297d9fd3]
class GameCreatedAPIResponse--><g id="elem_GameCreatedAPIResponse"><rect codeLine="66" fill="#F1F1F1" height="64.2969" id="GameCreatedAPIResponse" rx="2.5" ry="2.5" style="stroke:#181818;stroke-width:0.5;" width="225" x="552" y="581.5"/><ellipse cx="567" cy="597.5" fill="#ADD1B2" rx="11" ry="11" style="stroke:#181818;stroke-width:1.0;"/><path d="M569.3438,593.1719 C568.4063,592.7344 567.8125,592.5938 566.9375,592.5938 C564.3125,592.5938 562.3125,594.6719 562.3125,597.3906 L562.3125,598.5156 C562.3125,601.0938 564.4219,602.9844 567.3125,602.9844 C568.5313,602.9844 569.6875,602.6875 570.4375,602.1406 C571.0156,601.7344 571.3438,601.2813 571.3438,600.8906 C571.3438,600.4375 570.9531,600.0469 570.4844,600.0469 C570.2656,600.0469 570.0625,600.125 569.875,600.3125 C569.4219,600.7969 569.4219,600.7969 569.2344,600.8906 C568.8125,601.1563 568.125,601.2813 567.3594,601.2813 C565.3125,601.2813 564.0156,600.1875 564.0156,598.4844 L564.0156,597.3906 C564.0156,595.6094 565.2656,594.2969 567,594.2969 C567.5781,594.2969 568.1875,594.4531 568.6563,594.7031 C569.1406,594.9844 569.3125,595.2031 569.4063,595.6094 C569.4688,596.0156 569.5,596.1406 569.6406,596.2656 C569.7813,596.4063 570.0156,596.5156 570.2344,596.5156 C570.5,596.5156 570.7656,596.375 570.9375,596.1563 C571.0469,596 571.0781,595.8125 571.0781,595.3906 L571.0781,593.9688 C571.0781,593.5313 571.0625,593.4063 570.9688,593.25 C570.8125,592.9844 570.5313,592.8438 570.2344,592.8438 C569.9375,592.8438 569.7344,592.9375 569.5156,593.25 L569.3438,593.1719 Z " fill="#000000"/><text fill="#000000" font-family="sans-serif" font-size="14" lengthAdjust="spacing" textLength="193" x="581" y="602.3467">GameCreatedAPIResponse</text><line style="stroke:#181818;stroke-width:0.5;" x1="553" x2="776" y1="613.5" y2="613.5"/><ellipse cx="563" cy="624.5" fill="none" rx="3" ry="3" style="stroke:#038048;stroke-width:1.0;"/><text fill="#000000" font-family="sans-serif" font-size="14" lengthAdjust="spacing" textLength="128" x="572" y="630.4951">gameKey: string[]</text><line style="stroke:#181818;stroke-width:0.5;" x1="553" x2="776" y1="637.7969" y2="637.7969"/></g><!--MD5=[e4d16eb279c1bc91b2fb6f1f03ed5ed5]
class IGameCreatedAPIResponse--><g id="elem_IGameCreatedAPIResponse"><rect fill="#F1F1F1" height="48" id="IGameCreatedAPIResponse" rx="2.5" ry="2.5" style="stroke:#181818;stroke-width:0.5;" width="227" x="551" y="392"/><ellipse cx="566" cy="408" fill="#B4A7E5" rx="11" ry="11" style="stroke:#181818;stroke-width:1.0;"/><path d="M566.9531,404.7813 L568.6719,404.7813 C569.0625,404.7813 569.25,404.75 569.375,404.6719 C569.6406,404.5156 569.7813,404.2344 569.7813,403.9375 C569.7813,403.6719 569.6719,403.4063 569.4375,403.2344 C569.2656,403.125 569.125,403.0938 568.6719,403.0938 L563.5313,403.0938 C563.0938,403.0938 562.9688,403.1094 562.8125,403.2031 C562.5625,403.3594 562.4063,403.6563 562.4063,403.9375 C562.4063,404.2188 562.5469,404.4688 562.7656,404.6406 C562.9219,404.75 563.1094,404.7813 563.5313,404.7813 L565.25,404.7813 L565.25,411.2969 L563.5313,411.2969 C563.0938,411.2969 562.9688,411.3125 562.8125,411.4219 C562.5625,411.5781 562.4063,411.8594 562.4063,412.1563 C562.4063,412.4063 562.5469,412.6719 562.7656,412.8281 C562.9219,412.9531 563.125,413 563.5313,413 L568.6719,413 C569.4219,413 569.7813,412.7188 569.7813,412.1563 C569.7813,411.875 569.6719,411.625 569.4375,411.4531 C569.2656,411.3281 569.125,411.2969 568.6719,411.2969 L566.9531,411.2969 L566.9531,404.7813 Z " fill="#000000"/><text fill="#000000" font-family="sans-serif" font-size="14" font-style="italic" lengthAdjust="spacing" textLength="195" x="580" y="412.8467">IGameCreatedAPIResponse</text><line style="stroke:#181818;stroke-width:0.5;" x1="552" x2="777" y1="424" y2="424"/><line style="stroke:#181818;stroke-width:0.5;" x1="552" x2="777" y1="432" y2="432"/></g><!--MD5=[61f9e58bb2d8e8aaddf674173363ffe3]
class GameMessagesAPIResponse--><g id="elem_GameMessagesAPIResponse"><rect codeLine="69" fill="#F1F1F1" height="64.2969" id="GameMessagesAPIResponse" rx="2.5" ry="2.5" style="stroke:#181818;stroke-width:0.5;" width="235" x="1208" y="581.5"/><ellipse cx="1223" cy="597.5" fill="#ADD1B2" rx="11" ry="11" style="stroke:#181818;stroke-width:1.0;"/><path d="M1225.3438,593.1719 C1224.4063,592.7344 1223.8125,592.5938 1222.9375,592.5938 C1220.3125,592.5938 1218.3125,594.6719 1218.3125,597.3906 L1218.3125,598.5156 C1218.3125,601.0938 1220.4219,602.9844 1223.3125,602.9844 C1224.5313,602.9844 1225.6875,602.6875 1226.4375,602.1406 C1227.0156,601.7344 1227.3438,601.2813 1227.3438,600.8906 C1227.3438,600.4375 1226.9531,600.0469 1226.4844,600.0469 C1226.2656,600.0469 1226.0625,600.125 1225.875,600.3125 C1225.4219,600.7969 1225.4219,600.7969 1225.2344,600.8906 C1224.8125,601.1563 1224.125,601.2813 1223.3594,601.2813 C1221.3125,601.2813 1220.0156,600.1875 1220.0156,598.4844 L1220.0156,597.3906 C1220.0156,595.6094 1221.2656,594.2969 1223,594.2969 C1223.5781,594.2969 1224.1875,594.4531 1224.6563,594.7031 C1225.1406,594.9844 1225.3125,595.2031 1225.4063,595.6094 C1225.4688,596.0156 1225.5,596.1406 1225.6406,596.2656 C1225.7813,596.4063 1226.0156,596.5156 1226.2344,596.5156 C1226.5,596.5156 1226.7656,596.375 1226.9375,596.1563 C1227.0469,596 1227.0781,595.8125 1227.0781,595.3906 L1227.0781,593.9688 C1227.0781,593.5313 1227.0625,593.4063 1226.9688,593.25 C1226.8125,592.9844 1226.5313,592.8438 1226.2344,592.8438 C1225.9375,592.8438 1225.7344,592.9375 1225.5156,593.25 L1225.3438,593.1719 Z " fill="#000000"/><text fill="#000000" font-family="sans-serif" font-size="14" lengthAdjust="spacing" textLength="203" x="1237" y="602.3467">GameMessagesAPIResponse</text><line style="stroke:#181818;stroke-width:0.5;" x1="1209" x2="1442" y1="613.5" y2="613.5"/><ellipse cx="1219" cy="624.5" fill="none" rx="3" ry="3" style="stroke:#038048;stroke-width:1.0;"/><text fill="#000000" font-family="sans-serif" font-size="14" lengthAdjust="spacing" textLength="196" x="1228" y="630.4951">messages: IGameMessage[]</text><line style="stroke:#181818;stroke-width:0.5;" x1="1209" x2="1442" y1="637.7969" y2="637.7969"/></g><!--MD5=[4f5ab9dde5f68ad0545d0a4774f13e42]
class IGameMessagesAPIResponse--><g id="elem_IGameMessagesAPIResponse"><rect fill="#F1F1F1" height="48" id="IGameMessagesAPIResponse" rx="2.5" ry="2.5" style="stroke:#181818;stroke-width:0.5;" width="239" x="1193" y="392"/><ellipse cx="1208" cy="408" fill="#B4A7E5" rx="11" ry="11" style="stroke:#181818;stroke-width:1.0;"/><path d="M1208.9531,404.7813 L1210.6719,404.7813 C1211.0625,404.7813 1211.25,404.75 1211.375,404.6719 C1211.6406,404.5156 1211.7813,404.2344 1211.7813,403.9375 C1211.7813,403.6719 1211.6719,403.4063 1211.4375,403.2344 C1211.2656,403.125 1211.125,403.0938 1210.6719,403.0938 L1205.5313,403.0938 C1205.0938,403.0938 1204.9688,403.1094 1204.8125,403.2031 C1204.5625,403.3594 1204.4063,403.6563 1204.4063,403.9375 C1204.4063,404.2188 1204.5469,404.4688 1204.7656,404.6406 C1204.9219,404.75 1205.1094,404.7813 1205.5313,404.7813 L1207.25,404.7813 L1207.25,411.2969 L1205.5313,411.2969 C1205.0938,411.2969 1204.9688,411.3125 1204.8125,411.4219 C1204.5625,411.5781 1204.4063,411.8594 1204.4063,412.1563 C1204.4063,412.4063 1204.5469,412.6719 1204.7656,412.8281 C1204.9219,412.9531 1205.125,413 1205.5313,413 L1210.6719,413 C1211.4219,413 1211.7813,412.7188 1211.7813,412.1563 C1211.7813,411.875 1211.6719,411.625 1211.4375,411.4531 C1211.2656,411.3281 1211.125,411.2969 1210.6719,411.2969 L1208.9531,411.2969 L1208.9531,404.7813 Z " fill="#000000"/><text fill="#000000" font-family="sans-serif" font-size="14" font-style="italic" lengthAdjust="spacing" textLength="207" x="1222" y="412.8467">IGameMessagesAPIResponse</text><line style="stroke:#181818;stroke-width:0.5;" x1="1194" x2="1431" y1="424" y2="424"/><line style="stroke:#181818;stroke-width:0.5;" x1="1194" x2="1431" y1="432" y2="432"/></g><!--MD5=[b28b797a8bb52c5d797eb4874e8b08fe]
class ArrayUtils--><g id="elem_ArrayUtils"><rect codeLine="72" fill="#F1F1F1" height="64.2969" id="ArrayUtils" rx="2.5" ry="2.5" style="stroke:#181818;stroke-width:0.5;" width="290" x="304.5" y="113"/><ellipse cx="410.75" cy="129" fill="#ADD1B2" rx="11" ry="11" style="stroke:#181818;stroke-width:1.0;"/><path d="M413.0938,124.6719 C412.1563,124.2344 411.5625,124.0938 410.6875,124.0938 C408.0625,124.0938 406.0625,126.1719 406.0625,128.8906 L406.0625,130.0156 C406.0625,132.5938 408.1719,134.4844 411.0625,134.4844 C412.2813,134.4844 413.4375,134.1875 414.1875,133.6406 C414.7656,133.2344 415.0938,132.7813 415.0938,132.3906 C415.0938,131.9375 414.7031,131.5469 414.2344,131.5469 C414.0156,131.5469 413.8125,131.625 413.625,131.8125 C413.1719,132.2969 413.1719,132.2969 412.9844,132.3906 C412.5625,132.6563 411.875,132.7813 411.1094,132.7813 C409.0625,132.7813 407.7656,131.6875 407.7656,129.9844 L407.7656,128.8906 C407.7656,127.1094 409.0156,125.7969 410.75,125.7969 C411.3281,125.7969 411.9375,125.9531 412.4063,126.2031 C412.8906,126.4844 413.0625,126.7031 413.1563,127.1094 C413.2188,127.5156 413.25,127.6406 413.3906,127.7656 C413.5313,127.9063 413.7656,128.0156 413.9844,128.0156 C414.25,128.0156 414.5156,127.875 414.6875,127.6563 C414.7969,127.5 414.8281,127.3125 414.8281,126.8906 L414.8281,125.4688 C414.8281,125.0313 414.8125,124.9063 414.7188,124.75 C414.5625,124.4844 414.2813,124.3438 413.9844,124.3438 C413.6875,124.3438 413.4844,124.4375 413.2656,124.75 L413.0938,124.6719 Z " fill="#000000"/><text fill="#000000" font-family="sans-serif" font-size="14" lengthAdjust="spacing" textLength="69" x="431.25" y="133.8467">ArrayUtils</text><line style="stroke:#181818;stroke-width:0.5;" x1="305.5" x2="593.5" y1="145" y2="145"/><line style="stroke:#181818;stroke-width:0.5;" x1="305.5" x2="593.5" y1="153" y2="153"/><ellipse cx="315.5" cy="164" fill="#84BE84" rx="3" ry="3" style="stroke:#038048;stroke-width:1.0;"/><text fill="#000000" font-family="sans-serif" font-size="14" lengthAdjust="spacing" text-decoration="underline" textLength="264" x="324.5" y="169.9951">strictCompare(a: T[], b: T[]): boolean</text></g><!--MD5=[4476dd818a02198350536b6ba7e8c915]
class LoginAPIResponse--><g id="elem_LoginAPIResponse"><rect codeLine="75" fill="#F1F1F1" height="64.2969" id="LoginAPIResponse" rx="2.5" ry="2.5" style="stroke:#181818;stroke-width:0.5;" width="164" x="1008.5" y="581.5"/><ellipse cx="1023.5" cy="597.5" fill="#ADD1B2" rx="11" ry="11" style="stroke:#181818;stroke-width:1.0;"/><path d="M1025.8438,593.1719 C1024.9063,592.7344 1024.3125,592.5938 1023.4375,592.5938 C1020.8125,592.5938 1018.8125,594.6719 1018.8125,597.3906 L1018.8125,598.5156 C1018.8125,601.0938 1020.9219,602.9844 1023.8125,602.9844 C1025.0313,602.9844 1026.1875,602.6875 1026.9375,602.1406 C1027.5156,601.7344 1027.8438,601.2813 1027.8438,600.8906 C1027.8438,600.4375 1027.4531,600.0469 1026.9844,600.0469 C1026.7656,600.0469 1026.5625,600.125 1026.375,600.3125 C1025.9219,600.7969 1025.9219,600.7969 1025.7344,600.8906 C1025.3125,601.1563 1024.625,601.2813 1023.8594,601.2813 C1021.8125,601.2813 1020.5156,600.1875 1020.5156,598.4844 L1020.5156,597.3906 C1020.5156,595.6094 1021.7656,594.2969 1023.5,594.2969 C1024.0781,594.2969 1024.6875,594.4531 1025.1563,594.7031 C1025.6406,594.9844 1025.8125,595.2031 1025.9063,595.6094 C1025.9688,596.0156 1026,596.1406 1026.1406,596.2656 C1026.2813,596.4063 1026.5156,596.5156 1026.7344,596.5156 C1027,596.5156 1027.2656,596.375 1027.4375,596.1563 C1027.5469,596 1027.5781,595.8125 1027.5781,595.3906 L1027.5781,593.9688 C1027.5781,593.5313 1027.5625,593.4063 1027.4688,593.25 C1027.3125,592.9844 1027.0313,592.8438 1026.7344,592.8438 C1026.4375,592.8438 1026.2344,592.9375 1026.0156,593.25 L1025.8438,593.1719 Z " fill="#000000"/><text fill="#000000" font-family="sans-serif" font-size="14" lengthAdjust="spacing" textLength="132" x="1037.5" y="602.3467">LoginAPIResponse</text><line style="stroke:#181818;stroke-width:0.5;" x1="1009.5" x2="1171.5" y1="613.5" y2="613.5"/><ellipse cx="1019.5" cy="624.5" fill="none" rx="3" ry="3" style="stroke:#038048;stroke-width:1.0;"/><text fill="#000000" font-family="sans-serif" font-size="14" lengthAdjust="spacing" textLength="103" x="1028.5" y="630.4951">auth: AuthInfo</text><line style="stroke:#181818;stroke-width:0.5;" x1="1009.5" x2="1171.5" y1="637.7969" y2="637.7969"/></g><!--MD5=[a0c31074011fe5810f5a444ea78fe12d]
class CreateUserRequestBody--><g id="elem_CreateUserRequestBody"><rect codeLine="78" fill="#F1F1F1" height="113.1875" id="CreateUserRequestBody" rx="2.5" ry="2.5" style="stroke:#181818;stroke-width:0.5;" width="273" x="7" y="359.5"/><ellipse cx="52.25" cy="375.5" fill="#B4A7E5" rx="11" ry="11" style="stroke:#181818;stroke-width:1.0;"/><path d="M53.2031,372.2813 L54.9219,372.2813 C55.3125,372.2813 55.5,372.25 55.625,372.1719 C55.8906,372.0156 56.0313,371.7344 56.0313,371.4375 C56.0313,371.1719 55.9219,370.9063 55.6875,370.7344 C55.5156,370.625 55.375,370.5938 54.9219,370.5938 L49.7813,370.5938 C49.3438,370.5938 49.2188,370.6094 49.0625,370.7031 C48.8125,370.8594 48.6563,371.1563 48.6563,371.4375 C48.6563,371.7188 48.7969,371.9688 49.0156,372.1406 C49.1719,372.25 49.3594,372.2813 49.7813,372.2813 L51.5,372.2813 L51.5,378.7969 L49.7813,378.7969 C49.3438,378.7969 49.2188,378.8125 49.0625,378.9219 C48.8125,379.0781 48.6563,379.3594 48.6563,379.6563 C48.6563,379.9063 48.7969,380.1719 49.0156,380.3281 C49.1719,380.4531 49.375,380.5 49.7813,380.5 L54.9219,380.5 C55.6719,380.5 56.0313,380.2188 56.0313,379.6563 C56.0313,379.375 55.9219,379.125 55.6875,378.9531 C55.5156,378.8281 55.375,378.7969 54.9219,378.7969 L53.2031,378.7969 L53.2031,372.2813 Z " fill="#000000"/><text fill="#000000" font-family="sans-serif" font-size="14" font-style="italic" lengthAdjust="spacing" textLength="174" x="72.75" y="380.3467">CreateUserRequestBody</text><line style="stroke:#181818;stroke-width:0.5;" x1="8" x2="279" y1="391.5" y2="391.5"/><ellipse cx="18" cy="402.5" fill="none" rx="3" ry="3" style="stroke:#038048;stroke-width:1.0;"/><text fill="#000000" font-family="sans-serif" font-size="14" lengthAdjust="spacing" textLength="247" x="27" y="408.4951">name: { first: string; last: string; }</text><ellipse cx="18" cy="418.7969" fill="none" rx="3" ry="3" style="stroke:#038048;stroke-width:1.0;"/><text fill="#000000" font-family="sans-serif" font-size="14" lengthAdjust="spacing" textLength="90" x="27" y="424.792">email: string</text><ellipse cx="18" cy="435.0938" fill="none" rx="3" ry="3" style="stroke:#038048;stroke-width:1.0;"/><text fill="#000000" font-family="sans-serif" font-size="14" lengthAdjust="spacing" textLength="121" x="27" y="441.0889">username: string</text><ellipse cx="18" cy="451.3906" fill="none" rx="3" ry="3" style="stroke:#038048;stroke-width:1.0;"/><text fill="#000000" font-family="sans-serif" font-size="14" lengthAdjust="spacing" textLength="118" x="27" y="457.3857">password: string</text><line style="stroke:#181818;stroke-width:0.5;" x1="8" x2="279" y1="464.6875" y2="464.6875"/></g><!--MD5=[dd909653e2a3ff7ef37c47b3ce0e6062]
class RTCServer--><g id="elem_RTCServer"><rect codeLine="84" fill="#F1F1F1" height="113.1875" id="RTCServer" rx="2.5" ry="2.5" style="stroke:#181818;stroke-width:0.5;" width="200" x="315.5" y="359.5"/><ellipse cx="373.25" cy="375.5" fill="#ADD1B2" rx="11" ry="11" style="stroke:#181818;stroke-width:1.0;"/><path d="M375.5938,371.1719 C374.6563,370.7344 374.0625,370.5938 373.1875,370.5938 C370.5625,370.5938 368.5625,372.6719 368.5625,375.3906 L368.5625,376.5156 C368.5625,379.0938 370.6719,380.9844 373.5625,380.9844 C374.7813,380.9844 375.9375,380.6875 376.6875,380.1406 C377.2656,379.7344 377.5938,379.2813 377.5938,378.8906 C377.5938,378.4375 377.2031,378.0469 376.7344,378.0469 C376.5156,378.0469 376.3125,378.125 376.125,378.3125 C375.6719,378.7969 375.6719,378.7969 375.4844,378.8906 C375.0625,379.1563 374.375,379.2813 373.6094,379.2813 C371.5625,379.2813 370.2656,378.1875 370.2656,376.4844 L370.2656,375.3906 C370.2656,373.6094 371.5156,372.2969 373.25,372.2969 C373.8281,372.2969 374.4375,372.4531 374.9063,372.7031 C375.3906,372.9844 375.5625,373.2031 375.6563,373.6094 C375.7188,374.0156 375.75,374.1406 375.8906,374.2656 C376.0313,374.4063 376.2656,374.5156 376.4844,374.5156 C376.75,374.5156 377.0156,374.375 377.1875,374.1563 C377.2969,374 377.3281,373.8125 377.3281,373.3906 L377.3281,371.9688 C377.3281,371.5313 377.3125,371.4063 377.2188,371.25 C377.0625,370.9844 376.7813,370.8438 376.4844,370.8438 C376.1875,370.8438 375.9844,370.9375 375.7656,371.25 L375.5938,371.1719 Z " fill="#000000"/><text fill="#000000" font-family="sans-serif" font-size="14" lengthAdjust="spacing" textLength="76" x="393.75" y="380.3467">RTCServer</text><line style="stroke:#181818;stroke-width:0.5;" x1="316.5" x2="514.5" y1="391.5" y2="391.5"/><rect fill="none" height="6" style="stroke:#C82930;stroke-width:1.0;" width="6" x="323.5" y="399.5"/><text fill="#000000" font-family="sans-serif" font-size="14" lengthAdjust="spacing" textLength="154" x="335.5" y="408.4951">app: express.Express</text><rect fill="none" height="6" style="stroke:#C82930;stroke-width:1.0;" width="6" x="323.5" y="415.7969"/><text fill="#000000" font-family="sans-serif" font-size="14" lengthAdjust="spacing" textLength="104" x="335.5" y="424.792">PORT: number</text><rect fill="none" height="6" style="stroke:#C82930;stroke-width:1.0;" width="6" x="323.5" y="432.0938"/><text fill="#000000" font-family="sans-serif" font-size="14" lengthAdjust="spacing" textLength="174" x="335.5" y="441.0889">httpServer: http.Server</text><line style="stroke:#181818;stroke-width:0.5;" x1="316.5" x2="514.5" y1="448.3906" y2="448.3906"/><ellipse cx="326.5" cy="459.3906" fill="#84BE84" rx="3" ry="3" style="stroke:#038048;stroke-width:1.0;"/><text fill="#000000" font-family="sans-serif" font-size="14" lengthAdjust="spacing" textLength="89" x="335.5" y="465.3857">listen(): void</text></g><!--MD5=[ce0dd0faff7e4290be38f78548deae28]
reverse link APIResponse to BaseAPIResponse--><g id="link_APIResponse_BaseAPIResponse"><path d="M979.5,189.46 C979.5,240.763 979.5,325.372 979.5,375.082 " fill="none" id="APIResponse-backto-BaseAPIResponse" style="stroke:#181818;stroke-width:1.0;stroke-dasharray:7.0,7.0;"/><polygon fill="none" points="972.5,189.401,979.5,169.401,986.5,189.401,972.5,189.401" style="stroke:#181818;stroke-width:1.0;"/></g><!--MD5=[ee19bb36818978ae7ba6a8df91c19870]
reverse link BaseAPIResponse to ErrorAPIResponse--><g id="link_BaseAPIResponse_ErrorAPIResponse"><path d="M953.707,474.959 C936.692,513.195 915.318,561.224 902.855,589.23 " fill="none" id="BaseAPIResponse-backto-ErrorAPIResponse" style="stroke:#181818;stroke-width:1.0;"/><polygon fill="none" points="947.367,471.989,961.894,456.562,960.158,477.681,947.367,471.989" style="stroke:#181818;stroke-width:1.0;"/></g><!--MD5=[bb46dfd9c580a3e2717b4183eb3d6bae]
reverse link Document to IUser--><g id="link_Document_IUser"><path d="M2163.48,187.304 C2177.33,214.52 2195.92,250.923 2212.5,283 C2222.53,302.411 2233.46,323.39 2243.6,342.786 " fill="none" id="Document-backto-IUser" style="stroke:#181818;stroke-width:1.0;"/><polygon fill="none" points="2157.15,190.305,2154.32,169.305,2169.63,183.959,2157.15,190.305" style="stroke:#181818;stroke-width:1.0;"/></g><!--MD5=[cc0f6a25f10aa9588eeb31621b330f47]
reverse link BaseDAO to UserDAO--><g id="link_BaseDAO_UserDAO"><path d="M1782.5,500.743 C1781.35,516.858 1780.16,533.492 1779.06,548.843 " fill="none" id="BaseDAO-backto-UserDAO" style="stroke:#181818;stroke-width:1.0;"/><polygon fill="none" points="1775.52,500.192,1783.94,480.743,1789.49,501.192,1775.52,500.192" style="stroke:#181818;stroke-width:1.0;"/></g><!--MD5=[dbddce47894df499345ba7c1649242b6]
reverse link BaseAPIResponse to GameCreatedAPIResponse--><g id="link_BaseAPIResponse_GameCreatedAPIResponse"><path d="M898.759,467.111 C840.691,503.15 764.198,550.624 714.685,581.354 " fill="none" id="BaseAPIResponse-backto-GameCreatedAPIResponse" style="stroke:#181818;stroke-width:1.0;"/><polygon fill="none" points="895.07,461.161,915.755,456.562,902.453,473.057,895.07,461.161" style="stroke:#181818;stroke-width:1.0;"/></g><!--MD5=[516645d850f298d2f58acdbf87b23bca]
reverse link IGameCreatedAPIResponse to GameCreatedAPIResponse--><g id="link_IGameCreatedAPIResponse_GameCreatedAPIResponse"><path d="M664.5,460.273 C664.5,496.916 664.5,548.565 664.5,581.284 " fill="none" id="IGameCreatedAPIResponse-backto-GameCreatedAPIResponse" style="stroke:#181818;stroke-width:1.0;stroke-dasharray:7.0,7.0;"/><polygon fill="none" points="657.5,460.194,664.5,440.194,671.5,460.194,657.5,460.194" style="stroke:#181818;stroke-width:1.0;"/></g><!--MD5=[3b1008a05b6a107af91c7958ab18782b]
reverse link BaseAPIResponse to GameMessagesAPIResponse--><g id="link_BaseAPIResponse_GameMessagesAPIResponse"><path d="M1066.96,466.415 C1130.88,502.536 1215.64,550.426 1270.38,581.354 " fill="none" id="BaseAPIResponse-backto-GameMessagesAPIResponse" style="stroke:#181818;stroke-width:1.0;"/><polygon fill="none" points="1063.49,472.495,1049.52,456.562,1070.37,460.307,1063.49,472.495" style="stroke:#181818;stroke-width:1.0;"/></g><!--MD5=[bdaf296d2c037de9574ea4d744d932d0]
reverse link IGameMessagesAPIResponse to GameMessagesAPIResponse--><g id="link_IGameMessagesAPIResponse_GameMessagesAPIResponse"><path d="M1315.38,460.273 C1317.81,496.916 1321.25,548.565 1323.42,581.284 " fill="none" id="IGameMessagesAPIResponse-backto-GameMessagesAPIResponse" style="stroke:#181818;stroke-width:1.0;stroke-dasharray:7.0,7.0;"/><polygon fill="none" points="1308.38,460.615,1314.04,440.194,1322.35,459.686,1308.38,460.615" style="stroke:#181818;stroke-width:1.0;"/></g><!--MD5=[dabce20145565795d2910467592182e7]
reverse link BaseAPIResponse to LoginAPIResponse--><g id="link_BaseAPIResponse_LoginAPIResponse"><path d="M1011.85,473.98 C1031.74,509.006 1056.46,552.541 1072.82,581.354 " fill="none" id="BaseAPIResponse-backto-LoginAPIResponse" style="stroke:#181818;stroke-width:1.0;"/><polygon fill="none" points="1005.75,477.411,1001.963,456.562,1017.92,470.498,1005.75,477.411" style="stroke:#181818;stroke-width:1.0;"/></g><!--MD5=[9d0e0e25794588a1f1f4daa0452ce53e]
link UserDAO to UserRegistrationFormData--><g id="link_UserDAO_UserRegistrationFormData"><path codeLine="90" d="M1728.3,678.113 C1715.25,696.084 1701.09,715.58 1688.19,733.341 " fill="none" id="UserDAO-to-UserRegistrationFormData" style="stroke:#181818;stroke-width:1.0;"/><polygon fill="#181818" points="1684.94,737.818,1693.466,732.8878,1687.8788,733.7728,1686.9937,728.1857,1684.94,737.818" style="stroke:#181818;stroke-width:1.0;"/><text fill="#000000" font-family="sans-serif" font-size="13" lengthAdjust="spacing" textLength="8" x="1681.3811" y="727.0594">1</text></g><!--MD5=[aaad1e90f5f40dabc739494400ef0a38]
link UserDAO to UserLoginFormData--><g id="link_UserDAO_UserLoginFormData"><path codeLine="91" d="M1820.34,678.113 C1837.38,701.759 1856.33,728.043 1871.82,749.545 " fill="none" id="UserDAO-to-UserLoginFormData" style="stroke:#181818;stroke-width:1.0;"/><polygon fill="#181818" points="1874.87,753.7793,1872.8547,744.1388,1871.9473,749.7224,1866.3637,748.8151,1874.87,753.7793" style="stroke:#181818;stroke-width:1.0;"/><text fill="#000000" font-family="sans-serif" font-size="13" lengthAdjust="spacing" textLength="8" x="1861.4657" y="742.9039">1</text></g><!--MD5=[2ec92e91cdfc1b459a633047af5611fd]
link UserDAO to AuthInfo--><g id="link_UserDAO_AuthInfo"><path codeLine="92" d="M1611.74,678.113 C1531.96,709.292 1440.45,745.057 1380.72,768.3994 " fill="none" id="UserDAO-to-AuthInfo" style="stroke:#181818;stroke-width:1.0;"/><polygon fill="#181818" points="1375.76,770.3382,1385.5993,770.7721,1380.4141,768.5108,1382.6754,763.3256,1375.76,770.3382" style="stroke:#181818;stroke-width:1.0;"/><text fill="#000000" font-family="sans-serif" font-size="13" lengthAdjust="spacing" textLength="8" x="1383.4698" y="763.5792">1</text></g><!--MD5=[43b6bc7d53b0d6f6163476bca84044f4]
link ChessGame to IUser--><g id="link_ChessGame_IUser"><path codeLine="93" d="M2349.09,283.258 C2339.43,302.083 2329.81,320.836 2320.98,338.041 " fill="none" id="ChessGame-to-IUser" style="stroke:#181818;stroke-width:1.0;"/><polygon fill="#181818" points="2318.51,342.851,2326.181,336.674,2320.7951,338.4037,2319.0654,333.0178,2318.51,342.851" style="stroke:#181818;stroke-width:1.0;"/><text fill="#000000" font-family="sans-serif" font-size="13" lengthAdjust="spacing" textLength="8" x="2313.7594" y="331.9963">1</text></g><!--MD5=[ead7dc2b00220a2c2a7915911e0d8217]
link LoginAPIResponse to AuthInfo--><g id="link_LoginAPIResponse_AuthInfo"><path codeLine="94" d="M1129.87,645.679 C1166.47,674.673 1221.34,718.128 1262.12,750.428 " fill="none" id="LoginAPIResponse-to-AuthInfo" style="stroke:#181818;stroke-width:1.0;"/><polygon fill="#181818" points="1266.52,753.9129,1261.9625,745.182,1262.6055,750.8022,1256.9853,751.4452,1266.52,753.9129" style="stroke:#181818;stroke-width:1.0;"/><text fill="#000000" font-family="sans-serif" font-size="13" lengthAdjust="spacing" textLength="8" x="1249.5796" y="743.0601">1</text></g><!--MD5=[59790f2376350f9ccb3df3b56af96b2c]
link DatabaseConnector to ArrayUtils--></g></svg>