<?xml version="1.0" encoding="UTF-8" standalone="no"?><svg xmlns="http://www.w3.org/2000/svg" xmlns:xlink="http://www.w3.org/1999/xlink" contentStyleType="text/css" height="669px" preserveAspectRatio="none" style="width:2759px;height:669px;background:#FFFFFF;" version="1.1" viewBox="0 0 2759 669" width="2759px" zoomAndPan="magnify"><defs/><g><!--MD5=[93a9f1729e76ecadb10ad181edf6b611]
class DatabaseConnector--><g id="elem_DatabaseConnector"><rect codeLine="1" fill="#F1F1F1" height="145.7813" id="DatabaseConnector" rx="2.5" ry="2.5" style="stroke:#181818;stroke-width:0.5;" width="252" x="17.5" y="7"/><ellipse cx="67.25" cy="23" fill="#ADD1B2" rx="11" ry="11" style="stroke:#181818;stroke-width:1.0;"/><path d="M69.5938,18.6719 C68.6563,18.2344 68.0625,18.0938 67.1875,18.0938 C64.5625,18.0938 62.5625,20.1719 62.5625,22.8906 L62.5625,24.0156 C62.5625,26.5938 64.6719,28.4844 67.5625,28.4844 C68.7813,28.4844 69.9375,28.1875 70.6875,27.6406 C71.2656,27.2344 71.5938,26.7813 71.5938,26.3906 C71.5938,25.9375 71.2031,25.5469 70.7344,25.5469 C70.5156,25.5469 70.3125,25.625 70.125,25.8125 C69.6719,26.2969 69.6719,26.2969 69.4844,26.3906 C69.0625,26.6563 68.375,26.7813 67.6094,26.7813 C65.5625,26.7813 64.2656,25.6875 64.2656,23.9844 L64.2656,22.8906 C64.2656,21.1094 65.5156,19.7969 67.25,19.7969 C67.8281,19.7969 68.4375,19.9531 68.9063,20.2031 C69.3906,20.4844 69.5625,20.7031 69.6563,21.1094 C69.7188,21.5156 69.75,21.6406 69.8906,21.7656 C70.0313,21.9063 70.2656,22.0156 70.4844,22.0156 C70.75,22.0156 71.0156,21.875 71.1875,21.6563 C71.2969,21.5 71.3281,21.3125 71.3281,20.8906 L71.3281,19.4688 C71.3281,19.0313 71.3125,18.9063 71.2188,18.75 C71.0625,18.4844 70.7813,18.3438 70.4844,18.3438 C70.1875,18.3438 69.9844,18.4375 69.7656,18.75 L69.5938,18.6719 Z " fill="#000000"/><text fill="#000000" font-family="sans-serif" font-size="14" lengthAdjust="spacing" textLength="144" x="87.75" y="27.8467">DatabaseConnector</text><line style="stroke:#181818;stroke-width:0.5;" x1="18.5" x2="268.5" y1="39" y2="39"/><rect fill="none" height="6" style="stroke:#C82930;stroke-width:1.0;" width="6" x="25.5" y="47"/><text fill="#000000" font-family="sans-serif" font-size="14" lengthAdjust="spacing" text-decoration="underline" textLength="74" x="37.5" y="55.9951">URI: string</text><rect fill="none" height="6" style="stroke:#C82930;stroke-width:1.0;" width="6" x="25.5" y="63.2969"/><text fill="#000000" font-family="sans-serif" font-size="14" lengthAdjust="spacing" text-decoration="underline" textLength="226" x="37.5" y="72.292">client: MongoClient | undefined</text><rect fill="none" height="6" style="stroke:#C82930;stroke-width:1.0;" width="6" x="25.5" y="79.5938"/><text fill="#000000" font-family="sans-serif" font-size="14" lengthAdjust="spacing" text-decoration="underline" textLength="195" x="37.5" y="88.5889">_database?: Db | undefined</text><ellipse cx="28.5" cy="98.8906" fill="none" rx="3" ry="3" style="stroke:#038048;stroke-width:1.0;"/><text fill="#000000" font-family="sans-serif" font-size="14" lengthAdjust="spacing" text-decoration="underline" textLength="181" x="37.5" y="104.8857">database: Db | undefined</text><line style="stroke:#181818;stroke-width:0.5;" x1="18.5" x2="268.5" y1="112.1875" y2="112.1875"/><ellipse cx="28.5" cy="123.1875" fill="#84BE84" rx="3" ry="3" style="stroke:#038048;stroke-width:1.0;"/><text fill="#000000" font-family="sans-serif" font-size="14" lengthAdjust="spacing" text-decoration="underline" textLength="86" x="37.5" y="129.1826">open(): void</text><ellipse cx="28.5" cy="139.4844" fill="#84BE84" rx="3" ry="3" style="stroke:#038048;stroke-width:1.0;"/><text fill="#000000" font-family="sans-serif" font-size="14" lengthAdjust="spacing" text-decoration="underline" textLength="86" x="37.5" y="145.4795">close(): void</text></g><!--MD5=[09e1e21e55dc1e1860955f17677954e0]
class BaseAPIResponse--><g id="elem_BaseAPIResponse"><rect codeLine="9" fill="#F1F1F1" height="80.5938" id="BaseAPIResponse" rx="2.5" ry="2.5" style="stroke:#181818;stroke-width:0.5;" width="199" x="1318" y="310.5"/><ellipse cx="1351.45" cy="326.5" fill="#A9DCDF" rx="11" ry="11" style="stroke:#181818;stroke-width:1.0;"/><path d="M1353.5281,328.3125 L1353.9188,329.2969 L1353.5281,329.2969 C1353.075,329.2969 1352.9656,329.3125 1352.8094,329.4219 C1352.5594,329.5781 1352.4031,329.8594 1352.4031,330.1563 C1352.4031,330.4219 1352.5438,330.6719 1352.7625,330.8281 C1352.9031,330.9531 1353.1063,331 1353.5281,331 L1355.8875,331 C1356.2469,331 1356.4656,330.9688 1356.6063,330.875 C1356.8563,330.7344 1357.0125,330.4375 1357.0125,330.1563 C1357.0125,329.875 1356.8719,329.625 1356.6531,329.4688 C1356.4813,329.3281 1356.325,329.2969 1355.8563,329.2969 L1352.4656,321.0938 L1348.7938,321.0938 C1348.3406,321.0938 1348.2156,321.1094 1348.0594,321.2031 C1347.8094,321.375 1347.6531,321.6563 1347.6531,321.9375 C1347.6531,322.2188 1347.7938,322.4688 1348.0125,322.6406 C1348.1844,322.75 1348.3563,322.7813 1348.7938,322.7813 L1349.8719,322.7813 L1347.2313,329.2969 C1346.8094,329.2969 1346.6531,329.3125 1346.4969,329.4219 C1346.2469,329.5781 1346.0906,329.8594 1346.0906,330.1563 C1346.0906,330.7188 1346.4656,331 1347.2156,331 L1349.4813,331 C1349.8406,331 1350.0594,330.9688 1350.1844,330.875 C1350.45,330.7344 1350.5906,330.4375 1350.5906,330.1563 C1350.5906,329.875 1350.4656,329.625 1350.2469,329.4531 C1350.075,329.3281 1349.9344,329.2969 1349.4813,329.2969 L1349.0906,329.2969 L1349.4813,328.3125 L1353.5281,328.3125 Z M1352.825,326.6094 L1350.1531,326.6094 L1351.4969,323.3438 L1352.825,326.6094 Z " fill="#000000"/><text fill="#000000" font-family="sans-serif" font-size="14" font-style="italic" lengthAdjust="spacing" textLength="126" x="1369.55" y="331.3467">BaseAPIResponse</text><line style="stroke:#181818;stroke-width:0.5;" x1="1319" x2="1516" y1="342.5" y2="342.5"/><ellipse cx="1329" cy="353.5" fill="none" rx="3" ry="3" style="stroke:#038048;stroke-width:1.0;"/><text fill="#000000" font-family="sans-serif" font-size="14" lengthAdjust="spacing" textLength="121" x="1338" y="359.4951">success: boolean</text><ellipse cx="1329" cy="369.7969" fill="none" rx="3" ry="3" style="stroke:#038048;stroke-width:1.0;"/><text fill="#000000" font-family="sans-serif" font-size="14" lengthAdjust="spacing" textLength="173" x="1338" y="375.792">error?: Error | undefined</text><line style="stroke:#181818;stroke-width:0.5;" x1="1319" x2="1516" y1="383.0938" y2="383.0938"/></g><!--MD5=[76b865d8eabad70502df650f44f6952a]
class APIResponse--><g id="elem_APIResponse"><rect fill="#F1F1F1" height="48" id="APIResponse" rx="2.5" ry="2.5" style="stroke:#181818;stroke-width:0.5;" width="123" x="1356" y="56"/><ellipse cx="1371" cy="72" fill="#B4A7E5" rx="11" ry="11" style="stroke:#181818;stroke-width:1.0;"/><path d="M1371.9531,68.7813 L1373.6719,68.7813 C1374.0625,68.7813 1374.25,68.75 1374.375,68.6719 C1374.6406,68.5156 1374.7813,68.2344 1374.7813,67.9375 C1374.7813,67.6719 1374.6719,67.4063 1374.4375,67.2344 C1374.2656,67.125 1374.125,67.0938 1373.6719,67.0938 L1368.5313,67.0938 C1368.0938,67.0938 1367.9688,67.1094 1367.8125,67.2031 C1367.5625,67.3594 1367.4063,67.6563 1367.4063,67.9375 C1367.4063,68.2188 1367.5469,68.4688 1367.7656,68.6406 C1367.9219,68.75 1368.1094,68.7813 1368.5313,68.7813 L1370.25,68.7813 L1370.25,75.2969 L1368.5313,75.2969 C1368.0938,75.2969 1367.9688,75.3125 1367.8125,75.4219 C1367.5625,75.5781 1367.4063,75.8594 1367.4063,76.1563 C1367.4063,76.4063 1367.5469,76.6719 1367.7656,76.8281 C1367.9219,76.9531 1368.125,77 1368.5313,77 L1373.6719,77 C1374.4219,77 1374.7813,76.7188 1374.7813,76.1563 C1374.7813,75.875 1374.6719,75.625 1374.4375,75.4531 C1374.2656,75.3281 1374.125,75.2969 1373.6719,75.2969 L1371.9531,75.2969 L1371.9531,68.7813 Z " fill="#000000"/><text fill="#000000" font-family="sans-serif" font-size="14" font-style="italic" lengthAdjust="spacing" textLength="91" x="1385" y="76.8467">APIResponse</text><line style="stroke:#181818;stroke-width:0.5;" x1="1357" x2="1478" y1="88" y2="88"/><line style="stroke:#181818;stroke-width:0.5;" x1="1357" x2="1478" y1="96" y2="96"/></g><!--MD5=[9532e8bb65f5911e494d2b3b07d54c70]
class ErrorAPIResponse--><g id="elem_ErrorAPIResponse"><rect codeLine="13" fill="#F1F1F1" height="48" id="ErrorAPIResponse" rx="2.5" ry="2.5" style="stroke:#181818;stroke-width:0.5;" width="161" x="1237" y="581.5"/><ellipse cx="1252" cy="597.5" fill="#ADD1B2" rx="11" ry="11" style="stroke:#181818;stroke-width:1.0;"/><path d="M1254.3438,593.1719 C1253.4063,592.7344 1252.8125,592.5938 1251.9375,592.5938 C1249.3125,592.5938 1247.3125,594.6719 1247.3125,597.3906 L1247.3125,598.5156 C1247.3125,601.0938 1249.4219,602.9844 1252.3125,602.9844 C1253.5313,602.9844 1254.6875,602.6875 1255.4375,602.1406 C1256.0156,601.7344 1256.3438,601.2813 1256.3438,600.8906 C1256.3438,600.4375 1255.9531,600.0469 1255.4844,600.0469 C1255.2656,600.0469 1255.0625,600.125 1254.875,600.3125 C1254.4219,600.7969 1254.4219,600.7969 1254.2344,600.8906 C1253.8125,601.1563 1253.125,601.2813 1252.3594,601.2813 C1250.3125,601.2813 1249.0156,600.1875 1249.0156,598.4844 L1249.0156,597.3906 C1249.0156,595.6094 1250.2656,594.2969 1252,594.2969 C1252.5781,594.2969 1253.1875,594.4531 1253.6563,594.7031 C1254.1406,594.9844 1254.3125,595.2031 1254.4063,595.6094 C1254.4688,596.0156 1254.5,596.1406 1254.6406,596.2656 C1254.7813,596.4063 1255.0156,596.5156 1255.2344,596.5156 C1255.5,596.5156 1255.7656,596.375 1255.9375,596.1563 C1256.0469,596 1256.0781,595.8125 1256.0781,595.3906 L1256.0781,593.9688 C1256.0781,593.5313 1256.0625,593.4063 1255.9688,593.25 C1255.8125,592.9844 1255.5313,592.8438 1255.2344,592.8438 C1254.9375,592.8438 1254.7344,592.9375 1254.5156,593.25 L1254.3438,593.1719 Z " fill="#000000"/><text fill="#000000" font-family="sans-serif" font-size="14" lengthAdjust="spacing" textLength="129" x="1266" y="602.3467">ErrorAPIResponse</text><line style="stroke:#181818;stroke-width:0.5;" x1="1238" x2="1397" y1="613.5" y2="613.5"/><line style="stroke:#181818;stroke-width:0.5;" x1="1238" x2="1397" y1="621.5" y2="621.5"/></g><!--MD5=[ebf03a84ec3d1696651163c3149d6161]
class BaseDAO--><g id="elem_BaseDAO"><rect codeLine="14" fill="#F1F1F1" height="129.4844" id="BaseDAO" rx="2.5" ry="2.5" style="stroke:#181818;stroke-width:0.5;" width="643" x="1853" y="15.5"/><ellipse cx="2050.75" cy="31.5" fill="#A9DCDF" rx="11" ry="11" style="stroke:#181818;stroke-width:1.0;"/><path d="M2052.8281,33.3125 L2053.2188,34.2969 L2052.8281,34.2969 C2052.375,34.2969 2052.2656,34.3125 2052.1094,34.4219 C2051.8594,34.5781 2051.7031,34.8594 2051.7031,35.1563 C2051.7031,35.4219 2051.8438,35.6719 2052.0625,35.8281 C2052.2031,35.9531 2052.4063,36 2052.8281,36 L2055.1875,36 C2055.5469,36 2055.7656,35.9688 2055.9063,35.875 C2056.1563,35.7344 2056.3125,35.4375 2056.3125,35.1563 C2056.3125,34.875 2056.1719,34.625 2055.9531,34.4688 C2055.7813,34.3281 2055.625,34.2969 2055.1563,34.2969 L2051.7656,26.0938 L2048.0938,26.0938 C2047.6406,26.0938 2047.5156,26.1094 2047.3594,26.2031 C2047.1094,26.375 2046.9531,26.6563 2046.9531,26.9375 C2046.9531,27.2188 2047.0938,27.4688 2047.3125,27.6406 C2047.4844,27.75 2047.6563,27.7813 2048.0938,27.7813 L2049.1719,27.7813 L2046.5313,34.2969 C2046.1094,34.2969 2045.9531,34.3125 2045.7969,34.4219 C2045.5469,34.5781 2045.3906,34.8594 2045.3906,35.1563 C2045.3906,35.7188 2045.7656,36 2046.5156,36 L2048.7813,36 C2049.1406,36 2049.3594,35.9688 2049.4844,35.875 C2049.75,35.7344 2049.8906,35.4375 2049.8906,35.1563 C2049.8906,34.875 2049.7656,34.625 2049.5469,34.4531 C2049.375,34.3281 2049.2344,34.2969 2048.7813,34.2969 L2048.3906,34.2969 L2048.7813,33.3125 L2052.8281,33.3125 Z M2052.125,31.6094 L2049.4531,31.6094 L2050.7969,28.3438 L2052.125,31.6094 Z " fill="#000000"/><text fill="#000000" font-family="sans-serif" font-size="14" font-style="italic" lengthAdjust="spacing" textLength="67" x="2071.25" y="36.3467">BaseDAO</text><rect fill="#FFFFFF" height="15.9688" style="stroke:#000000;stroke-width:1.0;stroke-dasharray:2.0,2.0;" width="170" x="2329" y="12.5"/><text fill="#000000" font-family="sans-serif" font-size="12" font-style="italic" lengthAdjust="spacing" textLength="168" x="2330" y="24.6387">Schema extends Document</text><line style="stroke:#181818;stroke-width:0.5;" x1="1854" x2="2495" y1="47.5" y2="47.5"/><ellipse cx="1864" cy="58.5" fill="none" rx="3" ry="3" style="stroke:#038048;stroke-width:1.0;"/><text fill="#000000" font-family="sans-serif" font-size="14" font-style="italic" lengthAdjust="spacing" textLength="160" x="1873" y="64.4951">collectionName: string</text><ellipse cx="1864" cy="74.7969" fill="none" rx="3" ry="3" style="stroke:#038048;stroke-width:1.0;"/><text fill="#000000" font-family="sans-serif" font-size="14" lengthAdjust="spacing" textLength="441" x="1873" y="80.792">collection: Mongo.Collection&lt;Mongo.Document&gt; | undefined</text><line style="stroke:#181818;stroke-width:0.5;" x1="1854" x2="2495" y1="88.0938" y2="88.0938"/><ellipse cx="1864" cy="99.0938" fill="#84BE84" rx="3" ry="3" style="stroke:#038048;stroke-width:1.0;"/><text fill="#000000" font-family="sans-serif" font-size="14" lengthAdjust="spacing" textLength="339" x="1873" y="105.0889">insertOne(document: Schema): Promise&lt;void&gt;</text><ellipse cx="1864" cy="115.3906" fill="#84BE84" rx="3" ry="3" style="stroke:#038048;stroke-width:1.0;"/><text fill="#000000" font-family="sans-serif" font-size="14" lengthAdjust="spacing" textLength="550" x="1873" y="121.3857">findOne(filter: Mongo.Filter&lt;Schema&gt;): Promise&lt;Mongo.WithId&lt;Schema&gt;&gt;</text><ellipse cx="1864" cy="131.6875" fill="#84BE84" rx="3" ry="3" style="stroke:#038048;stroke-width:1.0;"/><text fill="#000000" font-family="sans-serif" font-size="14" lengthAdjust="spacing" textLength="617" x="1873" y="137.6826">updateOne(filter: Mongo.Filter&lt;Schema&gt;, update: Partial&lt;Schema&gt;): Promise&lt;void&gt;</text></g><!--MD5=[76ab8d192502cb4818e5b62d3136acdb]
class UserRegistrationFormData--><g id="elem_UserRegistrationFormData"><rect codeLine="21" fill="#F1F1F1" height="113.1875" id="UserRegistrationFormData" rx="2.5" ry="2.5" style="stroke:#181818;stroke-width:0.5;" width="273" x="305" y="23.5"/><ellipse cx="343.4" cy="39.5" fill="#B4A7E5" rx="11" ry="11" style="stroke:#181818;stroke-width:1.0;"/><path d="M344.3531,36.2813 L346.0719,36.2813 C346.4625,36.2813 346.65,36.25 346.775,36.1719 C347.0406,36.0156 347.1813,35.7344 347.1813,35.4375 C347.1813,35.1719 347.0719,34.9063 346.8375,34.7344 C346.6656,34.625 346.525,34.5938 346.0719,34.5938 L340.9313,34.5938 C340.4938,34.5938 340.3688,34.6094 340.2125,34.7031 C339.9625,34.8594 339.8063,35.1563 339.8063,35.4375 C339.8063,35.7188 339.9469,35.9688 340.1656,36.1406 C340.3219,36.25 340.5094,36.2813 340.9313,36.2813 L342.65,36.2813 L342.65,42.7969 L340.9313,42.7969 C340.4938,42.7969 340.3688,42.8125 340.2125,42.9219 C339.9625,43.0781 339.8063,43.3594 339.8063,43.6563 C339.8063,43.9063 339.9469,44.1719 340.1656,44.3281 C340.3219,44.4531 340.525,44.5 340.9313,44.5 L346.0719,44.5 C346.8219,44.5 347.1813,44.2188 347.1813,43.6563 C347.1813,43.375 347.0719,43.125 346.8375,42.9531 C346.6656,42.8281 346.525,42.7969 346.0719,42.7969 L344.3531,42.7969 L344.3531,36.2813 Z " fill="#000000"/><text fill="#000000" font-family="sans-serif" font-size="14" font-style="italic" lengthAdjust="spacing" textLength="189" x="362.6" y="44.3467">UserRegistrationFormData</text><line style="stroke:#181818;stroke-width:0.5;" x1="306" x2="577" y1="55.5" y2="55.5"/><ellipse cx="316" cy="66.5" fill="none" rx="3" ry="3" style="stroke:#038048;stroke-width:1.0;"/><text fill="#000000" font-family="sans-serif" font-size="14" lengthAdjust="spacing" textLength="247" x="325" y="72.4951">name: { first: string; last: string; }</text><ellipse cx="316" cy="82.7969" fill="none" rx="3" ry="3" style="stroke:#038048;stroke-width:1.0;"/><text fill="#000000" font-family="sans-serif" font-size="14" lengthAdjust="spacing" textLength="121" x="325" y="88.792">username: string</text><ellipse cx="316" cy="99.0938" fill="none" rx="3" ry="3" style="stroke:#038048;stroke-width:1.0;"/><text fill="#000000" font-family="sans-serif" font-size="14" lengthAdjust="spacing" textLength="118" x="325" y="105.0889">password: string</text><ellipse cx="316" cy="115.3906" fill="none" rx="3" ry="3" style="stroke:#038048;stroke-width:1.0;"/><text fill="#000000" font-family="sans-serif" font-size="14" lengthAdjust="spacing" textLength="90" x="325" y="121.3857">email: string</text><line style="stroke:#181818;stroke-width:0.5;" x1="306" x2="577" y1="128.6875" y2="128.6875"/></g><!--MD5=[73dce865cdb77af8e73c9f48f4f93ade]
class UserLoginFormData--><g id="elem_UserLoginFormData"><rect codeLine="27" fill="#F1F1F1" height="80.5938" id="UserLoginFormData" rx="2.5" ry="2.5" style="stroke:#181818;stroke-width:0.5;" width="174" x="613.5" y="39.5"/><ellipse cx="628.5" cy="55.5" fill="#B4A7E5" rx="11" ry="11" style="stroke:#181818;stroke-width:1.0;"/><path d="M629.4531,52.2813 L631.1719,52.2813 C631.5625,52.2813 631.75,52.25 631.875,52.1719 C632.1406,52.0156 632.2813,51.7344 632.2813,51.4375 C632.2813,51.1719 632.1719,50.9063 631.9375,50.7344 C631.7656,50.625 631.625,50.5938 631.1719,50.5938 L626.0313,50.5938 C625.5938,50.5938 625.4688,50.6094 625.3125,50.7031 C625.0625,50.8594 624.9063,51.1563 624.9063,51.4375 C624.9063,51.7188 625.0469,51.9688 625.2656,52.1406 C625.4219,52.25 625.6094,52.2813 626.0313,52.2813 L627.75,52.2813 L627.75,58.7969 L626.0313,58.7969 C625.5938,58.7969 625.4688,58.8125 625.3125,58.9219 C625.0625,59.0781 624.9063,59.3594 624.9063,59.6563 C624.9063,59.9063 625.0469,60.1719 625.2656,60.3281 C625.4219,60.4531 625.625,60.5 626.0313,60.5 L631.1719,60.5 C631.9219,60.5 632.2813,60.2188 632.2813,59.6563 C632.2813,59.375 632.1719,59.125 631.9375,58.9531 C631.7656,58.8281 631.625,58.7969 631.1719,58.7969 L629.4531,58.7969 L629.4531,52.2813 Z " fill="#000000"/><text fill="#000000" font-family="sans-serif" font-size="14" font-style="italic" lengthAdjust="spacing" textLength="142" x="642.5" y="60.3467">UserLoginFormData</text><line style="stroke:#181818;stroke-width:0.5;" x1="614.5" x2="786.5" y1="71.5" y2="71.5"/><ellipse cx="624.5" cy="82.5" fill="none" rx="3" ry="3" style="stroke:#038048;stroke-width:1.0;"/><text fill="#000000" font-family="sans-serif" font-size="14" lengthAdjust="spacing" textLength="81" x="633.5" y="88.4951">user: string</text><ellipse cx="624.5" cy="98.7969" fill="none" rx="3" ry="3" style="stroke:#038048;stroke-width:1.0;"/><text fill="#000000" font-family="sans-serif" font-size="14" lengthAdjust="spacing" textLength="118" x="633.5" y="104.792">password: string</text><line style="stroke:#181818;stroke-width:0.5;" x1="614.5" x2="786.5" y1="112.0938" y2="112.0938"/></g><!--MD5=[4397ba3f25468a58f081bf0666d83f60]
class IUser--><g id="elem_IUser"><rect codeLine="31" fill="#F1F1F1" height="145.7813" id="IUser" rx="2.5" ry="2.5" style="stroke:#181818;stroke-width:0.5;" width="273" x="2479" y="278"/><ellipse cx="2593.25" cy="294" fill="#B4A7E5" rx="11" ry="11" style="stroke:#181818;stroke-width:1.0;"/><path d="M2594.2031,290.7813 L2595.9219,290.7813 C2596.3125,290.7813 2596.5,290.75 2596.625,290.6719 C2596.8906,290.5156 2597.0313,290.2344 2597.0313,289.9375 C2597.0313,289.6719 2596.9219,289.4063 2596.6875,289.2344 C2596.5156,289.125 2596.375,289.0938 2595.9219,289.0938 L2590.7813,289.0938 C2590.3438,289.0938 2590.2188,289.1094 2590.0625,289.2031 C2589.8125,289.3594 2589.6563,289.6563 2589.6563,289.9375 C2589.6563,290.2188 2589.7969,290.4688 2590.0156,290.6406 C2590.1719,290.75 2590.3594,290.7813 2590.7813,290.7813 L2592.5,290.7813 L2592.5,297.2969 L2590.7813,297.2969 C2590.3438,297.2969 2590.2188,297.3125 2590.0625,297.4219 C2589.8125,297.5781 2589.6563,297.8594 2589.6563,298.1563 C2589.6563,298.4063 2589.7969,298.6719 2590.0156,298.8281 C2590.1719,298.9531 2590.375,299 2590.7813,299 L2595.9219,299 C2596.6719,299 2597.0313,298.7188 2597.0313,298.1563 C2597.0313,297.875 2596.9219,297.625 2596.6875,297.4531 C2596.5156,297.3281 2596.375,297.2969 2595.9219,297.2969 L2594.2031,297.2969 L2594.2031,290.7813 Z " fill="#000000"/><text fill="#000000" font-family="sans-serif" font-size="14" font-style="italic" lengthAdjust="spacing" textLength="36" x="2613.75" y="298.8467">IUser</text><line style="stroke:#181818;stroke-width:0.5;" x1="2480" x2="2751" y1="310" y2="310"/><ellipse cx="2490" cy="321" fill="none" rx="3" ry="3" style="stroke:#038048;stroke-width:1.0;"/><text fill="#000000" font-family="sans-serif" font-size="14" lengthAdjust="spacing" textLength="183" x="2499" y="326.9951">_id?: ObjectId | undefined</text><ellipse cx="2490" cy="337.2969" fill="none" rx="3" ry="3" style="stroke:#038048;stroke-width:1.0;"/><text fill="#000000" font-family="sans-serif" font-size="14" lengthAdjust="spacing" textLength="247" x="2499" y="343.292">name: { first: string; last: string; }</text><ellipse cx="2490" cy="353.5938" fill="none" rx="3" ry="3" style="stroke:#038048;stroke-width:1.0;"/><text fill="#000000" font-family="sans-serif" font-size="14" lengthAdjust="spacing" textLength="90" x="2499" y="359.5889">email: string</text><ellipse cx="2490" cy="369.8906" fill="none" rx="3" ry="3" style="stroke:#038048;stroke-width:1.0;"/><text fill="#000000" font-family="sans-serif" font-size="14" lengthAdjust="spacing" textLength="121" x="2499" y="375.8857">username: string</text><ellipse cx="2490" cy="386.1875" fill="none" rx="3" ry="3" style="stroke:#038048;stroke-width:1.0;"/><text fill="#000000" font-family="sans-serif" font-size="14" lengthAdjust="spacing" textLength="118" x="2499" y="392.1826">password: string</text><ellipse cx="2490" cy="402.4844" fill="none" rx="3" ry="3" style="stroke:#038048;stroke-width:1.0;"/><text fill="#000000" font-family="sans-serif" font-size="14" lengthAdjust="spacing" textLength="100" x="2499" y="408.4795">auths: string[]</text><line style="stroke:#181818;stroke-width:0.5;" x1="2480" x2="2751" y1="415.7813" y2="415.7813"/></g><!--MD5=[59b530d44ae785dc18db921986a9c15c]
class Document--><g id="elem_Document"><rect fill="#F1F1F1" height="48" id="Document" rx="2.5" ry="2.5" style="stroke:#181818;stroke-width:0.5;" width="106" x="2562.5" y="56"/><ellipse cx="2577.5" cy="72" fill="#B4A7E5" rx="11" ry="11" style="stroke:#181818;stroke-width:1.0;"/><path d="M2578.4531,68.7813 L2580.1719,68.7813 C2580.5625,68.7813 2580.75,68.75 2580.875,68.6719 C2581.1406,68.5156 2581.2813,68.2344 2581.2813,67.9375 C2581.2813,67.6719 2581.1719,67.4063 2580.9375,67.2344 C2580.7656,67.125 2580.625,67.0938 2580.1719,67.0938 L2575.0313,67.0938 C2574.5938,67.0938 2574.4688,67.1094 2574.3125,67.2031 C2574.0625,67.3594 2573.9063,67.6563 2573.9063,67.9375 C2573.9063,68.2188 2574.0469,68.4688 2574.2656,68.6406 C2574.4219,68.75 2574.6094,68.7813 2575.0313,68.7813 L2576.75,68.7813 L2576.75,75.2969 L2575.0313,75.2969 C2574.5938,75.2969 2574.4688,75.3125 2574.3125,75.4219 C2574.0625,75.5781 2573.9063,75.8594 2573.9063,76.1563 C2573.9063,76.4063 2574.0469,76.6719 2574.2656,76.8281 C2574.4219,76.9531 2574.625,77 2575.0313,77 L2580.1719,77 C2580.9219,77 2581.2813,76.7188 2581.2813,76.1563 C2581.2813,75.875 2581.1719,75.625 2580.9375,75.4531 C2580.7656,75.3281 2580.625,75.2969 2580.1719,75.2969 L2578.4531,75.2969 L2578.4531,68.7813 Z " fill="#000000"/><text fill="#000000" font-family="sans-serif" font-size="14" font-style="italic" lengthAdjust="spacing" textLength="74" x="2591.5" y="76.8467">Document</text><line style="stroke:#181818;stroke-width:0.5;" x1="2563.5" x2="2667.5" y1="88" y2="88"/><line style="stroke:#181818;stroke-width:0.5;" x1="2563.5" x2="2667.5" y1="96" y2="96"/></g><!--MD5=[e036894509db5986c948eb9d369df05f]
class AuthInfo--><g id="elem_AuthInfo"><rect codeLine="39" fill="#F1F1F1" height="80.5938" id="AuthInfo" rx="2.5" ry="2.5" style="stroke:#181818;stroke-width:0.5;" width="118" x="84.5" y="310.5"/><ellipse cx="111.2" cy="326.5" fill="#B4A7E5" rx="11" ry="11" style="stroke:#181818;stroke-width:1.0;"/><path d="M112.1531,323.2813 L113.8719,323.2813 C114.2625,323.2813 114.45,323.25 114.575,323.1719 C114.8406,323.0156 114.9813,322.7344 114.9813,322.4375 C114.9813,322.1719 114.8719,321.9063 114.6375,321.7344 C114.4656,321.625 114.325,321.5938 113.8719,321.5938 L108.7313,321.5938 C108.2938,321.5938 108.1688,321.6094 108.0125,321.7031 C107.7625,321.8594 107.6063,322.1563 107.6063,322.4375 C107.6063,322.7188 107.7469,322.9688 107.9656,323.1406 C108.1219,323.25 108.3094,323.2813 108.7313,323.2813 L110.45,323.2813 L110.45,329.7969 L108.7313,329.7969 C108.2938,329.7969 108.1688,329.8125 108.0125,329.9219 C107.7625,330.0781 107.6063,330.3594 107.6063,330.6563 C107.6063,330.9063 107.7469,331.1719 107.9656,331.3281 C108.1219,331.4531 108.325,331.5 108.7313,331.5 L113.8719,331.5 C114.6219,331.5 114.9813,331.2188 114.9813,330.6563 C114.9813,330.375 114.8719,330.125 114.6375,329.9531 C114.4656,329.8281 114.325,329.7969 113.8719,329.7969 L112.1531,329.7969 L112.1531,323.2813 Z " fill="#000000"/><text fill="#000000" font-family="sans-serif" font-size="14" font-style="italic" lengthAdjust="spacing" textLength="60" x="127.8" y="331.3467">AuthInfo</text><line style="stroke:#181818;stroke-width:0.5;" x1="85.5" x2="201.5" y1="342.5" y2="342.5"/><ellipse cx="95.5" cy="353.5" fill="none" rx="3" ry="3" style="stroke:#038048;stroke-width:1.0;"/><text fill="#000000" font-family="sans-serif" font-size="14" lengthAdjust="spacing" textLength="92" x="104.5" y="359.4951">uid: ObjectId</text><ellipse cx="95.5" cy="369.7969" fill="none" rx="3" ry="3" style="stroke:#038048;stroke-width:1.0;"/><text fill="#000000" font-family="sans-serif" font-size="14" lengthAdjust="spacing" textLength="77" x="104.5" y="375.792">key: string</text><line style="stroke:#181818;stroke-width:0.5;" x1="85.5" x2="201.5" y1="383.0938" y2="383.0938"/></g><!--MD5=[6f49855a2f41b15b7be64856ff30349b]
class UserDAO--><g id="elem_UserDAO"><rect codeLine="43" fill="#F1F1F1" height="129.4844" id="UserDAO" rx="2.5" ry="2.5" style="stroke:#181818;stroke-width:0.5;" width="538" x="1905.5" y="286.5"/><ellipse cx="2138.75" cy="302.5" fill="#ADD1B2" rx="11" ry="11" style="stroke:#181818;stroke-width:1.0;"/><path d="M2141.0938,298.1719 C2140.1563,297.7344 2139.5625,297.5938 2138.6875,297.5938 C2136.0625,297.5938 2134.0625,299.6719 2134.0625,302.3906 L2134.0625,303.5156 C2134.0625,306.0938 2136.1719,307.9844 2139.0625,307.9844 C2140.2813,307.9844 2141.4375,307.6875 2142.1875,307.1406 C2142.7656,306.7344 2143.0938,306.2813 2143.0938,305.8906 C2143.0938,305.4375 2142.7031,305.0469 2142.2344,305.0469 C2142.0156,305.0469 2141.8125,305.125 2141.625,305.3125 C2141.1719,305.7969 2141.1719,305.7969 2140.9844,305.8906 C2140.5625,306.1563 2139.875,306.2813 2139.1094,306.2813 C2137.0625,306.2813 2135.7656,305.1875 2135.7656,303.4844 L2135.7656,302.3906 C2135.7656,300.6094 2137.0156,299.2969 2138.75,299.2969 C2139.3281,299.2969 2139.9375,299.4531 2140.4063,299.7031 C2140.8906,299.9844 2141.0625,300.2031 2141.1563,300.6094 C2141.2188,301.0156 2141.25,301.1406 2141.3906,301.2656 C2141.5313,301.4063 2141.7656,301.5156 2141.9844,301.5156 C2142.25,301.5156 2142.5156,301.375 2142.6875,301.1563 C2142.7969,301 2142.8281,300.8125 2142.8281,300.3906 L2142.8281,298.9688 C2142.8281,298.5313 2142.8125,298.4063 2142.7188,298.25 C2142.5625,297.9844 2142.2813,297.8438 2141.9844,297.8438 C2141.6875,297.8438 2141.4844,297.9375 2141.2656,298.25 L2141.0938,298.1719 Z " fill="#000000"/><text fill="#000000" font-family="sans-serif" font-size="14" lengthAdjust="spacing" textLength="63" x="2159.25" y="307.3467">UserDAO</text><line style="stroke:#181818;stroke-width:0.5;" x1="1906.5" x2="2442.5" y1="318.5" y2="318.5"/><ellipse cx="1916.5" cy="329.5" fill="none" rx="3" ry="3" style="stroke:#038048;stroke-width:1.0;"/><text fill="#000000" font-family="sans-serif" font-size="14" lengthAdjust="spacing" textLength="163" x="1925.5" y="335.4951">collectionName: string</text><line style="stroke:#181818;stroke-width:0.5;" x1="1906.5" x2="2442.5" y1="342.7969" y2="342.7969"/><ellipse cx="1916.5" cy="353.7969" fill="#84BE84" rx="3" ry="3" style="stroke:#038048;stroke-width:1.0;"/><text fill="#000000" font-family="sans-serif" font-size="14" lengthAdjust="spacing" textLength="476" x="1925.5" y="359.792">createUser(formData: UserRegistrationFormData): Promise&lt;void&gt;</text><ellipse cx="1916.5" cy="370.0938" fill="#84BE84" rx="3" ry="3" style="stroke:#038048;stroke-width:1.0;"/><text fill="#000000" font-family="sans-serif" font-size="14" lengthAdjust="spacing" textLength="512" x="1925.5" y="376.0889">authenticateLogin(formData: UserLoginFormData): Promise&lt;AuthInfo&gt;</text><ellipse cx="1916.5" cy="386.3906" fill="#84BE84" rx="3" ry="3" style="stroke:#038048;stroke-width:1.0;"/><text fill="#000000" font-family="sans-serif" font-size="14" lengthAdjust="spacing" textLength="454" x="1925.5" y="392.3857">authenticateKey(uid: ObjectId, key: string): Promise&lt;boolean&gt;</text><rect fill="#F24D5C" height="6" style="stroke:#C82930;stroke-width:1.0;" width="6" x="1913.5" y="399.6875"/><text fill="#000000" font-family="sans-serif" font-size="14" lengthAdjust="spacing" textLength="188" x="1925.5" y="408.6826">generateAuthKey(): string</text></g><!--MD5=[f41a2a69ef6870569400a9d90f983dee]
class ChessGame--><g id="elem_ChessGame"><rect codeLine="50" fill="#F1F1F1" height="276.1563" id="ChessGame" rx="2.5" ry="2.5" style="stroke:#181818;stroke-width:0.5;" width="378" x="237.5" y="213"/><ellipse cx="380.25" cy="229" fill="#ADD1B2" rx="11" ry="11" style="stroke:#181818;stroke-width:1.0;"/><path d="M382.5938,224.6719 C381.6563,224.2344 381.0625,224.0938 380.1875,224.0938 C377.5625,224.0938 375.5625,226.1719 375.5625,228.8906 L375.5625,230.0156 C375.5625,232.5938 377.6719,234.4844 380.5625,234.4844 C381.7813,234.4844 382.9375,234.1875 383.6875,233.6406 C384.2656,233.2344 384.5938,232.7813 384.5938,232.3906 C384.5938,231.9375 384.2031,231.5469 383.7344,231.5469 C383.5156,231.5469 383.3125,231.625 383.125,231.8125 C382.6719,232.2969 382.6719,232.2969 382.4844,232.3906 C382.0625,232.6563 381.375,232.7813 380.6094,232.7813 C378.5625,232.7813 377.2656,231.6875 377.2656,229.9844 L377.2656,228.8906 C377.2656,227.1094 378.5156,225.7969 380.25,225.7969 C380.8281,225.7969 381.4375,225.9531 381.9063,226.2031 C382.3906,226.4844 382.5625,226.7031 382.6563,227.1094 C382.7188,227.5156 382.75,227.6406 382.8906,227.7656 C383.0313,227.9063 383.2656,228.0156 383.4844,228.0156 C383.75,228.0156 384.0156,227.875 384.1875,227.6563 C384.2969,227.5 384.3281,227.3125 384.3281,226.8906 L384.3281,225.4688 C384.3281,225.0313 384.3125,224.9063 384.2188,224.75 C384.0625,224.4844 383.7813,224.3438 383.4844,224.3438 C383.1875,224.3438 382.9844,224.4375 382.7656,224.75 L382.5938,224.6719 Z " fill="#000000"/><text fill="#000000" font-family="sans-serif" font-size="14" lengthAdjust="spacing" textLength="84" x="400.75" y="233.8467">ChessGame</text><line style="stroke:#181818;stroke-width:0.5;" x1="238.5" x2="614.5" y1="245" y2="245"/><ellipse cx="248.5" cy="256" fill="none" rx="3" ry="3" style="stroke:#038048;stroke-width:1.0;"/><text fill="#000000" font-family="sans-serif" font-size="14" lengthAdjust="spacing" textLength="128" x="257.5" y="261.9951">gameKey: string[]</text><rect fill="none" height="6" style="stroke:#C82930;stroke-width:1.0;" width="6" x="245.5" y="269.2969"/><text fill="#000000" font-family="sans-serif" font-size="14" lengthAdjust="spacing" textLength="152" x="257.5" y="278.292">game: ChessInstance</text><rect fill="none" height="6" style="stroke:#C82930;stroke-width:1.0;" width="6" x="245.5" y="285.5938"/><text fill="#000000" font-family="sans-serif" font-size="14" lengthAdjust="spacing" textLength="182" x="257.5" y="294.5889">_black?: IUser | undefined</text><rect fill="none" height="6" style="stroke:#C82930;stroke-width:1.0;" width="6" x="245.5" y="301.8906"/><text fill="#000000" font-family="sans-serif" font-size="14" lengthAdjust="spacing" textLength="183" x="257.5" y="310.8857">_white?: IUser | undefined</text><rect fill="none" height="6" style="stroke:#C82930;stroke-width:1.0;" width="6" x="245.5" y="318.1875"/><text fill="#000000" font-family="sans-serif" font-size="14" lengthAdjust="spacing" textLength="196" x="257.5" y="327.1826">messages: IGameMessage[]</text><ellipse cx="248.5" cy="337.4844" fill="none" rx="3" ry="3" style="stroke:#038048;stroke-width:1.0;"/><text fill="#000000" font-family="sans-serif" font-size="14" lengthAdjust="spacing" textLength="168" x="257.5" y="343.4795">black: IUser | undefined</text><ellipse cx="248.5" cy="353.7813" fill="none" rx="3" ry="3" style="stroke:#038048;stroke-width:1.0;"/><text fill="#000000" font-family="sans-serif" font-size="14" lengthAdjust="spacing" textLength="168" x="257.5" y="359.7764">black: IUser | undefined</text><ellipse cx="248.5" cy="370.0781" fill="none" rx="3" ry="3" style="stroke:#038048;stroke-width:1.0;"/><text fill="#000000" font-family="sans-serif" font-size="14" lengthAdjust="spacing" textLength="169" x="257.5" y="376.0732">white: IUser | undefined</text><ellipse cx="248.5" cy="386.375" fill="none" rx="3" ry="3" style="stroke:#038048;stroke-width:1.0;"/><text fill="#000000" font-family="sans-serif" font-size="14" lengthAdjust="spacing" textLength="169" x="257.5" y="392.3701">white: IUser | undefined</text><ellipse cx="248.5" cy="402.6719" fill="none" rx="3" ry="3" style="stroke:#038048;stroke-width:1.0;"/><text fill="#000000" font-family="sans-serif" font-size="14" lengthAdjust="spacing" textLength="75" x="257.5" y="408.667">fen: string</text><line style="stroke:#181818;stroke-width:0.5;" x1="238.5" x2="614.5" y1="415.9688" y2="415.9688"/><ellipse cx="248.5" cy="426.9688" fill="#84BE84" rx="3" ry="3" style="stroke:#038048;stroke-width:1.0;"/><text fill="#000000" font-family="sans-serif" font-size="14" lengthAdjust="spacing" textLength="315" x="257.5" y="432.9639">addMessage(message: IGameMessage): void</text><ellipse cx="248.5" cy="443.2656" fill="#84BE84" rx="3" ry="3" style="stroke:#038048;stroke-width:1.0;"/><text fill="#000000" font-family="sans-serif" font-size="14" lengthAdjust="spacing" textLength="229" x="257.5" y="449.2607">getMessages(): IGameMessage[]</text><ellipse cx="248.5" cy="459.5625" fill="#84BE84" rx="3" ry="3" style="stroke:#038048;stroke-width:1.0;"/><text fill="#000000" font-family="sans-serif" font-size="14" lengthAdjust="spacing" textLength="352" x="257.5" y="465.5576">move(source: Square, target: Square): Move | null</text><ellipse cx="248.5" cy="475.8594" fill="#84BE84" rx="3" ry="3" style="stroke:#038048;stroke-width:1.0;"/><text fill="#000000" font-family="sans-serif" font-size="14" lengthAdjust="spacing" text-decoration="underline" textLength="206" x="257.5" y="481.8545">generateGameKey(): string[]</text></g><!--MD5=[1165ac2cc0b65b7540d69244297d9fd3]
class GameCreatedAPIResponse--><g id="elem_GameCreatedAPIResponse"><rect codeLine="66" fill="#F1F1F1" height="64.2969" id="GameCreatedAPIResponse" rx="2.5" ry="2.5" style="stroke:#181818;stroke-width:0.5;" width="225" x="977" y="573.5"/><ellipse cx="992" cy="589.5" fill="#ADD1B2" rx="11" ry="11" style="stroke:#181818;stroke-width:1.0;"/><path d="M994.3438,585.1719 C993.4063,584.7344 992.8125,584.5938 991.9375,584.5938 C989.3125,584.5938 987.3125,586.6719 987.3125,589.3906 L987.3125,590.5156 C987.3125,593.0938 989.4219,594.9844 992.3125,594.9844 C993.5313,594.9844 994.6875,594.6875 995.4375,594.1406 C996.0156,593.7344 996.3438,593.2813 996.3438,592.8906 C996.3438,592.4375 995.9531,592.0469 995.4844,592.0469 C995.2656,592.0469 995.0625,592.125 994.875,592.3125 C994.4219,592.7969 994.4219,592.7969 994.2344,592.8906 C993.8125,593.1563 993.125,593.2813 992.3594,593.2813 C990.3125,593.2813 989.0156,592.1875 989.0156,590.4844 L989.0156,589.3906 C989.0156,587.6094 990.2656,586.2969 992,586.2969 C992.5781,586.2969 993.1875,586.4531 993.6563,586.7031 C994.1406,586.9844 994.3125,587.2031 994.4063,587.6094 C994.4688,588.0156 994.5,588.1406 994.6406,588.2656 C994.7813,588.4063 995.0156,588.5156 995.2344,588.5156 C995.5,588.5156 995.7656,588.375 995.9375,588.1563 C996.0469,588 996.0781,587.8125 996.0781,587.3906 L996.0781,585.9688 C996.0781,585.5313 996.0625,585.4063 995.9688,585.25 C995.8125,584.9844 995.5313,584.8438 995.2344,584.8438 C994.9375,584.8438 994.7344,584.9375 994.5156,585.25 L994.3438,585.1719 Z " fill="#000000"/><text fill="#000000" font-family="sans-serif" font-size="14" lengthAdjust="spacing" textLength="193" x="1006" y="594.3467">GameCreatedAPIResponse</text><line style="stroke:#181818;stroke-width:0.5;" x1="978" x2="1201" y1="605.5" y2="605.5"/><ellipse cx="988" cy="616.5" fill="none" rx="3" ry="3" style="stroke:#038048;stroke-width:1.0;"/><text fill="#000000" font-family="sans-serif" font-size="14" lengthAdjust="spacing" textLength="128" x="997" y="622.4951">gameKey: string[]</text><line style="stroke:#181818;stroke-width:0.5;" x1="978" x2="1201" y1="629.7969" y2="629.7969"/></g><!--MD5=[e4d16eb279c1bc91b2fb6f1f03ed5ed5]
class IGameCreatedAPIResponse--><g id="elem_IGameCreatedAPIResponse"><rect fill="#F1F1F1" height="48" id="IGameCreatedAPIResponse" rx="2.5" ry="2.5" style="stroke:#181818;stroke-width:0.5;" width="227" x="976" y="327"/><ellipse cx="991" cy="343" fill="#B4A7E5" rx="11" ry="11" style="stroke:#181818;stroke-width:1.0;"/><path d="M991.9531,339.7813 L993.6719,339.7813 C994.0625,339.7813 994.25,339.75 994.375,339.6719 C994.6406,339.5156 994.7813,339.2344 994.7813,338.9375 C994.7813,338.6719 994.6719,338.4063 994.4375,338.2344 C994.2656,338.125 994.125,338.0938 993.6719,338.0938 L988.5313,338.0938 C988.0938,338.0938 987.9688,338.1094 987.8125,338.2031 C987.5625,338.3594 987.4063,338.6563 987.4063,338.9375 C987.4063,339.2188 987.5469,339.4688 987.7656,339.6406 C987.9219,339.75 988.1094,339.7813 988.5313,339.7813 L990.25,339.7813 L990.25,346.2969 L988.5313,346.2969 C988.0938,346.2969 987.9688,346.3125 987.8125,346.4219 C987.5625,346.5781 987.4063,346.8594 987.4063,347.1563 C987.4063,347.4063 987.5469,347.6719 987.7656,347.8281 C987.9219,347.9531 988.125,348 988.5313,348 L993.6719,348 C994.4219,348 994.7813,347.7188 994.7813,347.1563 C994.7813,346.875 994.6719,346.625 994.4375,346.4531 C994.2656,346.3281 994.125,346.2969 993.6719,346.2969 L991.9531,346.2969 L991.9531,339.7813 Z " fill="#000000"/><text fill="#000000" font-family="sans-serif" font-size="14" font-style="italic" lengthAdjust="spacing" textLength="195" x="1005" y="347.8467">IGameCreatedAPIResponse</text><line style="stroke:#181818;stroke-width:0.5;" x1="977" x2="1202" y1="359" y2="359"/><line style="stroke:#181818;stroke-width:0.5;" x1="977" x2="1202" y1="367" y2="367"/></g><!--MD5=[61f9e58bb2d8e8aaddf674173363ffe3]
class GameMessagesAPIResponse--><g id="elem_GameMessagesAPIResponse"><rect codeLine="69" fill="#F1F1F1" height="64.2969" id="GameMessagesAPIResponse" rx="2.5" ry="2.5" style="stroke:#181818;stroke-width:0.5;" width="235" x="1633" y="573.5"/><ellipse cx="1648" cy="589.5" fill="#ADD1B2" rx="11" ry="11" style="stroke:#181818;stroke-width:1.0;"/><path d="M1650.3438,585.1719 C1649.4063,584.7344 1648.8125,584.5938 1647.9375,584.5938 C1645.3125,584.5938 1643.3125,586.6719 1643.3125,589.3906 L1643.3125,590.5156 C1643.3125,593.0938 1645.4219,594.9844 1648.3125,594.9844 C1649.5313,594.9844 1650.6875,594.6875 1651.4375,594.1406 C1652.0156,593.7344 1652.3438,593.2813 1652.3438,592.8906 C1652.3438,592.4375 1651.9531,592.0469 1651.4844,592.0469 C1651.2656,592.0469 1651.0625,592.125 1650.875,592.3125 C1650.4219,592.7969 1650.4219,592.7969 1650.2344,592.8906 C1649.8125,593.1563 1649.125,593.2813 1648.3594,593.2813 C1646.3125,593.2813 1645.0156,592.1875 1645.0156,590.4844 L1645.0156,589.3906 C1645.0156,587.6094 1646.2656,586.2969 1648,586.2969 C1648.5781,586.2969 1649.1875,586.4531 1649.6563,586.7031 C1650.1406,586.9844 1650.3125,587.2031 1650.4063,587.6094 C1650.4688,588.0156 1650.5,588.1406 1650.6406,588.2656 C1650.7813,588.4063 1651.0156,588.5156 1651.2344,588.5156 C1651.5,588.5156 1651.7656,588.375 1651.9375,588.1563 C1652.0469,588 1652.0781,587.8125 1652.0781,587.3906 L1652.0781,585.9688 C1652.0781,585.5313 1652.0625,585.4063 1651.9688,585.25 C1651.8125,584.9844 1651.5313,584.8438 1651.2344,584.8438 C1650.9375,584.8438 1650.7344,584.9375 1650.5156,585.25 L1650.3438,585.1719 Z " fill="#000000"/><text fill="#000000" font-family="sans-serif" font-size="14" lengthAdjust="spacing" textLength="203" x="1662" y="594.3467">GameMessagesAPIResponse</text><line style="stroke:#181818;stroke-width:0.5;" x1="1634" x2="1867" y1="605.5" y2="605.5"/><ellipse cx="1644" cy="616.5" fill="none" rx="3" ry="3" style="stroke:#038048;stroke-width:1.0;"/><text fill="#000000" font-family="sans-serif" font-size="14" lengthAdjust="spacing" textLength="196" x="1653" y="622.4951">messages: IGameMessage[]</text><line style="stroke:#181818;stroke-width:0.5;" x1="1634" x2="1867" y1="629.7969" y2="629.7969"/></g><!--MD5=[4f5ab9dde5f68ad0545d0a4774f13e42]
class IGameMessagesAPIResponse--><g id="elem_IGameMessagesAPIResponse"><rect fill="#F1F1F1" height="48" id="IGameMessagesAPIResponse" rx="2.5" ry="2.5" style="stroke:#181818;stroke-width:0.5;" width="239" x="1631" y="327"/><ellipse cx="1646" cy="343" fill="#B4A7E5" rx="11" ry="11" style="stroke:#181818;stroke-width:1.0;"/><path d="M1646.9531,339.7813 L1648.6719,339.7813 C1649.0625,339.7813 1649.25,339.75 1649.375,339.6719 C1649.6406,339.5156 1649.7813,339.2344 1649.7813,338.9375 C1649.7813,338.6719 1649.6719,338.4063 1649.4375,338.2344 C1649.2656,338.125 1649.125,338.0938 1648.6719,338.0938 L1643.5313,338.0938 C1643.0938,338.0938 1642.9688,338.1094 1642.8125,338.2031 C1642.5625,338.3594 1642.4063,338.6563 1642.4063,338.9375 C1642.4063,339.2188 1642.5469,339.4688 1642.7656,339.6406 C1642.9219,339.75 1643.1094,339.7813 1643.5313,339.7813 L1645.25,339.7813 L1645.25,346.2969 L1643.5313,346.2969 C1643.0938,346.2969 1642.9688,346.3125 1642.8125,346.4219 C1642.5625,346.5781 1642.4063,346.8594 1642.4063,347.1563 C1642.4063,347.4063 1642.5469,347.6719 1642.7656,347.8281 C1642.9219,347.9531 1643.125,348 1643.5313,348 L1648.6719,348 C1649.4219,348 1649.7813,347.7188 1649.7813,347.1563 C1649.7813,346.875 1649.6719,346.625 1649.4375,346.4531 C1649.2656,346.3281 1649.125,346.2969 1648.6719,346.2969 L1646.9531,346.2969 L1646.9531,339.7813 Z " fill="#000000"/><text fill="#000000" font-family="sans-serif" font-size="14" font-style="italic" lengthAdjust="spacing" textLength="207" x="1660" y="347.8467">IGameMessagesAPIResponse</text><line style="stroke:#181818;stroke-width:0.5;" x1="1632" x2="1869" y1="359" y2="359"/><line style="stroke:#181818;stroke-width:0.5;" x1="1632" x2="1869" y1="367" y2="367"/></g><!--MD5=[b28b797a8bb52c5d797eb4874e8b08fe]
class ArrayUtils--><g id="elem_ArrayUtils"><rect codeLine="72" fill="#F1F1F1" height="64.2969" id="ArrayUtils" rx="2.5" ry="2.5" style="stroke:#181818;stroke-width:0.5;" width="290" x="650.5" y="319"/><ellipse cx="756.75" cy="335" fill="#ADD1B2" rx="11" ry="11" style="stroke:#181818;stroke-width:1.0;"/><path d="M759.0938,330.6719 C758.1563,330.2344 757.5625,330.0938 756.6875,330.0938 C754.0625,330.0938 752.0625,332.1719 752.0625,334.8906 L752.0625,336.0156 C752.0625,338.5938 754.1719,340.4844 757.0625,340.4844 C758.2813,340.4844 759.4375,340.1875 760.1875,339.6406 C760.7656,339.2344 761.0938,338.7813 761.0938,338.3906 C761.0938,337.9375 760.7031,337.5469 760.2344,337.5469 C760.0156,337.5469 759.8125,337.625 759.625,337.8125 C759.1719,338.2969 759.1719,338.2969 758.9844,338.3906 C758.5625,338.6563 757.875,338.7813 757.1094,338.7813 C755.0625,338.7813 753.7656,337.6875 753.7656,335.9844 L753.7656,334.8906 C753.7656,333.1094 755.0156,331.7969 756.75,331.7969 C757.3281,331.7969 757.9375,331.9531 758.4063,332.2031 C758.8906,332.4844 759.0625,332.7031 759.1563,333.1094 C759.2188,333.5156 759.25,333.6406 759.3906,333.7656 C759.5313,333.9063 759.7656,334.0156 759.9844,334.0156 C760.25,334.0156 760.5156,333.875 760.6875,333.6563 C760.7969,333.5 760.8281,333.3125 760.8281,332.8906 L760.8281,331.4688 C760.8281,331.0313 760.8125,330.9063 760.7188,330.75 C760.5625,330.4844 760.2813,330.3438 759.9844,330.3438 C759.6875,330.3438 759.4844,330.4375 759.2656,330.75 L759.0938,330.6719 Z " fill="#000000"/><text fill="#000000" font-family="sans-serif" font-size="14" lengthAdjust="spacing" textLength="69" x="777.25" y="339.8467">ArrayUtils</text><line style="stroke:#181818;stroke-width:0.5;" x1="651.5" x2="939.5" y1="351" y2="351"/><line style="stroke:#181818;stroke-width:0.5;" x1="651.5" x2="939.5" y1="359" y2="359"/><ellipse cx="661.5" cy="370" fill="#84BE84" rx="3" ry="3" style="stroke:#038048;stroke-width:1.0;"/><text fill="#000000" font-family="sans-serif" font-size="14" lengthAdjust="spacing" text-decoration="underline" textLength="264" x="670.5" y="375.9951">strictCompare(a: T[], b: T[]): boolean</text></g><!--MD5=[4476dd818a02198350536b6ba7e8c915]
class LoginAPIResponse--><g id="elem_LoginAPIResponse"><rect codeLine="75" fill="#F1F1F1" height="64.2969" id="LoginAPIResponse" rx="2.5" ry="2.5" style="stroke:#181818;stroke-width:0.5;" width="164" x="1433.5" y="573.5"/><ellipse cx="1448.5" cy="589.5" fill="#ADD1B2" rx="11" ry="11" style="stroke:#181818;stroke-width:1.0;"/><path d="M1450.8438,585.1719 C1449.9063,584.7344 1449.3125,584.5938 1448.4375,584.5938 C1445.8125,584.5938 1443.8125,586.6719 1443.8125,589.3906 L1443.8125,590.5156 C1443.8125,593.0938 1445.9219,594.9844 1448.8125,594.9844 C1450.0313,594.9844 1451.1875,594.6875 1451.9375,594.1406 C1452.5156,593.7344 1452.8438,593.2813 1452.8438,592.8906 C1452.8438,592.4375 1452.4531,592.0469 1451.9844,592.0469 C1451.7656,592.0469 1451.5625,592.125 1451.375,592.3125 C1450.9219,592.7969 1450.9219,592.7969 1450.7344,592.8906 C1450.3125,593.1563 1449.625,593.2813 1448.8594,593.2813 C1446.8125,593.2813 1445.5156,592.1875 1445.5156,590.4844 L1445.5156,589.3906 C1445.5156,587.6094 1446.7656,586.2969 1448.5,586.2969 C1449.0781,586.2969 1449.6875,586.4531 1450.1563,586.7031 C1450.6406,586.9844 1450.8125,587.2031 1450.9063,587.6094 C1450.9688,588.0156 1451,588.1406 1451.1406,588.2656 C1451.2813,588.4063 1451.5156,588.5156 1451.7344,588.5156 C1452,588.5156 1452.2656,588.375 1452.4375,588.1563 C1452.5469,588 1452.5781,587.8125 1452.5781,587.3906 L1452.5781,585.9688 C1452.5781,585.5313 1452.5625,585.4063 1452.4688,585.25 C1452.3125,584.9844 1452.0313,584.8438 1451.7344,584.8438 C1451.4375,584.8438 1451.2344,584.9375 1451.0156,585.25 L1450.8438,585.1719 Z " fill="#000000"/><text fill="#000000" font-family="sans-serif" font-size="14" lengthAdjust="spacing" textLength="132" x="1462.5" y="594.3467">LoginAPIResponse</text><line style="stroke:#181818;stroke-width:0.5;" x1="1434.5" x2="1596.5" y1="605.5" y2="605.5"/><ellipse cx="1444.5" cy="616.5" fill="none" rx="3" ry="3" style="stroke:#038048;stroke-width:1.0;"/><text fill="#000000" font-family="sans-serif" font-size="14" lengthAdjust="spacing" textLength="103" x="1453.5" y="622.4951">auth: AuthInfo</text><line style="stroke:#181818;stroke-width:0.5;" x1="1434.5" x2="1596.5" y1="629.7969" y2="629.7969"/></g><!--MD5=[a0c31074011fe5810f5a444ea78fe12d]
class CreateUserRequestBody--><g id="elem_CreateUserRequestBody"><rect codeLine="78" fill="#F1F1F1" height="113.1875" id="CreateUserRequestBody" rx="2.5" ry="2.5" style="stroke:#181818;stroke-width:0.5;" width="273" x="7" y="549"/><ellipse cx="52.25" cy="565" fill="#B4A7E5" rx="11" ry="11" style="stroke:#181818;stroke-width:1.0;"/><path d="M53.2031,561.7813 L54.9219,561.7813 C55.3125,561.7813 55.5,561.75 55.625,561.6719 C55.8906,561.5156 56.0313,561.2344 56.0313,560.9375 C56.0313,560.6719 55.9219,560.4063 55.6875,560.2344 C55.5156,560.125 55.375,560.0938 54.9219,560.0938 L49.7813,560.0938 C49.3438,560.0938 49.2188,560.1094 49.0625,560.2031 C48.8125,560.3594 48.6563,560.6563 48.6563,560.9375 C48.6563,561.2188 48.7969,561.4688 49.0156,561.6406 C49.1719,561.75 49.3594,561.7813 49.7813,561.7813 L51.5,561.7813 L51.5,568.2969 L49.7813,568.2969 C49.3438,568.2969 49.2188,568.3125 49.0625,568.4219 C48.8125,568.5781 48.6563,568.8594 48.6563,569.1563 C48.6563,569.4063 48.7969,569.6719 49.0156,569.8281 C49.1719,569.9531 49.375,570 49.7813,570 L54.9219,570 C55.6719,570 56.0313,569.7188 56.0313,569.1563 C56.0313,568.875 55.9219,568.625 55.6875,568.4531 C55.5156,568.3281 55.375,568.2969 54.9219,568.2969 L53.2031,568.2969 L53.2031,561.7813 Z " fill="#000000"/><text fill="#000000" font-family="sans-serif" font-size="14" font-style="italic" lengthAdjust="spacing" textLength="174" x="72.75" y="569.8467">CreateUserRequestBody</text><line style="stroke:#181818;stroke-width:0.5;" x1="8" x2="279" y1="581" y2="581"/><ellipse cx="18" cy="592" fill="none" rx="3" ry="3" style="stroke:#038048;stroke-width:1.0;"/><text fill="#000000" font-family="sans-serif" font-size="14" lengthAdjust="spacing" textLength="247" x="27" y="597.9951">name: { first: string; last: string; }</text><ellipse cx="18" cy="608.2969" fill="none" rx="3" ry="3" style="stroke:#038048;stroke-width:1.0;"/><text fill="#000000" font-family="sans-serif" font-size="14" lengthAdjust="spacing" textLength="90" x="27" y="614.292">email: string</text><ellipse cx="18" cy="624.5938" fill="none" rx="3" ry="3" style="stroke:#038048;stroke-width:1.0;"/><text fill="#000000" font-family="sans-serif" font-size="14" lengthAdjust="spacing" textLength="121" x="27" y="630.5889">username: string</text><ellipse cx="18" cy="640.8906" fill="none" rx="3" ry="3" style="stroke:#038048;stroke-width:1.0;"/><text fill="#000000" font-family="sans-serif" font-size="14" lengthAdjust="spacing" textLength="118" x="27" y="646.8857">password: string</text><line style="stroke:#181818;stroke-width:0.5;" x1="8" x2="279" y1="654.1875" y2="654.1875"/></g><!--MD5=[dd909653e2a3ff7ef37c47b3ce0e6062]
class RTCServer--><g id="elem_RTCServer"><rect codeLine="84" fill="#F1F1F1" height="113.1875" id="RTCServer" rx="2.5" ry="2.5" style="stroke:#181818;stroke-width:0.5;" width="200" x="315.5" y="549"/><ellipse cx="373.25" cy="565" fill="#ADD1B2" rx="11" ry="11" style="stroke:#181818;stroke-width:1.0;"/><path d="M375.5938,560.6719 C374.6563,560.2344 374.0625,560.0938 373.1875,560.0938 C370.5625,560.0938 368.5625,562.1719 368.5625,564.8906 L368.5625,566.0156 C368.5625,568.5938 370.6719,570.4844 373.5625,570.4844 C374.7813,570.4844 375.9375,570.1875 376.6875,569.6406 C377.2656,569.2344 377.5938,568.7813 377.5938,568.3906 C377.5938,567.9375 377.2031,567.5469 376.7344,567.5469 C376.5156,567.5469 376.3125,567.625 376.125,567.8125 C375.6719,568.2969 375.6719,568.2969 375.4844,568.3906 C375.0625,568.6563 374.375,568.7813 373.6094,568.7813 C371.5625,568.7813 370.2656,567.6875 370.2656,565.9844 L370.2656,564.8906 C370.2656,563.1094 371.5156,561.7969 373.25,561.7969 C373.8281,561.7969 374.4375,561.9531 374.9063,562.2031 C375.3906,562.4844 375.5625,562.7031 375.6563,563.1094 C375.7188,563.5156 375.75,563.6406 375.8906,563.7656 C376.0313,563.9063 376.2656,564.0156 376.4844,564.0156 C376.75,564.0156 377.0156,563.875 377.1875,563.6563 C377.2969,563.5 377.3281,563.3125 377.3281,562.8906 L377.3281,561.4688 C377.3281,561.0313 377.3125,560.9063 377.2188,560.75 C377.0625,560.4844 376.7813,560.3438 376.4844,560.3438 C376.1875,560.3438 375.9844,560.4375 375.7656,560.75 L375.5938,560.6719 Z " fill="#000000"/><text fill="#000000" font-family="sans-serif" font-size="14" lengthAdjust="spacing" textLength="76" x="393.75" y="569.8467">RTCServer</text><line style="stroke:#181818;stroke-width:0.5;" x1="316.5" x2="514.5" y1="581" y2="581"/><rect fill="none" height="6" style="stroke:#C82930;stroke-width:1.0;" width="6" x="323.5" y="589"/><text fill="#000000" font-family="sans-serif" font-size="14" lengthAdjust="spacing" textLength="154" x="335.5" y="597.9951">app: express.Express</text><rect fill="none" height="6" style="stroke:#C82930;stroke-width:1.0;" width="6" x="323.5" y="605.2969"/><text fill="#000000" font-family="sans-serif" font-size="14" lengthAdjust="spacing" textLength="104" x="335.5" y="614.292">PORT: number</text><rect fill="none" height="6" style="stroke:#C82930;stroke-width:1.0;" width="6" x="323.5" y="621.5938"/><text fill="#000000" font-family="sans-serif" font-size="14" lengthAdjust="spacing" textLength="174" x="335.5" y="630.5889">httpServer: http.Server</text><line style="stroke:#181818;stroke-width:0.5;" x1="316.5" x2="514.5" y1="637.8906" y2="637.8906"/><ellipse cx="326.5" cy="648.8906" fill="#84BE84" rx="3" ry="3" style="stroke:#038048;stroke-width:1.0;"/><text fill="#000000" font-family="sans-serif" font-size="14" lengthAdjust="spacing" textLength="89" x="335.5" y="654.8857">listen(): void</text></g><!--MD5=[ce0dd0faff7e4290be38f78548deae28]
reverse link APIResponse to BaseAPIResponse--><g id="link_APIResponse_BaseAPIResponse"><path d="M1417.5,124.46 C1417.5,175.763 1417.5,260.372 1417.5,310.082 " fill="none" id="APIResponse-backto-BaseAPIResponse" style="stroke:#181818;stroke-width:1.0;stroke-dasharray:7.0,7.0;"/><polygon fill="none" points="1410.5,124.401,1417.5,104.401,1424.5,124.401,1410.5,124.401" style="stroke:#181818;stroke-width:1.0;"/></g><!--MD5=[ee19bb36818978ae7ba6a8df91c19870]
reverse link BaseAPIResponse to ErrorAPIResponse--><g id="link_BaseAPIResponse_ErrorAPIResponse"><path d="M1394.32,410.537 C1372.82,464.813 1341.94,542.801 1326.71,581.2543 " fill="none" id="BaseAPIResponse-backto-ErrorAPIResponse" style="stroke:#181818;stroke-width:1.0;"/><polygon fill="none" points="1387.89,407.748,1401.76,391.731,1400.91,412.903,1387.89,407.748" style="stroke:#181818;stroke-width:1.0;"/></g><!--MD5=[bb46dfd9c580a3e2717b4183eb3d6bae]
reverse link Document to IUser--><g id="link_Document_IUser"><path d="M2615.5,124.422 C2615.5,165.849 2615.5,229.018 2615.5,277.983 " fill="none" id="Document-backto-IUser" style="stroke:#181818;stroke-width:1.0;"/><polygon fill="none" points="2608.5,124.401,2615.5,104.401,2622.5,124.401,2608.5,124.401" style="stroke:#181818;stroke-width:1.0;"/></g><!--MD5=[cc0f6a25f10aa9588eeb31621b330f47]
reverse link BaseDAO to UserDAO--><g id="link_BaseDAO_UserDAO"><path d="M2174.5,164.839 C2174.5,204.03 2174.5,249.941 2174.5,286.243 " fill="none" id="BaseDAO-backto-UserDAO" style="stroke:#181818;stroke-width:1.0;"/><polygon fill="none" points="2167.5,164.749,2174.5,144.749,2181.5,164.749,2167.5,164.749" style="stroke:#181818;stroke-width:1.0;"/></g><!--MD5=[dbddce47894df499345ba7c1649242b6]
reverse link BaseAPIResponse to GameCreatedAPIResponse--><g id="link_BaseAPIResponse_GameCreatedAPIResponse"><path d="M1349.79,404.124 C1283.53,455.13 1184.81,531.13 1129.95,573.3596 " fill="none" id="BaseAPIResponse-backto-GameCreatedAPIResponse" style="stroke:#181818;stroke-width:1.0;"/><polygon fill="none" points="1345.77,398.384,1365.89,391.731,1354.31,409.478,1345.77,398.384" style="stroke:#181818;stroke-width:1.0;"/></g><!--MD5=[516645d850f298d2f58acdbf87b23bca]
reverse link IGameCreatedAPIResponse to GameCreatedAPIResponse--><g id="link_IGameCreatedAPIResponse_GameCreatedAPIResponse"><path d="M1089.5,395.505 C1089.5,446.235 1089.5,528.821 1089.5,573.4753 " fill="none" id="IGameCreatedAPIResponse-backto-GameCreatedAPIResponse" style="stroke:#181818;stroke-width:1.0;stroke-dasharray:7.0,7.0;"/><polygon fill="none" points="1082.5,395.302,1089.5,375.302,1096.5,395.302,1082.5,395.302" style="stroke:#181818;stroke-width:1.0;"/></g><!--MD5=[3b1008a05b6a107af91c7958ab18782b]
reverse link BaseAPIResponse to GameMessagesAPIResponse--><g id="link_BaseAPIResponse_GameMessagesAPIResponse"><path d="M1486.24,404.124 C1553.51,455.13 1653.74,531.13 1709.43,573.3596 " fill="none" id="BaseAPIResponse-backto-GameMessagesAPIResponse" style="stroke:#181818;stroke-width:1.0;"/><polygon fill="none" points="1481.6,409.393,1469.9,391.731,1490.06,398.237,1481.6,409.393" style="stroke:#181818;stroke-width:1.0;"/></g><!--MD5=[bdaf296d2c037de9574ea4d744d932d0]
reverse link IGameMessagesAPIResponse to GameMessagesAPIResponse--><g id="link_IGameMessagesAPIResponse_GameMessagesAPIResponse"><path d="M1750.5,395.505 C1750.5,446.235 1750.5,528.821 1750.5,573.4753 " fill="none" id="IGameMessagesAPIResponse-backto-GameMessagesAPIResponse" style="stroke:#181818;stroke-width:1.0;stroke-dasharray:7.0,7.0;"/><polygon fill="none" points="1743.5,395.302,1750.5,375.302,1757.5,395.302,1743.5,395.302" style="stroke:#181818;stroke-width:1.0;"/></g><!--MD5=[dabce20145565795d2910467592182e7]
reverse link BaseAPIResponse to LoginAPIResponse--><g id="link_BaseAPIResponse_LoginAPIResponse"><path d="M1440.17,410.401 C1459.88,461.194 1487.68,532.83 1503.41,573.3596 " fill="none" id="BaseAPIResponse-backto-LoginAPIResponse" style="stroke:#181818;stroke-width:1.0;"/><polygon fill="none" points="1433.63,412.909,1432.92,391.731,1446.68,407.843,1433.63,412.909" style="stroke:#181818;stroke-width:1.0;"/></g><!--MD5=[6db9d6d8665c9ccc4839d7ec38376319]
link DatabaseConnector to UserRegistrationFormData--></g></svg>