<?xml version="1.0" encoding="UTF-8" standalone="no"?><svg xmlns="http://www.w3.org/2000/svg" xmlns:xlink="http://www.w3.org/1999/xlink" contentStyleType="text/css" height="701px" preserveAspectRatio="none" style="width:3772px;height:701px;background:#FFFFFF;" version="1.1" viewBox="0 0 3772 701" width="3772px" zoomAndPan="magnify"><defs/><g><!--MD5=[09e1e21e55dc1e1860955f17677954e0]
class BaseAPIResponse--><g id="elem_BaseAPIResponse"><rect codeLine="1" fill="#F1F1F1" height="80.5938" id="BaseAPIResponse" rx="2.5" ry="2.5" style="stroke:#181818;stroke-width:0.5;" width="199" x="1645" y="326.5"/><ellipse cx="1678.45" cy="342.5" fill="#A9DCDF" rx="11" ry="11" style="stroke:#181818;stroke-width:1.0;"/><path d="M1680.5281,344.3125 L1680.9188,345.2969 L1680.5281,345.2969 C1680.075,345.2969 1679.9656,345.3125 1679.8094,345.4219 C1679.5594,345.5781 1679.4031,345.8594 1679.4031,346.1563 C1679.4031,346.4219 1679.5438,346.6719 1679.7625,346.8281 C1679.9031,346.9531 1680.1063,347 1680.5281,347 L1682.8875,347 C1683.2469,347 1683.4656,346.9688 1683.6063,346.875 C1683.8563,346.7344 1684.0125,346.4375 1684.0125,346.1563 C1684.0125,345.875 1683.8719,345.625 1683.6531,345.4688 C1683.4813,345.3281 1683.325,345.2969 1682.8563,345.2969 L1679.4656,337.0938 L1675.7938,337.0938 C1675.3406,337.0938 1675.2156,337.1094 1675.0594,337.2031 C1674.8094,337.375 1674.6531,337.6563 1674.6531,337.9375 C1674.6531,338.2188 1674.7938,338.4688 1675.0125,338.6406 C1675.1844,338.75 1675.3563,338.7813 1675.7938,338.7813 L1676.8719,338.7813 L1674.2313,345.2969 C1673.8094,345.2969 1673.6531,345.3125 1673.4969,345.4219 C1673.2469,345.5781 1673.0906,345.8594 1673.0906,346.1563 C1673.0906,346.7188 1673.4656,347 1674.2156,347 L1676.4813,347 C1676.8406,347 1677.0594,346.9688 1677.1844,346.875 C1677.45,346.7344 1677.5906,346.4375 1677.5906,346.1563 C1677.5906,345.875 1677.4656,345.625 1677.2469,345.4531 C1677.075,345.3281 1676.9344,345.2969 1676.4813,345.2969 L1676.0906,345.2969 L1676.4813,344.3125 L1680.5281,344.3125 Z M1679.825,342.6094 L1677.1531,342.6094 L1678.4969,339.3438 L1679.825,342.6094 Z " fill="#000000"/><text fill="#000000" font-family="sans-serif" font-size="14" font-style="italic" lengthAdjust="spacing" textLength="126" x="1696.55" y="347.3467">BaseAPIResponse</text><line style="stroke:#181818;stroke-width:0.5;" x1="1646" x2="1843" y1="358.5" y2="358.5"/><ellipse cx="1656" cy="369.5" fill="none" rx="3" ry="3" style="stroke:#038048;stroke-width:1.0;"/><text fill="#000000" font-family="sans-serif" font-size="14" lengthAdjust="spacing" textLength="121" x="1665" y="375.4951">success: boolean</text><ellipse cx="1656" cy="385.7969" fill="none" rx="3" ry="3" style="stroke:#038048;stroke-width:1.0;"/><text fill="#000000" font-family="sans-serif" font-size="14" lengthAdjust="spacing" textLength="173" x="1665" y="391.792">error?: Error | undefined</text><line style="stroke:#181818;stroke-width:0.5;" x1="1646" x2="1843" y1="399.0938" y2="399.0938"/></g><!--MD5=[76b865d8eabad70502df650f44f6952a]
class APIResponse--><g id="elem_APIResponse"><rect fill="#F1F1F1" height="48" id="APIResponse" rx="2.5" ry="2.5" style="stroke:#181818;stroke-width:0.5;" width="123" x="1683" y="72"/><ellipse cx="1698" cy="88" fill="#B4A7E5" rx="11" ry="11" style="stroke:#181818;stroke-width:1.0;"/><path d="M1698.9531,84.7813 L1700.6719,84.7813 C1701.0625,84.7813 1701.25,84.75 1701.375,84.6719 C1701.6406,84.5156 1701.7813,84.2344 1701.7813,83.9375 C1701.7813,83.6719 1701.6719,83.4063 1701.4375,83.2344 C1701.2656,83.125 1701.125,83.0938 1700.6719,83.0938 L1695.5313,83.0938 C1695.0938,83.0938 1694.9688,83.1094 1694.8125,83.2031 C1694.5625,83.3594 1694.4063,83.6563 1694.4063,83.9375 C1694.4063,84.2188 1694.5469,84.4688 1694.7656,84.6406 C1694.9219,84.75 1695.1094,84.7813 1695.5313,84.7813 L1697.25,84.7813 L1697.25,91.2969 L1695.5313,91.2969 C1695.0938,91.2969 1694.9688,91.3125 1694.8125,91.4219 C1694.5625,91.5781 1694.4063,91.8594 1694.4063,92.1563 C1694.4063,92.4063 1694.5469,92.6719 1694.7656,92.8281 C1694.9219,92.9531 1695.125,93 1695.5313,93 L1700.6719,93 C1701.4219,93 1701.7813,92.7188 1701.7813,92.1563 C1701.7813,91.875 1701.6719,91.625 1701.4375,91.4531 C1701.2656,91.3281 1701.125,91.2969 1700.6719,91.2969 L1698.9531,91.2969 L1698.9531,84.7813 Z " fill="#000000"/><text fill="#000000" font-family="sans-serif" font-size="14" font-style="italic" lengthAdjust="spacing" textLength="91" x="1712" y="92.8467">APIResponse</text><line style="stroke:#181818;stroke-width:0.5;" x1="1684" x2="1805" y1="104" y2="104"/><line style="stroke:#181818;stroke-width:0.5;" x1="1684" x2="1805" y1="112" y2="112"/></g><!--MD5=[9532e8bb65f5911e494d2b3b07d54c70]
class ErrorAPIResponse--><g id="elem_ErrorAPIResponse"><rect codeLine="5" fill="#F1F1F1" height="80.5938" id="ErrorAPIResponse" rx="2.5" ry="2.5" style="stroke:#181818;stroke-width:0.5;" width="161" x="2141" y="326.5"/><ellipse cx="2156" cy="342.5" fill="#ADD1B2" rx="11" ry="11" style="stroke:#181818;stroke-width:1.0;"/><path d="M2158.3438,338.1719 C2157.4063,337.7344 2156.8125,337.5938 2155.9375,337.5938 C2153.3125,337.5938 2151.3125,339.6719 2151.3125,342.3906 L2151.3125,343.5156 C2151.3125,346.0938 2153.4219,347.9844 2156.3125,347.9844 C2157.5313,347.9844 2158.6875,347.6875 2159.4375,347.1406 C2160.0156,346.7344 2160.3438,346.2813 2160.3438,345.8906 C2160.3438,345.4375 2159.9531,345.0469 2159.4844,345.0469 C2159.2656,345.0469 2159.0625,345.125 2158.875,345.3125 C2158.4219,345.7969 2158.4219,345.7969 2158.2344,345.8906 C2157.8125,346.1563 2157.125,346.2813 2156.3594,346.2813 C2154.3125,346.2813 2153.0156,345.1875 2153.0156,343.4844 L2153.0156,342.3906 C2153.0156,340.6094 2154.2656,339.2969 2156,339.2969 C2156.5781,339.2969 2157.1875,339.4531 2157.6563,339.7031 C2158.1406,339.9844 2158.3125,340.2031 2158.4063,340.6094 C2158.4688,341.0156 2158.5,341.1406 2158.6406,341.2656 C2158.7813,341.4063 2159.0156,341.5156 2159.2344,341.5156 C2159.5,341.5156 2159.7656,341.375 2159.9375,341.1563 C2160.0469,341 2160.0781,340.8125 2160.0781,340.3906 L2160.0781,338.9688 C2160.0781,338.5313 2160.0625,338.4063 2159.9688,338.25 C2159.8125,337.9844 2159.5313,337.8438 2159.2344,337.8438 C2158.9375,337.8438 2158.7344,337.9375 2158.5156,338.25 L2158.3438,338.1719 Z " fill="#000000"/><text fill="#000000" font-family="sans-serif" font-size="14" lengthAdjust="spacing" textLength="129" x="2170" y="347.3467">ErrorAPIResponse</text><line style="stroke:#181818;stroke-width:0.5;" x1="2142" x2="2301" y1="358.5" y2="358.5"/><ellipse cx="2152" cy="369.5" fill="none" rx="3" ry="3" style="stroke:#038048;stroke-width:1.0;"/><text fill="#000000" font-family="sans-serif" font-size="14" lengthAdjust="spacing" textLength="97" x="2161" y="375.4951">success: false</text><ellipse cx="2152" cy="385.7969" fill="none" rx="3" ry="3" style="stroke:#038048;stroke-width:1.0;"/><text fill="#000000" font-family="sans-serif" font-size="14" lengthAdjust="spacing" textLength="81" x="2161" y="391.792">error: Error</text><line style="stroke:#181818;stroke-width:0.5;" x1="2142" x2="2301" y1="399.0938" y2="399.0938"/></g><!--MD5=[55933bedc738071bb2a196ed17c93d4a]
class IErrorAPIResponse--><g id="elem_IErrorAPIResponse"><rect fill="#F1F1F1" height="48" id="IErrorAPIResponse" rx="2.5" ry="2.5" style="stroke:#181818;stroke-width:0.5;" width="163" x="2140" y="72"/><ellipse cx="2155" cy="88" fill="#B4A7E5" rx="11" ry="11" style="stroke:#181818;stroke-width:1.0;"/><path d="M2155.9531,84.7813 L2157.6719,84.7813 C2158.0625,84.7813 2158.25,84.75 2158.375,84.6719 C2158.6406,84.5156 2158.7813,84.2344 2158.7813,83.9375 C2158.7813,83.6719 2158.6719,83.4063 2158.4375,83.2344 C2158.2656,83.125 2158.125,83.0938 2157.6719,83.0938 L2152.5313,83.0938 C2152.0938,83.0938 2151.9688,83.1094 2151.8125,83.2031 C2151.5625,83.3594 2151.4063,83.6563 2151.4063,83.9375 C2151.4063,84.2188 2151.5469,84.4688 2151.7656,84.6406 C2151.9219,84.75 2152.1094,84.7813 2152.5313,84.7813 L2154.25,84.7813 L2154.25,91.2969 L2152.5313,91.2969 C2152.0938,91.2969 2151.9688,91.3125 2151.8125,91.4219 C2151.5625,91.5781 2151.4063,91.8594 2151.4063,92.1563 C2151.4063,92.4063 2151.5469,92.6719 2151.7656,92.8281 C2151.9219,92.9531 2152.125,93 2152.5313,93 L2157.6719,93 C2158.4219,93 2158.7813,92.7188 2158.7813,92.1563 C2158.7813,91.875 2158.6719,91.625 2158.4375,91.4531 C2158.2656,91.3281 2158.125,91.2969 2157.6719,91.2969 L2155.9531,91.2969 L2155.9531,84.7813 Z " fill="#000000"/><text fill="#000000" font-family="sans-serif" font-size="14" font-style="italic" lengthAdjust="spacing" textLength="131" x="2169" y="92.8467">IErrorAPIResponse</text><line style="stroke:#181818;stroke-width:0.5;" x1="2141" x2="2302" y1="104" y2="104"/><line style="stroke:#181818;stroke-width:0.5;" x1="2141" x2="2302" y1="112" y2="112"/></g><!--MD5=[96f7dd14ea14d83d5ca4f73b76474bc1]
class InvalidCredentialsError--><g id="elem_InvalidCredentialsError"><rect codeLine="9" fill="#F1F1F1" height="48" id="InvalidCredentialsError" rx="2.5" ry="2.5" style="stroke:#181818;stroke-width:0.5;" width="196" x="2337.5" y="343"/><ellipse cx="2352.5" cy="359" fill="#ADD1B2" rx="11" ry="11" style="stroke:#181818;stroke-width:1.0;"/><path d="M2354.8438,354.6719 C2353.9063,354.2344 2353.3125,354.0938 2352.4375,354.0938 C2349.8125,354.0938 2347.8125,356.1719 2347.8125,358.8906 L2347.8125,360.0156 C2347.8125,362.5938 2349.9219,364.4844 2352.8125,364.4844 C2354.0313,364.4844 2355.1875,364.1875 2355.9375,363.6406 C2356.5156,363.2344 2356.8438,362.7813 2356.8438,362.3906 C2356.8438,361.9375 2356.4531,361.5469 2355.9844,361.5469 C2355.7656,361.5469 2355.5625,361.625 2355.375,361.8125 C2354.9219,362.2969 2354.9219,362.2969 2354.7344,362.3906 C2354.3125,362.6563 2353.625,362.7813 2352.8594,362.7813 C2350.8125,362.7813 2349.5156,361.6875 2349.5156,359.9844 L2349.5156,358.8906 C2349.5156,357.1094 2350.7656,355.7969 2352.5,355.7969 C2353.0781,355.7969 2353.6875,355.9531 2354.1563,356.2031 C2354.6406,356.4844 2354.8125,356.7031 2354.9063,357.1094 C2354.9688,357.5156 2355,357.6406 2355.1406,357.7656 C2355.2813,357.9063 2355.5156,358.0156 2355.7344,358.0156 C2356,358.0156 2356.2656,357.875 2356.4375,357.6563 C2356.5469,357.5 2356.5781,357.3125 2356.5781,356.8906 L2356.5781,355.4688 C2356.5781,355.0313 2356.5625,354.9063 2356.4688,354.75 C2356.3125,354.4844 2356.0313,354.3438 2355.7344,354.3438 C2355.4375,354.3438 2355.2344,354.4375 2355.0156,354.75 L2354.8438,354.6719 Z " fill="#000000"/><text fill="#000000" font-family="sans-serif" font-size="14" lengthAdjust="spacing" textLength="164" x="2366.5" y="363.8467">InvalidCredentialsError</text><line style="stroke:#181818;stroke-width:0.5;" x1="2338.5" x2="2532.5" y1="375" y2="375"/><line style="stroke:#181818;stroke-width:0.5;" x1="2338.5" x2="2532.5" y1="383" y2="383"/></g><!--MD5=[b8cfd8c4119a3b0a7a46bfc5fc780f85]
class Error--><g id="elem_Error"><rect fill="#F1F1F1" height="48" id="Error" rx="2.5" ry="2.5" style="stroke:#181818;stroke-width:0.5;" width="68" x="2401.5" y="72"/><ellipse cx="2416.5" cy="88" fill="#ADD1B2" rx="11" ry="11" style="stroke:#181818;stroke-width:1.0;"/><path d="M2418.8438,83.6719 C2417.9063,83.2344 2417.3125,83.0938 2416.4375,83.0938 C2413.8125,83.0938 2411.8125,85.1719 2411.8125,87.8906 L2411.8125,89.0156 C2411.8125,91.5938 2413.9219,93.4844 2416.8125,93.4844 C2418.0313,93.4844 2419.1875,93.1875 2419.9375,92.6406 C2420.5156,92.2344 2420.8438,91.7813 2420.8438,91.3906 C2420.8438,90.9375 2420.4531,90.5469 2419.9844,90.5469 C2419.7656,90.5469 2419.5625,90.625 2419.375,90.8125 C2418.9219,91.2969 2418.9219,91.2969 2418.7344,91.3906 C2418.3125,91.6563 2417.625,91.7813 2416.8594,91.7813 C2414.8125,91.7813 2413.5156,90.6875 2413.5156,88.9844 L2413.5156,87.8906 C2413.5156,86.1094 2414.7656,84.7969 2416.5,84.7969 C2417.0781,84.7969 2417.6875,84.9531 2418.1563,85.2031 C2418.6406,85.4844 2418.8125,85.7031 2418.9063,86.1094 C2418.9688,86.5156 2419,86.6406 2419.1406,86.7656 C2419.2813,86.9063 2419.5156,87.0156 2419.7344,87.0156 C2420,87.0156 2420.2656,86.875 2420.4375,86.6563 C2420.5469,86.5 2420.5781,86.3125 2420.5781,85.8906 L2420.5781,84.4688 C2420.5781,84.0313 2420.5625,83.9063 2420.4688,83.75 C2420.3125,83.4844 2420.0313,83.3438 2419.7344,83.3438 C2419.4375,83.3438 2419.2344,83.4375 2419.0156,83.75 L2418.8438,83.6719 Z " fill="#000000"/><text fill="#000000" font-family="sans-serif" font-size="14" lengthAdjust="spacing" textLength="36" x="2430.5" y="92.8467">Error</text><line style="stroke:#181818;stroke-width:0.5;" x1="2402.5" x2="2468.5" y1="104" y2="104"/><line style="stroke:#181818;stroke-width:0.5;" x1="2402.5" x2="2468.5" y1="112" y2="112"/></g><!--MD5=[93a9f1729e76ecadb10ad181edf6b611]
class DatabaseConnector--><g id="elem_DatabaseConnector"><rect codeLine="10" fill="#F1F1F1" height="145.7813" id="DatabaseConnector" rx="2.5" ry="2.5" style="stroke:#181818;stroke-width:0.5;" width="252" x="228.5" y="23"/><ellipse cx="278.25" cy="39" fill="#ADD1B2" rx="11" ry="11" style="stroke:#181818;stroke-width:1.0;"/><path d="M280.5938,34.6719 C279.6563,34.2344 279.0625,34.0938 278.1875,34.0938 C275.5625,34.0938 273.5625,36.1719 273.5625,38.8906 L273.5625,40.0156 C273.5625,42.5938 275.6719,44.4844 278.5625,44.4844 C279.7813,44.4844 280.9375,44.1875 281.6875,43.6406 C282.2656,43.2344 282.5938,42.7813 282.5938,42.3906 C282.5938,41.9375 282.2031,41.5469 281.7344,41.5469 C281.5156,41.5469 281.3125,41.625 281.125,41.8125 C280.6719,42.2969 280.6719,42.2969 280.4844,42.3906 C280.0625,42.6563 279.375,42.7813 278.6094,42.7813 C276.5625,42.7813 275.2656,41.6875 275.2656,39.9844 L275.2656,38.8906 C275.2656,37.1094 276.5156,35.7969 278.25,35.7969 C278.8281,35.7969 279.4375,35.9531 279.9063,36.2031 C280.3906,36.4844 280.5625,36.7031 280.6563,37.1094 C280.7188,37.5156 280.75,37.6406 280.8906,37.7656 C281.0313,37.9063 281.2656,38.0156 281.4844,38.0156 C281.75,38.0156 282.0156,37.875 282.1875,37.6563 C282.2969,37.5 282.3281,37.3125 282.3281,36.8906 L282.3281,35.4688 C282.3281,35.0313 282.3125,34.9063 282.2188,34.75 C282.0625,34.4844 281.7813,34.3438 281.4844,34.3438 C281.1875,34.3438 280.9844,34.4375 280.7656,34.75 L280.5938,34.6719 Z " fill="#000000"/><text fill="#000000" font-family="sans-serif" font-size="14" lengthAdjust="spacing" textLength="144" x="298.75" y="43.8467">DatabaseConnector</text><line style="stroke:#181818;stroke-width:0.5;" x1="229.5" x2="479.5" y1="55" y2="55"/><rect fill="none" height="6" style="stroke:#C82930;stroke-width:1.0;" width="6" x="236.5" y="63"/><text fill="#000000" font-family="sans-serif" font-size="14" lengthAdjust="spacing" text-decoration="underline" textLength="74" x="248.5" y="71.9951">URI: string</text><rect fill="none" height="6" style="stroke:#C82930;stroke-width:1.0;" width="6" x="236.5" y="79.2969"/><text fill="#000000" font-family="sans-serif" font-size="14" lengthAdjust="spacing" text-decoration="underline" textLength="226" x="248.5" y="88.292">client: MongoClient | undefined</text><rect fill="none" height="6" style="stroke:#C82930;stroke-width:1.0;" width="6" x="236.5" y="95.5938"/><text fill="#000000" font-family="sans-serif" font-size="14" lengthAdjust="spacing" text-decoration="underline" textLength="195" x="248.5" y="104.5889">_database?: Db | undefined</text><ellipse cx="239.5" cy="114.8906" fill="none" rx="3" ry="3" style="stroke:#038048;stroke-width:1.0;"/><text fill="#000000" font-family="sans-serif" font-size="14" lengthAdjust="spacing" text-decoration="underline" textLength="181" x="248.5" y="120.8857">database: Db | undefined</text><line style="stroke:#181818;stroke-width:0.5;" x1="229.5" x2="479.5" y1="128.1875" y2="128.1875"/><ellipse cx="239.5" cy="139.1875" fill="#84BE84" rx="3" ry="3" style="stroke:#038048;stroke-width:1.0;"/><text fill="#000000" font-family="sans-serif" font-size="14" lengthAdjust="spacing" text-decoration="underline" textLength="86" x="248.5" y="145.1826">open(): void</text><ellipse cx="239.5" cy="155.4844" fill="#84BE84" rx="3" ry="3" style="stroke:#038048;stroke-width:1.0;"/><text fill="#000000" font-family="sans-serif" font-size="14" lengthAdjust="spacing" text-decoration="underline" textLength="86" x="248.5" y="161.4795">close(): void</text></g><!--MD5=[ebf03a84ec3d1696651163c3149d6161]
class BaseDAO--><g id="elem_BaseDAO"><rect codeLine="18" fill="#F1F1F1" height="129.4844" id="BaseDAO" rx="2.5" ry="2.5" style="stroke:#181818;stroke-width:0.5;" width="643" x="2516" y="31.5"/><ellipse cx="2713.75" cy="47.5" fill="#A9DCDF" rx="11" ry="11" style="stroke:#181818;stroke-width:1.0;"/><path d="M2715.8281,49.3125 L2716.2188,50.2969 L2715.8281,50.2969 C2715.375,50.2969 2715.2656,50.3125 2715.1094,50.4219 C2714.8594,50.5781 2714.7031,50.8594 2714.7031,51.1563 C2714.7031,51.4219 2714.8438,51.6719 2715.0625,51.8281 C2715.2031,51.9531 2715.4063,52 2715.8281,52 L2718.1875,52 C2718.5469,52 2718.7656,51.9688 2718.9063,51.875 C2719.1563,51.7344 2719.3125,51.4375 2719.3125,51.1563 C2719.3125,50.875 2719.1719,50.625 2718.9531,50.4688 C2718.7813,50.3281 2718.625,50.2969 2718.1563,50.2969 L2714.7656,42.0938 L2711.0938,42.0938 C2710.6406,42.0938 2710.5156,42.1094 2710.3594,42.2031 C2710.1094,42.375 2709.9531,42.6563 2709.9531,42.9375 C2709.9531,43.2188 2710.0938,43.4688 2710.3125,43.6406 C2710.4844,43.75 2710.6563,43.7813 2711.0938,43.7813 L2712.1719,43.7813 L2709.5313,50.2969 C2709.1094,50.2969 2708.9531,50.3125 2708.7969,50.4219 C2708.5469,50.5781 2708.3906,50.8594 2708.3906,51.1563 C2708.3906,51.7188 2708.7656,52 2709.5156,52 L2711.7813,52 C2712.1406,52 2712.3594,51.9688 2712.4844,51.875 C2712.75,51.7344 2712.8906,51.4375 2712.8906,51.1563 C2712.8906,50.875 2712.7656,50.625 2712.5469,50.4531 C2712.375,50.3281 2712.2344,50.2969 2711.7813,50.2969 L2711.3906,50.2969 L2711.7813,49.3125 L2715.8281,49.3125 Z M2715.125,47.6094 L2712.4531,47.6094 L2713.7969,44.3438 L2715.125,47.6094 Z " fill="#000000"/><text fill="#000000" font-family="sans-serif" font-size="14" font-style="italic" lengthAdjust="spacing" textLength="67" x="2734.25" y="52.3467">BaseDAO</text><rect fill="#FFFFFF" height="15.9688" style="stroke:#000000;stroke-width:1.0;stroke-dasharray:2.0,2.0;" width="170" x="2992" y="28.5"/><text fill="#000000" font-family="sans-serif" font-size="12" font-style="italic" lengthAdjust="spacing" textLength="168" x="2993" y="40.6387">Schema extends Document</text><line style="stroke:#181818;stroke-width:0.5;" x1="2517" x2="3158" y1="63.5" y2="63.5"/><ellipse cx="2527" cy="74.5" fill="none" rx="3" ry="3" style="stroke:#038048;stroke-width:1.0;"/><text fill="#000000" font-family="sans-serif" font-size="14" font-style="italic" lengthAdjust="spacing" textLength="160" x="2536" y="80.4951">collectionName: string</text><ellipse cx="2527" cy="90.7969" fill="none" rx="3" ry="3" style="stroke:#038048;stroke-width:1.0;"/><text fill="#000000" font-family="sans-serif" font-size="14" lengthAdjust="spacing" textLength="441" x="2536" y="96.792">collection: Mongo.Collection&lt;Mongo.Document&gt; | undefined</text><line style="stroke:#181818;stroke-width:0.5;" x1="2517" x2="3158" y1="104.0938" y2="104.0938"/><ellipse cx="2527" cy="115.0938" fill="#84BE84" rx="3" ry="3" style="stroke:#038048;stroke-width:1.0;"/><text fill="#000000" font-family="sans-serif" font-size="14" lengthAdjust="spacing" textLength="339" x="2536" y="121.0889">insertOne(document: Schema): Promise&lt;void&gt;</text><ellipse cx="2527" cy="131.3906" fill="#84BE84" rx="3" ry="3" style="stroke:#038048;stroke-width:1.0;"/><text fill="#000000" font-family="sans-serif" font-size="14" lengthAdjust="spacing" textLength="550" x="2536" y="137.3857">findOne(filter: Mongo.Filter&lt;Schema&gt;): Promise&lt;Mongo.WithId&lt;Schema&gt;&gt;</text><ellipse cx="2527" cy="147.6875" fill="#84BE84" rx="3" ry="3" style="stroke:#038048;stroke-width:1.0;"/><text fill="#000000" font-family="sans-serif" font-size="14" lengthAdjust="spacing" textLength="617" x="2536" y="153.6826">updateOne(filter: Mongo.Filter&lt;Schema&gt;, update: Partial&lt;Schema&gt;): Promise&lt;void&gt;</text></g><!--MD5=[76ab8d192502cb4818e5b62d3136acdb]
class UserRegistrationFormData--><g id="elem_UserRegistrationFormData"><rect codeLine="25" fill="#F1F1F1" height="113.1875" id="UserRegistrationFormData" rx="2.5" ry="2.5" style="stroke:#181818;stroke-width:0.5;" width="273" x="2491" y="565.5"/><ellipse cx="2529.4" cy="581.5" fill="#B4A7E5" rx="11" ry="11" style="stroke:#181818;stroke-width:1.0;"/><path d="M2530.3531,578.2813 L2532.0719,578.2813 C2532.4625,578.2813 2532.65,578.25 2532.775,578.1719 C2533.0406,578.0156 2533.1813,577.7344 2533.1813,577.4375 C2533.1813,577.1719 2533.0719,576.9063 2532.8375,576.7344 C2532.6656,576.625 2532.525,576.5938 2532.0719,576.5938 L2526.9313,576.5938 C2526.4938,576.5938 2526.3688,576.6094 2526.2125,576.7031 C2525.9625,576.8594 2525.8063,577.1563 2525.8063,577.4375 C2525.8063,577.7188 2525.9469,577.9688 2526.1656,578.1406 C2526.3219,578.25 2526.5094,578.2813 2526.9313,578.2813 L2528.65,578.2813 L2528.65,584.7969 L2526.9313,584.7969 C2526.4938,584.7969 2526.3688,584.8125 2526.2125,584.9219 C2525.9625,585.0781 2525.8063,585.3594 2525.8063,585.6563 C2525.8063,585.9063 2525.9469,586.1719 2526.1656,586.3281 C2526.3219,586.4531 2526.525,586.5 2526.9313,586.5 L2532.0719,586.5 C2532.8219,586.5 2533.1813,586.2188 2533.1813,585.6563 C2533.1813,585.375 2533.0719,585.125 2532.8375,584.9531 C2532.6656,584.8281 2532.525,584.7969 2532.0719,584.7969 L2530.3531,584.7969 L2530.3531,578.2813 Z " fill="#000000"/><text fill="#000000" font-family="sans-serif" font-size="14" font-style="italic" lengthAdjust="spacing" textLength="189" x="2548.6" y="586.3467">UserRegistrationFormData</text><line style="stroke:#181818;stroke-width:0.5;" x1="2492" x2="2763" y1="597.5" y2="597.5"/><ellipse cx="2502" cy="608.5" fill="none" rx="3" ry="3" style="stroke:#038048;stroke-width:1.0;"/><text fill="#000000" font-family="sans-serif" font-size="14" lengthAdjust="spacing" textLength="247" x="2511" y="614.4951">name: { first: string; last: string; }</text><ellipse cx="2502" cy="624.7969" fill="none" rx="3" ry="3" style="stroke:#038048;stroke-width:1.0;"/><text fill="#000000" font-family="sans-serif" font-size="14" lengthAdjust="spacing" textLength="121" x="2511" y="630.792">username: string</text><ellipse cx="2502" cy="641.0938" fill="none" rx="3" ry="3" style="stroke:#038048;stroke-width:1.0;"/><text fill="#000000" font-family="sans-serif" font-size="14" lengthAdjust="spacing" textLength="118" x="2511" y="647.0889">password: string</text><ellipse cx="2502" cy="657.3906" fill="none" rx="3" ry="3" style="stroke:#038048;stroke-width:1.0;"/><text fill="#000000" font-family="sans-serif" font-size="14" lengthAdjust="spacing" textLength="90" x="2511" y="663.3857">email: string</text><line style="stroke:#181818;stroke-width:0.5;" x1="2492" x2="2763" y1="670.6875" y2="670.6875"/></g><!--MD5=[73dce865cdb77af8e73c9f48f4f93ade]
class UserLoginFormData--><g id="elem_UserLoginFormData"><rect codeLine="31" fill="#F1F1F1" height="80.5938" id="UserLoginFormData" rx="2.5" ry="2.5" style="stroke:#181818;stroke-width:0.5;" width="174" x="2799.5" y="581.5"/><ellipse cx="2814.5" cy="597.5" fill="#B4A7E5" rx="11" ry="11" style="stroke:#181818;stroke-width:1.0;"/><path d="M2815.4531,594.2813 L2817.1719,594.2813 C2817.5625,594.2813 2817.75,594.25 2817.875,594.1719 C2818.1406,594.0156 2818.2813,593.7344 2818.2813,593.4375 C2818.2813,593.1719 2818.1719,592.9063 2817.9375,592.7344 C2817.7656,592.625 2817.625,592.5938 2817.1719,592.5938 L2812.0313,592.5938 C2811.5938,592.5938 2811.4688,592.6094 2811.3125,592.7031 C2811.0625,592.8594 2810.9063,593.1563 2810.9063,593.4375 C2810.9063,593.7188 2811.0469,593.9688 2811.2656,594.1406 C2811.4219,594.25 2811.6094,594.2813 2812.0313,594.2813 L2813.75,594.2813 L2813.75,600.7969 L2812.0313,600.7969 C2811.5938,600.7969 2811.4688,600.8125 2811.3125,600.9219 C2811.0625,601.0781 2810.9063,601.3594 2810.9063,601.6563 C2810.9063,601.9063 2811.0469,602.1719 2811.2656,602.3281 C2811.4219,602.4531 2811.625,602.5 2812.0313,602.5 L2817.1719,602.5 C2817.9219,602.5 2818.2813,602.2188 2818.2813,601.6563 C2818.2813,601.375 2818.1719,601.125 2817.9375,600.9531 C2817.7656,600.8281 2817.625,600.7969 2817.1719,600.7969 L2815.4531,600.7969 L2815.4531,594.2813 Z " fill="#000000"/><text fill="#000000" font-family="sans-serif" font-size="14" font-style="italic" lengthAdjust="spacing" textLength="142" x="2828.5" y="602.3467">UserLoginFormData</text><line style="stroke:#181818;stroke-width:0.5;" x1="2800.5" x2="2972.5" y1="613.5" y2="613.5"/><ellipse cx="2810.5" cy="624.5" fill="none" rx="3" ry="3" style="stroke:#038048;stroke-width:1.0;"/><text fill="#000000" font-family="sans-serif" font-size="14" lengthAdjust="spacing" textLength="81" x="2819.5" y="630.4951">user: string</text><ellipse cx="2810.5" cy="640.7969" fill="none" rx="3" ry="3" style="stroke:#038048;stroke-width:1.0;"/><text fill="#000000" font-family="sans-serif" font-size="14" lengthAdjust="spacing" textLength="118" x="2819.5" y="646.792">password: string</text><line style="stroke:#181818;stroke-width:0.5;" x1="2800.5" x2="2972.5" y1="654.0938" y2="654.0938"/></g><!--MD5=[4397ba3f25468a58f081bf0666d83f60]
class IUser--><g id="elem_IUser"><rect codeLine="35" fill="#F1F1F1" height="145.7813" id="IUser" rx="2.5" ry="2.5" style="stroke:#181818;stroke-width:0.5;" width="273" x="3111" y="549"/><ellipse cx="3225.25" cy="565" fill="#B4A7E5" rx="11" ry="11" style="stroke:#181818;stroke-width:1.0;"/><path d="M3226.2031,561.7813 L3227.9219,561.7813 C3228.3125,561.7813 3228.5,561.75 3228.625,561.6719 C3228.8906,561.5156 3229.0313,561.2344 3229.0313,560.9375 C3229.0313,560.6719 3228.9219,560.4063 3228.6875,560.2344 C3228.5156,560.125 3228.375,560.0938 3227.9219,560.0938 L3222.7813,560.0938 C3222.3438,560.0938 3222.2188,560.1094 3222.0625,560.2031 C3221.8125,560.3594 3221.6563,560.6563 3221.6563,560.9375 C3221.6563,561.2188 3221.7969,561.4688 3222.0156,561.6406 C3222.1719,561.75 3222.3594,561.7813 3222.7813,561.7813 L3224.5,561.7813 L3224.5,568.2969 L3222.7813,568.2969 C3222.3438,568.2969 3222.2188,568.3125 3222.0625,568.4219 C3221.8125,568.5781 3221.6563,568.8594 3221.6563,569.1563 C3221.6563,569.4063 3221.7969,569.6719 3222.0156,569.8281 C3222.1719,569.9531 3222.375,570 3222.7813,570 L3227.9219,570 C3228.6719,570 3229.0313,569.7188 3229.0313,569.1563 C3229.0313,568.875 3228.9219,568.625 3228.6875,568.4531 C3228.5156,568.3281 3228.375,568.2969 3227.9219,568.2969 L3226.2031,568.2969 L3226.2031,561.7813 Z " fill="#000000"/><text fill="#000000" font-family="sans-serif" font-size="14" font-style="italic" lengthAdjust="spacing" textLength="36" x="3245.75" y="569.8467">IUser</text><line style="stroke:#181818;stroke-width:0.5;" x1="3112" x2="3383" y1="581" y2="581"/><ellipse cx="3122" cy="592" fill="none" rx="3" ry="3" style="stroke:#038048;stroke-width:1.0;"/><text fill="#000000" font-family="sans-serif" font-size="14" lengthAdjust="spacing" textLength="183" x="3131" y="597.9951">_id?: ObjectId | undefined</text><ellipse cx="3122" cy="608.2969" fill="none" rx="3" ry="3" style="stroke:#038048;stroke-width:1.0;"/><text fill="#000000" font-family="sans-serif" font-size="14" lengthAdjust="spacing" textLength="247" x="3131" y="614.292">name: { first: string; last: string; }</text><ellipse cx="3122" cy="624.5938" fill="none" rx="3" ry="3" style="stroke:#038048;stroke-width:1.0;"/><text fill="#000000" font-family="sans-serif" font-size="14" lengthAdjust="spacing" textLength="90" x="3131" y="630.5889">email: string</text><ellipse cx="3122" cy="640.8906" fill="none" rx="3" ry="3" style="stroke:#038048;stroke-width:1.0;"/><text fill="#000000" font-family="sans-serif" font-size="14" lengthAdjust="spacing" textLength="121" x="3131" y="646.8857">username: string</text><ellipse cx="3122" cy="657.1875" fill="none" rx="3" ry="3" style="stroke:#038048;stroke-width:1.0;"/><text fill="#000000" font-family="sans-serif" font-size="14" lengthAdjust="spacing" textLength="118" x="3131" y="663.1826">password: string</text><ellipse cx="3122" cy="673.4844" fill="none" rx="3" ry="3" style="stroke:#038048;stroke-width:1.0;"/><text fill="#000000" font-family="sans-serif" font-size="14" lengthAdjust="spacing" textLength="100" x="3131" y="679.4795">auths: string[]</text><line style="stroke:#181818;stroke-width:0.5;" x1="3112" x2="3383" y1="686.7813" y2="686.7813"/></g><!--MD5=[59b530d44ae785dc18db921986a9c15c]
class Document--><g id="elem_Document"><rect fill="#F1F1F1" height="48" id="Document" rx="2.5" ry="2.5" style="stroke:#181818;stroke-width:0.5;" width="106" x="3141.5" y="343"/><ellipse cx="3156.5" cy="359" fill="#B4A7E5" rx="11" ry="11" style="stroke:#181818;stroke-width:1.0;"/><path d="M3157.4531,355.7813 L3159.1719,355.7813 C3159.5625,355.7813 3159.75,355.75 3159.875,355.6719 C3160.1406,355.5156 3160.2813,355.2344 3160.2813,354.9375 C3160.2813,354.6719 3160.1719,354.4063 3159.9375,354.2344 C3159.7656,354.125 3159.625,354.0938 3159.1719,354.0938 L3154.0313,354.0938 C3153.5938,354.0938 3153.4688,354.1094 3153.3125,354.2031 C3153.0625,354.3594 3152.9063,354.6563 3152.9063,354.9375 C3152.9063,355.2188 3153.0469,355.4688 3153.2656,355.6406 C3153.4219,355.75 3153.6094,355.7813 3154.0313,355.7813 L3155.75,355.7813 L3155.75,362.2969 L3154.0313,362.2969 C3153.5938,362.2969 3153.4688,362.3125 3153.3125,362.4219 C3153.0625,362.5781 3152.9063,362.8594 3152.9063,363.1563 C3152.9063,363.4063 3153.0469,363.6719 3153.2656,363.8281 C3153.4219,363.9531 3153.625,364 3154.0313,364 L3159.1719,364 C3159.9219,364 3160.2813,363.7188 3160.2813,363.1563 C3160.2813,362.875 3160.1719,362.625 3159.9375,362.4531 C3159.7656,362.3281 3159.625,362.2969 3159.1719,362.2969 L3157.4531,362.2969 L3157.4531,355.7813 Z " fill="#000000"/><text fill="#000000" font-family="sans-serif" font-size="14" font-style="italic" lengthAdjust="spacing" textLength="74" x="3170.5" y="363.8467">Document</text><line style="stroke:#181818;stroke-width:0.5;" x1="3142.5" x2="3246.5" y1="375" y2="375"/><line style="stroke:#181818;stroke-width:0.5;" x1="3142.5" x2="3246.5" y1="383" y2="383"/></g><!--MD5=[6f49855a2f41b15b7be64856ff30349b]
class UserDAO--><g id="elem_UserDAO"><rect codeLine="43" fill="#F1F1F1" height="145.7813" id="UserDAO" rx="2.5" ry="2.5" style="stroke:#181818;stroke-width:0.5;" width="538" x="2568.5" y="294"/><ellipse cx="2801.75" cy="310" fill="#ADD1B2" rx="11" ry="11" style="stroke:#181818;stroke-width:1.0;"/><path d="M2804.0938,305.6719 C2803.1563,305.2344 2802.5625,305.0938 2801.6875,305.0938 C2799.0625,305.0938 2797.0625,307.1719 2797.0625,309.8906 L2797.0625,311.0156 C2797.0625,313.5938 2799.1719,315.4844 2802.0625,315.4844 C2803.2813,315.4844 2804.4375,315.1875 2805.1875,314.6406 C2805.7656,314.2344 2806.0938,313.7813 2806.0938,313.3906 C2806.0938,312.9375 2805.7031,312.5469 2805.2344,312.5469 C2805.0156,312.5469 2804.8125,312.625 2804.625,312.8125 C2804.1719,313.2969 2804.1719,313.2969 2803.9844,313.3906 C2803.5625,313.6563 2802.875,313.7813 2802.1094,313.7813 C2800.0625,313.7813 2798.7656,312.6875 2798.7656,310.9844 L2798.7656,309.8906 C2798.7656,308.1094 2800.0156,306.7969 2801.75,306.7969 C2802.3281,306.7969 2802.9375,306.9531 2803.4063,307.2031 C2803.8906,307.4844 2804.0625,307.7031 2804.1563,308.1094 C2804.2188,308.5156 2804.25,308.6406 2804.3906,308.7656 C2804.5313,308.9063 2804.7656,309.0156 2804.9844,309.0156 C2805.25,309.0156 2805.5156,308.875 2805.6875,308.6563 C2805.7969,308.5 2805.8281,308.3125 2805.8281,307.8906 L2805.8281,306.4688 C2805.8281,306.0313 2805.8125,305.9063 2805.7188,305.75 C2805.5625,305.4844 2805.2813,305.3438 2804.9844,305.3438 C2804.6875,305.3438 2804.4844,305.4375 2804.2656,305.75 L2804.0938,305.6719 Z " fill="#000000"/><text fill="#000000" font-family="sans-serif" font-size="14" lengthAdjust="spacing" textLength="63" x="2822.25" y="314.8467">UserDAO</text><line style="stroke:#181818;stroke-width:0.5;" x1="2569.5" x2="3105.5" y1="326" y2="326"/><ellipse cx="2579.5" cy="337" fill="none" rx="3" ry="3" style="stroke:#038048;stroke-width:1.0;"/><text fill="#000000" font-family="sans-serif" font-size="14" lengthAdjust="spacing" textLength="163" x="2588.5" y="342.9951">collectionName: string</text><line style="stroke:#181818;stroke-width:0.5;" x1="2569.5" x2="3105.5" y1="350.2969" y2="350.2969"/><ellipse cx="2579.5" cy="361.2969" fill="#84BE84" rx="3" ry="3" style="stroke:#038048;stroke-width:1.0;"/><text fill="#000000" font-family="sans-serif" font-size="14" lengthAdjust="spacing" textLength="476" x="2588.5" y="367.292">createUser(formData: UserRegistrationFormData): Promise&lt;void&gt;</text><ellipse cx="2579.5" cy="377.5938" fill="#84BE84" rx="3" ry="3" style="stroke:#038048;stroke-width:1.0;"/><text fill="#000000" font-family="sans-serif" font-size="14" lengthAdjust="spacing" textLength="512" x="2588.5" y="383.5889">authenticateLogin(formData: UserLoginFormData): Promise&lt;AuthInfo&gt;</text><ellipse cx="2579.5" cy="393.8906" fill="#84BE84" rx="3" ry="3" style="stroke:#038048;stroke-width:1.0;"/><text fill="#000000" font-family="sans-serif" font-size="14" lengthAdjust="spacing" textLength="454" x="2588.5" y="399.8857">authenticateKey(uid: ObjectId, key: string): Promise&lt;boolean&gt;</text><rect fill="#F24D5C" height="6" style="stroke:#C82930;stroke-width:1.0;" width="6" x="2576.5" y="407.1875"/><text fill="#000000" font-family="sans-serif" font-size="14" lengthAdjust="spacing" textLength="188" x="2588.5" y="416.1826">generateAuthKey(): string</text><ellipse cx="2579.5" cy="426.4844" fill="#84BE84" rx="3" ry="3" style="stroke:#038048;stroke-width:1.0;"/><text fill="#000000" font-family="sans-serif" font-size="14" lengthAdjust="spacing" text-decoration="underline" textLength="251" x="2588.5" y="432.4795">sanitize(user: IUser): ISanitizedUser</text></g><!--MD5=[9b16d859f8a5b0e4870719ff73b578c6]
class GameStateAPIResponse--><g id="elem_GameStateAPIResponse"><rect codeLine="51" fill="#F1F1F1" height="113.1875" id="GameStateAPIResponse" rx="2.5" ry="2.5" style="stroke:#181818;stroke-width:0.5;" width="288" x="1344.5" y="565.5"/><ellipse cx="1396.75" cy="581.5" fill="#ADD1B2" rx="11" ry="11" style="stroke:#181818;stroke-width:1.0;"/><path d="M1399.0938,577.1719 C1398.1563,576.7344 1397.5625,576.5938 1396.6875,576.5938 C1394.0625,576.5938 1392.0625,578.6719 1392.0625,581.3906 L1392.0625,582.5156 C1392.0625,585.0938 1394.1719,586.9844 1397.0625,586.9844 C1398.2813,586.9844 1399.4375,586.6875 1400.1875,586.1406 C1400.7656,585.7344 1401.0938,585.2813 1401.0938,584.8906 C1401.0938,584.4375 1400.7031,584.0469 1400.2344,584.0469 C1400.0156,584.0469 1399.8125,584.125 1399.625,584.3125 C1399.1719,584.7969 1399.1719,584.7969 1398.9844,584.8906 C1398.5625,585.1563 1397.875,585.2813 1397.1094,585.2813 C1395.0625,585.2813 1393.7656,584.1875 1393.7656,582.4844 L1393.7656,581.3906 C1393.7656,579.6094 1395.0156,578.2969 1396.75,578.2969 C1397.3281,578.2969 1397.9375,578.4531 1398.4063,578.7031 C1398.8906,578.9844 1399.0625,579.2031 1399.1563,579.6094 C1399.2188,580.0156 1399.25,580.1406 1399.3906,580.2656 C1399.5313,580.4063 1399.7656,580.5156 1399.9844,580.5156 C1400.25,580.5156 1400.5156,580.375 1400.6875,580.1563 C1400.7969,580 1400.8281,579.8125 1400.8281,579.3906 L1400.8281,577.9688 C1400.8281,577.5313 1400.8125,577.4063 1400.7188,577.25 C1400.5625,576.9844 1400.2813,576.8438 1399.9844,576.8438 C1399.6875,576.8438 1399.4844,576.9375 1399.2656,577.25 L1399.0938,577.1719 Z " fill="#000000"/><text fill="#000000" font-family="sans-serif" font-size="14" lengthAdjust="spacing" textLength="175" x="1417.25" y="586.3467">GameStateAPIResponse</text><line style="stroke:#181818;stroke-width:0.5;" x1="1345.5" x2="1631.5" y1="597.5" y2="597.5"/><ellipse cx="1355.5" cy="608.5" fill="none" rx="3" ry="3" style="stroke:#038048;stroke-width:1.0;"/><text fill="#000000" font-family="sans-serif" font-size="14" lengthAdjust="spacing" textLength="75" x="1364.5" y="614.4951">fen: string</text><ellipse cx="1355.5" cy="624.7969" fill="none" rx="3" ry="3" style="stroke:#038048;stroke-width:1.0;"/><text fill="#000000" font-family="sans-serif" font-size="14" lengthAdjust="spacing" textLength="128" x="1364.5" y="630.792">gameKey: string[]</text><ellipse cx="1355.5" cy="641.0938" fill="none" rx="3" ry="3" style="stroke:#038048;stroke-width:1.0;"/><text fill="#000000" font-family="sans-serif" font-size="14" lengthAdjust="spacing" textLength="196" x="1364.5" y="647.0889">messages: IGameMessage[]</text><ellipse cx="1355.5" cy="657.3906" fill="none" rx="3" ry="3" style="stroke:#038048;stroke-width:1.0;"/><text fill="#000000" font-family="sans-serif" font-size="14" lengthAdjust="spacing" textLength="262" x="1364.5" y="663.3857">players: { black?: any; white?: any; }</text><line style="stroke:#181818;stroke-width:0.5;" x1="1345.5" x2="1631.5" y1="670.6875" y2="670.6875"/></g><!--MD5=[928bcff83946001fa03afb90f0500b0d]
class IGameStateAPIResponse--><g id="elem_IGameStateAPIResponse"><rect fill="#F1F1F1" height="48" id="IGameStateAPIResponse" rx="2.5" ry="2.5" style="stroke:#181818;stroke-width:0.5;" width="207" x="1385" y="343"/><ellipse cx="1400" cy="359" fill="#B4A7E5" rx="11" ry="11" style="stroke:#181818;stroke-width:1.0;"/><path d="M1400.9531,355.7813 L1402.6719,355.7813 C1403.0625,355.7813 1403.25,355.75 1403.375,355.6719 C1403.6406,355.5156 1403.7813,355.2344 1403.7813,354.9375 C1403.7813,354.6719 1403.6719,354.4063 1403.4375,354.2344 C1403.2656,354.125 1403.125,354.0938 1402.6719,354.0938 L1397.5313,354.0938 C1397.0938,354.0938 1396.9688,354.1094 1396.8125,354.2031 C1396.5625,354.3594 1396.4063,354.6563 1396.4063,354.9375 C1396.4063,355.2188 1396.5469,355.4688 1396.7656,355.6406 C1396.9219,355.75 1397.1094,355.7813 1397.5313,355.7813 L1399.25,355.7813 L1399.25,362.2969 L1397.5313,362.2969 C1397.0938,362.2969 1396.9688,362.3125 1396.8125,362.4219 C1396.5625,362.5781 1396.4063,362.8594 1396.4063,363.1563 C1396.4063,363.4063 1396.5469,363.6719 1396.7656,363.8281 C1396.9219,363.9531 1397.125,364 1397.5313,364 L1402.6719,364 C1403.4219,364 1403.7813,363.7188 1403.7813,363.1563 C1403.7813,362.875 1403.6719,362.625 1403.4375,362.4531 C1403.2656,362.3281 1403.125,362.2969 1402.6719,362.2969 L1400.9531,362.2969 L1400.9531,355.7813 Z " fill="#000000"/><text fill="#000000" font-family="sans-serif" font-size="14" font-style="italic" lengthAdjust="spacing" textLength="175" x="1414" y="363.8467">IGameStateAPIResponse</text><line style="stroke:#181818;stroke-width:0.5;" x1="1386" x2="1591" y1="375" y2="375"/><line style="stroke:#181818;stroke-width:0.5;" x1="1386" x2="1591" y1="383" y2="383"/></g><!--MD5=[f41a2a69ef6870569400a9d90f983dee]
class ChessGame--><g id="elem_ChessGame"><rect codeLine="57" fill="#F1F1F1" height="243.5625" id="ChessGame" rx="2.5" ry="2.5" style="stroke:#181818;stroke-width:0.5;" width="378" x="3353.5" y="245"/><ellipse cx="3496.25" cy="261" fill="#ADD1B2" rx="11" ry="11" style="stroke:#181818;stroke-width:1.0;"/><path d="M3498.5938,256.6719 C3497.6563,256.2344 3497.0625,256.0938 3496.1875,256.0938 C3493.5625,256.0938 3491.5625,258.1719 3491.5625,260.8906 L3491.5625,262.0156 C3491.5625,264.5938 3493.6719,266.4844 3496.5625,266.4844 C3497.7813,266.4844 3498.9375,266.1875 3499.6875,265.6406 C3500.2656,265.2344 3500.5938,264.7813 3500.5938,264.3906 C3500.5938,263.9375 3500.2031,263.5469 3499.7344,263.5469 C3499.5156,263.5469 3499.3125,263.625 3499.125,263.8125 C3498.6719,264.2969 3498.6719,264.2969 3498.4844,264.3906 C3498.0625,264.6563 3497.375,264.7813 3496.6094,264.7813 C3494.5625,264.7813 3493.2656,263.6875 3493.2656,261.9844 L3493.2656,260.8906 C3493.2656,259.1094 3494.5156,257.7969 3496.25,257.7969 C3496.8281,257.7969 3497.4375,257.9531 3497.9063,258.2031 C3498.3906,258.4844 3498.5625,258.7031 3498.6563,259.1094 C3498.7188,259.5156 3498.75,259.6406 3498.8906,259.7656 C3499.0313,259.9063 3499.2656,260.0156 3499.4844,260.0156 C3499.75,260.0156 3500.0156,259.875 3500.1875,259.6563 C3500.2969,259.5 3500.3281,259.3125 3500.3281,258.8906 L3500.3281,257.4688 C3500.3281,257.0313 3500.3125,256.9063 3500.2188,256.75 C3500.0625,256.4844 3499.7813,256.3438 3499.4844,256.3438 C3499.1875,256.3438 3498.9844,256.4375 3498.7656,256.75 L3498.5938,256.6719 Z " fill="#000000"/><text fill="#000000" font-family="sans-serif" font-size="14" lengthAdjust="spacing" textLength="84" x="3516.75" y="265.8467">ChessGame</text><line style="stroke:#181818;stroke-width:0.5;" x1="3354.5" x2="3730.5" y1="277" y2="277"/><ellipse cx="3364.5" cy="288" fill="none" rx="3" ry="3" style="stroke:#038048;stroke-width:1.0;"/><text fill="#000000" font-family="sans-serif" font-size="14" lengthAdjust="spacing" textLength="128" x="3373.5" y="293.9951">gameKey: string[]</text><ellipse cx="3364.5" cy="304.2969" fill="none" rx="3" ry="3" style="stroke:#038048;stroke-width:1.0;"/><text fill="#000000" font-family="sans-serif" font-size="14" lengthAdjust="spacing" textLength="175" x="3373.5" y="310.292">black?: IUser | undefined</text><ellipse cx="3364.5" cy="320.5938" fill="none" rx="3" ry="3" style="stroke:#038048;stroke-width:1.0;"/><text fill="#000000" font-family="sans-serif" font-size="14" lengthAdjust="spacing" textLength="176" x="3373.5" y="326.5889">white?: IUser | undefined</text><ellipse cx="3364.5" cy="336.8906" fill="none" rx="3" ry="3" style="stroke:#038048;stroke-width:1.0;"/><text fill="#000000" font-family="sans-serif" font-size="14" lengthAdjust="spacing" textLength="131" x="3373.5" y="342.8857">blackSocket?: any</text><ellipse cx="3364.5" cy="353.1875" fill="none" rx="3" ry="3" style="stroke:#038048;stroke-width:1.0;"/><text fill="#000000" font-family="sans-serif" font-size="14" lengthAdjust="spacing" textLength="132" x="3373.5" y="359.1826">whiteSocket?: any</text><rect fill="none" height="6" style="stroke:#C82930;stroke-width:1.0;" width="6" x="3361.5" y="366.4844"/><text fill="#000000" font-family="sans-serif" font-size="14" lengthAdjust="spacing" textLength="152" x="3373.5" y="375.4795">game: ChessInstance</text><rect fill="none" height="6" style="stroke:#C82930;stroke-width:1.0;" width="6" x="3361.5" y="382.7813"/><text fill="#000000" font-family="sans-serif" font-size="14" lengthAdjust="spacing" textLength="196" x="3373.5" y="391.7764">messages: IGameMessage[]</text><ellipse cx="3364.5" cy="402.0781" fill="none" rx="3" ry="3" style="stroke:#038048;stroke-width:1.0;"/><text fill="#000000" font-family="sans-serif" font-size="14" lengthAdjust="spacing" textLength="75" x="3373.5" y="408.0732">fen: string</text><ellipse cx="3364.5" cy="418.375" fill="none" rx="3" ry="3" style="stroke:#038048;stroke-width:1.0;"/><text fill="#000000" font-family="sans-serif" font-size="14" lengthAdjust="spacing" textLength="101" x="3373.5" y="424.3701">turn: "w" | "b"</text><line style="stroke:#181818;stroke-width:0.5;" x1="3354.5" x2="3730.5" y1="431.6719" y2="431.6719"/><ellipse cx="3364.5" cy="442.6719" fill="#84BE84" rx="3" ry="3" style="stroke:#038048;stroke-width:1.0;"/><text fill="#000000" font-family="sans-serif" font-size="14" lengthAdjust="spacing" textLength="315" x="3373.5" y="448.667">addMessage(message: IGameMessage): void</text><ellipse cx="3364.5" cy="458.9688" fill="#84BE84" rx="3" ry="3" style="stroke:#038048;stroke-width:1.0;"/><text fill="#000000" font-family="sans-serif" font-size="14" lengthAdjust="spacing" textLength="229" x="3373.5" y="464.9639">getMessages(): IGameMessage[]</text><ellipse cx="3364.5" cy="475.2656" fill="#84BE84" rx="3" ry="3" style="stroke:#038048;stroke-width:1.0;"/><text fill="#000000" font-family="sans-serif" font-size="14" lengthAdjust="spacing" textLength="352" x="3373.5" y="481.2607">move(source: Square, target: Square): Move | null</text></g><!--MD5=[b28b797a8bb52c5d797eb4874e8b08fe]
class ArrayUtils--><g id="elem_ArrayUtils"><rect codeLine="71" fill="#F1F1F1" height="64.2969" id="ArrayUtils" rx="2.5" ry="2.5" style="stroke:#181818;stroke-width:0.5;" width="290" x="515.5" y="64"/><ellipse cx="621.75" cy="80" fill="#ADD1B2" rx="11" ry="11" style="stroke:#181818;stroke-width:1.0;"/><path d="M624.0938,75.6719 C623.1563,75.2344 622.5625,75.0938 621.6875,75.0938 C619.0625,75.0938 617.0625,77.1719 617.0625,79.8906 L617.0625,81.0156 C617.0625,83.5938 619.1719,85.4844 622.0625,85.4844 C623.2813,85.4844 624.4375,85.1875 625.1875,84.6406 C625.7656,84.2344 626.0938,83.7813 626.0938,83.3906 C626.0938,82.9375 625.7031,82.5469 625.2344,82.5469 C625.0156,82.5469 624.8125,82.625 624.625,82.8125 C624.1719,83.2969 624.1719,83.2969 623.9844,83.3906 C623.5625,83.6563 622.875,83.7813 622.1094,83.7813 C620.0625,83.7813 618.7656,82.6875 618.7656,80.9844 L618.7656,79.8906 C618.7656,78.1094 620.0156,76.7969 621.75,76.7969 C622.3281,76.7969 622.9375,76.9531 623.4063,77.2031 C623.8906,77.4844 624.0625,77.7031 624.1563,78.1094 C624.2188,78.5156 624.25,78.6406 624.3906,78.7656 C624.5313,78.9063 624.7656,79.0156 624.9844,79.0156 C625.25,79.0156 625.5156,78.875 625.6875,78.6563 C625.7969,78.5 625.8281,78.3125 625.8281,77.8906 L625.8281,76.4688 C625.8281,76.0313 625.8125,75.9063 625.7188,75.75 C625.5625,75.4844 625.2813,75.3438 624.9844,75.3438 C624.6875,75.3438 624.4844,75.4375 624.2656,75.75 L624.0938,75.6719 Z " fill="#000000"/><text fill="#000000" font-family="sans-serif" font-size="14" lengthAdjust="spacing" textLength="69" x="642.25" y="84.8467">ArrayUtils</text><line style="stroke:#181818;stroke-width:0.5;" x1="516.5" x2="804.5" y1="96" y2="96"/><line style="stroke:#181818;stroke-width:0.5;" x1="516.5" x2="804.5" y1="104" y2="104"/><ellipse cx="526.5" cy="115" fill="#84BE84" rx="3" ry="3" style="stroke:#038048;stroke-width:1.0;"/><text fill="#000000" font-family="sans-serif" font-size="14" lengthAdjust="spacing" text-decoration="underline" textLength="264" x="535.5" y="120.9951">strictCompare(a: T[], b: T[]): boolean</text></g><!--MD5=[ebecb9917226677787fac7e9a2731304]
class GameManager--><g id="elem_GameManager"><rect codeLine="74" fill="#F1F1F1" height="178.375" id="GameManager" rx="2.5" ry="2.5" style="stroke:#181818;stroke-width:0.5;" width="445" x="3320" y="7"/><ellipse cx="3486.75" cy="23" fill="#ADD1B2" rx="11" ry="11" style="stroke:#181818;stroke-width:1.0;"/><path d="M3489.0938,18.6719 C3488.1563,18.2344 3487.5625,18.0938 3486.6875,18.0938 C3484.0625,18.0938 3482.0625,20.1719 3482.0625,22.8906 L3482.0625,24.0156 C3482.0625,26.5938 3484.1719,28.4844 3487.0625,28.4844 C3488.2813,28.4844 3489.4375,28.1875 3490.1875,27.6406 C3490.7656,27.2344 3491.0938,26.7813 3491.0938,26.3906 C3491.0938,25.9375 3490.7031,25.5469 3490.2344,25.5469 C3490.0156,25.5469 3489.8125,25.625 3489.625,25.8125 C3489.1719,26.2969 3489.1719,26.2969 3488.9844,26.3906 C3488.5625,26.6563 3487.875,26.7813 3487.1094,26.7813 C3485.0625,26.7813 3483.7656,25.6875 3483.7656,23.9844 L3483.7656,22.8906 C3483.7656,21.1094 3485.0156,19.7969 3486.75,19.7969 C3487.3281,19.7969 3487.9375,19.9531 3488.4063,20.2031 C3488.8906,20.4844 3489.0625,20.7031 3489.1563,21.1094 C3489.2188,21.5156 3489.25,21.6406 3489.3906,21.7656 C3489.5313,21.9063 3489.7656,22.0156 3489.9844,22.0156 C3490.25,22.0156 3490.5156,21.875 3490.6875,21.6563 C3490.7969,21.5 3490.8281,21.3125 3490.8281,20.8906 L3490.8281,19.4688 C3490.8281,19.0313 3490.8125,18.9063 3490.7188,18.75 C3490.5625,18.4844 3490.2813,18.3438 3489.9844,18.3438 C3489.6875,18.3438 3489.4844,18.4375 3489.2656,18.75 L3489.0938,18.6719 Z " fill="#000000"/><text fill="#000000" font-family="sans-serif" font-size="14" lengthAdjust="spacing" textLength="103" x="3507.25" y="27.8467">GameManager</text><line style="stroke:#181818;stroke-width:0.5;" x1="3321" x2="3764" y1="39" y2="39"/><rect fill="none" height="6" style="stroke:#C82930;stroke-width:1.0;" width="6" x="3328" y="47"/><text fill="#000000" font-family="sans-serif" font-size="14" lengthAdjust="spacing" text-decoration="underline" textLength="150" x="3340" y="55.9951">games: ChessGame[]</text><line style="stroke:#181818;stroke-width:0.5;" x1="3321" x2="3764" y1="63.2969" y2="63.2969"/><ellipse cx="3331" cy="74.2969" fill="#84BE84" rx="3" ry="3" style="stroke:#038048;stroke-width:1.0;"/><text fill="#000000" font-family="sans-serif" font-size="14" lengthAdjust="spacing" text-decoration="underline" textLength="407" x="3340" y="80.292">findGameByUser(uid: string | ObjectId): ChessGame | null</text><ellipse cx="3331" cy="90.5938" fill="#84BE84" rx="3" ry="3" style="stroke:#038048;stroke-width:1.0;"/><text fill="#000000" font-family="sans-serif" font-size="14" lengthAdjust="spacing" text-decoration="underline" textLength="384" x="3340" y="96.5889">findGameByKey(gameKey: string[]): ChessGame | null</text><ellipse cx="3331" cy="106.8906" fill="#84BE84" rx="3" ry="3" style="stroke:#038048;stroke-width:1.0;"/><text fill="#000000" font-family="sans-serif" font-size="14" lengthAdjust="spacing" text-decoration="underline" textLength="418" x="3340" y="112.8857">verifyUserAccess(uid: string, auth: string): Promise&lt;IUser&gt;</text><ellipse cx="3331" cy="123.1875" fill="#84BE84" rx="3" ry="3" style="stroke:#038048;stroke-width:1.0;"/><text fill="#000000" font-family="sans-serif" font-size="14" lengthAdjust="spacing" text-decoration="underline" textLength="304" x="3340" y="129.1826">createGame(user: IUser): ChessGame | null</text><ellipse cx="3331" cy="139.4844" fill="#84BE84" rx="3" ry="3" style="stroke:#038048;stroke-width:1.0;"/><text fill="#000000" font-family="sans-serif" font-size="14" lengthAdjust="spacing" text-decoration="underline" textLength="190" x="3340" y="145.4795">endGame(uid: string): void</text><ellipse cx="3331" cy="155.7813" fill="#84BE84" rx="3" ry="3" style="stroke:#038048;stroke-width:1.0;"/><text fill="#000000" font-family="sans-serif" font-size="14" lengthAdjust="spacing" text-decoration="underline" textLength="419" x="3340" y="161.7764">joinGame(user: IUser, gameKey: string[]): ChessGame | null</text><ellipse cx="3331" cy="172.0781" fill="#84BE84" rx="3" ry="3" style="stroke:#038048;stroke-width:1.0;"/><text fill="#000000" font-family="sans-serif" font-size="14" lengthAdjust="spacing" text-decoration="underline" textLength="206" x="3340" y="178.0732">generateGameKey(): string[]</text></g><!--MD5=[1165ac2cc0b65b7540d69244297d9fd3]
class GameCreatedAPIResponse--><g id="elem_GameCreatedAPIResponse"><rect codeLine="84" fill="#F1F1F1" height="64.2969" id="GameCreatedAPIResponse" rx="2.5" ry="2.5" style="stroke:#181818;stroke-width:0.5;" width="225" x="1876" y="590"/><ellipse cx="1891" cy="606" fill="#ADD1B2" rx="11" ry="11" style="stroke:#181818;stroke-width:1.0;"/><path d="M1893.3438,601.6719 C1892.4063,601.2344 1891.8125,601.0938 1890.9375,601.0938 C1888.3125,601.0938 1886.3125,603.1719 1886.3125,605.8906 L1886.3125,607.0156 C1886.3125,609.5938 1888.4219,611.4844 1891.3125,611.4844 C1892.5313,611.4844 1893.6875,611.1875 1894.4375,610.6406 C1895.0156,610.2344 1895.3438,609.7813 1895.3438,609.3906 C1895.3438,608.9375 1894.9531,608.5469 1894.4844,608.5469 C1894.2656,608.5469 1894.0625,608.625 1893.875,608.8125 C1893.4219,609.2969 1893.4219,609.2969 1893.2344,609.3906 C1892.8125,609.6563 1892.125,609.7813 1891.3594,609.7813 C1889.3125,609.7813 1888.0156,608.6875 1888.0156,606.9844 L1888.0156,605.8906 C1888.0156,604.1094 1889.2656,602.7969 1891,602.7969 C1891.5781,602.7969 1892.1875,602.9531 1892.6563,603.2031 C1893.1406,603.4844 1893.3125,603.7031 1893.4063,604.1094 C1893.4688,604.5156 1893.5,604.6406 1893.6406,604.7656 C1893.7813,604.9063 1894.0156,605.0156 1894.2344,605.0156 C1894.5,605.0156 1894.7656,604.875 1894.9375,604.6563 C1895.0469,604.5 1895.0781,604.3125 1895.0781,603.8906 L1895.0781,602.4688 C1895.0781,602.0313 1895.0625,601.9063 1894.9688,601.75 C1894.8125,601.4844 1894.5313,601.3438 1894.2344,601.3438 C1893.9375,601.3438 1893.7344,601.4375 1893.5156,601.75 L1893.3438,601.6719 Z " fill="#000000"/><text fill="#000000" font-family="sans-serif" font-size="14" lengthAdjust="spacing" textLength="193" x="1905" y="610.8467">GameCreatedAPIResponse</text><line style="stroke:#181818;stroke-width:0.5;" x1="1877" x2="2100" y1="622" y2="622"/><ellipse cx="1887" cy="633" fill="none" rx="3" ry="3" style="stroke:#038048;stroke-width:1.0;"/><text fill="#000000" font-family="sans-serif" font-size="14" lengthAdjust="spacing" textLength="128" x="1896" y="638.9951">gameKey: string[]</text><line style="stroke:#181818;stroke-width:0.5;" x1="1877" x2="2100" y1="646.2969" y2="646.2969"/></g><!--MD5=[e4d16eb279c1bc91b2fb6f1f03ed5ed5]
class IGameCreatedAPIResponse--><g id="elem_IGameCreatedAPIResponse"><rect fill="#F1F1F1" height="48" id="IGameCreatedAPIResponse" rx="2.5" ry="2.5" style="stroke:#181818;stroke-width:0.5;" width="227" x="1879" y="343"/><ellipse cx="1894" cy="359" fill="#B4A7E5" rx="11" ry="11" style="stroke:#181818;stroke-width:1.0;"/><path d="M1894.9531,355.7813 L1896.6719,355.7813 C1897.0625,355.7813 1897.25,355.75 1897.375,355.6719 C1897.6406,355.5156 1897.7813,355.2344 1897.7813,354.9375 C1897.7813,354.6719 1897.6719,354.4063 1897.4375,354.2344 C1897.2656,354.125 1897.125,354.0938 1896.6719,354.0938 L1891.5313,354.0938 C1891.0938,354.0938 1890.9688,354.1094 1890.8125,354.2031 C1890.5625,354.3594 1890.4063,354.6563 1890.4063,354.9375 C1890.4063,355.2188 1890.5469,355.4688 1890.7656,355.6406 C1890.9219,355.75 1891.1094,355.7813 1891.5313,355.7813 L1893.25,355.7813 L1893.25,362.2969 L1891.5313,362.2969 C1891.0938,362.2969 1890.9688,362.3125 1890.8125,362.4219 C1890.5625,362.5781 1890.4063,362.8594 1890.4063,363.1563 C1890.4063,363.4063 1890.5469,363.6719 1890.7656,363.8281 C1890.9219,363.9531 1891.125,364 1891.5313,364 L1896.6719,364 C1897.4219,364 1897.7813,363.7188 1897.7813,363.1563 C1897.7813,362.875 1897.6719,362.625 1897.4375,362.4531 C1897.2656,362.3281 1897.125,362.2969 1896.6719,362.2969 L1894.9531,362.2969 L1894.9531,355.7813 Z " fill="#000000"/><text fill="#000000" font-family="sans-serif" font-size="14" font-style="italic" lengthAdjust="spacing" textLength="195" x="1908" y="363.8467">IGameCreatedAPIResponse</text><line style="stroke:#181818;stroke-width:0.5;" x1="1880" x2="2105" y1="375" y2="375"/><line style="stroke:#181818;stroke-width:0.5;" x1="1880" x2="2105" y1="383" y2="383"/></g><!--MD5=[5e55317c1845fbee4b6d87d46afe35a6]
class GameRoutes--><g id="elem_GameRoutes"><rect codeLine="87" fill="#F1F1F1" height="80.5938" id="GameRoutes" rx="2.5" ry="2.5" style="stroke:#181818;stroke-width:0.5;" width="547" x="841" y="55.5"/><ellipse cx="1064.25" cy="71.5" fill="#ADD1B2" rx="11" ry="11" style="stroke:#181818;stroke-width:1.0;"/><path d="M1066.5938,67.1719 C1065.6563,66.7344 1065.0625,66.5938 1064.1875,66.5938 C1061.5625,66.5938 1059.5625,68.6719 1059.5625,71.3906 L1059.5625,72.5156 C1059.5625,75.0938 1061.6719,76.9844 1064.5625,76.9844 C1065.7813,76.9844 1066.9375,76.6875 1067.6875,76.1406 C1068.2656,75.7344 1068.5938,75.2813 1068.5938,74.8906 C1068.5938,74.4375 1068.2031,74.0469 1067.7344,74.0469 C1067.5156,74.0469 1067.3125,74.125 1067.125,74.3125 C1066.6719,74.7969 1066.6719,74.7969 1066.4844,74.8906 C1066.0625,75.1563 1065.375,75.2813 1064.6094,75.2813 C1062.5625,75.2813 1061.2656,74.1875 1061.2656,72.4844 L1061.2656,71.3906 C1061.2656,69.6094 1062.5156,68.2969 1064.25,68.2969 C1064.8281,68.2969 1065.4375,68.4531 1065.9063,68.7031 C1066.3906,68.9844 1066.5625,69.2031 1066.6563,69.6094 C1066.7188,70.0156 1066.75,70.1406 1066.8906,70.2656 C1067.0313,70.4063 1067.2656,70.5156 1067.4844,70.5156 C1067.75,70.5156 1068.0156,70.375 1068.1875,70.1563 C1068.2969,70 1068.3281,69.8125 1068.3281,69.3906 L1068.3281,67.9688 C1068.3281,67.5313 1068.3125,67.4063 1068.2188,67.25 C1068.0625,66.9844 1067.7813,66.8438 1067.4844,66.8438 C1067.1875,66.8438 1066.9844,66.9375 1066.7656,67.25 L1066.5938,67.1719 Z " fill="#000000"/><text fill="#000000" font-family="sans-serif" font-size="14" lengthAdjust="spacing" textLength="92" x="1084.75" y="76.3467">GameRoutes</text><line style="stroke:#181818;stroke-width:0.5;" x1="842" x2="1387" y1="87.5" y2="87.5"/><line style="stroke:#181818;stroke-width:0.5;" x1="842" x2="1387" y1="95.5" y2="95.5"/><ellipse cx="852" cy="106.5" fill="#84BE84" rx="3" ry="3" style="stroke:#038048;stroke-width:1.0;"/><text fill="#000000" font-family="sans-serif" font-size="14" lengthAdjust="spacing" text-decoration="underline" textLength="521" x="861" y="112.4951">createGame(req: CreateGameRequest, res: CreateGameResponse): void</text><ellipse cx="852" cy="122.7969" fill="#84BE84" rx="3" ry="3" style="stroke:#038048;stroke-width:1.0;"/><text fill="#000000" font-family="sans-serif" font-size="14" lengthAdjust="spacing" text-decoration="underline" textLength="454" x="861" y="128.792">joinGame(req: JoinGameRequest, res: JoinGameResponse): void</text></g><!--MD5=[4476dd818a02198350536b6ba7e8c915]
class LoginAPIResponse--><g id="elem_LoginAPIResponse"><rect codeLine="91" fill="#F1F1F1" height="64.2969" id="LoginAPIResponse" rx="2.5" ry="2.5" style="stroke:#181818;stroke-width:0.5;" width="164" x="1667.5" y="590"/><ellipse cx="1682.5" cy="606" fill="#ADD1B2" rx="11" ry="11" style="stroke:#181818;stroke-width:1.0;"/><path d="M1684.8438,601.6719 C1683.9063,601.2344 1683.3125,601.0938 1682.4375,601.0938 C1679.8125,601.0938 1677.8125,603.1719 1677.8125,605.8906 L1677.8125,607.0156 C1677.8125,609.5938 1679.9219,611.4844 1682.8125,611.4844 C1684.0313,611.4844 1685.1875,611.1875 1685.9375,610.6406 C1686.5156,610.2344 1686.8438,609.7813 1686.8438,609.3906 C1686.8438,608.9375 1686.4531,608.5469 1685.9844,608.5469 C1685.7656,608.5469 1685.5625,608.625 1685.375,608.8125 C1684.9219,609.2969 1684.9219,609.2969 1684.7344,609.3906 C1684.3125,609.6563 1683.625,609.7813 1682.8594,609.7813 C1680.8125,609.7813 1679.5156,608.6875 1679.5156,606.9844 L1679.5156,605.8906 C1679.5156,604.1094 1680.7656,602.7969 1682.5,602.7969 C1683.0781,602.7969 1683.6875,602.9531 1684.1563,603.2031 C1684.6406,603.4844 1684.8125,603.7031 1684.9063,604.1094 C1684.9688,604.5156 1685,604.6406 1685.1406,604.7656 C1685.2813,604.9063 1685.5156,605.0156 1685.7344,605.0156 C1686,605.0156 1686.2656,604.875 1686.4375,604.6563 C1686.5469,604.5 1686.5781,604.3125 1686.5781,603.8906 L1686.5781,602.4688 C1686.5781,602.0313 1686.5625,601.9063 1686.4688,601.75 C1686.3125,601.4844 1686.0313,601.3438 1685.7344,601.3438 C1685.4375,601.3438 1685.2344,601.4375 1685.0156,601.75 L1684.8438,601.6719 Z " fill="#000000"/><text fill="#000000" font-family="sans-serif" font-size="14" lengthAdjust="spacing" textLength="132" x="1696.5" y="610.8467">LoginAPIResponse</text><line style="stroke:#181818;stroke-width:0.5;" x1="1668.5" x2="1830.5" y1="622" y2="622"/><ellipse cx="1678.5" cy="633" fill="none" rx="3" ry="3" style="stroke:#038048;stroke-width:1.0;"/><text fill="#000000" font-family="sans-serif" font-size="14" lengthAdjust="spacing" textLength="103" x="1687.5" y="638.9951">auth: AuthInfo</text><line style="stroke:#181818;stroke-width:0.5;" x1="1668.5" x2="1830.5" y1="646.2969" y2="646.2969"/></g><!--MD5=[69e456fa7708b746ad633242a9b433cf]
class UserRoutes--><g id="elem_UserRoutes"><rect codeLine="94" fill="#F1F1F1" height="96.8906" id="UserRoutes" rx="2.5" ry="2.5" style="stroke:#181818;stroke-width:0.5;" width="695" x="7" y="318.5"/><ellipse cx="309.75" cy="334.5" fill="#ADD1B2" rx="11" ry="11" style="stroke:#181818;stroke-width:1.0;"/><path d="M312.0938,330.1719 C311.1563,329.7344 310.5625,329.5938 309.6875,329.5938 C307.0625,329.5938 305.0625,331.6719 305.0625,334.3906 L305.0625,335.5156 C305.0625,338.0938 307.1719,339.9844 310.0625,339.9844 C311.2813,339.9844 312.4375,339.6875 313.1875,339.1406 C313.7656,338.7344 314.0938,338.2813 314.0938,337.8906 C314.0938,337.4375 313.7031,337.0469 313.2344,337.0469 C313.0156,337.0469 312.8125,337.125 312.625,337.3125 C312.1719,337.7969 312.1719,337.7969 311.9844,337.8906 C311.5625,338.1563 310.875,338.2813 310.1094,338.2813 C308.0625,338.2813 306.7656,337.1875 306.7656,335.4844 L306.7656,334.3906 C306.7656,332.6094 308.0156,331.2969 309.75,331.2969 C310.3281,331.2969 310.9375,331.4531 311.4063,331.7031 C311.8906,331.9844 312.0625,332.2031 312.1563,332.6094 C312.2188,333.0156 312.25,333.1406 312.3906,333.2656 C312.5313,333.4063 312.7656,333.5156 312.9844,333.5156 C313.25,333.5156 313.5156,333.375 313.6875,333.1563 C313.7969,333 313.8281,332.8125 313.8281,332.3906 L313.8281,330.9688 C313.8281,330.5313 313.8125,330.4063 313.7188,330.25 C313.5625,329.9844 313.2813,329.8438 312.9844,329.8438 C312.6875,329.8438 312.4844,329.9375 312.2656,330.25 L312.0938,330.1719 Z " fill="#000000"/><text fill="#000000" font-family="sans-serif" font-size="14" lengthAdjust="spacing" textLength="81" x="330.25" y="339.3467">UserRoutes</text><line style="stroke:#181818;stroke-width:0.5;" x1="8" x2="701" y1="350.5" y2="350.5"/><line style="stroke:#181818;stroke-width:0.5;" x1="8" x2="701" y1="358.5" y2="358.5"/><ellipse cx="18" cy="369.5" fill="#84BE84" rx="3" ry="3" style="stroke:#038048;stroke-width:1.0;"/><text fill="#000000" font-family="sans-serif" font-size="14" lengthAdjust="spacing" text-decoration="underline" textLength="531" x="27" y="375.4951">createUserRoute(req: CreateUserRequest, res: CreateUserResponse): void</text><ellipse cx="18" cy="385.7969" fill="#84BE84" rx="3" ry="3" style="stroke:#038048;stroke-width:1.0;"/><text fill="#000000" font-family="sans-serif" font-size="14" lengthAdjust="spacing" text-decoration="underline" textLength="499" x="27" y="391.792">loginUserRoute(req: LoginUserRequest, res: LoginUserResponse): void</text><ellipse cx="18" cy="402.0938" fill="#84BE84" rx="3" ry="3" style="stroke:#038048;stroke-width:1.0;"/><text fill="#000000" font-family="sans-serif" font-size="14" lengthAdjust="spacing" text-decoration="underline" textLength="669" x="27" y="408.0889">authenticateUserRoute(req: AuthenticateUserRequest, res: AuthenticateUserResponse): void</text></g><!--MD5=[dd909653e2a3ff7ef37c47b3ce0e6062]
class RTCServer--><g id="elem_RTCServer"><rect codeLine="99" fill="#F1F1F1" height="162.0781" id="RTCServer" rx="2.5" ry="2.5" style="stroke:#181818;stroke-width:0.5;" width="613" x="737" y="286"/><ellipse cx="1001.25" cy="302" fill="#ADD1B2" rx="11" ry="11" style="stroke:#181818;stroke-width:1.0;"/><path d="M1003.5938,297.6719 C1002.6563,297.2344 1002.0625,297.0938 1001.1875,297.0938 C998.5625,297.0938 996.5625,299.1719 996.5625,301.8906 L996.5625,303.0156 C996.5625,305.5938 998.6719,307.4844 1001.5625,307.4844 C1002.7813,307.4844 1003.9375,307.1875 1004.6875,306.6406 C1005.2656,306.2344 1005.5938,305.7813 1005.5938,305.3906 C1005.5938,304.9375 1005.2031,304.5469 1004.7344,304.5469 C1004.5156,304.5469 1004.3125,304.625 1004.125,304.8125 C1003.6719,305.2969 1003.6719,305.2969 1003.4844,305.3906 C1003.0625,305.6563 1002.375,305.7813 1001.6094,305.7813 C999.5625,305.7813 998.2656,304.6875 998.2656,302.9844 L998.2656,301.8906 C998.2656,300.1094 999.5156,298.7969 1001.25,298.7969 C1001.8281,298.7969 1002.4375,298.9531 1002.9063,299.2031 C1003.3906,299.4844 1003.5625,299.7031 1003.6563,300.1094 C1003.7188,300.5156 1003.75,300.6406 1003.8906,300.7656 C1004.0313,300.9063 1004.2656,301.0156 1004.4844,301.0156 C1004.75,301.0156 1005.0156,300.875 1005.1875,300.6563 C1005.2969,300.5 1005.3281,300.3125 1005.3281,299.8906 L1005.3281,298.4688 C1005.3281,298.0313 1005.3125,297.9063 1005.2188,297.75 C1005.0625,297.4844 1004.7813,297.3438 1004.4844,297.3438 C1004.1875,297.3438 1003.9844,297.4375 1003.7656,297.75 L1003.5938,297.6719 Z " fill="#000000"/><text fill="#000000" font-family="sans-serif" font-size="14" lengthAdjust="spacing" textLength="76" x="1021.75" y="306.8467">RTCServer</text><line style="stroke:#181818;stroke-width:0.5;" x1="738" x2="1349" y1="318" y2="318"/><rect fill="none" height="6" style="stroke:#C82930;stroke-width:1.0;" width="6" x="745" y="326"/><text fill="#000000" font-family="sans-serif" font-size="14" lengthAdjust="spacing" textLength="139" x="757" y="334.9951">server: http.Server</text><rect fill="none" height="6" style="stroke:#C82930;stroke-width:1.0;" width="6" x="745" y="342.2969"/><text fill="#000000" font-family="sans-serif" font-size="14" lengthAdjust="spacing" textLength="154" x="757" y="351.292">app: express.Express</text><rect fill="none" height="6" style="stroke:#C82930;stroke-width:1.0;" width="6" x="745" y="358.5938"/><text fill="#000000" font-family="sans-serif" font-size="14" lengthAdjust="spacing" textLength="104" x="757" y="367.5889">PORT: number</text><rect fill="none" height="6" style="stroke:#C82930;stroke-width:1.0;" width="6" x="745" y="374.8906"/><text fill="#000000" font-family="sans-serif" font-size="14" lengthAdjust="spacing" textLength="587" x="757" y="383.8857">socketIO: Server&lt;DefaultEventsMap, DefaultEventsMap, DefaultEventsMap, any&gt;</text><line style="stroke:#181818;stroke-width:0.5;" x1="738" x2="1349" y1="391.1875" y2="391.1875"/><ellipse cx="748" cy="402.1875" fill="#84BE84" rx="3" ry="3" style="stroke:#038048;stroke-width:1.0;"/><text fill="#000000" font-family="sans-serif" font-size="14" lengthAdjust="spacing" textLength="162" x="757" y="408.1826">bindMiddleware(): void</text><ellipse cx="748" cy="418.4844" fill="#84BE84" rx="3" ry="3" style="stroke:#038048;stroke-width:1.0;"/><text fill="#000000" font-family="sans-serif" font-size="14" lengthAdjust="spacing" textLength="131" x="757" y="424.4795">bindRoutes(): void</text><ellipse cx="748" cy="434.7813" fill="#84BE84" rx="3" ry="3" style="stroke:#038048;stroke-width:1.0;"/><text fill="#000000" font-family="sans-serif" font-size="14" lengthAdjust="spacing" textLength="89" x="757" y="440.7764">listen(): void</text></g><!--MD5=[ce0dd0faff7e4290be38f78548deae28]
reverse link APIResponse to BaseAPIResponse--><g id="link_APIResponse_BaseAPIResponse"><path d="M1744.5,140.46 C1744.5,191.763 1744.5,276.372 1744.5,326.082 " fill="none" id="APIResponse-backto-BaseAPIResponse" style="stroke:#181818;stroke-width:1.0;stroke-dasharray:7.0,7.0;"/><polygon fill="none" points="1737.5,140.401,1744.5,120.401,1751.5,140.401,1737.5,140.401" style="stroke:#181818;stroke-width:1.0;"/></g><!--MD5=[e1c57d8187fee309e35d1432b4d92179]
reverse link IErrorAPIResponse to ErrorAPIResponse--><g id="link_IErrorAPIResponse_ErrorAPIResponse"><path d="M2221.5,140.46 C2221.5,191.763 2221.5,276.372 2221.5,326.082 " fill="none" id="IErrorAPIResponse-backto-ErrorAPIResponse" style="stroke:#181818;stroke-width:1.0;stroke-dasharray:7.0,7.0;"/><polygon fill="none" points="2214.5,140.401,2221.5,120.401,2228.5,140.401,2214.5,140.401" style="stroke:#181818;stroke-width:1.0;"/></g><!--MD5=[3525fb25db052ddd4f2280b92caffe80]
reverse link Error to InvalidCredentialsError--><g id="link_Error_InvalidCredentialsError"><path d="M2435.5,140.594 C2435.5,198.284 2435.5,297.918 2435.5,342.844 " fill="none" id="Error-backto-InvalidCredentialsError" style="stroke:#181818;stroke-width:1.0;"/><polygon fill="none" points="2428.5,140.401,2435.5,120.401,2442.5,140.401,2428.5,140.401" style="stroke:#181818;stroke-width:1.0;"/></g><!--MD5=[bb46dfd9c580a3e2717b4183eb3d6bae]
reverse link Document to IUser--><g id="link_Document_IUser"><path d="M3203.51,411.031 C3211.42,448.767 3223.07,504.402 3232.4,548.924 " fill="none" id="Document-backto-IUser" style="stroke:#181818;stroke-width:1.0;"/><polygon fill="none" points="3196.64,412.359,3199.39,391.348,3210.34,409.488,3196.64,412.359" style="stroke:#181818;stroke-width:1.0;"/></g><!--MD5=[cc0f6a25f10aa9588eeb31621b330f47]
reverse link BaseDAO to UserDAO--><g id="link_BaseDAO_UserDAO"><path d="M2837.5,180.992 C2837.5,217.129 2837.5,258.956 2837.5,293.689 " fill="none" id="BaseDAO-backto-UserDAO" style="stroke:#181818;stroke-width:1.0;"/><polygon fill="none" points="2830.5,180.749,2837.5,160.749,2844.5,180.749,2830.5,180.749" style="stroke:#181818;stroke-width:1.0;"/></g><!--MD5=[196f13d70a9c686a8653b524176cc909]
reverse link BaseAPIResponse to GameStateAPIResponse--><g id="link_BaseAPIResponse_GameStateAPIResponse"><path d="M1690.13,421.733 C1647.4,463.966 1588.07,522.595 1544.84,565.322 " fill="none" id="BaseAPIResponse-backto-GameStateAPIResponse" style="stroke:#181818;stroke-width:1.0;"/><polygon fill="none" points="1685.35,416.611,1704.5,407.531,1695.2,426.569,1685.35,416.611" style="stroke:#181818;stroke-width:1.0;"/></g><!--MD5=[b010dcadbdc598eae2e38350dac10d41]
reverse link IGameStateAPIResponse to GameStateAPIResponse--><g id="link_IGameStateAPIResponse_GameStateAPIResponse"><path d="M1488.5,411.621 C1488.5,454.183 1488.5,519.103 1488.5,565.361 " fill="none" id="IGameStateAPIResponse-backto-GameStateAPIResponse" style="stroke:#181818;stroke-width:1.0;stroke-dasharray:7.0,7.0;"/><polygon fill="none" points="1481.5,411.348,1488.5,391.348,1495.5,411.348,1481.5,411.348" style="stroke:#181818;stroke-width:1.0;"/></g><!--MD5=[dbddce47894df499345ba7c1649242b6]
reverse link BaseAPIResponse to GameCreatedAPIResponse--><g id="link_BaseAPIResponse_GameCreatedAPIResponse"><path d="M1796.8,422.227 C1846.03,473.272 1918.04,547.944 1958.34,589.723 " fill="none" id="BaseAPIResponse-backto-GameCreatedAPIResponse" style="stroke:#181818;stroke-width:1.0;"/><polygon fill="none" points="1791.47,426.786,1782.62,407.531,1801.55,417.068,1791.47,426.786" style="stroke:#181818;stroke-width:1.0;"/></g><!--MD5=[516645d850f298d2f58acdbf87b23bca]
reverse link IGameCreatedAPIResponse to GameCreatedAPIResponse--><g id="link_IGameCreatedAPIResponse_GameCreatedAPIResponse"><path d="M1991.81,411.591 C1991.01,462.422 1989.7,545.171 1988.99,589.914 " fill="none" id="IGameCreatedAPIResponse-backto-GameCreatedAPIResponse" style="stroke:#181818;stroke-width:1.0;stroke-dasharray:7.0,7.0;"/><polygon fill="none" points="1984.82,411.235,1992.13,391.348,1998.81,411.456,1984.82,411.235" style="stroke:#181818;stroke-width:1.0;"/></g><!--MD5=[dabce20145565795d2910467592182e7]
reverse link BaseAPIResponse to LoginAPIResponse--><g id="link_BaseAPIResponse_LoginAPIResponse"><path d="M1745.68,427.578 C1746.68,478.372 1748.08,549.382 1748.88,589.723 " fill="none" id="BaseAPIResponse-backto-LoginAPIResponse" style="stroke:#181818;stroke-width:1.0;"/><polygon fill="none" points="1738.68,427.666,1745.28,407.531,1752.68,427.389,1738.68,427.666" style="stroke:#181818;stroke-width:1.0;"/></g><!--MD5=[9d0e0e25794588a1f1f4daa0452ce53e]
link UserDAO to UserRegistrationFormData--><g id="link_UserDAO_UserRegistrationFormData"><path codeLine="108" d="M2777.6,440.161 C2745.79,478.491 2707.15,525.039 2677.04,561.31 " fill="none" id="UserDAO-to-UserRegistrationFormData" style="stroke:#181818;stroke-width:1.0;"/><polygon fill="#181818" points="2673.79,565.233,2682.6191,560.8688,2676.9861,561.3879,2676.467,555.7549,2673.79,565.233" style="stroke:#181818;stroke-width:1.0;"/><text fill="#000000" font-family="sans-serif" font-size="13" lengthAdjust="spacing" textLength="8" x="2670.9441" y="554.464">1</text></g><!--MD5=[aaad1e90f5f40dabc739494400ef0a38]
link UserDAO to UserLoginFormData--><g id="link_UserDAO_UserLoginFormData"><path codeLine="109" d="M2851.48,440.161 C2859.98,484.052 2870.56,538.717 2877.86,576.39 " fill="none" id="UserDAO-to-UserLoginFormData" style="stroke:#181818;stroke-width:1.0;"/><polygon fill="#181818" points="2878.82,581.359,2881.0364,571.7628,2877.8696,576.4502,2873.1822,573.2834,2878.82,581.359" style="stroke:#181818;stroke-width:1.0;"/><text fill="#000000" font-family="sans-serif" font-size="13" lengthAdjust="spacing" textLength="8" x="2868.8855" y="570.4972">1</text></g><!--MD5=[96885a4f3707d006b28d97f18c90c433]
link UserDAO to IUser--><g id="link_UserDAO_IUser"><path codeLine="110" d="M2954.44,440.161 C3008.2,473.332 3071.93,512.658 3126.2,546.152 " fill="none" id="UserDAO-to-IUser" style="stroke:#181818;stroke-width:1.0;"/><polygon fill="#181818" points="3130.76,548.962,3125.2048,540.8293,3126.506,546.3345,3121.0009,547.6357,3130.76,548.962" style="stroke:#181818;stroke-width:1.0;"/><text fill="#000000" font-family="sans-serif" font-size="13" lengthAdjust="spacing" textLength="8" x="3110.3087" y="537.7415">1</text></g><!--MD5=[43b6bc7d53b0d6f6163476bca84044f4]
link ChessGame to IUser--><g id="link_ChessGame_IUser"><path codeLine="111" d="M3401.05,489.313 C3378.64,508.534 3356.04,527.916 3335.33,545.678 " fill="none" id="ChessGame-to-IUser" style="stroke:#181818;stroke-width:1.0;"/><polygon fill="#181818" points="3331.48,548.975,3340.9144,546.1479,3335.2739,545.7182,3335.7035,540.0777,3331.48,548.975" style="stroke:#181818;stroke-width:1.0;"/><text fill="#000000" font-family="sans-serif" font-size="13" lengthAdjust="spacing" textLength="8" x="3331.7279" y="537.7559">1</text></g><!--MD5=[6e48ab96de9c99c4f399978a742aafcc]
link GameManager to ChessGame--><g id="link_GameManager_ChessGame"><path codeLine="112" d="M3530.45,185.081 C3529.9,202.588 3529.68,221.291 3529.77,239.785 " fill="none" id="GameManager-to-ChessGame" style="stroke:#181818;stroke-width:1.0;"/><polygon fill="#181818" points="3529.81,244.994,3533.7482,235.9668,3529.7757,239.9941,3525.7484,236.0216,3529.81,244.994" style="stroke:#181818;stroke-width:1.0;"/><text fill="#000000" font-family="sans-serif" font-size="13" lengthAdjust="spacing" textLength="7" x="3521.7728" y="233.7827">*</text></g><!--MD5=[6e48ab96de9c99c4f399978a742aafcc]
link GameManager to ChessGame--><g id="link_GameManager_ChessGame"><path codeLine="113" d="M3555.26,185.081 C3555.84,202.588 3556.08,221.291 3555.98,239.785 " fill="none" id="GameManager-to-ChessGame-1" style="stroke:#181818;stroke-width:1.0;"/><polygon fill="#181818" points="3555.94,244.994,3560.0042,236.0228,3555.9757,239.9941,3552.0044,235.9657,3555.94,244.994" style="stroke:#181818;stroke-width:1.0;"/><text fill="#000000" font-family="sans-serif" font-size="13" lengthAdjust="spacing" textLength="8" x="3548.5448" y="233.7827">1</text></g><!--MD5=[be5da5e25ff228029ca0ec5134230a67]
link GameManager to IUser--><g id="link_GameManager_IUser"><path codeLine="114" d="M3391,185.035 C3369.93,202.648 3350.43,222.699 3335.5,245 C3303.16,293.298 3274.26,448.67 3258.97,543.908 " fill="none" id="GameManager-to-IUser" style="stroke:#181818;stroke-width:1.0;"/><polygon fill="#181818" points="3258.17,548.962,3263.5417,540.707,3258.96,544.0248,3255.6422,539.4431,3258.17,548.962" style="stroke:#181818;stroke-width:1.0;"/><text fill="#000000" font-family="sans-serif" font-size="13" lengthAdjust="spacing" textLength="8" x="3250.8578" y="537.7415">1</text></g><!--MD5=[59790f2376350f9ccb3df3b56af96b2c]
link DatabaseConnector to ArrayUtils--></g></svg>